<svg width="64" height="64" viewBox="0 0 64 64" fill="none" xmlns="http://www.w3.org/2000/svg">
<g id="jSopX Logo Color Dark">
<path d="M1 16C1 14.3431 2.34315 13 4 13H60C61.6569 13 63 14.3431 63 16V56C63 57.6569 61.6569 59 60 59H4C2.34315 59 1 57.6569 1 56V16Z" fill="url(#paint0_linear_3840_348)"/>
<path d="M46.4 53.33C46.4 52.7777 46.8477 52.33 47.4 52.33H58.4C58.9523 52.33 59.4 52.7777 59.4 53.33V60.33C59.4 60.8823 58.9523 61.33 58.4 61.33H47.4C46.8477 61.33 46.4 60.8823 46.4 60.33V53.33Z" fill="url(#paint1_linear_3840_348)"/>
<path d="M21.6733 48.6805C21.7819 48.139 22.309 47.7881 22.8505 47.8968L29.3748 49.2059C29.9162 49.3146 30.2671 49.8417 30.1585 50.3831L27.7863 62.205C27.6776 62.7465 27.1506 63.0974 26.6091 62.9887L20.0848 61.6795C19.5433 61.5709 19.1924 61.0438 19.301 60.5023L21.6733 48.6805Z" fill="url(#paint2_linear_3840_348)"/>
<path d="M32.7249 48.928C32.9307 48.4155 33.5129 48.1668 34.0255 48.3725L45.6259 53.0287C46.1384 53.2344 46.3872 53.8166 46.1814 54.3292L42.829 62.6815C42.6233 63.194 42.041 63.4428 41.5285 63.237L29.928 58.5809C29.4155 58.3752 29.1668 57.7929 29.3725 57.2803L32.7249 48.928Z" fill="url(#paint3_linear_3840_348)"/>
<path d="M4.8 53.8C4.8 53.2477 5.24772 52.8 5.8 52.8H18.3C18.8523 52.8 19.3 53.2477 19.3 53.8V59.8C19.3 60.3523 18.8523 60.8 18.3 60.8H5.8C5.24772 60.8 4.8 60.3523 4.8 59.8V53.8Z" fill="url(#paint4_linear_3840_348)"/>
<path d="M20.8324 10.8486L51.8189 3.06535L52.761 11.9912L20.8324 10.8486Z" fill="#616569"/>
<path fill-rule="evenodd" clip-rule="evenodd" d="M56 6.00295C56 2.09953 52.3317 -0.764619 48.5448 0.182101L5.72991 10.8858C2.54155 11.0271 0 13.6566 0 16.8798V52.8798C0 55.1436 1.25366 57.1145 3.10457 58.1363C3.10154 58.0912 3.1 58.0458 3.1 58V52C3.1 51.3018 3.45778 50.6871 4 50.3294V47.584C2.2341 46.8124 1 45.0503 1 43C1 40.9497 2.2341 39.1876 4 38.416V35.584C2.2341 34.8124 1 33.0503 1 31C1 28.9497 2.2341 27.1876 4 26.416V23.584C2.2341 22.8124 1 21.0503 1 19C1 16.2386 3.23858 14 6 14C7.05203 14 8.02817 14.3249 8.83355 14.8798H55.1665C55.9718 14.3249 56.948 14 58 14C60.7614 14 63 16.2386 63 19C63 21.0503 61.7659 22.8124 60 23.584V26.416C61.7659 27.1876 63 28.9497 63 31C63 33.0503 61.7659 34.8124 60 35.584V38.416C61.7659 39.1876 63 40.9497 63 43C63 45.0503 61.7659 46.8124 60 47.584V50.3294C60.5422 50.6871 60.9 51.3018 60.9 52V58C60.9 58.0458 60.8985 58.0912 60.8954 58.1363C62.7463 57.1145 64 55.1436 64 52.8798V16.8798C64 13.5661 61.3137 10.8798 58 10.8798H56V6.00295ZM52 10.8798H22.2462L49.5149 4.06267C50.7772 3.7471 52 4.70181 52 6.00295V10.8798Z" fill="#212529"/>
<path d="M29.3168 49.2522C29.8583 49.3607 30.2093 49.8876 30.1008 50.4292L27.7433 62.1953C27.6348 62.7368 27.1078 63.0879 26.5663 62.9794L20.6832 61.8006C20.1417 61.6921 19.7907 61.1651 19.8992 60.6236L22.2567 48.8575C22.3652 48.316 22.8922 47.9649 23.4337 48.0734L29.3168 49.2522ZM23.6302 47.0929C22.5471 46.8759 21.4932 47.578 21.2762 48.661L18.9187 60.4272C18.7017 61.5102 19.4037 62.5641 20.4868 62.7811L26.3698 63.9599C27.4529 64.1769 28.5068 63.4748 28.7238 62.3918L31.0813 50.6256C31.2983 49.5426 30.5963 48.4887 29.5132 48.2717L23.6302 47.0929Z" fill="#212529"/>
<path d="M23.8212 61.4095C24.3628 61.518 24.8897 61.1669 24.9982 60.6254C25.1067 60.0839 24.7557 59.5569 24.2142 59.4484C23.6726 59.3399 23.1457 59.691 23.0372 60.2325C22.9287 60.774 23.2797 61.301 23.8212 61.4095Z" fill="#212529"/>
<path d="M32.9637 49.5277C33.167 49.0142 33.748 48.7627 34.2615 48.9659L45.4191 53.3828C45.9326 53.586 46.1841 54.1671 45.9809 54.6806L43.0363 62.119C42.833 62.6325 42.252 62.884 41.7385 62.6807L30.5809 58.2639C30.0674 58.0606 29.8159 57.4796 30.0191 56.9661L32.9637 49.5277ZM29.0893 56.598C28.6828 57.625 29.1858 58.7872 30.2128 59.1937L41.3704 63.6105C42.3974 64.0171 43.5596 63.5141 43.9661 62.4871L46.9107 55.0487C47.3172 54.0217 46.8142 52.8595 45.7872 52.453L34.6296 48.0361C33.6026 47.6296 32.4404 48.1326 32.0339 49.1596L29.0893 56.598Z" fill="#212529"/>
<path d="M43.5788 58.0317C43.7821 57.5182 43.5306 56.9372 43.0171 56.7339C42.5035 56.5306 41.9225 56.7821 41.7192 57.2956C41.5159 57.8091 41.7674 58.3902 42.2809 58.5935C42.7944 58.7968 43.3755 58.5453 43.5788 58.0317Z" fill="#212529"/>
<path fill-rule="evenodd" clip-rule="evenodd" d="M6 51.8C4 51.8 4 53.8 4 53.8V59.8C4 61.8 6 61.8 6 61.8H10C10 62.4667 9.91667 62.9667 9.75 63.3H9C8.72386 63.3 8.5 63.5239 8.5 63.8H15.5C15.5 63.5239 15.2761 63.3 15 63.3H14.25C14.0833 62.9667 14 62.4667 14 61.8H18C20 61.8 20 59.8 20 59.8V53.8C20 51.8 18 51.8 18 51.8H6ZM5.39845 52.9445C5.49771 52.8784 5.67498 52.8 6 52.8H17.991C17.995 52.8002 18.003 52.8005 18.0147 52.8014C18.0428 52.8034 18.0895 52.8079 18.1481 52.8176C18.2701 52.838 18.4175 52.8768 18.5528 52.9444C18.6842 53.0101 18.7851 53.0929 18.8554 53.1984C18.9216 53.2977 19 53.475 19 53.8V59.791C18.9998 59.795 18.9995 59.803 18.9986 59.8147C18.9966 59.8428 18.9921 59.8895 18.9824 59.9481C18.962 60.0701 18.9232 60.2175 18.8556 60.3528C18.7899 60.4842 18.7071 60.5851 18.6016 60.6554C18.5023 60.7216 18.325 60.8 18 60.8H6.00903C6.00504 60.7998 5.99697 60.7995 5.98531 60.7986C5.95721 60.7966 5.91053 60.7921 5.8519 60.7824C5.72989 60.762 5.5825 60.7232 5.44721 60.6556C5.31584 60.5899 5.21489 60.5071 5.14455 60.4016C5.07838 60.3023 5 60.125 5 59.8V53.809C5.00016 53.805 5.00053 53.797 5.00136 53.7853C5.00337 53.7572 5.00787 53.7105 5.01764 53.6519C5.03798 53.5299 5.07678 53.3825 5.14443 53.2472C5.21011 53.1158 5.29294 53.0149 5.39845 52.9445Z" fill="#212529"/>
<path d="M58.5 52.8C58.7761 52.8 59 53.0239 59 53.3V60.8H47V53.3C47 53.0239 47.2239 52.8 47.5 52.8H58.5ZM47.5 51.8C46.6716 51.8 46 52.4716 46 53.3V61.8H60V53.3C60 52.4716 59.3284 51.8 58.5 51.8H47.5Z" fill="#212529"/>
<path d="M45 62.3H61C61 63.1284 60.3284 63.8 59.5 63.8H46.5C45.6716 63.8 45 63.1284 45 62.3Z" fill="#212529"/>
<path d="M5.35228 19.0693C5.3819 19.0249 5.38002 18.9666 5.34761 18.9241C5.3152 18.8817 5.2594 18.8645 5.20874 18.8814L4.45874 19.1314L4.5378 19.3686L4.94218 19.2338L4.64427 19.6807C4.61464 19.7251 4.61652 19.7834 4.64893 19.8259C4.68135 19.8683 4.73714 19.8855 4.7878 19.8686L5.19218 19.7338L4.89427 20.1807C4.86464 20.2251 4.86652 20.2834 4.89893 20.3259C4.93135 20.3683 4.98714 20.3855 5.0378 20.3686L5.7878 20.1186L5.70874 19.8814L5.30436 20.0162L5.60228 19.5693C5.6319 19.5249 5.63002 19.4666 5.59761 19.4241C5.5652 19.3817 5.5094 19.3645 5.45874 19.3814L5.05436 19.5162L5.35228 19.0693Z" fill="#212529"/>
<path d="M6 23C8.20914 23 10 21.2091 10 19C10 16.7909 8.20914 15 6 15C3.79086 15 2 16.7909 2 19C2 21.2091 3.79086 23 6 23ZM2.89899 20.6244L3.89312 19.796C3.7995 19.5485 3.74827 19.2802 3.74827 19C3.74827 17.7574 4.75563 16.75 5.99827 16.75C6.65723 16.75 7.25003 17.0333 7.66153 17.4847L5.74827 18.25L6.24827 19.5L6.91489 21.0554C6.63492 21.1805 6.32471 21.25 5.99827 21.25C5.71803 21.25 5.44976 21.1988 5.20231 21.1052L4.37339 22.0999C3.74482 21.7693 3.22907 21.2532 2.89899 20.6244ZM8.24827 19C8.24827 19.7142 7.91553 20.3506 7.39662 20.7628L6.74827 19.25L8.2278 18.6952C8.2413 18.7949 8.24827 18.8966 8.24827 19Z" fill="#212529"/>
<path fill-rule="evenodd" clip-rule="evenodd" d="M5.86014 34.951C8.11949 34.951 9.95105 33.1195 9.95105 30.8601C9.95105 28.6008 8.11949 26.7692 5.86014 26.7692C3.60079 26.7692 1.76923 28.6008 1.76923 30.8601C1.76923 33.1195 3.60079 34.951 5.86014 34.951ZM6.9583 28.0756C6.99429 27.9599 6.92864 27.8373 6.81167 27.8017C6.6947 27.7661 6.5707 27.831 6.53471 27.9467L4.76199 33.6447C4.726 33.7603 4.79164 33.883 4.90861 33.9186C5.02558 33.9542 5.14958 33.8892 5.18557 33.7736L6.9583 28.0756ZM4.46569 29.1711C4.55223 29.2567 4.55223 29.3955 4.46569 29.481L3.07124 30.8601L4.46569 32.2392C4.55223 32.3248 4.55223 32.4636 4.46569 32.5492C4.37915 32.6347 4.23885 32.6347 4.15231 32.5492L2.60118 31.0151C2.51464 30.9295 2.51464 30.7908 2.60118 30.7052L4.15231 29.1711C4.23885 29.0855 4.37915 29.0855 4.46569 29.1711ZM7.25458 29.481C7.16805 29.3955 7.16805 29.2567 7.25458 29.1711C7.34112 29.0855 7.48142 29.0855 7.56796 29.1711L9.1191 30.7052C9.20564 30.7908 9.20564 30.9295 9.1191 31.0151L7.56796 32.5492C7.48142 32.6347 7.34112 32.6347 7.25458 32.5492C7.16805 32.4636 7.16805 32.3248 7.25458 32.2392L8.64903 30.8601L7.25458 29.481Z" fill="#212529"/>
<path d="M5.375 41.375C5.375 40.9953 5.6828 40.6875 6.0625 40.6875C6.4422 40.6875 6.75 40.9953 6.75 41.375V42.0625H5.375V41.375Z" fill="#212529"/>
<path fill-rule="evenodd" clip-rule="evenodd" d="M6 47C8.20914 47 10 45.2091 10 43C10 40.7909 8.20914 39 6 39C3.79086 39 2 40.7909 2 43C2 45.2091 3.79086 47 6 47ZM7.4375 42.115V41.375C7.4375 40.6156 6.82189 40 6.0625 40C5.30311 40 4.6875 40.6156 4.6875 41.375V42.115C4.31677 42.2292 4 42.5253 4 42.9562V44.6062C4 45.1675 4.53725 45.5 5.03125 45.5H7.09375C7.58775 45.5 8.125 45.1675 8.125 44.6062V42.9562C8.125 42.5253 7.80823 42.2292 7.4375 42.115Z" fill="#212529"/>
<path fill-rule="evenodd" clip-rule="evenodd" d="M58 47C60.2091 47 62 45.2091 62 43C62 40.7909 60.2091 39 58 39C55.7909 39 54 40.7909 54 43C54 45.2091 55.7909 47 58 47ZM58.0354 42.1777L57.2219 40.5234H55.8513L57.2424 42.9912L55.8137 45.5H57.1979L58.0354 43.8149L58.8728 45.5H60.2536L58.8283 42.9912L60.216 40.5234H58.8488L58.0354 42.1777Z" fill="#212529"/>
<path d="M57.5868 31.0722C57.626 31.1526 57.6796 31.2186 57.7475 31.2703C57.8432 31.3432 57.973 31.3797 58.1371 31.3797C58.2465 31.3797 58.3376 31.3546 58.4105 31.3045C58.4835 31.2521 58.5416 31.1803 58.5849 31.0892C58.6282 30.9957 58.6589 30.8886 58.6771 30.7679C58.6954 30.6471 58.7045 30.5172 58.7045 30.3782V30.3064C58.7045 30.1629 58.6942 30.0319 58.6737 29.9134C58.6532 29.7926 58.6202 29.6878 58.5746 29.5989C58.5313 29.5101 58.4732 29.4417 58.4003 29.3938C58.3274 29.346 58.2374 29.3221 58.1303 29.3221C58.0072 29.3221 57.9035 29.3414 57.8192 29.3802C57.7372 29.4166 57.6711 29.4736 57.621 29.5511C57.6087 29.5704 57.5973 29.591 57.5868 29.6129V31.0722Z" fill="#212529"/>
<path fill-rule="evenodd" clip-rule="evenodd" d="M58 35C60.2091 35 62 33.2091 62 31C62 28.7909 60.2091 27 58 27C55.7909 27 54 28.7909 54 31C54 33.2091 55.7909 35 58 35ZM57.5868 31.8995V33.6219H56.435V28.5018H57.5082L57.5459 28.8423C57.6331 28.7343 57.7333 28.6459 57.8466 28.5769C58.0061 28.4812 58.1964 28.4334 58.4174 28.4334C58.6521 28.4334 58.8583 28.4778 59.036 28.5667C59.216 28.6556 59.3664 28.7832 59.4872 28.9495C59.6103 29.1136 59.7025 29.3107 59.7641 29.5408C59.8256 29.771 59.8563 30.0262 59.8563 30.3064V30.3782C59.8563 30.6471 59.8256 30.8966 59.7641 31.1268C59.7025 31.3569 59.6114 31.5574 59.4906 31.7283C59.3699 31.8992 59.2195 32.0325 59.0395 32.1282C58.8617 32.2216 58.6555 32.2684 58.4208 32.2684C58.1998 32.2684 58.0095 32.2194 57.85 32.1214C57.7525 32.0615 57.6647 31.9875 57.5868 31.8995Z" fill="#212529"/>
<path d="M57.3234 19.0297V18.9477C57.3234 18.794 57.3352 18.6495 57.3586 18.5141C57.382 18.376 57.4211 18.2549 57.4758 18.1508C57.5305 18.044 57.6034 17.9607 57.6945 17.9008C57.7883 17.8409 57.9042 17.8109 58.0422 17.8109C58.1828 17.8109 58.3 17.8409 58.3937 17.9008C58.4875 17.9607 58.5617 18.044 58.6164 18.1508C58.6711 18.2549 58.7102 18.376 58.7336 18.5141C58.757 18.6495 58.7687 18.794 58.7687 18.9477V19.0297C58.7687 19.1885 58.757 19.337 58.7336 19.475C58.7102 19.613 58.6711 19.7341 58.6164 19.8383C58.5617 19.9398 58.4875 20.0193 58.3937 20.0766C58.3026 20.1338 58.188 20.1625 58.05 20.1625C57.9094 20.1625 57.7922 20.1338 57.6984 20.0766C57.6047 20.0193 57.5305 19.9398 57.4758 19.8383C57.4211 19.7341 57.382 19.613 57.3586 19.475C57.3352 19.337 57.3234 19.1885 57.3234 19.0297Z" fill="#212529"/>
<path fill-rule="evenodd" clip-rule="evenodd" d="M58 23C60.2091 23 62 21.2091 62 19C62 16.7909 60.2091 15 58 15C55.7909 15 54 16.7909 54 19C54 21.2091 55.7909 23 58 23ZM56.007 18.9477V19.0297C56.007 19.337 56.0513 19.6221 56.1398 19.8852C56.2284 20.1456 56.3586 20.3734 56.5305 20.5687C56.7023 20.7615 56.9159 20.9112 57.1711 21.018C57.4263 21.1247 57.7193 21.1781 58.05 21.1781C58.3807 21.1781 58.6724 21.1247 58.925 21.018C59.1776 20.9112 59.3898 20.7615 59.5617 20.5687C59.7336 20.3734 59.8638 20.1456 59.9523 19.8852C60.0409 19.6221 60.0852 19.337 60.0852 19.0297V18.9477C60.0852 18.6378 60.0409 18.3526 59.9523 18.0922C59.8638 17.8292 59.7336 17.6013 59.5617 17.4086C59.3898 17.2159 59.1763 17.0661 58.9211 16.9594C58.6685 16.85 58.3755 16.7953 58.0422 16.7953C57.7115 16.7953 57.4198 16.85 57.1672 16.9594C56.9146 17.0661 56.7023 17.2159 56.5305 17.4086C56.3586 17.6013 56.2284 17.8292 56.1398 18.0922C56.0513 18.3526 56.007 18.6378 56.007 18.9477Z" fill="#212529"/>
<path d="M23.1182 35.6362V19.5391H28.7578V35.6362C28.7578 37.2046 28.3979 38.5635 27.6782 39.7129C26.9692 40.8623 26.0024 41.7539 24.7778 42.3877C23.564 43.0107 22.1997 43.3223 20.6851 43.3223C19.1167 43.3223 17.7202 43.0591 16.4956 42.5327C15.2817 42.0063 14.3257 41.1953 13.6274 40.0996C12.9399 39.0039 12.5962 37.6074 12.5962 35.9102H18.2681C18.2681 36.7051 18.3594 37.3281 18.542 37.7793C18.7246 38.2197 18.9932 38.5312 19.3477 38.7139C19.7129 38.8857 20.1587 38.9717 20.6851 38.9717C21.2007 38.9717 21.6357 38.8428 21.9902 38.585C22.3555 38.3164 22.6348 37.9351 22.8281 37.4409C23.0215 36.936 23.1182 36.3345 23.1182 35.6362Z" fill="#212529"/>
<path d="M44.436 36.7642C44.436 36.3989 44.3823 36.0713 44.2749 35.7812C44.1675 35.4805 43.9688 35.2012 43.6787 34.9434C43.3887 34.6855 42.9697 34.4277 42.4219 34.1699C41.8848 33.9014 41.1758 33.6221 40.2949 33.332C39.2637 32.9883 38.27 32.6016 37.314 32.1719C36.3579 31.7314 35.5039 31.2212 34.752 30.6411C34 30.0503 33.4038 29.3628 32.9634 28.5786C32.5229 27.7837 32.3027 26.8599 32.3027 25.8071C32.3027 24.7974 32.5283 23.8896 32.9795 23.084C33.4307 22.2676 34.0591 21.5747 34.8647 21.0054C35.6812 20.4253 36.6372 19.9849 37.7329 19.6841C38.8286 19.3726 40.0264 19.2168 41.3262 19.2168C43.0449 19.2168 44.5596 19.5176 45.8701 20.1191C47.1914 20.71 48.2227 21.5532 48.9639 22.6489C49.7158 23.7339 50.0918 25.0176 50.0918 26.5H44.4683C44.4683 25.9092 44.3447 25.3882 44.0977 24.937C43.8613 24.4858 43.5015 24.1313 43.0181 23.8735C42.5347 23.6157 41.9277 23.4868 41.1973 23.4868C40.4883 23.4868 39.8921 23.5942 39.4087 23.8091C38.9253 24.0239 38.5601 24.314 38.313 24.6792C38.0659 25.0337 37.9424 25.4258 37.9424 25.8555C37.9424 26.21 38.0391 26.5322 38.2324 26.8223C38.4365 27.1016 38.7212 27.3647 39.0864 27.6118C39.4624 27.8589 39.9136 28.0952 40.4399 28.3208C40.9771 28.5464 41.5786 28.7666 42.2446 28.9814C43.4907 29.3789 44.5972 29.8247 45.564 30.3188C46.5415 30.8022 47.3633 31.3555 48.0293 31.9785C48.7061 32.5908 49.2163 33.2891 49.5601 34.0732C49.9146 34.8574 50.0918 35.7436 50.0918 36.7319C50.0918 37.7847 49.8877 38.7192 49.4795 39.5356C49.0713 40.352 48.4858 41.0449 47.7231 41.6143C46.9604 42.1728 46.0474 42.5972 44.9839 42.8872C43.9204 43.1772 42.7334 43.3223 41.4229 43.3223C40.2197 43.3223 39.0327 43.1719 37.8618 42.8711C36.7017 42.5596 35.6489 42.0869 34.7036 41.4531C33.7583 40.8086 33.001 39.9868 32.4316 38.9878C31.873 37.978 31.5938 36.7803 31.5938 35.3945H37.2656C37.2656 36.082 37.3569 36.6621 37.5396 37.1348C37.7222 37.6074 37.9907 37.9888 38.3452 38.2788C38.6997 38.5581 39.1348 38.7622 39.6504 38.8911C40.166 39.0093 40.7568 39.0684 41.4229 39.0684C42.1426 39.0684 42.7227 38.9663 43.1631 38.7622C43.6035 38.5474 43.9258 38.2681 44.1299 37.9243C44.334 37.5698 44.436 37.1831 44.436 36.7642Z" fill="#212529"/>
</g>
<defs>
<linearGradient id="paint0_linear_3840_348" x1="32" y1="0" x2="32" y2="63.9992" gradientUnits="userSpaceOnUse">
<stop stop-color="#0F53B8"/>
<stop offset="1" stop-color="#0D6EFD"/>
</linearGradient>
<linearGradient id="paint1_linear_3840_348" x1="32" y1="0" x2="32" y2="63.9992" gradientUnits="userSpaceOnUse">
<stop stop-color="#616569"/>
<stop offset="1" stop-color="#8B8E92"/>
</linearGradient>
<linearGradient id="paint2_linear_3840_348" x1="32" y1="0" x2="32" y2="63.9992" gradientUnits="userSpaceOnUse">
<stop stop-color="#616569"/>
<stop offset="1" stop-color="#8B8E92"/>
</linearGradient>
<linearGradient id="paint3_linear_3840_348" x1="32" y1="0" x2="32" y2="63.9992" gradientUnits="userSpaceOnUse">
<stop stop-color="#616569"/>
<stop offset="1" stop-color="#8B8E92"/>
</linearGradient>
<linearGradient id="paint4_linear_3840_348" x1="32" y1="0" x2="32" y2="63.9992" gradientUnits="userSpaceOnUse">
<stop stop-color="#616569"/>
<stop offset="1" stop-color="#8B8E92"/>
</linearGradient>
</defs>
</svg>
