<svg width="64" height="64" viewBox="0 0 64 64" fill="none" xmlns="http://www.w3.org/2000/svg">
<g id="jSopX Logo White Header ">
<g id="Vector">
<path d="M54 12.5H20.5L19 9.5L49 2.5H51.5L54 3.5V12.5Z" fill="white"/>
<path d="M1 17C1 15.3431 2.34315 14 4 14H60C61.6569 14 63 15.3431 63 17V61C63 62.6569 61.6569 64 60 64H4C2.34315 64 1 62.6569 1 61V17Z" fill="white"/>
<path fill-rule="evenodd" clip-rule="evenodd" d="M56 6.00303C56 2.09955 52.3317 -0.764629 48.5448 0.182103L5.72991 10.886C2.54155 11.0272 0 13.6568 0 16.8801V52.8805C0 55.1443 1.25366 57.1152 3.10457 58.137C3.10154 58.0919 3.1 58.0465 3.1 58.0007V56V52.0006C3.1 51.3024 3.45778 50.6878 4 50.33V47.5845C2.2341 46.813 1 45.0509 1 43.0005C1 40.9502 2.2341 39.1881 4 38.4165V35.5844C2.2341 34.8128 1 33.0507 1 31.0004C1 28.95 2.2341 27.1879 4 26.4164V23.5842C2.2341 22.8127 1 21.0506 1 19.0002C1 16.2388 3.23858 14.0002 6 14.0002C7.05203 14.0002 8.02817 14.3251 8.83355 14.88H55.1665C55.9718 14.3251 56.948 14.0002 58 14.0002C60.7614 14.0002 63 16.2388 63 19.0002C63 21.0506 61.7659 22.8127 60 23.5842V26.4164C61.7659 27.1879 63 28.95 63 31.0004C63 33.0507 61.7659 34.8128 60 35.5844V38.4165C61.7659 39.1881 63 40.9502 63 43.0005C63 45.0509 61.7659 46.813 60 47.5845V50.33C60.5422 50.6878 60.9 51.3024 60.9 52.0006V56V58.0007C60.9 58.0465 60.8985 58.0919 60.8954 58.137C62.7463 57.1152 64 55.1443 64 52.8805V16.8801C64 13.5663 61.3137 10.88 58 10.88H56V6.00303ZM52 10.88H22.2462L49.5149 4.06272C50.7772 3.74714 52 4.70187 52 6.00303V10.88Z" fill="white"/>
<path fill-rule="evenodd" clip-rule="evenodd" d="M56 6.00303C56 2.09955 52.3317 -0.764629 48.5448 0.182103L5.72991 10.886C2.54155 11.0272 0 13.6568 0 16.8801V52.8805C0 55.1443 1.25366 57.1152 3.10457 58.137C3.10154 58.0919 3.1 58.0465 3.1 58.0007V56V52.0006C3.1 51.3024 3.45778 50.6878 4 50.33V47.5845C2.2341 46.813 1 45.0509 1 43.0005C1 40.9502 2.2341 39.1881 4 38.4165V35.5844C2.2341 34.8128 1 33.0507 1 31.0004C1 28.95 2.2341 27.1879 4 26.4164V23.5842C2.2341 22.8127 1 21.0506 1 19.0002C1 16.2388 3.23858 14.0002 6 14.0002C7.05203 14.0002 8.02817 14.3251 8.83355 14.88H55.1665C55.9718 14.3251 56.948 14.0002 58 14.0002C60.7614 14.0002 63 16.2388 63 19.0002C63 21.0506 61.7659 22.8127 60 23.5842V26.4164C61.7659 27.1879 63 28.95 63 31.0004C63 33.0507 61.7659 34.8128 60 35.5844V38.4165C61.7659 39.1881 63 40.9502 63 43.0005C63 45.0509 61.7659 46.813 60 47.5845V50.33C60.5422 50.6878 60.9 51.3024 60.9 52.0006V56V58.0007C60.9 58.0465 60.8985 58.0919 60.8954 58.137C62.7463 57.1152 64 55.1443 64 52.8805V16.8801C64 13.5663 61.3137 10.88 58 10.88H56V6.00303ZM52 10.88H22.2462L49.5149 4.06272C50.7772 3.74714 52 4.70187 52 6.00303V10.88Z" fill="black"/>
<path d="M29.3168 49.2528C29.8583 49.3613 30.2093 49.8882 30.1008 50.4298L27.7433 62.1961C27.6348 62.7376 27.1078 63.0886 26.5663 62.9801L20.6832 61.8013C20.1417 61.6928 19.7907 61.1659 19.8992 60.6243L22.2567 48.8581C22.3652 48.3165 22.8922 47.9655 23.4337 48.074L29.3168 49.2528ZM23.6302 47.0935C22.5471 46.8765 21.4932 47.5785 21.2762 48.6616L20 55.0311L18.9187 60.4279C18.7017 61.5109 19.4037 62.5648 20.4868 62.7819L26.3698 63.9606C27.4529 64.1776 28.5068 63.4756 28.7238 62.3925L30.6998 52.5303L31.0813 50.6262C31.2983 49.5432 30.5963 48.4893 29.5132 48.2723L23.6302 47.0935Z" fill="white"/>
<path d="M29.3168 49.2528C29.8583 49.3613 30.2093 49.8882 30.1008 50.4298L27.7433 62.1961C27.6348 62.7376 27.1078 63.0886 26.5663 62.9801L20.6832 61.8013C20.1417 61.6928 19.7907 61.1659 19.8992 60.6243L22.2567 48.8581C22.3652 48.3165 22.8922 47.9655 23.4337 48.074L29.3168 49.2528ZM23.6302 47.0935C22.5471 46.8765 21.4932 47.5785 21.2762 48.6616L20 55.0311L18.9187 60.4279C18.7017 61.5109 19.4037 62.5648 20.4868 62.7819L26.3698 63.9606C27.4529 64.1776 28.5068 63.4756 28.7238 62.3925L30.6998 52.5303L31.0813 50.6262C31.2983 49.5432 30.5963 48.4893 29.5132 48.2723L23.6302 47.0935Z" fill="black"/>
<path d="M23.8212 61.4102C24.3628 61.5187 24.8897 61.1677 24.9982 60.6261C25.1067 60.0846 24.7557 59.5577 24.2142 59.4492C23.6726 59.3407 23.1457 59.6917 23.0372 60.2332C22.9287 60.7747 23.2797 61.3017 23.8212 61.4102Z" fill="white"/>
<path d="M23.8212 61.4102C24.3628 61.5187 24.8897 61.1677 24.9982 60.6261C25.1067 60.0846 24.7557 59.5577 24.2142 59.4492C23.6726 59.3407 23.1457 59.6917 23.0372 60.2332C22.9287 60.7747 23.2797 61.3017 23.8212 61.4102Z" fill="black"/>
<path d="M32.9637 49.5283C33.167 49.0147 33.748 48.7632 34.2615 48.9665L45.4191 53.3834C45.7051 53.4966 45.9098 53.727 46 53.9977C46.0662 54.1965 46.0706 54.417 46 54.6288C45.9941 54.6463 45.9878 54.6638 45.9809 54.6813L43.0363 62.1198C42.833 62.6333 42.252 62.8848 41.7385 62.6815L30.5809 58.2646C30.0674 58.0613 29.8159 57.4803 30.0191 56.9667L32.9637 49.5283ZM29.0893 56.5987C28.6828 57.6257 29.1858 58.7879 30.2128 59.1944L41.3704 63.6113C42.3974 64.0179 43.5596 63.5149 43.9661 62.4878L46.9107 55.0494C46.948 54.955 46.9777 54.8595 47 54.7635C47.0704 54.4607 47.0672 54.1534 47 53.8633C46.8861 53.3717 46.588 52.9296 46.1516 52.6427C46.0391 52.5688 45.9173 52.5051 45.7872 52.4536L34.6296 48.0367C33.6026 47.6302 32.4404 48.1331 32.0339 49.1602L30.6998 52.5303L29.0893 56.5987Z" fill="white"/>
<path d="M32.9637 49.5283C33.167 49.0147 33.748 48.7632 34.2615 48.9665L45.4191 53.3834C45.7051 53.4966 45.9098 53.727 46 53.9977C46.0662 54.1965 46.0706 54.417 46 54.6288C45.9941 54.6463 45.9878 54.6638 45.9809 54.6813L43.0363 62.1198C42.833 62.6333 42.252 62.8848 41.7385 62.6815L30.5809 58.2646C30.0674 58.0613 29.8159 57.4803 30.0191 56.9667L32.9637 49.5283ZM29.0893 56.5987C28.6828 57.6257 29.1858 58.7879 30.2128 59.1944L41.3704 63.6113C42.3974 64.0179 43.5596 63.5149 43.9661 62.4878L46.9107 55.0494C46.948 54.955 46.9777 54.8595 47 54.7635C47.0704 54.4607 47.0672 54.1534 47 53.8633C46.8861 53.3717 46.588 52.9296 46.1516 52.6427C46.0391 52.5688 45.9173 52.5051 45.7872 52.4536L34.6296 48.0367C33.6026 47.6302 32.4404 48.1331 32.0339 49.1602L30.6998 52.5303L29.0893 56.5987Z" fill="black"/>
<path d="M43.5788 58.0324C43.7821 57.5189 43.5306 56.9378 43.0171 56.7346C42.5035 56.5313 41.9225 56.7828 41.7192 57.2963C41.5159 57.8098 41.7674 58.3909 42.2809 58.5942C42.7944 58.7975 43.3755 58.546 43.5788 58.0324Z" fill="white"/>
<path d="M43.5788 58.0324C43.7821 57.5189 43.5306 56.9378 43.0171 56.7346C42.5035 56.5313 41.9225 56.7828 41.7192 57.2963C41.5159 57.8098 41.7674 58.3909 42.2809 58.5942C42.7944 58.7975 43.3755 58.546 43.5788 58.0324Z" fill="black"/>
<path fill-rule="evenodd" clip-rule="evenodd" d="M6 51.8006C4 51.8006 4 53.8006 4 53.8006V59.8007C4 61.8007 6 61.8007 6 61.8007H10C10 62.4674 9.91667 62.9674 9.75 63.3008H9C8.72386 63.3008 8.5 63.5246 8.5 63.8008H15.5C15.5 63.5246 15.2761 63.3008 15 63.3008H14.25C14.0833 62.9674 14 62.4674 14 61.8007H18C20 61.8007 20 59.8007 20 59.8007V55.0311V53.8006C20 51.8006 18 51.8006 18 51.8006H6ZM5.39845 52.9452C5.49771 52.879 5.67498 52.8006 6 52.8006H17.991C17.991 52.8006 18.003 52.8012 18.0147 52.802C18.0428 52.804 18.0895 52.8085 18.1481 52.8183C18.2701 52.8386 18.4175 52.8774 18.5528 52.9451C18.6842 53.0108 18.7851 53.0936 18.8554 53.1991C18.9216 53.2983 19 53.4756 19 53.8006V59.7917C19 59.7917 18.9995 59.8038 18.9986 59.8154C18.9966 59.8435 18.9921 59.8902 18.9824 59.9488C18.962 60.0708 18.9232 60.2182 18.8556 60.3535C18.7899 60.4849 18.7071 60.5858 18.6016 60.6562C18.5023 60.7223 18.325 60.8007 18 60.8007H6.00903C6.00903 60.8007 5.99697 60.8002 5.98531 60.7994C5.95721 60.7974 5.91053 60.7929 5.8519 60.7831C5.72989 60.7628 5.5825 60.7239 5.44721 60.6563C5.31584 60.5906 5.21489 60.5078 5.14455 60.4023C5.07838 60.303 5 60.1257 5 59.8007V53.8097C5 53.8097 5.00053 53.7976 5.00136 53.786C5.00337 53.7579 5.00787 53.7112 5.01764 53.6525C5.03798 53.5305 5.07678 53.3831 5.14443 53.2479C5.21011 53.1165 5.29294 53.0155 5.39845 52.9452Z" fill="white"/>
<path fill-rule="evenodd" clip-rule="evenodd" d="M6 51.8006C4 51.8006 4 53.8006 4 53.8006V59.8007C4 61.8007 6 61.8007 6 61.8007H10C10 62.4674 9.91667 62.9674 9.75 63.3008H9C8.72386 63.3008 8.5 63.5246 8.5 63.8008H15.5C15.5 63.5246 15.2761 63.3008 15 63.3008H14.25C14.0833 62.9674 14 62.4674 14 61.8007H18C20 61.8007 20 59.8007 20 59.8007V55.0311V53.8006C20 51.8006 18 51.8006 18 51.8006H6ZM5.39845 52.9452C5.49771 52.879 5.67498 52.8006 6 52.8006H17.991C17.991 52.8006 18.003 52.8012 18.0147 52.802C18.0428 52.804 18.0895 52.8085 18.1481 52.8183C18.2701 52.8386 18.4175 52.8774 18.5528 52.9451C18.6842 53.0108 18.7851 53.0936 18.8554 53.1991C18.9216 53.2983 19 53.4756 19 53.8006V59.7917C19 59.7917 18.9995 59.8038 18.9986 59.8154C18.9966 59.8435 18.9921 59.8902 18.9824 59.9488C18.962 60.0708 18.9232 60.2182 18.8556 60.3535C18.7899 60.4849 18.7071 60.5858 18.6016 60.6562C18.5023 60.7223 18.325 60.8007 18 60.8007H6.00903C6.00903 60.8007 5.99697 60.8002 5.98531 60.7994C5.95721 60.7974 5.91053 60.7929 5.8519 60.7831C5.72989 60.7628 5.5825 60.7239 5.44721 60.6563C5.31584 60.5906 5.21489 60.5078 5.14455 60.4023C5.07838 60.303 5 60.1257 5 59.8007V53.8097C5 53.8097 5.00053 53.7976 5.00136 53.786C5.00337 53.7579 5.00787 53.7112 5.01764 53.6525C5.03798 53.5305 5.07678 53.3831 5.14443 53.2479C5.21011 53.1165 5.29294 53.0155 5.39845 52.9452Z" fill="black"/>
<path d="M58.5 52.8006C58.7761 52.8006 59 53.0245 59 53.3006V60.8007H47V54.7635V53.8633V53.3006C47 53.0245 47.2239 52.8006 47.5 52.8006H58.5ZM47.5 51.8006C46.9076 51.8006 46.3954 52.1441 46.1516 52.6427C46.0545 52.8414 46 53.0646 46 53.3006V53.9977V54.6288V61.8007H60V53.3006C60 52.4722 59.3284 51.8006 58.5 51.8006H47.5Z" fill="white"/>
<path d="M58.5 52.8006C58.7761 52.8006 59 53.0245 59 53.3006V60.8007H47V54.7635V53.8633V53.3006C47 53.0245 47.2239 52.8006 47.5 52.8006H58.5ZM47.5 51.8006C46.9076 51.8006 46.3954 52.1441 46.1516 52.6427C46.0545 52.8414 46 53.0646 46 53.3006V53.9977V54.6288V61.8007H60V53.3006C60 52.4722 59.3284 51.8006 58.5 51.8006H47.5Z" fill="black"/>
<path d="M45 62.3008H61C61 63.1292 60.3284 63.8008 59.5 63.8008H46.5C45.6716 63.8008 45 63.1292 45 62.3008Z" fill="white"/>
<path d="M45 62.3008H61C61 63.1292 60.3284 63.8008 59.5 63.8008H46.5C45.6716 63.8008 45 63.1292 45 62.3008Z" fill="black"/>
<path d="M5.35228 19.0696C5.3819 19.0251 5.38002 18.9668 5.34761 18.9243C5.3152 18.8819 5.2594 18.8648 5.20874 18.8816L4.45874 19.1316L4.5378 19.3688L4.94218 19.234L4.64427 19.6809C4.61464 19.7253 4.61652 19.7837 4.64893 19.8261C4.68135 19.8685 4.73714 19.8857 4.7878 19.8688L5.19218 19.734L4.89427 20.1809C4.86464 20.2253 4.86652 20.2837 4.89893 20.3261C4.93135 20.3686 4.98714 20.3857 5.0378 20.3688L5.7878 20.1188L5.70874 19.8817L5.30436 20.0164L5.60228 19.5696C5.6319 19.5251 5.63002 19.4668 5.59761 19.4244C5.5652 19.3819 5.5094 19.3648 5.45874 19.3816L5.05436 19.5164L5.35228 19.0696Z" fill="white"/>
<path d="M5.35228 19.0696C5.3819 19.0251 5.38002 18.9668 5.34761 18.9243C5.3152 18.8819 5.2594 18.8648 5.20874 18.8816L4.45874 19.1316L4.5378 19.3688L4.94218 19.234L4.64427 19.6809C4.61464 19.7253 4.61652 19.7837 4.64893 19.8261C4.68135 19.8685 4.73714 19.8857 4.7878 19.8688L5.19218 19.734L4.89427 20.1809C4.86464 20.2253 4.86652 20.2837 4.89893 20.3261C4.93135 20.3686 4.98714 20.3857 5.0378 20.3688L5.7878 20.1188L5.70874 19.8817L5.30436 20.0164L5.60228 19.5696C5.6319 19.5251 5.63002 19.4668 5.59761 19.4244C5.5652 19.3819 5.5094 19.3648 5.45874 19.3816L5.05436 19.5164L5.35228 19.0696Z" fill="black"/>
<path d="M6 23.0003C8.20914 23.0003 10 21.2094 10 19.0002C10 16.7911 8.20914 15.0002 6 15.0002C3.79086 15.0002 2 16.7911 2 19.0002C2 21.2094 3.79086 23.0003 6 23.0003ZM2.89899 20.6246L3.89312 19.7962C3.7995 19.5487 3.74827 19.2805 3.74827 19.0002C3.74827 17.7576 4.75563 16.7502 5.99827 16.7502C6.65723 16.7502 7.25003 17.0335 7.66153 17.4849L5.74827 18.2502L6.24827 19.5002L6.91489 21.0557C6.63492 21.1807 6.32471 21.2503 5.99827 21.2503C5.71803 21.2503 5.44976 21.199 5.20231 21.1054L4.37339 22.1001C3.74482 21.7696 3.22907 21.2535 2.89899 20.6246ZM8.24827 19.0002C8.24827 19.7144 7.91553 20.3509 7.39662 20.7631L6.74827 19.2502L8.2278 18.6954C8.2413 18.7951 8.24827 18.8968 8.24827 19.0002Z" fill="white"/>
<path d="M6 23.0003C8.20914 23.0003 10 21.2094 10 19.0002C10 16.7911 8.20914 15.0002 6 15.0002C3.79086 15.0002 2 16.7911 2 19.0002C2 21.2094 3.79086 23.0003 6 23.0003ZM2.89899 20.6246L3.89312 19.7962C3.7995 19.5487 3.74827 19.2805 3.74827 19.0002C3.74827 17.7576 4.75563 16.7502 5.99827 16.7502C6.65723 16.7502 7.25003 17.0335 7.66153 17.4849L5.74827 18.2502L6.24827 19.5002L6.91489 21.0557C6.63492 21.1807 6.32471 21.2503 5.99827 21.2503C5.71803 21.2503 5.44976 21.199 5.20231 21.1054L4.37339 22.1001C3.74482 21.7696 3.22907 21.2535 2.89899 20.6246ZM8.24827 19.0002C8.24827 19.7144 7.91553 20.3509 7.39662 20.7631L6.74827 19.2502L8.2278 18.6954C8.2413 18.7951 8.24827 18.8968 8.24827 19.0002Z" fill="black"/>
<path fill-rule="evenodd" clip-rule="evenodd" d="M5.86014 34.9515C8.11949 34.9515 9.95105 33.1199 9.95105 30.8605C9.95105 28.6011 8.11949 26.7695 5.86014 26.7695C3.60079 26.7695 1.76923 28.6011 1.76923 30.8605C1.76923 33.1199 3.60079 34.9515 5.86014 34.9515ZM6.9583 28.076C6.99429 27.9603 6.92864 27.8376 6.81167 27.802C6.6947 27.7664 6.5707 27.8314 6.53471 27.9471L4.76199 33.6451C4.726 33.7608 4.79164 33.8834 4.90861 33.919C5.02558 33.9546 5.14958 33.8897 5.18557 33.774L6.9583 28.076ZM4.46569 29.1715C4.55223 29.257 4.55223 29.3958 4.46569 29.4814L3.07124 30.8605L4.46569 32.2396C4.55223 32.3252 4.55223 32.464 4.46569 32.5496C4.37915 32.6351 4.23885 32.6351 4.15231 32.5496L2.60118 31.0155C2.51464 30.9299 2.51464 30.7911 2.60118 30.7055L4.15231 29.1715C4.23885 29.0859 4.37915 29.0859 4.46569 29.1715ZM7.25458 29.4814C7.16805 29.3958 7.16805 29.257 7.25458 29.1715C7.34112 29.0859 7.48142 29.0859 7.56796 29.1715L9.1191 30.7055C9.20564 30.7911 9.20564 30.9299 9.1191 31.0155L7.56796 32.5496C7.48142 32.6351 7.34112 32.6351 7.25458 32.5496C7.16805 32.464 7.16805 32.3252 7.25458 32.2396L8.64903 30.8605L7.25458 29.4814Z" fill="white"/>
<path fill-rule="evenodd" clip-rule="evenodd" d="M5.86014 34.9515C8.11949 34.9515 9.95105 33.1199 9.95105 30.8605C9.95105 28.6011 8.11949 26.7695 5.86014 26.7695C3.60079 26.7695 1.76923 28.6011 1.76923 30.8605C1.76923 33.1199 3.60079 34.9515 5.86014 34.9515ZM6.9583 28.076C6.99429 27.9603 6.92864 27.8376 6.81167 27.802C6.6947 27.7664 6.5707 27.8314 6.53471 27.9471L4.76199 33.6451C4.726 33.7608 4.79164 33.8834 4.90861 33.919C5.02558 33.9546 5.14958 33.8897 5.18557 33.774L6.9583 28.076ZM4.46569 29.1715C4.55223 29.257 4.55223 29.3958 4.46569 29.4814L3.07124 30.8605L4.46569 32.2396C4.55223 32.3252 4.55223 32.464 4.46569 32.5496C4.37915 32.6351 4.23885 32.6351 4.15231 32.5496L2.60118 31.0155C2.51464 30.9299 2.51464 30.7911 2.60118 30.7055L4.15231 29.1715C4.23885 29.0859 4.37915 29.0859 4.46569 29.1715ZM7.25458 29.4814C7.16805 29.3958 7.16805 29.257 7.25458 29.1715C7.34112 29.0859 7.48142 29.0859 7.56796 29.1715L9.1191 30.7055C9.20564 30.7911 9.20564 30.9299 9.1191 31.0155L7.56796 32.5496C7.48142 32.6351 7.34112 32.6351 7.25458 32.5496C7.16805 32.464 7.16805 32.3252 7.25458 32.2396L8.64903 30.8605L7.25458 29.4814Z" fill="black"/>
<path d="M5.375 41.3755C5.375 40.9958 5.6828 40.688 6.0625 40.688C6.4422 40.688 6.75 40.9958 6.75 41.3755V42.063H5.375V41.3755Z" fill="white"/>
<path d="M5.375 41.3755C5.375 40.9958 5.6828 40.688 6.0625 40.688C6.4422 40.688 6.75 40.9958 6.75 41.3755V42.063H5.375V41.3755Z" fill="black"/>
<path fill-rule="evenodd" clip-rule="evenodd" d="M6 47.0006C8.20914 47.0006 10 45.2097 10 43.0005C10 40.7913 8.20914 39.0005 6 39.0005C3.79086 39.0005 2 40.7913 2 43.0005C2 45.2097 3.79086 47.0006 6 47.0006ZM7.4375 42.1155V41.3755C7.4375 40.6161 6.82189 40.0005 6.0625 40.0005C5.30311 40.0005 4.6875 40.6161 4.6875 41.3755V42.1155C4.31677 42.2297 4 42.5258 4 42.9568V44.6068C4 45.168 4.53725 45.5005 5.03125 45.5005H7.09375C7.58775 45.5005 8.125 45.168 8.125 44.6068V42.9568C8.125 42.5258 7.80823 42.2297 7.4375 42.1155Z" fill="white"/>
<path fill-rule="evenodd" clip-rule="evenodd" d="M6 47.0006C8.20914 47.0006 10 45.2097 10 43.0005C10 40.7913 8.20914 39.0005 6 39.0005C3.79086 39.0005 2 40.7913 2 43.0005C2 45.2097 3.79086 47.0006 6 47.0006ZM7.4375 42.1155V41.3755C7.4375 40.6161 6.82189 40.0005 6.0625 40.0005C5.30311 40.0005 4.6875 40.6161 4.6875 41.3755V42.1155C4.31677 42.2297 4 42.5258 4 42.9568V44.6068C4 45.168 4.53725 45.5005 5.03125 45.5005H7.09375C7.58775 45.5005 8.125 45.168 8.125 44.6068V42.9568C8.125 42.5258 7.80823 42.2297 7.4375 42.1155Z" fill="black"/>
<path fill-rule="evenodd" clip-rule="evenodd" d="M58 47.0006C60.2091 47.0006 62 45.2097 62 43.0005C62 40.7913 60.2091 39.0005 58 39.0005C55.7909 39.0005 54 40.7913 54 43.0005C54 45.2097 55.7909 47.0006 58 47.0006ZM58.0354 42.1782L57.2219 40.5239H55.8513L57.2424 42.9917L55.8137 45.5005H57.1979L58.0354 43.8155L58.8728 45.5005H60.2536L58.8283 42.9917L60.216 40.5239H58.8488L58.0354 42.1782Z" fill="white"/>
<path fill-rule="evenodd" clip-rule="evenodd" d="M58 47.0006C60.2091 47.0006 62 45.2097 62 43.0005C62 40.7913 60.2091 39.0005 58 39.0005C55.7909 39.0005 54 40.7913 54 43.0005C54 45.2097 55.7909 47.0006 58 47.0006ZM58.0354 42.1782L57.2219 40.5239H55.8513L57.2424 42.9917L55.8137 45.5005H57.1979L58.0354 43.8155L58.8728 45.5005H60.2536L58.8283 42.9917L60.216 40.5239H58.8488L58.0354 42.1782Z" fill="black"/>
<path d="M57.5868 31.0726C57.626 31.1529 57.6796 31.219 57.7475 31.2707C57.8432 31.3436 57.973 31.3801 58.1371 31.3801C58.2465 31.3801 58.3376 31.355 58.4105 31.3049C58.4835 31.2525 58.5416 31.1807 58.5849 31.0895C58.6282 30.9961 58.6589 30.889 58.6771 30.7682C58.6954 30.6475 58.7045 30.5176 58.7045 30.3786V30.3068C58.7045 30.1632 58.6942 30.0322 58.6737 29.9137C58.6532 29.793 58.6202 29.6881 58.5746 29.5993C58.5313 29.5104 58.4732 29.442 58.4003 29.3942C58.3274 29.3463 58.2374 29.3224 58.1303 29.3224C58.0072 29.3224 57.9035 29.3418 57.8192 29.3805C57.7372 29.417 57.6711 29.4739 57.621 29.5514C57.6087 29.5707 57.5973 29.5913 57.5868 29.6132V31.0726Z" fill="white"/>
<path d="M57.5868 31.0726C57.626 31.1529 57.6796 31.219 57.7475 31.2707C57.8432 31.3436 57.973 31.3801 58.1371 31.3801C58.2465 31.3801 58.3376 31.355 58.4105 31.3049C58.4835 31.2525 58.5416 31.1807 58.5849 31.0895C58.6282 30.9961 58.6589 30.889 58.6771 30.7682C58.6954 30.6475 58.7045 30.5176 58.7045 30.3786V30.3068C58.7045 30.1632 58.6942 30.0322 58.6737 29.9137C58.6532 29.793 58.6202 29.6881 58.5746 29.5993C58.5313 29.5104 58.4732 29.442 58.4003 29.3942C58.3274 29.3463 58.2374 29.3224 58.1303 29.3224C58.0072 29.3224 57.9035 29.3418 57.8192 29.3805C57.7372 29.417 57.6711 29.4739 57.621 29.5514C57.6087 29.5707 57.5973 29.5913 57.5868 29.6132V31.0726Z" fill="black"/>
<path fill-rule="evenodd" clip-rule="evenodd" d="M58 35.0004C60.2091 35.0004 62 33.2095 62 31.0004C62 28.7912 60.2091 27.0003 58 27.0003C55.7909 27.0003 54 28.7912 54 31.0004C54 33.2095 55.7909 35.0004 58 35.0004ZM57.5868 31.8999V33.6223H56.435V28.5021H57.5082L57.5459 28.8426C57.6331 28.7347 57.7333 28.6462 57.8466 28.5773C58.0061 28.4816 58.1964 28.4337 58.4174 28.4337C58.6521 28.4337 58.8583 28.4782 59.036 28.567C59.216 28.6559 59.3664 28.7835 59.4872 28.9499C59.6103 29.1139 59.7025 29.311 59.7641 29.5412C59.8256 29.7713 59.8563 30.0265 59.8563 30.3068V30.3786C59.8563 30.6475 59.8256 30.897 59.7641 31.1271C59.7025 31.3573 59.6114 31.5578 59.4906 31.7287C59.3699 31.8996 59.2195 32.0329 59.0395 32.1286C58.8617 32.222 58.6555 32.2687 58.4208 32.2687C58.1998 32.2687 58.0095 32.2197 57.85 32.1218C57.7525 32.0619 57.6647 31.9879 57.5868 31.8999Z" fill="white"/>
<path fill-rule="evenodd" clip-rule="evenodd" d="M58 35.0004C60.2091 35.0004 62 33.2095 62 31.0004C62 28.7912 60.2091 27.0003 58 27.0003C55.7909 27.0003 54 28.7912 54 31.0004C54 33.2095 55.7909 35.0004 58 35.0004ZM57.5868 31.8999V33.6223H56.435V28.5021H57.5082L57.5459 28.8426C57.6331 28.7347 57.7333 28.6462 57.8466 28.5773C58.0061 28.4816 58.1964 28.4337 58.4174 28.4337C58.6521 28.4337 58.8583 28.4782 59.036 28.567C59.216 28.6559 59.3664 28.7835 59.4872 28.9499C59.6103 29.1139 59.7025 29.311 59.7641 29.5412C59.8256 29.7713 59.8563 30.0265 59.8563 30.3068V30.3786C59.8563 30.6475 59.8256 30.897 59.7641 31.1271C59.7025 31.3573 59.6114 31.5578 59.4906 31.7287C59.3699 31.8996 59.2195 32.0329 59.0395 32.1286C58.8617 32.222 58.6555 32.2687 58.4208 32.2687C58.1998 32.2687 58.0095 32.2197 57.85 32.1218C57.7525 32.0619 57.6647 31.9879 57.5868 31.8999Z" fill="black"/>
<path d="M57.3234 19.0299V18.9479C57.3234 18.7942 57.3352 18.6497 57.3586 18.5143C57.382 18.3763 57.4211 18.2552 57.4758 18.151C57.5305 18.0442 57.6034 17.9609 57.6945 17.901C57.7883 17.8411 57.9042 17.8111 58.0422 17.8111C58.1828 17.8111 58.3 17.8411 58.3937 17.901C58.4875 17.9609 58.5617 18.0442 58.6164 18.151C58.6711 18.2552 58.7102 18.3763 58.7336 18.5143C58.757 18.6497 58.7687 18.7942 58.7687 18.9479V19.0299C58.7687 19.1888 58.757 19.3372 58.7336 19.4752C58.7102 19.6133 58.6711 19.7343 58.6164 19.8385C58.5617 19.9401 58.4875 20.0195 58.3937 20.0768C58.3026 20.1341 58.188 20.1627 58.05 20.1627C57.9094 20.1627 57.7922 20.1341 57.6984 20.0768C57.6047 20.0195 57.5305 19.9401 57.4758 19.8385C57.4211 19.7343 57.382 19.6133 57.3586 19.4752C57.3352 19.3372 57.3234 19.1888 57.3234 19.0299Z" fill="white"/>
<path d="M57.3234 19.0299V18.9479C57.3234 18.7942 57.3352 18.6497 57.3586 18.5143C57.382 18.3763 57.4211 18.2552 57.4758 18.151C57.5305 18.0442 57.6034 17.9609 57.6945 17.901C57.7883 17.8411 57.9042 17.8111 58.0422 17.8111C58.1828 17.8111 58.3 17.8411 58.3937 17.901C58.4875 17.9609 58.5617 18.0442 58.6164 18.151C58.6711 18.2552 58.7102 18.3763 58.7336 18.5143C58.757 18.6497 58.7687 18.7942 58.7687 18.9479V19.0299C58.7687 19.1888 58.757 19.3372 58.7336 19.4752C58.7102 19.6133 58.6711 19.7343 58.6164 19.8385C58.5617 19.9401 58.4875 20.0195 58.3937 20.0768C58.3026 20.1341 58.188 20.1627 58.05 20.1627C57.9094 20.1627 57.7922 20.1341 57.6984 20.0768C57.6047 20.0195 57.5305 19.9401 57.4758 19.8385C57.4211 19.7343 57.382 19.6133 57.3586 19.4752C57.3352 19.3372 57.3234 19.1888 57.3234 19.0299Z" fill="black"/>
<path fill-rule="evenodd" clip-rule="evenodd" d="M58 23.0003C60.2091 23.0003 62 21.2094 62 19.0002C62 16.7911 60.2091 15.0002 58 15.0002C55.7909 15.0002 54 16.7911 54 19.0002C54 21.2094 55.7909 23.0003 58 23.0003ZM56.007 18.9479V19.0299C56.007 19.3372 56.0513 19.6224 56.1398 19.8854C56.2284 20.1458 56.3586 20.3737 56.5305 20.569C56.7023 20.7617 56.9159 20.9114 57.1711 21.0182C57.4263 21.125 57.7193 21.1784 58.05 21.1784C58.3807 21.1784 58.6724 21.125 58.925 21.0182C59.1776 20.9114 59.3898 20.7617 59.5617 20.569C59.7336 20.3737 59.8638 20.1458 59.9523 19.8854C60.0409 19.6224 60.0852 19.3372 60.0852 19.0299V18.9479C60.0852 18.638 60.0409 18.3528 59.9523 18.0924C59.8638 17.8294 59.7336 17.6015 59.5617 17.4088C59.3898 17.2161 59.1763 17.0663 58.9211 16.9596C58.6685 16.8502 58.3755 16.7955 58.0422 16.7955C57.7115 16.7955 57.4198 16.8502 57.1672 16.9596C56.9146 17.0663 56.7023 17.2161 56.5305 17.4088C56.3586 17.6015 56.2284 17.8294 56.1398 18.0924C56.0513 18.3528 56.007 18.638 56.007 18.9479Z" fill="white"/>
<path fill-rule="evenodd" clip-rule="evenodd" d="M58 23.0003C60.2091 23.0003 62 21.2094 62 19.0002C62 16.7911 60.2091 15.0002 58 15.0002C55.7909 15.0002 54 16.7911 54 19.0002C54 21.2094 55.7909 23.0003 58 23.0003ZM56.007 18.9479V19.0299C56.007 19.3372 56.0513 19.6224 56.1398 19.8854C56.2284 20.1458 56.3586 20.3737 56.5305 20.569C56.7023 20.7617 56.9159 20.9114 57.1711 21.0182C57.4263 21.125 57.7193 21.1784 58.05 21.1784C58.3807 21.1784 58.6724 21.125 58.925 21.0182C59.1776 20.9114 59.3898 20.7617 59.5617 20.569C59.7336 20.3737 59.8638 20.1458 59.9523 19.8854C60.0409 19.6224 60.0852 19.3372 60.0852 19.0299V18.9479C60.0852 18.638 60.0409 18.3528 59.9523 18.0924C59.8638 17.8294 59.7336 17.6015 59.5617 17.4088C59.3898 17.2161 59.1763 17.0663 58.9211 16.9596C58.6685 16.8502 58.3755 16.7955 58.0422 16.7955C57.7115 16.7955 57.4198 16.8502 57.1672 16.9596C56.9146 17.0663 56.7023 17.2161 56.5305 17.4088C56.3586 17.6015 56.2284 17.8294 56.1398 18.0924C56.0513 18.3528 56.007 18.638 56.007 18.9479Z" fill="black"/>
<path d="M44.436 36.7646C44.436 36.3994 44.3823 36.0717 44.2749 35.7817C44.1675 35.4809 43.9688 35.2016 43.6787 34.9438C43.3887 34.686 42.9697 34.4281 42.4219 34.1703C41.8848 33.9018 41.1758 33.6225 40.2949 33.3324C39.2637 32.9887 38.27 32.602 37.314 32.1723C36.3579 31.7318 35.5039 31.2216 34.752 30.6415C34 30.0507 33.4038 29.3631 32.9634 28.579C32.5229 27.784 32.3027 26.8602 32.3027 25.8074C32.3027 24.7977 32.5283 23.8899 32.9795 23.0843C33.4307 22.2678 34.0591 21.575 34.8647 21.0056C35.6812 20.4255 36.6372 19.9851 37.7329 19.6843C38.8286 19.3728 40.0264 19.217 41.3262 19.217C43.0449 19.217 44.5596 19.5178 45.8701 20.1194C47.1914 20.7102 48.2227 21.5535 48.9639 22.6492C49.7158 23.7342 50.0918 25.0179 50.0918 26.5003H44.4683C44.4683 25.9095 44.3447 25.3885 44.0977 24.9373C43.8613 24.4861 43.5015 24.1316 43.0181 23.8738C42.5347 23.616 41.9277 23.4871 41.1973 23.4871C40.4883 23.4871 39.8921 23.5945 39.4087 23.8094C38.9253 24.0242 38.5601 24.3143 38.313 24.6795C38.0659 25.034 37.9424 25.4261 37.9424 25.8558C37.9424 26.2103 38.0391 26.5325 38.2324 26.8226C38.4365 27.1019 38.7212 27.3651 39.0864 27.6121C39.4624 27.8592 39.9136 28.0955 40.4399 28.3211C40.9771 28.5467 41.5786 28.7669 42.2446 28.9818C43.4907 29.3793 44.5972 29.8251 45.564 30.3192C46.5415 30.8026 47.3633 31.3558 48.0293 31.9789C48.7061 32.5912 49.2163 33.2895 49.5601 34.0737C49.9146 34.8578 50.0918 35.7441 50.0918 36.7324C50.0918 37.7851 49.8877 38.7197 49.4795 39.5361C49.0713 40.3525 48.4858 41.0454 47.7231 41.6148C46.9604 42.1734 46.0474 42.5977 44.9839 42.8877C43.9204 43.1778 42.7334 43.3228 41.4229 43.3228C40.2197 43.3228 39.0327 43.1724 37.8618 42.8716C36.7017 42.5601 35.6489 42.0874 34.7036 41.4536C33.7583 40.8091 33.001 39.9873 32.4316 38.9883C31.873 37.9785 31.5938 36.7807 31.5938 35.395H37.2656C37.2656 36.0825 37.3569 36.6625 37.5396 37.1352C37.7222 37.6079 37.9907 37.9892 38.3452 38.2793C38.6997 38.5586 39.1348 38.7627 39.6504 38.8916C40.166 39.0097 40.7568 39.0688 41.4229 39.0688C42.1426 39.0688 42.7227 38.9668 43.1631 38.7627C43.6035 38.5478 43.9258 38.2685 44.1299 37.9248C44.334 37.5703 44.436 37.1835 44.436 36.7646Z" fill="white"/>
<path d="M44.436 36.7646C44.436 36.3994 44.3823 36.0717 44.2749 35.7817C44.1675 35.4809 43.9688 35.2016 43.6787 34.9438C43.3887 34.686 42.9697 34.4281 42.4219 34.1703C41.8848 33.9018 41.1758 33.6225 40.2949 33.3324C39.2637 32.9887 38.27 32.602 37.314 32.1723C36.3579 31.7318 35.5039 31.2216 34.752 30.6415C34 30.0507 33.4038 29.3631 32.9634 28.579C32.5229 27.784 32.3027 26.8602 32.3027 25.8074C32.3027 24.7977 32.5283 23.8899 32.9795 23.0843C33.4307 22.2678 34.0591 21.575 34.8647 21.0056C35.6812 20.4255 36.6372 19.9851 37.7329 19.6843C38.8286 19.3728 40.0264 19.217 41.3262 19.217C43.0449 19.217 44.5596 19.5178 45.8701 20.1194C47.1914 20.7102 48.2227 21.5535 48.9639 22.6492C49.7158 23.7342 50.0918 25.0179 50.0918 26.5003H44.4683C44.4683 25.9095 44.3447 25.3885 44.0977 24.9373C43.8613 24.4861 43.5015 24.1316 43.0181 23.8738C42.5347 23.616 41.9277 23.4871 41.1973 23.4871C40.4883 23.4871 39.8921 23.5945 39.4087 23.8094C38.9253 24.0242 38.5601 24.3143 38.313 24.6795C38.0659 25.034 37.9424 25.4261 37.9424 25.8558C37.9424 26.2103 38.0391 26.5325 38.2324 26.8226C38.4365 27.1019 38.7212 27.3651 39.0864 27.6121C39.4624 27.8592 39.9136 28.0955 40.4399 28.3211C40.9771 28.5467 41.5786 28.7669 42.2446 28.9818C43.4907 29.3793 44.5972 29.8251 45.564 30.3192C46.5415 30.8026 47.3633 31.3558 48.0293 31.9789C48.7061 32.5912 49.2163 33.2895 49.5601 34.0737C49.9146 34.8578 50.0918 35.7441 50.0918 36.7324C50.0918 37.7851 49.8877 38.7197 49.4795 39.5361C49.0713 40.3525 48.4858 41.0454 47.7231 41.6148C46.9604 42.1734 46.0474 42.5977 44.9839 42.8877C43.9204 43.1778 42.7334 43.3228 41.4229 43.3228C40.2197 43.3228 39.0327 43.1724 37.8618 42.8716C36.7017 42.5601 35.6489 42.0874 34.7036 41.4536C33.7583 40.8091 33.001 39.9873 32.4316 38.9883C31.873 37.9785 31.5938 36.7807 31.5938 35.395H37.2656C37.2656 36.0825 37.3569 36.6625 37.5396 37.1352C37.7222 37.6079 37.9907 37.9892 38.3452 38.2793C38.6997 38.5586 39.1348 38.7627 39.6504 38.8916C40.166 39.0097 40.7568 39.0688 41.4229 39.0688C42.1426 39.0688 42.7227 38.9668 43.1631 38.7627C43.6035 38.5478 43.9258 38.2685 44.1299 37.9248C44.334 37.5703 44.436 37.1835 44.436 36.7646Z" fill="black"/>
<path d="M3 56H3.1H4V57H3V56Z" fill="white"/>
<path d="M3 56H3.1H4V57H3V56Z" fill="black"/>
<path d="M60 56H60.9H61V57H60V56Z" fill="white"/>
<path d="M60 56H60.9H61V57H60V56Z" fill="black"/>
<path d="M23.1182 35.6367V19.5393H28.7578V35.6367C28.7578 37.205 28.3979 38.5639 27.6782 39.7134C26.9692 40.8628 26.0024 41.7544 24.7778 42.3882C23.564 43.0113 22.1997 43.3228 20.6851 43.3228C19.1167 43.3228 17.7202 43.0596 16.4956 42.5332C15.2817 42.0068 14.3257 41.1958 13.6274 40.1001C12.9399 39.0044 12.5962 37.6079 12.5962 35.9106H18.2681C18.2681 36.7055 18.3594 37.3286 18.542 37.7797C18.7246 38.2202 18.9932 38.5317 19.3477 38.7143C19.7129 38.8862 20.1587 38.9721 20.6851 38.9721C21.2007 38.9721 21.6357 38.8432 21.9902 38.5854C22.3555 38.3169 22.6348 37.9355 22.8281 37.4414C23.0215 36.9365 23.1182 36.3349 23.1182 35.6367Z" fill="white"/>
<path d="M23.1182 35.6367V19.5393H28.7578V35.6367C28.7578 37.205 28.3979 38.5639 27.6782 39.7134C26.9692 40.8628 26.0024 41.7544 24.7778 42.3882C23.564 43.0113 22.1997 43.3228 20.6851 43.3228C19.1167 43.3228 17.7202 43.0596 16.4956 42.5332C15.2817 42.0068 14.3257 41.1958 13.6274 40.1001C12.9399 39.0044 12.5962 37.6079 12.5962 35.9106H18.2681C18.2681 36.7055 18.3594 37.3286 18.542 37.7797C18.7246 38.2202 18.9932 38.5317 19.3477 38.7143C19.7129 38.8862 20.1587 38.9721 20.6851 38.9721C21.2007 38.9721 21.6357 38.8432 21.9902 38.5854C22.3555 38.3169 22.6348 37.9355 22.8281 37.4414C23.0215 36.9365 23.1182 36.3349 23.1182 35.6367Z" fill="black"/>
</g>
<g id="Vector_2">
<path fill-rule="evenodd" clip-rule="evenodd" d="M56 6.00303C56 2.09955 52.3317 -0.764629 48.5448 0.182103L5.72991 10.886C2.54155 11.0272 0 13.6568 0 16.8801V52.8805C0 55.1443 1.25366 57.1152 3.10457 58.137C3.10154 58.0919 3.1 58.0465 3.1 58.0007V56V52.0006C3.1 51.3024 3.45778 50.6878 4 50.33V47.5845C2.2341 46.813 1 45.0509 1 43.0005C1 40.9502 2.2341 39.1881 4 38.4165V35.5844C2.2341 34.8128 1 33.0507 1 31.0004C1 28.95 2.2341 27.1879 4 26.4164V23.5842C2.2341 22.8127 1 21.0506 1 19.0002C1 16.2388 3.23858 14.0002 6 14.0002C7.05203 14.0002 8.02817 14.3251 8.83355 14.88H55.1665C55.9718 14.3251 56.948 14.0002 58 14.0002C60.7614 14.0002 63 16.2388 63 19.0002C63 21.0506 61.7659 22.8127 60 23.5842V26.4164C61.7659 27.1879 63 28.95 63 31.0004C63 33.0507 61.7659 34.8128 60 35.5844V38.4165C61.7659 39.1881 63 40.9502 63 43.0005C63 45.0509 61.7659 46.813 60 47.5845V50.33C60.5422 50.6878 60.9 51.3024 60.9 52.0006V56V58.0007C60.9 58.0465 60.8985 58.0919 60.8954 58.137C62.7463 57.1152 64 55.1443 64 52.8805V16.8801C64 13.5663 61.3137 10.88 58 10.88H56V6.00303ZM52 10.88H22.2462L49.5149 4.06272C50.7772 3.74714 52 4.70187 52 6.00303V10.88Z" fill="black"/>
<path d="M29.3168 49.2528C29.8583 49.3613 30.2093 49.8882 30.1008 50.4298L27.7433 62.1961C27.6348 62.7376 27.1078 63.0886 26.5663 62.9801L20.6832 61.8013C20.1417 61.6928 19.7907 61.1659 19.8992 60.6243L22.2567 48.8581C22.3652 48.3165 22.8922 47.9655 23.4337 48.074L29.3168 49.2528ZM23.6302 47.0935C22.5471 46.8765 21.4932 47.5785 21.2762 48.6616L20 55.0311L18.9187 60.4279C18.7017 61.5109 19.4037 62.5648 20.4868 62.7819L26.3698 63.9606C27.4529 64.1776 28.5068 63.4756 28.7238 62.3925L30.6998 52.5303L31.0813 50.6262C31.2983 49.5432 30.5963 48.4893 29.5132 48.2723L23.6302 47.0935Z" fill="black"/>
<path d="M23.8212 61.4102C24.3628 61.5187 24.8897 61.1677 24.9982 60.6261C25.1067 60.0846 24.7557 59.5577 24.2142 59.4492C23.6726 59.3407 23.1457 59.6917 23.0372 60.2332C22.9287 60.7747 23.2797 61.3017 23.8212 61.4102Z" fill="black"/>
<path d="M32.9637 49.5283C33.167 49.0147 33.748 48.7632 34.2615 48.9665L45.4191 53.3834C45.7051 53.4966 45.9098 53.727 46 53.9977C46.0662 54.1965 46.0706 54.417 46 54.6288C45.9941 54.6463 45.9878 54.6638 45.9809 54.6813L43.0363 62.1198C42.833 62.6333 42.252 62.8848 41.7385 62.6815L30.5809 58.2646C30.0674 58.0613 29.8159 57.4803 30.0191 56.9667L32.9637 49.5283ZM29.0893 56.5987C28.6828 57.6257 29.1858 58.7879 30.2128 59.1944L41.3704 63.6113C42.3974 64.0179 43.5596 63.5149 43.9661 62.4878L46.9107 55.0494C46.948 54.955 46.9777 54.8595 47 54.7635C47.0704 54.4607 47.0672 54.1534 47 53.8633C46.8861 53.3717 46.588 52.9296 46.1516 52.6427C46.0391 52.5688 45.9173 52.5051 45.7872 52.4536L34.6296 48.0367C33.6026 47.6302 32.4404 48.1331 32.0339 49.1602L30.6998 52.5303L29.0893 56.5987Z" fill="black"/>
<path d="M43.5788 58.0324C43.7821 57.5189 43.5306 56.9378 43.0171 56.7346C42.5035 56.5313 41.9225 56.7828 41.7192 57.2963C41.5159 57.8098 41.7674 58.3909 42.2809 58.5942C42.7944 58.7975 43.3755 58.546 43.5788 58.0324Z" fill="black"/>
<path fill-rule="evenodd" clip-rule="evenodd" d="M6 51.8006C4 51.8006 4 53.8006 4 53.8006V59.8007C4 61.8007 6 61.8007 6 61.8007H10C10 62.4674 9.91667 62.9674 9.75 63.3008H9C8.72386 63.3008 8.5 63.5246 8.5 63.8008H15.5C15.5 63.5246 15.2761 63.3008 15 63.3008H14.25C14.0833 62.9674 14 62.4674 14 61.8007H18C20 61.8007 20 59.8007 20 59.8007V55.0311V53.8006C20 51.8006 18 51.8006 18 51.8006H6ZM5.39845 52.9452C5.49771 52.879 5.67498 52.8006 6 52.8006H17.991C17.991 52.8006 18.003 52.8012 18.0147 52.802C18.0428 52.804 18.0895 52.8085 18.1481 52.8183C18.2701 52.8386 18.4175 52.8774 18.5528 52.9451C18.6842 53.0108 18.7851 53.0936 18.8554 53.1991C18.9216 53.2983 19 53.4756 19 53.8006V59.7917C19 59.7917 18.9995 59.8038 18.9986 59.8154C18.9966 59.8435 18.9921 59.8902 18.9824 59.9488C18.962 60.0708 18.9232 60.2182 18.8556 60.3535C18.7899 60.4849 18.7071 60.5858 18.6016 60.6562C18.5023 60.7223 18.325 60.8007 18 60.8007H6.00903C6.00903 60.8007 5.99697 60.8002 5.98531 60.7994C5.95721 60.7974 5.91053 60.7929 5.8519 60.7831C5.72989 60.7628 5.5825 60.7239 5.44721 60.6563C5.31584 60.5906 5.21489 60.5078 5.14455 60.4023C5.07838 60.303 5 60.1257 5 59.8007V53.8097C5 53.8097 5.00053 53.7976 5.00136 53.786C5.00337 53.7579 5.00787 53.7112 5.01764 53.6525C5.03798 53.5305 5.07678 53.3831 5.14443 53.2479C5.21011 53.1165 5.29294 53.0155 5.39845 52.9452Z" fill="black"/>
<path d="M58.5 52.8006C58.7761 52.8006 59 53.0245 59 53.3006V60.8007H47V54.7635V53.8633V53.3006C47 53.0245 47.2239 52.8006 47.5 52.8006H58.5ZM47.5 51.8006C46.9076 51.8006 46.3954 52.1441 46.1516 52.6427C46.0545 52.8414 46 53.0646 46 53.3006V53.9977V54.6288V61.8007H60V53.3006C60 52.4722 59.3284 51.8006 58.5 51.8006H47.5Z" fill="black"/>
<path d="M45 62.3008H61C61 63.1292 60.3284 63.8008 59.5 63.8008H46.5C45.6716 63.8008 45 63.1292 45 62.3008Z" fill="black"/>
<path d="M5.35228 19.0696C5.3819 19.0251 5.38002 18.9668 5.34761 18.9243C5.3152 18.8819 5.2594 18.8648 5.20874 18.8816L4.45874 19.1316L4.5378 19.3688L4.94218 19.234L4.64427 19.6809C4.61464 19.7253 4.61652 19.7837 4.64893 19.8261C4.68135 19.8685 4.73714 19.8857 4.7878 19.8688L5.19218 19.734L4.89427 20.1809C4.86464 20.2253 4.86652 20.2837 4.89893 20.3261C4.93135 20.3686 4.98714 20.3857 5.0378 20.3688L5.7878 20.1188L5.70874 19.8817L5.30436 20.0164L5.60228 19.5696C5.6319 19.5251 5.63002 19.4668 5.59761 19.4244C5.5652 19.3819 5.5094 19.3648 5.45874 19.3816L5.05436 19.5164L5.35228 19.0696Z" fill="black"/>
<path d="M6 23.0003C8.20914 23.0003 10 21.2094 10 19.0002C10 16.7911 8.20914 15.0002 6 15.0002C3.79086 15.0002 2 16.7911 2 19.0002C2 21.2094 3.79086 23.0003 6 23.0003ZM2.89899 20.6246L3.89312 19.7962C3.7995 19.5487 3.74827 19.2805 3.74827 19.0002C3.74827 17.7576 4.75563 16.7502 5.99827 16.7502C6.65723 16.7502 7.25003 17.0335 7.66153 17.4849L5.74827 18.2502L6.24827 19.5002L6.91489 21.0557C6.63492 21.1807 6.32471 21.2503 5.99827 21.2503C5.71803 21.2503 5.44976 21.199 5.20231 21.1054L4.37339 22.1001C3.74482 21.7696 3.22907 21.2535 2.89899 20.6246ZM8.24827 19.0002C8.24827 19.7144 7.91553 20.3509 7.39662 20.7631L6.74827 19.2502L8.2278 18.6954C8.2413 18.7951 8.24827 18.8968 8.24827 19.0002Z" fill="black"/>
<path fill-rule="evenodd" clip-rule="evenodd" d="M5.86014 34.9515C8.11949 34.9515 9.95105 33.1199 9.95105 30.8605C9.95105 28.6011 8.11949 26.7695 5.86014 26.7695C3.60079 26.7695 1.76923 28.6011 1.76923 30.8605C1.76923 33.1199 3.60079 34.9515 5.86014 34.9515ZM6.9583 28.076C6.99429 27.9603 6.92864 27.8376 6.81167 27.802C6.6947 27.7664 6.5707 27.8314 6.53471 27.9471L4.76199 33.6451C4.726 33.7608 4.79164 33.8834 4.90861 33.919C5.02558 33.9546 5.14958 33.8897 5.18557 33.774L6.9583 28.076ZM4.46569 29.1715C4.55223 29.257 4.55223 29.3958 4.46569 29.4814L3.07124 30.8605L4.46569 32.2396C4.55223 32.3252 4.55223 32.464 4.46569 32.5496C4.37915 32.6351 4.23885 32.6351 4.15231 32.5496L2.60118 31.0155C2.51464 30.9299 2.51464 30.7911 2.60118 30.7055L4.15231 29.1715C4.23885 29.0859 4.37915 29.0859 4.46569 29.1715ZM7.25458 29.4814C7.16805 29.3958 7.16805 29.257 7.25458 29.1715C7.34112 29.0859 7.48142 29.0859 7.56796 29.1715L9.1191 30.7055C9.20564 30.7911 9.20564 30.9299 9.1191 31.0155L7.56796 32.5496C7.48142 32.6351 7.34112 32.6351 7.25458 32.5496C7.16805 32.464 7.16805 32.3252 7.25458 32.2396L8.64903 30.8605L7.25458 29.4814Z" fill="black"/>
<path d="M5.375 41.3755C5.375 40.9958 5.6828 40.688 6.0625 40.688C6.4422 40.688 6.75 40.9958 6.75 41.3755V42.063H5.375V41.3755Z" fill="black"/>
<path fill-rule="evenodd" clip-rule="evenodd" d="M6 47.0006C8.20914 47.0006 10 45.2097 10 43.0005C10 40.7913 8.20914 39.0005 6 39.0005C3.79086 39.0005 2 40.7913 2 43.0005C2 45.2097 3.79086 47.0006 6 47.0006ZM7.4375 42.1155V41.3755C7.4375 40.6161 6.82189 40.0005 6.0625 40.0005C5.30311 40.0005 4.6875 40.6161 4.6875 41.3755V42.1155C4.31677 42.2297 4 42.5258 4 42.9568V44.6068C4 45.168 4.53725 45.5005 5.03125 45.5005H7.09375C7.58775 45.5005 8.125 45.168 8.125 44.6068V42.9568C8.125 42.5258 7.80823 42.2297 7.4375 42.1155Z" fill="black"/>
<path fill-rule="evenodd" clip-rule="evenodd" d="M58 47.0006C60.2091 47.0006 62 45.2097 62 43.0005C62 40.7913 60.2091 39.0005 58 39.0005C55.7909 39.0005 54 40.7913 54 43.0005C54 45.2097 55.7909 47.0006 58 47.0006ZM58.0354 42.1782L57.2219 40.5239H55.8513L57.2424 42.9917L55.8137 45.5005H57.1979L58.0354 43.8155L58.8728 45.5005H60.2536L58.8283 42.9917L60.216 40.5239H58.8488L58.0354 42.1782Z" fill="black"/>
<path d="M57.5868 31.0726C57.626 31.1529 57.6796 31.219 57.7475 31.2707C57.8432 31.3436 57.973 31.3801 58.1371 31.3801C58.2465 31.3801 58.3376 31.355 58.4105 31.3049C58.4835 31.2525 58.5416 31.1807 58.5849 31.0895C58.6282 30.9961 58.6589 30.889 58.6771 30.7682C58.6954 30.6475 58.7045 30.5176 58.7045 30.3786V30.3068C58.7045 30.1632 58.6942 30.0322 58.6737 29.9137C58.6532 29.793 58.6202 29.6881 58.5746 29.5993C58.5313 29.5104 58.4732 29.442 58.4003 29.3942C58.3274 29.3463 58.2374 29.3224 58.1303 29.3224C58.0072 29.3224 57.9035 29.3418 57.8192 29.3805C57.7372 29.417 57.6711 29.4739 57.621 29.5514C57.6087 29.5707 57.5973 29.5913 57.5868 29.6132V31.0726Z" fill="black"/>
<path fill-rule="evenodd" clip-rule="evenodd" d="M58 35.0004C60.2091 35.0004 62 33.2095 62 31.0004C62 28.7912 60.2091 27.0003 58 27.0003C55.7909 27.0003 54 28.7912 54 31.0004C54 33.2095 55.7909 35.0004 58 35.0004ZM57.5868 31.8999V33.6223H56.435V28.5021H57.5082L57.5459 28.8426C57.6331 28.7347 57.7333 28.6462 57.8466 28.5773C58.0061 28.4816 58.1964 28.4337 58.4174 28.4337C58.6521 28.4337 58.8583 28.4782 59.036 28.567C59.216 28.6559 59.3664 28.7835 59.4872 28.9499C59.6103 29.1139 59.7025 29.311 59.7641 29.5412C59.8256 29.7713 59.8563 30.0265 59.8563 30.3068V30.3786C59.8563 30.6475 59.8256 30.897 59.7641 31.1271C59.7025 31.3573 59.6114 31.5578 59.4906 31.7287C59.3699 31.8996 59.2195 32.0329 59.0395 32.1286C58.8617 32.222 58.6555 32.2687 58.4208 32.2687C58.1998 32.2687 58.0095 32.2197 57.85 32.1218C57.7525 32.0619 57.6647 31.9879 57.5868 31.8999Z" fill="black"/>
<path d="M57.3234 19.0299V18.9479C57.3234 18.7942 57.3352 18.6497 57.3586 18.5143C57.382 18.3763 57.4211 18.2552 57.4758 18.151C57.5305 18.0442 57.6034 17.9609 57.6945 17.901C57.7883 17.8411 57.9042 17.8111 58.0422 17.8111C58.1828 17.8111 58.3 17.8411 58.3937 17.901C58.4875 17.9609 58.5617 18.0442 58.6164 18.151C58.6711 18.2552 58.7102 18.3763 58.7336 18.5143C58.757 18.6497 58.7687 18.7942 58.7687 18.9479V19.0299C58.7687 19.1888 58.757 19.3372 58.7336 19.4752C58.7102 19.6133 58.6711 19.7343 58.6164 19.8385C58.5617 19.9401 58.4875 20.0195 58.3937 20.0768C58.3026 20.1341 58.188 20.1627 58.05 20.1627C57.9094 20.1627 57.7922 20.1341 57.6984 20.0768C57.6047 20.0195 57.5305 19.9401 57.4758 19.8385C57.4211 19.7343 57.382 19.6133 57.3586 19.4752C57.3352 19.3372 57.3234 19.1888 57.3234 19.0299Z" fill="black"/>
<path fill-rule="evenodd" clip-rule="evenodd" d="M58 23.0003C60.2091 23.0003 62 21.2094 62 19.0002C62 16.7911 60.2091 15.0002 58 15.0002C55.7909 15.0002 54 16.7911 54 19.0002C54 21.2094 55.7909 23.0003 58 23.0003ZM56.007 18.9479V19.0299C56.007 19.3372 56.0513 19.6224 56.1398 19.8854C56.2284 20.1458 56.3586 20.3737 56.5305 20.569C56.7023 20.7617 56.9159 20.9114 57.1711 21.0182C57.4263 21.125 57.7193 21.1784 58.05 21.1784C58.3807 21.1784 58.6724 21.125 58.925 21.0182C59.1776 20.9114 59.3898 20.7617 59.5617 20.569C59.7336 20.3737 59.8638 20.1458 59.9523 19.8854C60.0409 19.6224 60.0852 19.3372 60.0852 19.0299V18.9479C60.0852 18.638 60.0409 18.3528 59.9523 18.0924C59.8638 17.8294 59.7336 17.6015 59.5617 17.4088C59.3898 17.2161 59.1763 17.0663 58.9211 16.9596C58.6685 16.8502 58.3755 16.7955 58.0422 16.7955C57.7115 16.7955 57.4198 16.8502 57.1672 16.9596C56.9146 17.0663 56.7023 17.2161 56.5305 17.4088C56.3586 17.6015 56.2284 17.8294 56.1398 18.0924C56.0513 18.3528 56.007 18.638 56.007 18.9479Z" fill="black"/>
<path d="M44.436 36.7646C44.436 36.3994 44.3823 36.0717 44.2749 35.7817C44.1675 35.4809 43.9688 35.2016 43.6787 34.9438C43.3887 34.686 42.9697 34.4281 42.4219 34.1703C41.8848 33.9018 41.1758 33.6225 40.2949 33.3324C39.2637 32.9887 38.27 32.602 37.314 32.1723C36.3579 31.7318 35.5039 31.2216 34.752 30.6415C34 30.0507 33.4038 29.3631 32.9634 28.579C32.5229 27.784 32.3027 26.8602 32.3027 25.8074C32.3027 24.7977 32.5283 23.8899 32.9795 23.0843C33.4307 22.2678 34.0591 21.575 34.8647 21.0056C35.6812 20.4255 36.6372 19.9851 37.7329 19.6843C38.8286 19.3728 40.0264 19.217 41.3262 19.217C43.0449 19.217 44.5596 19.5178 45.8701 20.1194C47.1914 20.7102 48.2227 21.5535 48.9639 22.6492C49.7158 23.7342 50.0918 25.0179 50.0918 26.5003H44.4683C44.4683 25.9095 44.3447 25.3885 44.0977 24.9373C43.8613 24.4861 43.5015 24.1316 43.0181 23.8738C42.5347 23.616 41.9277 23.4871 41.1973 23.4871C40.4883 23.4871 39.8921 23.5945 39.4087 23.8094C38.9253 24.0242 38.5601 24.3143 38.313 24.6795C38.0659 25.034 37.9424 25.4261 37.9424 25.8558C37.9424 26.2103 38.0391 26.5325 38.2324 26.8226C38.4365 27.1019 38.7212 27.3651 39.0864 27.6121C39.4624 27.8592 39.9136 28.0955 40.4399 28.3211C40.9771 28.5467 41.5786 28.7669 42.2446 28.9818C43.4907 29.3793 44.5972 29.8251 45.564 30.3192C46.5415 30.8026 47.3633 31.3558 48.0293 31.9789C48.7061 32.5912 49.2163 33.2895 49.5601 34.0737C49.9146 34.8578 50.0918 35.7441 50.0918 36.7324C50.0918 37.7851 49.8877 38.7197 49.4795 39.5361C49.0713 40.3525 48.4858 41.0454 47.7231 41.6148C46.9604 42.1734 46.0474 42.5977 44.9839 42.8877C43.9204 43.1778 42.7334 43.3228 41.4229 43.3228C40.2197 43.3228 39.0327 43.1724 37.8618 42.8716C36.7017 42.5601 35.6489 42.0874 34.7036 41.4536C33.7583 40.8091 33.001 39.9873 32.4316 38.9883C31.873 37.9785 31.5938 36.7807 31.5938 35.395H37.2656C37.2656 36.0825 37.3569 36.6625 37.5396 37.1352C37.7222 37.6079 37.9907 37.9892 38.3452 38.2793C38.6997 38.5586 39.1348 38.7627 39.6504 38.8916C40.166 39.0097 40.7568 39.0688 41.4229 39.0688C42.1426 39.0688 42.7227 38.9668 43.1631 38.7627C43.6035 38.5478 43.9258 38.2685 44.1299 37.9248C44.334 37.5703 44.436 37.1835 44.436 36.7646Z" fill="black"/>
<path d="M3 56H3.1H4V57H3V56Z" fill="black"/>
<path d="M60 56H60.9H61V57H60V56Z" fill="black"/>
<path d="M23.1182 35.6367V19.5393H28.7578V35.6367C28.7578 37.205 28.3979 38.5639 27.6782 39.7134C26.9692 40.8628 26.0024 41.7544 24.7778 42.3882C23.564 43.0113 22.1997 43.3228 20.6851 43.3228C19.1167 43.3228 17.7202 43.0596 16.4956 42.5332C15.2817 42.0068 14.3257 41.1958 13.6274 40.1001C12.9399 39.0044 12.5962 37.6079 12.5962 35.9106H18.2681C18.2681 36.7055 18.3594 37.3286 18.542 37.7797C18.7246 38.2202 18.9932 38.5317 19.3477 38.7143C19.7129 38.8862 20.1587 38.9721 20.6851 38.9721C21.2007 38.9721 21.6357 38.8432 21.9902 38.5854C22.3555 38.3169 22.6348 37.9355 22.8281 37.4414C23.0215 36.9365 23.1182 36.3349 23.1182 35.6367Z" fill="black"/>
</g>
</g>
</svg>
