<svg width="16" height="16" viewBox="0 0 16 16" fill="none" xmlns="http://www.w3.org/2000/svg">
<g id="jSopX Logo Alternative White">
<path fill-rule="evenodd" clip-rule="evenodd" d="M14 1.50076C14 0.524888 13.0829 -0.191157 12.1362 0.0455257L1.43248 2.72149C0.635386 2.7568 0 3.4142 0 4.22001V13.2201C0 13.7861 0.313414 14.2788 0.776142 14.5342C0.775385 14.523 0.775 14.5116 0.775 14.5002V13.0002C0.775 12.8256 0.864444 12.6719 1 12.5825V11.8961C0.558524 11.7032 0.25 11.2627 0.25 10.7501C0.25 10.2375 0.558524 9.79702 1 9.60413V8.89609C0.558524 8.7032 0.25 8.26268 0.25 7.75009C0.25 7.23751 0.558524 6.79698 1 6.60409V5.89606C0.558524 5.70317 0.25 5.26264 0.25 4.75006C0.25 4.05969 0.809644 3.50004 1.5 3.50004C1.76301 3.50004 2.00704 3.58127 2.20839 3.72001H13.7916C13.993 3.58127 14.237 3.50004 14.5 3.50004C15.1904 3.50004 15.75 4.05969 15.75 4.75006C15.75 5.26264 15.4415 5.70317 15 5.89606V6.60409C15.4415 6.79698 15.75 7.23751 15.75 7.75009C15.75 8.26268 15.4415 8.7032 15 8.89609V9.60413C15.4415 9.79702 15.75 10.2375 15.75 10.7501C15.75 11.2627 15.4415 11.7032 15 11.8961V12.5825C15.1356 12.6719 15.225 12.8256 15.225 13.0002V14.5002C15.225 14.5116 15.2246 14.523 15.2239 14.5342C15.6866 14.2788 16 13.7861 16 13.2201V4.22001C16 3.39158 15.3284 2.71999 14.5 2.71999H14V1.50076ZM13 2.71999H5.56155L12.3787 1.01568C12.6943 0.936785 13 1.17547 13 1.50076V2.71999Z" fill="white"/>
<path d="M7.32919 12.3132C7.46457 12.3403 7.55233 12.4721 7.5252 12.6074L6.93582 15.549C6.90869 15.6844 6.77696 15.7722 6.64158 15.745L5.17081 15.4503C5.03543 15.4232 4.94767 15.2915 4.9748 15.1561L5.56418 12.2145C5.5913 12.0791 5.72304 11.9914 5.85842 12.0185L7.32919 12.3132ZM5.90754 11.7734C5.63678 11.7191 5.3733 11.8946 5.31905 12.1654L4.72967 15.107C4.67542 15.3777 4.85093 15.6412 5.12169 15.6955L6.59246 15.9902C6.86322 16.0444 7.1267 15.8689 7.18095 15.5981L7.77033 12.6566C7.82458 12.3858 7.64907 12.1223 7.37831 12.0681L5.90754 11.7734Z" fill="white"/>
<path d="M5.95531 15.3526C6.09069 15.3797 6.22243 15.2919 6.24955 15.1565C6.27668 15.0212 6.18892 14.8894 6.05354 14.8623C5.91816 14.8352 5.78642 14.9229 5.7593 15.0583C5.73217 15.1937 5.81993 15.3254 5.95531 15.3526Z" fill="white"/>
<path d="M8.24092 12.3821C8.29174 12.2537 8.43701 12.1908 8.56539 12.2416L11.3548 13.3458C11.4832 13.3967 11.546 13.5419 11.4952 13.6703L10.7591 15.5299C10.7083 15.6583 10.563 15.7212 10.4346 15.6704L7.64522 14.5662C7.51684 14.5153 7.45397 14.3701 7.50478 14.2417L8.24092 12.3821ZM7.27233 14.1497C7.1707 14.4064 7.29644 14.697 7.5532 14.7986L10.3426 15.9028C10.5994 16.0045 10.8899 15.8787 10.9915 15.622L11.7277 13.7623C11.8293 13.5056 11.7036 13.215 11.4468 13.1134L8.6574 12.0092C8.40065 11.9075 8.11011 12.0333 8.00847 12.29L7.27233 14.1497Z" fill="white"/>
<path d="M10.8947 14.5081C10.9455 14.3797 10.8826 14.2345 10.7543 14.1836C10.6259 14.1328 10.4806 14.1957 10.4298 14.3241C10.379 14.4525 10.4419 14.5977 10.5702 14.6485C10.6986 14.6994 10.8439 14.6365 10.8947 14.5081Z" fill="white"/>
<path fill-rule="evenodd" clip-rule="evenodd" d="M1.5 12.9502C1 12.9502 1 13.4502 1 13.4502V14.9502C1 15.4502 1.5 15.4502 1.5 15.4502H2.5C2.5 15.6169 2.47917 15.7419 2.4375 15.8252H2.25C2.18096 15.8252 2.125 15.8812 2.125 15.9502H3.875C3.875 15.8812 3.81904 15.8252 3.75 15.8252H3.5625C3.52083 15.7419 3.5 15.6169 3.5 15.4502H4.5C5 15.4502 5 14.9502 5 14.9502V13.4502C5 12.9502 4.5 12.9502 4.5 12.9502H1.5ZM1.34961 13.2363C1.37443 13.2198 1.41875 13.2002 1.5 13.2002H4.49774C4.49774 13.2002 4.50076 13.2003 4.50367 13.2005C4.5107 13.201 4.52237 13.2021 4.53703 13.2046C4.56753 13.2097 4.60438 13.2194 4.6382 13.2363C4.67104 13.2527 4.69628 13.2734 4.71386 13.2998C4.7304 13.3246 4.75 13.3689 4.75 13.4502V14.9479C4.75 14.9479 4.74987 14.9509 4.74966 14.9539C4.74916 14.9609 4.74803 14.9725 4.74559 14.9872C4.74051 15.0177 4.7308 15.0546 4.71389 15.0884C4.69747 15.1212 4.67677 15.1465 4.65039 15.164C4.62557 15.1806 4.58125 15.2002 4.5 15.2002H1.50226C1.50226 15.2002 1.49924 15.2001 1.49633 15.1998C1.4893 15.1993 1.47763 15.1982 1.46297 15.1958C1.43247 15.1907 1.39562 15.181 1.3618 15.1641C1.32896 15.1477 1.30372 15.1269 1.28614 15.1006C1.2696 15.0758 1.25 15.0314 1.25 14.9502V13.4524C1.25 13.4524 1.25013 13.4494 1.25034 13.4465C1.25084 13.4395 1.25197 13.4278 1.25441 13.4131C1.25949 13.3826 1.2692 13.3458 1.28611 13.312C1.30253 13.2791 1.32323 13.2539 1.34961 13.2363Z" fill="white"/>
<path d="M14.625 13.2002C14.694 13.2002 14.75 13.2561 14.75 13.3252V15.2002H11.75V13.3252C11.75 13.2561 11.806 13.2002 11.875 13.2002H14.625ZM11.875 12.9502C11.6679 12.9502 11.5 13.1181 11.5 13.3252V15.4502H15V13.3252C15 13.1181 14.8321 12.9502 14.625 12.9502H11.875Z" fill="white"/>
<path d="M11.25 15.5752H15.25C15.25 15.7823 15.0821 15.9502 14.875 15.9502H11.625C11.4179 15.9502 11.25 15.7823 11.25 15.5752Z" fill="white"/>
<path d="M5.28491 9.32445V4.56841H6.95117V9.32445C6.95117 9.78784 6.84485 10.1893 6.6322 10.5289C6.42273 10.8685 6.13708 11.132 5.77527 11.3192C5.41663 11.5033 5.01355 11.5954 4.56604 11.5954C4.10266 11.5954 3.69006 11.5176 3.32825 11.3621C2.9696 11.2066 2.68713 10.9669 2.48083 10.6432C2.27771 10.3195 2.17615 9.90686 2.17615 9.40539H3.85193C3.85193 9.64025 3.87891 9.82434 3.93286 9.95764C3.98682 10.0878 4.06616 10.1798 4.1709 10.2338C4.27881 10.2845 4.41052 10.3099 4.56604 10.3099C4.71838 10.3099 4.84692 10.2719 4.95166 10.1957C5.05957 10.1163 5.14209 10.0037 5.19922 9.85766C5.25635 9.70849 5.28491 9.53076 5.28491 9.32445Z" fill="white"/>
<path d="M11.5834 9.65771C11.5834 9.5498 11.5675 9.45299 11.5358 9.3673C11.504 9.27843 11.4453 9.19591 11.3596 9.11974C11.2739 9.04357 11.1501 8.96739 10.9883 8.89122C10.8296 8.81187 10.6201 8.72935 10.3599 8.64366C10.0552 8.5421 9.7616 8.42784 9.47913 8.30088C9.19666 8.17075 8.94434 8.01999 8.72217 7.84861C8.5 7.67404 8.32385 7.47092 8.19373 7.23922C8.0636 7.00436 7.99854 6.7314 7.99854 6.42037C7.99854 6.12202 8.06519 5.85383 8.19849 5.61579C8.33179 5.37458 8.51746 5.16986 8.75549 5.00165C8.9967 4.83026 9.27917 4.70013 9.60291 4.61126C9.92664 4.51922 10.2805 4.4732 10.6646 4.4732C11.1724 4.4732 11.6199 4.56207 12.0071 4.7398C12.3975 4.91437 12.7021 5.16351 12.9211 5.48725C13.1433 5.80781 13.2544 6.18709 13.2544 6.62508H11.5929C11.5929 6.45052 11.5564 6.29658 11.4834 6.16328C11.4136 6.02998 11.3073 5.92524 11.1644 5.84907C11.0216 5.7729 10.8423 5.73481 10.6265 5.73481C10.417 5.73481 10.2408 5.76655 10.098 5.83003C9.9552 5.8935 9.84729 5.9792 9.77429 6.08711C9.70129 6.19185 9.66479 6.30769 9.66479 6.43465C9.66479 6.53939 9.69336 6.6346 9.75049 6.7203C9.81079 6.80282 9.8949 6.88058 10.0028 6.95358C10.1139 7.02657 10.2472 7.0964 10.4027 7.16305C10.5614 7.2297 10.7391 7.29477 10.9359 7.35824C11.3041 7.47568 11.631 7.60739 11.9166 7.75339C12.2054 7.89621 12.4482 8.05967 12.645 8.24375C12.845 8.42466 12.9957 8.63096 13.0973 8.86266C13.202 9.09435 13.2544 9.35619 13.2544 9.64819C13.2544 9.95923 13.1941 10.2354 13.0735 10.4766C12.9529 10.7178 12.7799 10.9225 12.5546 11.0907C12.3292 11.2558 12.0594 11.3811 11.7452 11.4668C11.431 11.5525 11.0803 11.5954 10.6931 11.5954C10.3376 11.5954 9.98694 11.5509 9.64099 11.4621C9.29822 11.37 8.98718 11.2304 8.70789 11.0431C8.42859 10.8527 8.20483 10.6099 8.03662 10.3147C7.87158 10.0164 7.78906 9.66247 7.78906 9.25304H9.46484C9.46484 9.45617 9.49182 9.62756 9.54578 9.76721C9.59973 9.90686 9.67908 10.0195 9.78381 10.1052C9.88855 10.1877 10.0171 10.248 10.1694 10.2861C10.3218 10.321 10.4963 10.3385 10.6931 10.3385C10.9058 10.3385 11.0771 10.3084 11.2073 10.248C11.3374 10.1846 11.4326 10.102 11.4929 10.0005C11.5532 9.89575 11.5834 9.78149 11.5834 9.65771Z" fill="white"/>
</g>
</svg>
