<svg xmlns="http://www.w3.org/2000/svg" viewBox="0 0 64 62"><g fill="none" class="nc-icon-wrapper"><g id="1721984123828-4893735_jsopx-asp-core-logo-white"><path fill-rule="evenodd" clip-rule="evenodd" d="M58 6.53901C58 2.63558 51.2869 -0.787551 47.5 0.159169L5.72991 6.54498C2.54155 6.68623 0 9.31581 0 12.539V48.539C0 50.8028 1.25366 52.7737 3.10457 53.7954C3.10154 53.7504 3.1 53.705 3.1 53.6592V47.6592C3.1 46.961 3.45778 46.3463 4 45.9886V43.2431C2.2341 42.4716 1 40.7095 1 38.6592C1 36.6088 2.2341 34.8468 4 34.0752V31.2431C2.2341 30.4716 1 28.7095 1 26.6592C1 24.6088 2.2341 22.8468 4 22.0752V19.2431C2.2341 18.4716 1 16.7095 1 14.6592C1 11.8977 3.23858 9.65915 6 9.65915C7.05203 9.65915 8.02817 9.98406 8.83355 10.539H55.1664C55.9718 9.98406 56.948 9.65915 58 9.65915C60.7614 9.65915 63 11.8977 63 14.6592C63 16.7095 61.7659 18.4716 60 19.2431V22.0752C61.7659 22.8468 63 24.6088 63 26.6592C63 28.7095 61.7659 30.4716 60 31.2431V34.0752C61.7659 34.8468 63 36.6088 63 38.6592C63 40.7095 61.7659 42.4716 60 43.2431V45.9886C60.5422 46.3463 60.9 46.961 60.9 47.6592V53.6592C60.9 53.705 60.8985 53.7504 60.8954 53.7954C62.7463 52.7737 64 50.8028 64 48.539V12.539C64 9.2253 61.3137 6.53901 58 6.53901ZM52 6.53901H22.2462L45.5 5.15916C46.7623 4.84359 52 4.35802 52 5.65916V6.53901Z" fill="currentColor"></path><path d="M28.6492 45.1166C29.2193 45.2308 29.5888 45.7855 29.4745 46.3555L26.9929 58.7409C26.8787 59.3109 26.324 59.6804 25.754 59.5662L19.5613 58.3254C18.9913 58.2112 18.6218 57.6565 18.736 57.0865L21.2176 44.7011C21.3318 44.1311 21.8865 43.7616 22.4565 43.8758L28.6492 45.1166ZM22.6633 42.8437C21.5233 42.6152 20.4139 43.3542 20.1855 44.4943L17.7039 56.8797C17.4755 58.0197 18.2145 59.1291 19.3545 59.3575L25.5472 60.5983C26.6873 60.8268 27.7966 60.0878 28.0251 58.9477L30.5067 46.5623C30.7351 45.4223 29.9961 44.3129 28.856 44.0845L22.6633 42.8437Z" fill="currentColor"></path><path d="M22.8645 57.9137C23.4345 58.0279 23.9892 57.6584 24.1034 57.0884C24.2176 56.5184 23.8481 55.9637 23.2781 55.8495C22.708 55.7353 22.1534 56.1048 22.0391 56.6748C21.9249 57.2448 22.2944 57.7995 22.8645 57.9137Z" fill="currentColor"></path><path d="M32.5446 47.2259C32.7402 46.7318 33.3119 46.4949 33.8215 46.6966L44.8954 51.0803C45.4051 51.2821 45.6597 51.8461 45.4641 52.3402L42.6311 59.4969C42.4355 59.9909 41.8638 60.2279 41.3542 60.0262L30.2803 55.6425C29.7706 55.4407 29.516 54.8766 29.7116 54.3826L32.5446 47.2259ZM28.7887 54.0173C28.3976 55.0054 28.9068 56.1335 29.9261 56.5371L41 60.9207C42.0194 61.3242 43.1628 60.8503 43.5539 59.8622L46.387 52.7055C46.7781 51.7174 46.2689 50.5892 45.2496 50.1857L34.1757 45.802C33.1563 45.3985 32.0129 45.8724 31.6218 46.8606L28.7887 54.0173Z" fill="currentColor"></path><path d="M43.1248 55.5532C43.3204 55.0592 43.0658 54.4951 42.5561 54.2933C42.0464 54.0916 41.4747 54.3286 41.2791 54.8226C41.0836 55.3167 41.3382 55.8808 41.8478 56.0825C42.3575 56.2843 42.9292 56.0473 43.1248 55.5532Z" fill="currentColor"></path><path fill-rule="evenodd" clip-rule="evenodd" d="M4.125 47.6592C2 47.6592 2 49.8258 2 49.8258V56.3258C2 58.4925 4.125 58.4925 4.125 58.4925H8.375C8.375 59.2147 8.28646 59.7564 8.10938 60.1175H7.3125C7.0191 60.1175 6.78125 60.36 6.78125 60.6592H14.2188C14.2188 60.36 13.9809 60.1175 13.6875 60.1175H12.8906C12.7135 59.7564 12.625 59.2147 12.625 58.4925H16.875C19 58.4925 19 56.3258 19 56.3258V49.8258C19 47.6592 16.875 47.6592 16.875 47.6592H4.125ZM3.48585 48.8991C3.59131 48.8274 3.77967 48.7425 4.125 48.7425H16.8654C16.8696 48.7427 16.8782 48.7431 16.8906 48.744C16.9205 48.7462 16.9701 48.751 17.0324 48.7616C17.162 48.7837 17.3186 48.8257 17.4623 48.899C17.6019 48.9701 17.7092 49.0599 17.7839 49.1742C17.8542 49.2817 17.9375 49.4737 17.9375 49.8258V56.3161C17.9373 56.3204 17.9369 56.3291 17.9361 56.3418C17.9339 56.3722 17.9291 56.4228 17.9188 56.4863C17.8971 56.6185 17.8559 56.7781 17.784 56.9247C17.7143 57.067 17.6263 57.1764 17.5141 57.2526C17.4087 57.3243 17.2203 57.4092 16.875 57.4092H4.13459C4.13036 57.409 4.12178 57.4086 4.10939 57.4077C4.07953 57.4055 4.02994 57.4007 3.96764 57.3901C3.83801 57.368 3.68141 57.326 3.53766 57.2527C3.39808 57.1816 3.29082 57.0918 3.21608 56.9775C3.14578 56.87 3.0625 56.6779 3.0625 56.3258V49.8356C3.06267 49.8313 3.06307 49.8226 3.06395 49.8099C3.06608 49.7795 3.07086 49.7289 3.08125 49.6654C3.10285 49.5332 3.14408 49.3736 3.21595 49.227C3.28574 49.0847 3.37374 48.9753 3.48585 48.8991Z" fill="currentColor"></path><path d="M59.3438 48.7425C59.6372 48.7425 59.875 48.985 59.875 49.2842V57.4092H47.125V49.2842C47.125 48.985 47.3628 48.7425 47.6562 48.7425H59.3438ZM47.6562 47.6592C46.776 47.6592 46.0625 48.3867 46.0625 49.2842V58.4925H60.9375V49.2842C60.9375 48.3867 60.224 47.6592 59.3438 47.6592H47.6562Z" fill="currentColor"></path><path d="M45 59.0342H62C62 59.9316 61.2865 60.6592 60.4062 60.6592H46.5938C45.7135 60.6592 45 59.9316 45 59.0342Z" fill="currentColor"></path><path d="M5.35228 14.7285C5.3819 14.6841 5.38002 14.6257 5.34761 14.5833C5.3152 14.5409 5.2594 14.5237 5.20874 14.5406L4.45874 14.7906L4.5378 15.0278L4.94218 14.893L4.64427 15.3398C4.61464 15.3843 4.61652 15.4426 4.64893 15.4851C4.68135 15.5275 4.73714 15.5447 4.7878 15.5278L5.19218 15.393L4.89427 15.8398C4.86464 15.8843 4.86652 15.9426 4.89893 15.9851C4.93135 16.0275 4.98714 16.0447 5.0378 16.0278L5.7878 15.7778L5.70874 15.5406L5.30436 15.6754L5.60228 15.2285C5.6319 15.1841 5.63002 15.1257 5.59761 15.0833C5.5652 15.0409 5.5094 15.0237 5.45874 15.0406L5.05436 15.1754L5.35228 14.7285Z" fill="currentColor"></path><path d="M6 18.6592C8.20914 18.6592 10 16.8683 10 14.6592C10 12.45 8.20914 10.6592 6 10.6592C3.79086 10.6592 2 12.45 2 14.6592C2 16.8683 3.79086 18.6592 6 18.6592ZM2.89899 16.2836L3.89312 15.4551C3.7995 15.2077 3.74827 14.9394 3.74827 14.6592C3.74827 13.4165 4.75563 12.4092 5.99827 12.4092C6.65723 12.4092 7.25003 12.6925 7.66153 13.1439L5.74827 13.9092L6.24827 15.1592L6.91489 16.7146C6.63492 16.8397 6.32471 16.9092 5.99827 16.9092C5.71803 16.9092 5.44976 16.8579 5.20231 16.7643L4.37339 17.759C3.74482 17.4285 3.22907 16.9124 2.89899 16.2836ZM8.24827 14.6592C8.24827 15.3734 7.91553 16.0098 7.39662 16.422L6.74827 14.9092L8.2278 14.3544C8.2413 14.454 8.24827 14.5558 8.24827 14.6592Z" fill="currentColor"></path><path fill-rule="evenodd" clip-rule="evenodd" d="M5.86014 30.6102C8.11948 30.6102 9.95104 28.7786 9.95104 26.5193C9.95104 24.2599 8.11948 22.4283 5.86014 22.4283C3.60079 22.4283 1.76923 24.2599 1.76923 26.5193C1.76923 28.7786 3.60079 30.6102 5.86014 30.6102ZM6.95829 23.7347C6.99428 23.6191 6.92864 23.4964 6.81167 23.4608C6.6947 23.4252 6.5707 23.4902 6.53471 23.6058L4.76198 29.3038C4.72599 29.4195 4.79164 29.5421 4.90861 29.5777C5.02558 29.6133 5.14957 29.5484 5.18556 29.4327L6.95829 23.7347ZM4.46568 24.8302C4.55222 24.9158 4.55222 25.0546 4.46568 25.1402L3.07124 26.5193L4.46568 27.8984C4.55222 27.9839 4.55222 28.1227 4.46568 28.2083C4.37915 28.2939 4.23884 28.2939 4.15231 28.2083L2.60117 26.6742C2.51463 26.5886 2.51463 26.4499 2.60117 26.3643L4.15231 24.8302C4.23884 24.7447 4.37915 24.7447 4.46568 24.8302ZM7.25458 25.1402C7.16804 25.0546 7.16804 24.9158 7.25458 24.8302C7.34112 24.7447 7.48142 24.7447 7.56796 24.8302L9.11909 26.3643C9.20563 26.4499 9.20563 26.5886 9.11909 26.6742L7.56796 28.2083C7.48142 28.2939 7.34112 28.2939 7.25458 28.2083C7.16804 28.1227 7.16804 27.9839 7.25458 27.8984L8.64903 26.5193L7.25458 25.1402Z" fill="currentColor"></path><path d="M5.375 37.0342C5.375 36.6545 5.6828 36.3467 6.0625 36.3467C6.4422 36.3467 6.75 36.6545 6.75 37.0342V37.7217H5.375V37.0342Z" fill="currentColor"></path><path fill-rule="evenodd" clip-rule="evenodd" d="M6 42.6592C8.20914 42.6592 10 40.8683 10 38.6592C10 36.45 8.20914 34.6592 6 34.6592C3.79086 34.6592 2 36.45 2 38.6592C2 40.8683 3.79086 42.6592 6 42.6592ZM7.4375 37.7741V37.0342C7.4375 36.2748 6.82189 35.6592 6.0625 35.6592C5.30311 35.6592 4.6875 36.2748 4.6875 37.0342V37.7741C4.31677 37.8884 4 38.1845 4 38.6154V40.2654C4 40.8266 4.53725 41.1592 5.03125 41.1592H7.09375C7.58775 41.1592 8.125 40.8266 8.125 40.2654V38.6154C8.125 38.1845 7.80823 37.8884 7.4375 37.7741Z" fill="currentColor"></path><path fill-rule="evenodd" clip-rule="evenodd" d="M58 42.6592C60.2091 42.6592 62 40.8683 62 38.6592C62 36.45 60.2091 34.6592 58 34.6592C55.7909 34.6592 54 36.45 54 38.6592C54 40.8683 55.7909 42.6592 58 42.6592ZM58.0354 37.8369L57.2219 36.1826H55.8513L57.2424 38.6504L55.8137 41.1592H57.1979L58.0354 39.4741L58.8728 41.1592H60.2536L58.8283 38.6504L60.216 36.1826H58.8488L58.0354 37.8369Z" fill="currentColor"></path><path d="M57.5868 26.7314C57.626 26.8117 57.6796 26.8778 57.7475 26.9295C57.8432 27.0024 57.973 27.0389 58.1371 27.0389C58.2465 27.0389 58.3376 27.0138 58.4105 26.9637C58.4835 26.9113 58.5416 26.8395 58.5849 26.7483C58.6282 26.6549 58.6589 26.5478 58.6771 26.427C58.6954 26.3063 58.7045 26.1764 58.7045 26.0374V25.9656C58.7045 25.8221 58.6942 25.691 58.6737 25.5726C58.6532 25.4518 58.6202 25.347 58.5746 25.2581C58.5313 25.1692 58.4732 25.1009 58.4003 25.053C58.3274 25.0052 58.2374 24.9812 58.1303 24.9812C58.0072 24.9812 57.9035 25.0006 57.8192 25.0394C57.7372 25.0758 57.6711 25.1328 57.621 25.2103C57.6087 25.2296 57.5973 25.2502 57.5868 25.2721V26.7314Z" fill="currentColor"></path><path fill-rule="evenodd" clip-rule="evenodd" d="M58 30.6592C60.2091 30.6592 62 28.8683 62 26.6592C62 24.45 60.2091 22.6592 58 22.6592C55.7909 22.6592 54 24.45 54 26.6592C54 28.8683 55.7909 30.6592 58 30.6592ZM57.5868 27.5587V29.2811H56.435V24.1609H57.5082L57.5459 24.5014C57.6331 24.3935 57.7333 24.3051 57.8466 24.2361C58.0061 24.1404 58.1964 24.0926 58.4174 24.0926C58.6521 24.0926 58.8583 24.137 59.036 24.2259C59.216 24.3147 59.3664 24.4423 59.4872 24.6087C59.6103 24.7728 59.7025 24.9699 59.7641 25.2C59.8256 25.4301 59.8563 25.6853 59.8563 25.9656V26.0374C59.8563 26.3063 59.8256 26.5558 59.7641 26.7859C59.7025 27.0161 59.6114 27.2166 59.4906 27.3875C59.3699 27.5584 59.2195 27.6917 59.0395 27.7874C58.8617 27.8808 58.6555 27.9275 58.4208 27.9275C58.1998 27.9275 58.0095 27.8785 57.85 27.7806C57.7525 27.7207 57.6647 27.6467 57.5868 27.5587Z" fill="currentColor"></path><path d="M57.3234 14.6889V14.6068C57.3234 14.4532 57.3352 14.3087 57.3586 14.1732C57.382 14.0352 57.4211 13.9141 57.4758 13.81C57.5305 13.7032 57.6034 13.6199 57.6945 13.56C57.7883 13.5001 57.9042 13.4701 58.0422 13.4701C58.1828 13.4701 58.3 13.5001 58.3937 13.56C58.4875 13.6199 58.5617 13.7032 58.6164 13.81C58.6711 13.9141 58.7102 14.0352 58.7336 14.1732C58.757 14.3087 58.7687 14.4532 58.7687 14.6068V14.6889C58.7687 14.8477 58.757 14.9962 58.7336 15.1342C58.7102 15.2722 58.6711 15.3933 58.6164 15.4975C58.5617 15.599 58.4875 15.6785 58.3937 15.7357C58.3026 15.793 58.188 15.8217 58.05 15.8217C57.9094 15.8217 57.7922 15.793 57.6984 15.7357C57.6047 15.6785 57.5305 15.599 57.4758 15.4975C57.4211 15.3933 57.382 15.2722 57.3586 15.1342C57.3352 14.9962 57.3234 14.8477 57.3234 14.6889Z" fill="currentColor"></path><path fill-rule="evenodd" clip-rule="evenodd" d="M58 18.6592C60.2091 18.6592 62 16.8683 62 14.6592C62 12.45 60.2091 10.6592 58 10.6592C55.7909 10.6592 54 12.45 54 14.6592C54 16.8683 55.7909 18.6592 58 18.6592ZM56.007 14.6068V14.6889C56.007 14.9962 56.0513 15.2813 56.1398 15.5443C56.2284 15.8047 56.3586 16.0326 56.5305 16.2279C56.7023 16.4206 56.9159 16.5704 57.1711 16.6771C57.4263 16.7839 57.7193 16.8373 58.05 16.8373C58.3807 16.8373 58.6724 16.7839 58.925 16.6771C59.1776 16.5704 59.3898 16.4206 59.5617 16.2279C59.7336 16.0326 59.8638 15.8047 59.9523 15.5443C60.0409 15.2813 60.0852 14.9962 60.0852 14.6889V14.6068C60.0852 14.2969 60.0409 14.0118 59.9523 13.7514C59.8638 13.4883 59.7336 13.2605 59.5617 13.0678C59.3898 12.8751 59.1763 12.7253 58.9211 12.6186C58.6685 12.5092 58.3755 12.4545 58.0422 12.4545C57.7115 12.4545 57.4198 12.5092 57.1672 12.6186C56.9146 12.7253 56.7023 12.8751 56.5305 13.0678C56.3586 13.2605 56.2284 13.4883 56.1398 13.7514C56.0513 14.0118 56.007 14.2969 56.007 14.6068Z" fill="currentColor"></path><path d="M15.344 29.898C15.344 30.2527 15.211 30.5567 14.945 30.81C14.6917 31.0634 14.394 31.19 14.052 31.19C13.6973 31.19 13.3933 31.0634 13.14 30.81C12.8867 30.5567 12.76 30.2527 12.76 29.898C12.76 29.5434 12.8803 29.2394 13.121 28.986C13.3743 28.7327 13.6847 28.606 14.052 28.606C14.4067 28.606 14.7107 28.7327 14.964 28.986C15.2173 29.2394 15.344 29.5434 15.344 29.898Z" fill="currentColor"></path><path d="M20.1423 17.149L26.0703 26.269C26.1843 26.4464 26.3046 26.6364 26.4313 26.839C26.5579 27.0417 26.6846 27.2317 26.8113 27.409C26.7986 27.1937 26.7859 26.972 26.7733 26.744C26.7606 26.516 26.7543 26.3007 26.7543 26.098V17.149H28.3123V31.095H27.0203L20.1233 20.531C20.0219 20.3537 19.9079 20.1764 19.7813 19.999C19.6546 19.809 19.5279 19.6254 19.4013 19.448C19.4266 19.6507 19.4456 19.8597 19.4583 20.075C19.4709 20.2777 19.4773 20.4804 19.4773 20.683V31H17.9003V18.403L17.6343 17.149H20.1423Z" fill="currentColor"></path><path d="M31.1787 17.149H39.5767V18.574H33.3827V23.191H38.1707V24.578H33.3827V29.575H39.5767V31H31.4447V18.384L31.1787 17.149Z" fill="currentColor"></path><path d="M44.7985 18.574H40.7325V17.149H50.8785V18.574H46.7555V31H44.7985V18.574Z" fill="currentColor"></path><path d="M24.147 41.132C23.509 41.132 22.959 41.0257 22.497 40.813C22.035 40.593 21.65 40.2924 21.342 39.911C21.0413 39.5297 20.8177 39.1007 20.671 38.624C20.5243 38.14 20.451 37.634 20.451 37.106C20.451 36.5487 20.5317 36.017 20.693 35.511C20.8617 35.005 21.1037 34.554 21.419 34.158C21.7343 33.7547 22.1267 33.4394 22.596 33.212C23.0653 32.9847 23.608 32.871 24.224 32.871C24.4807 32.871 24.763 32.9004 25.071 32.959C25.379 33.0177 25.676 33.1094 25.962 33.234C26.248 33.3587 26.4827 33.52 26.666 33.718L26.05 34.422C25.9107 34.268 25.7347 34.136 25.522 34.026C25.3167 33.916 25.0967 33.8354 24.862 33.784C24.6347 33.7254 24.4183 33.696 24.213 33.696C23.7877 33.696 23.4173 33.7914 23.102 33.982C22.7867 34.1654 22.5227 34.422 22.31 34.752C22.0973 35.0747 21.936 35.4377 21.826 35.841C21.7233 36.237 21.672 36.6404 21.672 37.051C21.672 37.711 21.7747 38.283 21.98 38.767C22.1927 39.2437 22.4897 39.614 22.871 39.878C23.2523 40.1347 23.7033 40.263 24.224 40.263C24.532 40.263 24.862 40.219 25.214 40.131C25.5733 40.043 25.9437 39.9037 26.325 39.713L26.688 40.373C26.5193 40.4904 26.3287 40.5967 26.116 40.692C25.9107 40.7874 25.6943 40.868 25.467 40.934C25.2397 41 25.0123 41.0477 24.785 41.077C24.5577 41.1137 24.345 41.132 24.147 41.132Z" fill="currentColor"></path><path d="M29.5322 41.143C28.9969 41.143 28.5422 41.011 28.1682 40.747C27.8015 40.483 27.5265 40.1347 27.3432 39.702C27.1599 39.2694 27.0682 38.8037 27.0682 38.305C27.0682 37.931 27.1232 37.5717 27.2332 37.227C27.3432 36.875 27.5082 36.5634 27.7282 36.292C27.9482 36.0134 28.2159 35.797 28.5312 35.643C28.8465 35.4817 29.2022 35.401 29.5982 35.401C30.1409 35.401 30.5955 35.533 30.9622 35.797C31.3362 36.0537 31.6149 36.3984 31.7982 36.831C31.9815 37.2637 32.0732 37.733 32.0732 38.239C32.0732 38.613 32.0145 38.976 31.8972 39.328C31.7872 39.6727 31.6259 39.9807 31.4132 40.252C31.2005 40.5234 30.9365 40.7397 30.6212 40.901C30.3059 41.0624 29.9429 41.143 29.5322 41.143ZM29.5432 40.417C29.8219 40.417 30.0565 40.351 30.2472 40.219C30.4379 40.0797 30.5882 39.9037 30.6982 39.691C30.8155 39.471 30.8962 39.2364 30.9402 38.987C30.9915 38.7377 31.0172 38.4994 31.0172 38.272C31.0172 38.0374 30.9952 37.7954 30.9512 37.546C30.9072 37.2967 30.8339 37.0657 30.7312 36.853C30.6285 36.6404 30.4819 36.468 30.2912 36.336C30.1005 36.1967 29.8659 36.127 29.5872 36.127C29.3085 36.127 29.0739 36.1967 28.8832 36.336C28.6999 36.468 28.5495 36.644 28.4322 36.864C28.3222 37.0767 28.2415 37.3077 28.1902 37.557C28.1462 37.8064 28.1242 38.0447 28.1242 38.272C28.1242 38.492 28.1462 38.7267 28.1902 38.976C28.2415 39.2254 28.3185 39.46 28.4212 39.68C28.5312 39.8927 28.6779 40.0687 28.8612 40.208C29.0445 40.3474 29.2719 40.417 29.5432 40.417Z" fill="currentColor"></path><path d="M34.0339 35.434C34.1733 35.764 34.2613 36.1124 34.2979 36.479C34.4813 36.1784 34.7343 35.929 35.0569 35.731C35.3869 35.533 35.7316 35.434 36.091 35.434L35.8709 36.468C35.5263 36.468 35.2293 36.5597 34.9799 36.743C34.7306 36.919 34.5069 37.15 34.3089 37.436V41H33.3299V37.029C33.3299 36.8897 33.3189 36.7284 33.2969 36.545C33.2749 36.3544 33.2383 36.171 33.1869 35.995C33.1356 35.819 33.0659 35.6724 32.9779 35.555L34.0339 35.434Z" fill="currentColor"></path><path d="M39.2334 35.401C39.6881 35.401 40.0658 35.4964 40.3664 35.687C40.6744 35.8704 40.9018 36.1234 41.0484 36.446C41.2024 36.7687 41.2794 37.139 41.2794 37.557C41.2794 37.667 41.2721 37.777 41.2574 37.887C41.2501 37.997 41.2391 38.1107 41.2244 38.228H37.7704C37.7704 38.9027 37.9208 39.427 38.2214 39.801C38.5221 40.1677 38.9254 40.351 39.4314 40.351C39.6441 40.351 39.8641 40.318 40.0914 40.252C40.3261 40.1787 40.5718 40.076 40.8284 39.944L41.1694 40.527C40.9128 40.7324 40.6158 40.8864 40.2784 40.989C39.9484 41.0917 39.6221 41.143 39.2994 41.143C38.8668 41.143 38.4891 41.066 38.1664 40.912C37.8438 40.758 37.5761 40.549 37.3634 40.285C37.1508 40.021 36.9894 39.7204 36.8794 39.383C36.7768 39.0384 36.7254 38.6864 36.7254 38.327C36.7254 37.953 36.7768 37.5937 36.8794 37.249C36.9821 36.9044 37.1398 36.5927 37.3524 36.314C37.5651 36.028 37.8254 35.8044 38.1334 35.643C38.4488 35.4817 38.8154 35.401 39.2334 35.401ZM39.1564 36.127C38.9071 36.127 38.6871 36.1967 38.4964 36.336C38.3131 36.4754 38.1664 36.6514 38.0564 36.864C37.9464 37.0767 37.8694 37.293 37.8254 37.513H40.2454C40.2601 37.2197 40.2234 36.9704 40.1354 36.765C40.0548 36.5597 39.9301 36.402 39.7614 36.292C39.5928 36.182 39.3911 36.127 39.1564 36.127Z" fill="currentColor"></path></g></g></svg>