<svg width="64" height="64" viewBox="0 0 64 64" fill="none" xmlns="http://www.w3.org/2000/svg">
<g id="jSopX Logo Alternate Color Dark">
<path d="M1 16C1 14.3431 2.34315 13 4 13H60C61.6569 13 63 14.3431 63 16V56C63 57.6569 61.6569 59 60 59H4C2.34315 59 1 57.6569 1 56V16Z" fill="url(#paint0_linear_3840_349)"/>
<path d="M46.4 53.33C46.4 52.7777 46.8477 52.33 47.4 52.33H58.4C58.9523 52.33 59.4 52.7777 59.4 53.33V60.33C59.4 60.8823 58.9523 61.33 58.4 61.33H47.4C46.8477 61.33 46.4 60.8823 46.4 60.33V53.33Z" fill="url(#paint1_linear_3840_349)"/>
<path d="M21.6733 48.6805C21.7819 48.139 22.309 47.7881 22.8505 47.8968L29.3748 49.2059C29.9162 49.3146 30.2671 49.8417 30.1585 50.3831L27.7863 62.205C27.6776 62.7465 27.1506 63.0974 26.6091 62.9887L20.0848 61.6795C19.5433 61.5709 19.1924 61.0438 19.301 60.5023L21.6733 48.6805Z" fill="url(#paint2_linear_3840_349)"/>
<path d="M32.7249 48.928C32.9307 48.4155 33.5129 48.1668 34.0255 48.3725L45.6259 53.0287C46.1384 53.2344 46.3872 53.8166 46.1814 54.3292L42.829 62.6815C42.6233 63.194 42.041 63.4428 41.5285 63.237L29.928 58.5809C29.4155 58.3752 29.1668 57.7929 29.3725 57.2803L32.7249 48.928Z" fill="url(#paint3_linear_3840_349)"/>
<path d="M4.8 53.8C4.8 53.2477 5.24772 52.8 5.8 52.8H18.3C18.8523 52.8 19.3 53.2477 19.3 53.8V59.8C19.3 60.3523 18.8523 60.8 18.3 60.8H5.8C5.24772 60.8 4.8 60.3523 4.8 59.8V53.8Z" fill="url(#paint4_linear_3840_349)"/>
<path d="M20.8324 10.8486L51.8189 3.06535L52.761 11.9912L20.8324 10.8486Z" fill="#616569"/>
<path fill-rule="evenodd" clip-rule="evenodd" d="M56 6.00295C56 2.09953 52.3317 -0.764619 48.5448 0.182101L5.72991 10.8858C2.54155 11.0271 0 13.6566 0 16.8798V52.8798C0 55.1436 1.25366 57.1145 3.10457 58.1363C3.10154 58.0912 3.1 58.0458 3.1 58V52C3.1 51.3018 3.45778 50.6871 4 50.3294V47.584C2.2341 46.8124 1 45.0503 1 43C1 40.9497 2.2341 39.1876 4 38.416V35.584C2.2341 34.8124 1 33.0503 1 31C1 28.9497 2.2341 27.1876 4 26.416V23.584C2.2341 22.8124 1 21.0503 1 19C1 16.2386 3.23858 14 6 14C7.05203 14 8.02817 14.3249 8.83355 14.8798H55.1665C55.9718 14.3249 56.948 14 58 14C60.7614 14 63 16.2386 63 19C63 21.0503 61.7659 22.8124 60 23.584V26.416C61.7659 27.1876 63 28.9497 63 31C63 33.0503 61.7659 34.8124 60 35.584V38.416C61.7659 39.1876 63 40.9497 63 43C63 45.0503 61.7659 46.8124 60 47.584V50.3294C60.5422 50.6871 60.9 51.3018 60.9 52V58C60.9 58.0458 60.8985 58.0912 60.8954 58.1363C62.7463 57.1145 64 55.1436 64 52.8798V16.8798C64 13.5661 61.3137 10.8798 58 10.8798H56V6.00295ZM52 10.8798H22.2462L49.5149 4.06267C50.7772 3.7471 52 4.70181 52 6.00295V10.8798Z" fill="#212529"/>
<path d="M29.3168 49.2522C29.8583 49.3607 30.2093 49.8876 30.1008 50.4292L27.7433 62.1953C27.6348 62.7368 27.1078 63.0879 26.5663 62.9794L20.6832 61.8006C20.1417 61.6921 19.7907 61.1651 19.8992 60.6236L22.2567 48.8575C22.3652 48.316 22.8922 47.9649 23.4337 48.0734L29.3168 49.2522ZM23.6302 47.0929C22.5471 46.8759 21.4932 47.578 21.2762 48.661L18.9187 60.4272C18.7017 61.5102 19.4037 62.5641 20.4868 62.7811L26.3698 63.9599C27.4529 64.1769 28.5068 63.4748 28.7238 62.3918L31.0813 50.6256C31.2983 49.5426 30.5963 48.4887 29.5132 48.2717L23.6302 47.0929Z" fill="#212529"/>
<path d="M23.8212 61.4095C24.3628 61.518 24.8897 61.1669 24.9982 60.6254C25.1067 60.0839 24.7557 59.5569 24.2142 59.4484C23.6726 59.3399 23.1457 59.691 23.0372 60.2325C22.9287 60.774 23.2797 61.301 23.8212 61.4095Z" fill="#212529"/>
<path d="M32.9637 49.5277C33.167 49.0142 33.748 48.7627 34.2616 48.9659L45.4191 53.3828C45.9327 53.586 46.1841 54.1671 45.9809 54.6806L43.0363 62.119C42.833 62.6325 42.252 62.884 41.7385 62.6807L30.5809 58.2639C30.0674 58.0606 29.8159 57.4796 30.0191 56.9661L32.9637 49.5277ZM29.0893 56.598C28.6828 57.625 29.1858 58.7872 30.2128 59.1937L41.3704 63.6105C42.3974 64.0171 43.5596 63.5141 43.9661 62.4871L46.9107 55.0487C47.3172 54.0217 46.8142 52.8595 45.7872 52.453L34.6296 48.0361C33.6026 47.6296 32.4404 48.1326 32.0339 49.1596L29.0893 56.598Z" fill="#212529"/>
<path d="M43.5788 58.0317C43.7821 57.5182 43.5306 56.9372 43.0171 56.7339C42.5035 56.5306 41.9225 56.7821 41.7192 57.2956C41.5159 57.8091 41.7674 58.3902 42.2809 58.5935C42.7944 58.7968 43.3755 58.5453 43.5788 58.0317Z" fill="#212529"/>
<path fill-rule="evenodd" clip-rule="evenodd" d="M6 51.8C4 51.8 4 53.8 4 53.8V59.8C4 61.8 6 61.8 6 61.8H10C10 62.4667 9.91667 62.9667 9.75 63.3H9C8.72386 63.3 8.5 63.5239 8.5 63.8H15.5C15.5 63.5239 15.2761 63.3 15 63.3H14.25C14.0833 62.9667 14 62.4667 14 61.8H18C20 61.8 20 59.8 20 59.8V53.8C20 51.8 18 51.8 18 51.8H6ZM5.39845 52.9446C5.49771 52.8784 5.67498 52.8 6 52.8H17.991C17.995 52.8002 18.003 52.8005 18.0147 52.8014C18.0428 52.8034 18.0895 52.8079 18.1481 52.8176C18.2701 52.838 18.4175 52.8768 18.5528 52.9444C18.6842 53.0101 18.7851 53.0929 18.8554 53.1985C18.9216 53.2977 19 53.475 19 53.8V59.791C18.9998 59.795 18.9995 59.803 18.9986 59.8147C18.9966 59.8428 18.9921 59.8895 18.9824 59.9481C18.962 60.0701 18.9232 60.2175 18.8556 60.3528C18.7899 60.4842 18.7071 60.5851 18.6016 60.6555C18.5023 60.7216 18.325 60.8 18 60.8H6.00903C6.00504 60.7998 5.99697 60.7995 5.98531 60.7986C5.95721 60.7966 5.91053 60.7921 5.8519 60.7824C5.72989 60.762 5.5825 60.7232 5.44721 60.6556C5.31584 60.5899 5.21489 60.5071 5.14455 60.4016C5.07838 60.3023 5 60.125 5 59.8V53.809C5.00016 53.805 5.00053 53.797 5.00136 53.7853C5.00337 53.7572 5.00787 53.7105 5.01764 53.6519C5.03798 53.5299 5.07678 53.3825 5.14443 53.2472C5.21011 53.1158 5.29294 53.0149 5.39845 52.9446Z" fill="#212529"/>
<path d="M58.5 52.8C58.7761 52.8 59 53.0239 59 53.3V60.8H47V53.3C47 53.0239 47.2239 52.8 47.5 52.8H58.5ZM47.5 51.8C46.6716 51.8 46 52.4716 46 53.3V61.8H60V53.3C60 52.4716 59.3284 51.8 58.5 51.8H47.5Z" fill="#212529"/>
<path d="M45 62.3H61C61 63.1284 60.3284 63.8 59.5 63.8H46.5C45.6716 63.8 45 63.1284 45 62.3Z" fill="#212529"/>
<path d="M21.1396 37.2974V18.2734H27.8047V37.2974C27.8047 39.1509 27.3794 40.7568 26.5288 42.1152C25.6909 43.4736 24.5483 44.5273 23.1011 45.2764C21.6665 46.0127 20.0542 46.3809 18.2642 46.3809C16.4106 46.3809 14.7603 46.0698 13.313 45.4478C11.8784 44.8257 10.7485 43.8672 9.92334 42.5723C9.11084 41.2773 8.70459 39.627 8.70459 37.6211H15.4077C15.4077 38.5605 15.5156 39.2969 15.7314 39.8301C15.9473 40.3506 16.2646 40.7188 16.6836 40.9346C17.1152 41.1377 17.6421 41.2393 18.2642 41.2393C18.8735 41.2393 19.3877 41.0869 19.8066 40.7822C20.2383 40.4648 20.5684 40.0142 20.7969 39.4302C21.0254 38.8335 21.1396 38.1226 21.1396 37.2974Z" fill="#212529"/>
<path d="M46.3335 38.6304C46.3335 38.1987 46.27 37.8115 46.1431 37.4688C46.0161 37.1133 45.7812 36.7832 45.4385 36.4785C45.0957 36.1738 44.6006 35.8691 43.9531 35.5645C43.3184 35.2471 42.4805 34.917 41.4395 34.5742C40.2207 34.168 39.0464 33.7109 37.9165 33.2031C36.7866 32.6826 35.7773 32.0796 34.8887 31.394C34 30.6958 33.2954 29.8833 32.7749 28.9565C32.2544 28.0171 31.9941 26.9253 31.9941 25.6812C31.9941 24.4878 32.2607 23.415 32.7939 22.4629C33.3271 21.498 34.0698 20.6792 35.022 20.0063C35.9868 19.3208 37.1167 18.8003 38.4116 18.4448C39.7065 18.0767 41.1221 17.8926 42.6582 17.8926C44.6895 17.8926 46.4795 18.248 48.0283 18.959C49.5898 19.6572 50.8086 20.6538 51.6846 21.9487C52.5732 23.231 53.0176 24.748 53.0176 26.5H46.3716C46.3716 25.8018 46.2256 25.186 45.9336 24.6528C45.6543 24.1196 45.229 23.7007 44.6577 23.396C44.0864 23.0913 43.3691 22.939 42.5059 22.939C41.668 22.939 40.9634 23.0659 40.3921 23.3198C39.8208 23.5737 39.3892 23.9165 39.0972 24.3481C38.8052 24.7671 38.6592 25.2305 38.6592 25.7383C38.6592 26.1572 38.7734 26.5381 39.002 26.8809C39.2432 27.2109 39.5796 27.522 40.0112 27.814C40.4556 28.106 40.9888 28.3853 41.6108 28.6519C42.2456 28.9185 42.9565 29.1787 43.7437 29.4326C45.2163 29.9023 46.5239 30.4292 47.6665 31.0132C48.8218 31.5845 49.793 32.2383 50.5801 32.9746C51.3799 33.6982 51.9829 34.5234 52.3892 35.4502C52.8081 36.377 53.0176 37.4243 53.0176 38.5923C53.0176 39.8364 52.7764 40.9409 52.2939 41.9058C51.8115 42.8706 51.1196 43.6895 50.2183 44.3623C49.3169 45.0225 48.2378 45.5239 46.981 45.8667C45.7241 46.2095 44.3213 46.3809 42.7725 46.3809C41.3506 46.3809 39.9478 46.2031 38.564 45.8477C37.1929 45.4795 35.9487 44.9209 34.8315 44.1719C33.7144 43.4102 32.8193 42.439 32.1465 41.2583C31.4863 40.0649 31.1562 38.6494 31.1562 37.0117H37.8594C37.8594 37.8242 37.9673 38.5098 38.1831 39.0684C38.3989 39.627 38.7163 40.0776 39.1353 40.4204C39.5542 40.7505 40.0684 40.9917 40.6777 41.144C41.2871 41.2837 41.9854 41.3535 42.7725 41.3535C43.623 41.3535 44.3086 41.2329 44.8291 40.9917C45.3496 40.7378 45.7305 40.4077 45.9717 40.0015C46.2129 39.5825 46.3335 39.1255 46.3335 38.6304Z" fill="#212529"/>
</g>
<defs>
<linearGradient id="paint0_linear_3840_349" x1="32" y1="0" x2="32" y2="63.9992" gradientUnits="userSpaceOnUse">
<stop stop-color="#0F53B8"/>
<stop offset="1" stop-color="#0D6EFD"/>
</linearGradient>
<linearGradient id="paint1_linear_3840_349" x1="32" y1="0" x2="32" y2="63.9992" gradientUnits="userSpaceOnUse">
<stop stop-color="#616569"/>
<stop offset="1" stop-color="#8B8E92"/>
</linearGradient>
<linearGradient id="paint2_linear_3840_349" x1="32" y1="0" x2="32" y2="63.9992" gradientUnits="userSpaceOnUse">
<stop stop-color="#616569"/>
<stop offset="1" stop-color="#8B8E92"/>
</linearGradient>
<linearGradient id="paint3_linear_3840_349" x1="32" y1="0" x2="32" y2="63.9992" gradientUnits="userSpaceOnUse">
<stop stop-color="#616569"/>
<stop offset="1" stop-color="#8B8E92"/>
</linearGradient>
<linearGradient id="paint4_linear_3840_349" x1="32" y1="0" x2="32" y2="63.9992" gradientUnits="userSpaceOnUse">
<stop stop-color="#616569"/>
<stop offset="1" stop-color="#8B8E92"/>
</linearGradient>
</defs>
</svg>
