<svg width="260" height="260" viewBox="0 0 260 260" fill="none" xmlns="http://www.w3.org/2000/svg">
<g id="jSopX Logo Color Light Favicon">
<path d="M4.0625 65C4.0625 58.269 9.51903 52.8125 16.25 52.8125H243.75C250.481 52.8125 255.938 58.269 255.938 65V227.5C255.938 234.231 250.481 239.688 243.75 239.688H16.25C9.51903 239.688 4.0625 234.231 4.0625 227.5V65Z" fill="url(#paint0_linear_3840_350)"/>
<path d="M188.5 216.653C188.5 214.41 190.319 212.591 192.562 212.591H237.25C239.494 212.591 241.312 214.41 241.312 216.653V245.091C241.312 247.334 239.494 249.153 237.25 249.153H192.562C190.319 249.153 188.5 247.334 188.5 245.091V216.653Z" fill="url(#paint1_linear_3840_350)"/>
<path d="M88.0476 197.764C88.489 195.565 90.6302 194.139 92.83 194.581L119.335 199.899C121.535 200.341 122.96 202.482 122.519 204.682L112.882 252.708C112.44 254.908 110.299 256.333 108.099 255.892L81.5943 250.573C79.3945 250.132 77.9691 247.99 78.4105 245.791L88.0476 197.764Z" fill="url(#paint2_linear_3840_350)"/>
<path d="M132.945 198.77C133.781 196.688 136.146 195.678 138.228 196.513L185.355 215.429C187.437 216.265 188.448 218.63 187.612 220.712L173.993 254.644C173.157 256.726 170.792 257.736 168.709 256.9L121.583 237.985C119.5 237.149 118.49 234.784 119.326 232.701L132.945 198.77Z" fill="url(#paint3_linear_3840_350)"/>
<path d="M19.5 218.562C19.5 216.319 21.3189 214.5 23.5625 214.5H74.3438C76.5874 214.5 78.4063 216.319 78.4063 218.562V242.937C78.4063 245.181 76.5874 247 74.3438 247H23.5625C21.3189 247 19.5 245.181 19.5 242.937V218.562Z" fill="url(#paint4_linear_3840_350)"/>
<path d="M84.6317 44.0725L210.514 12.453L214.341 48.7144L84.6317 44.0725Z" fill="#D2D6DC"/>
<path fill-rule="evenodd" clip-rule="evenodd" d="M227.5 24.387C227.5 8.52933 212.597 -3.10627 197.213 0.739784L23.2777 44.2236C10.325 44.7975 0 55.4801 0 68.5744V214.824C0 224.021 5.09298 232.028 12.6123 236.179C12.6 235.996 12.5938 235.811 12.5938 235.625V211.25C12.5938 208.414 14.0472 205.917 16.25 204.463V193.31C9.07601 190.175 4.0625 183.017 4.0625 174.687C4.0625 166.358 9.07601 159.2 16.25 156.065V144.56C9.07601 141.425 4.0625 134.267 4.0625 125.937C4.0625 117.608 9.07601 110.45 16.25 107.315V95.8098C9.07601 92.6754 4.0625 85.5169 4.0625 77.1875C4.0625 65.9692 13.1567 56.875 24.375 56.875C28.6489 56.875 32.6144 58.1949 35.8863 60.4494H224.114C227.386 58.1949 231.351 56.875 235.625 56.875C246.843 56.875 255.938 65.9692 255.938 77.1875C255.938 85.5169 250.924 92.6754 243.75 95.8098V107.315C250.924 110.45 255.938 117.608 255.938 125.937C255.938 134.267 250.924 141.425 243.75 144.56V156.065C250.924 159.2 255.938 166.358 255.938 174.687C255.938 183.017 250.924 190.175 243.75 193.31V204.463C245.953 205.917 247.406 208.414 247.406 211.25V235.625C247.406 235.811 247.4 235.996 247.388 236.179C254.907 232.028 260 224.021 260 214.824V68.5744C260 55.1125 249.087 44.1994 235.625 44.1994H227.5V24.387ZM211.25 44.1994H90.3752L201.154 16.5046C206.282 15.2226 211.25 19.1011 211.25 24.387V44.1994Z" fill="white"/>
<path d="M119.099 200.087C121.299 200.528 122.725 202.669 122.285 204.868L112.707 252.668C112.266 254.868 110.126 256.294 107.926 255.854L84.0257 251.065C81.8257 250.624 80.3997 248.483 80.8404 246.283L90.4179 198.484C90.8587 196.284 92.9994 194.858 95.1994 195.298L119.099 200.087ZM95.9975 191.315C91.5976 190.433 87.3162 193.286 86.4346 197.685L76.8571 245.485C75.9755 249.885 78.8277 254.167 83.2275 255.048L107.128 259.837C111.527 260.719 115.809 257.866 116.69 253.467L126.268 205.667C127.149 201.267 124.297 196.985 119.897 196.104L95.9975 191.315Z" fill="white"/>
<path d="M96.7738 249.476C98.9737 249.917 101.114 248.491 101.555 246.291C101.996 244.091 100.57 241.95 98.37 241.509C96.1701 241.068 94.0294 242.495 93.5886 244.694C93.1478 246.894 94.5738 249.035 96.7738 249.476Z" fill="white"/>
<path d="M133.915 201.206C134.741 199.12 137.101 198.098 139.188 198.924L184.515 216.867C186.601 217.693 187.623 220.054 186.797 222.14L174.835 252.358C174.009 254.445 171.649 255.466 169.562 254.641L124.235 236.697C122.149 235.871 121.127 233.511 121.953 231.425L133.915 201.206ZM118.175 229.929C116.524 234.102 118.567 238.823 122.739 240.474L168.067 258.418C172.239 260.069 176.961 258.026 178.612 253.854L190.575 223.635C192.226 219.463 190.183 214.742 186.01 213.09L140.683 195.147C136.511 193.495 131.789 195.539 130.138 199.711L118.175 229.929Z" fill="white"/>
<path d="M177.039 235.754C177.865 233.668 176.843 231.307 174.757 230.481C172.671 229.656 170.31 230.677 169.484 232.763C168.658 234.85 169.68 237.21 171.766 238.036C173.852 238.862 176.213 237.84 177.039 235.754Z" fill="white"/>
<path fill-rule="evenodd" clip-rule="evenodd" d="M24.375 210.438C16.25 210.438 16.25 218.562 16.25 218.562V242.938C16.25 251.062 24.375 251.062 24.375 251.062H40.625C40.625 253.771 40.2865 255.802 39.6094 257.156H36.5625C35.4407 257.156 34.5312 258.066 34.5312 259.188H62.9688C62.9688 258.066 62.0593 257.156 60.9375 257.156H57.8906C57.2135 255.802 56.875 253.771 56.875 251.062H73.125C81.25 251.062 81.25 242.938 81.25 242.938V218.562C81.25 210.438 73.125 210.438 73.125 210.438H24.375ZM21.9312 215.087C22.3344 214.818 23.0546 214.5 24.375 214.5H73.0883C73.1045 214.501 73.1373 214.502 73.1847 214.506C73.2988 214.514 73.4885 214.532 73.7267 214.572C74.2223 214.654 74.8211 214.812 75.3707 215.087C75.9044 215.354 76.3145 215.69 76.6003 216.119C76.8691 216.522 77.1875 217.242 77.1875 218.562V242.901C77.1869 242.917 77.1853 242.95 77.182 242.997C77.1738 243.111 77.1555 243.301 77.1158 243.539C77.0332 244.035 76.8756 244.634 76.6008 245.183C76.3339 245.717 75.9975 246.127 75.5688 246.413C75.1656 246.682 74.4454 247 73.125 247H24.4117C24.3955 246.999 24.3627 246.998 24.3153 246.994C24.2012 246.986 24.0115 246.968 23.7733 246.928C23.2777 246.846 22.6789 246.688 22.1293 246.413C21.5956 246.146 21.1855 245.81 20.8997 245.381C20.6309 244.978 20.3125 244.258 20.3125 242.938V218.599C20.3131 218.583 20.3147 218.55 20.318 218.503C20.3262 218.389 20.3445 218.199 20.3842 217.961C20.4668 217.465 20.6244 216.866 20.8992 216.317C21.1661 215.783 21.5026 215.373 21.9312 215.087Z" fill="white"/>
<path d="M237.656 214.5C238.778 214.5 239.688 215.409 239.688 216.531V247H190.938V216.531C190.938 215.409 191.847 214.5 192.969 214.5H237.656ZM192.969 210.438C189.603 210.438 186.875 213.166 186.875 216.531V251.062H243.75V216.531C243.75 213.166 241.022 210.438 237.656 210.438H192.969Z" fill="white"/>
<path d="M182.812 253.094H247.812C247.812 256.459 245.084 259.188 241.719 259.188H188.906C185.541 259.188 182.812 256.459 182.812 253.094Z" fill="white"/>
<path d="M21.7436 77.4692C21.864 77.2887 21.8563 77.0516 21.7247 76.8792C21.593 76.7068 21.3663 76.6371 21.1605 76.7057L18.1136 77.7214L18.4348 78.6849L20.0776 78.1373L18.8673 79.9527C18.747 80.1332 18.7546 80.3702 18.8863 80.5426C19.018 80.715 19.2446 80.7847 19.4504 80.7161L21.0932 80.1685L19.883 81.9839C19.7626 82.1644 19.7702 82.4014 19.9019 82.5739C20.0336 82.7463 20.2603 82.816 20.4661 82.7474L23.5129 81.7317L23.1918 80.7682L21.549 81.3158L22.7593 79.5004C22.8796 79.3199 22.872 79.0829 22.7403 78.9105C22.6086 78.7381 22.382 78.6684 22.1761 78.737L20.5334 79.2846L21.7436 77.4692Z" fill="white"/>
<path d="M24.375 93.4375C33.3496 93.4375 40.625 86.1621 40.625 77.1875C40.625 68.2129 33.3496 60.9375 24.375 60.9375C15.4004 60.9375 8.125 68.2129 8.125 77.1875C8.125 86.1621 15.4004 93.4375 24.375 93.4375ZM11.7771 83.7866L15.8158 80.4211C15.4355 79.4158 15.2274 78.326 15.2274 77.1875C15.2274 72.1393 19.3197 68.0469 24.368 68.0469C27.045 68.0469 29.4532 69.1977 31.125 71.0316L23.3524 74.1406L25.3836 79.2187L28.0917 85.5377C26.9544 86.0457 25.6941 86.3281 24.368 86.3281C23.2295 86.3281 22.1396 86.12 21.1344 85.7397L17.7669 89.7806C15.2133 88.4379 13.1181 86.3413 11.7771 83.7866ZM33.5086 77.1875C33.5086 80.0888 32.1568 82.6745 30.0488 84.3489L27.4149 78.2031L33.4254 75.9491C33.4803 76.3541 33.5086 76.7675 33.5086 77.1875Z" fill="white"/>
<path fill-rule="evenodd" clip-rule="evenodd" d="M23.8068 141.989C32.9854 141.989 40.4261 134.548 40.4261 125.369C40.4261 116.191 32.9854 108.75 23.8068 108.75C14.6282 108.75 7.1875 116.191 7.1875 125.369C7.1875 134.548 14.6282 141.989 23.8068 141.989ZM28.2681 114.057C28.4143 113.587 28.1476 113.089 27.6724 112.944C27.1972 112.8 26.6935 113.064 26.5473 113.534L19.3456 136.681C19.1994 137.151 19.466 137.65 19.9412 137.794C20.4164 137.939 20.9202 137.675 21.0664 137.205L28.2681 114.057ZM18.1419 118.508C18.4934 118.855 18.4934 119.419 18.1419 119.767L12.4769 125.369L18.1419 130.972C18.4934 131.32 18.4934 131.883 18.1419 132.231C17.7903 132.579 17.2203 132.579 16.8688 132.231L10.5673 125.999C10.2157 125.651 10.2157 125.087 10.5673 124.74L16.8688 118.508C17.2203 118.16 17.7903 118.16 18.1419 118.508ZM29.4718 119.767C29.1202 119.419 29.1202 118.855 29.4718 118.508C29.8233 118.16 30.3933 118.16 30.7448 118.508L37.0463 124.74C37.3979 125.087 37.3979 125.651 37.0463 125.999L30.7448 132.231C30.3933 132.579 29.8233 132.579 29.4718 132.231C29.1202 131.883 29.1202 131.32 29.4718 130.972L35.1367 125.369L29.4718 119.767Z" fill="white"/>
<path d="M21.8359 168.086C21.8359 166.543 23.0864 165.293 24.6289 165.293C26.1714 165.293 27.4219 166.543 27.4219 168.086V170.879H21.8359V168.086Z" fill="white"/>
<path fill-rule="evenodd" clip-rule="evenodd" d="M24.375 190.937C33.3496 190.937 40.625 183.662 40.625 174.687C40.625 165.713 33.3496 158.437 24.375 158.437C15.4004 158.437 8.125 165.713 8.125 174.687C8.125 183.662 15.4004 190.937 24.375 190.937ZM30.2148 171.092V168.086C30.2148 165.001 27.7139 162.5 24.6289 162.5C21.5439 162.5 19.043 165.001 19.043 168.086V171.092C17.5369 171.556 16.25 172.759 16.25 174.51V181.213C16.25 183.493 18.4326 184.844 20.4395 184.844H28.8184C30.8252 184.844 33.0078 183.493 33.0078 181.213V174.51C33.0078 172.759 31.7209 171.556 30.2148 171.092Z" fill="white"/>
<path fill-rule="evenodd" clip-rule="evenodd" d="M235.625 190.937C244.6 190.937 251.875 183.662 251.875 174.687C251.875 165.713 244.6 158.437 235.625 158.437C226.65 158.437 219.375 165.713 219.375 174.687C219.375 183.662 226.65 190.937 235.625 190.937ZM235.769 171.347L232.464 164.626H226.896L232.547 174.652L226.743 184.844H232.367L235.769 177.998L239.171 184.844H244.78L238.99 174.652L244.628 164.626H239.073L235.769 171.347Z" fill="white"/>
<path d="M233.946 126.231C234.106 126.557 234.323 126.826 234.599 127.036C234.988 127.332 235.516 127.48 236.182 127.48C236.626 127.48 236.997 127.378 237.293 127.174C237.589 126.962 237.825 126.67 238.001 126.3C238.177 125.92 238.302 125.485 238.376 124.994C238.45 124.504 238.487 123.976 238.487 123.411V123.12C238.487 122.537 238.445 122.004 238.362 121.523C238.279 121.032 238.144 120.607 237.959 120.246C237.783 119.885 237.547 119.607 237.251 119.412C236.955 119.218 236.589 119.121 236.154 119.121C235.654 119.121 235.233 119.2 234.891 119.357C234.557 119.505 234.289 119.736 234.085 120.051C234.035 120.13 233.989 120.213 233.946 120.302V126.231Z" fill="white"/>
<path fill-rule="evenodd" clip-rule="evenodd" d="M235.625 142.187C244.6 142.187 251.875 134.912 251.875 125.937C251.875 116.963 244.6 109.687 235.625 109.687C226.65 109.687 219.375 116.963 219.375 125.937C219.375 134.912 226.65 142.187 235.625 142.187ZM233.946 129.592V136.589H229.267V115.788H233.627L233.78 117.172C234.134 116.733 234.542 116.374 235.002 116.094C235.65 115.705 236.423 115.511 237.321 115.511C238.274 115.511 239.112 115.691 239.834 116.052C240.565 116.413 241.176 116.932 241.667 117.607C242.167 118.274 242.542 119.075 242.792 120.01C243.041 120.945 243.166 121.981 243.166 123.12V123.411C243.166 124.504 243.041 125.517 242.792 126.452C242.542 127.387 242.171 128.202 241.681 128.896C241.19 129.591 240.579 130.132 239.848 130.521C239.126 130.9 238.288 131.09 237.335 131.09C236.437 131.09 235.664 130.891 235.016 130.493C234.619 130.25 234.263 129.949 233.946 129.592Z" fill="white"/>
<path d="M232.876 77.3081V76.9748C232.876 76.3506 232.924 75.7635 233.019 75.2134C233.115 74.6526 233.273 74.1607 233.495 73.7375C233.718 73.3038 234.014 72.9652 234.384 72.7219C234.765 72.4786 235.236 72.3569 235.796 72.3569C236.368 72.3569 236.844 72.4786 237.225 72.7219C237.605 72.9652 237.907 73.3038 238.129 73.7375C238.351 74.1607 238.51 74.6526 238.605 75.2134C238.7 75.7635 238.748 76.3506 238.748 76.9748V77.3081C238.748 77.9534 238.7 78.5564 238.605 79.1172C238.51 79.6779 238.351 80.1698 238.129 80.593C237.907 81.0056 237.605 81.3283 237.225 81.561C236.854 81.7937 236.389 81.9101 235.828 81.9101C235.257 81.9101 234.781 81.7937 234.4 81.561C234.019 81.3283 233.718 81.0056 233.495 80.593C233.273 80.1698 233.115 79.6779 233.019 79.1172C232.924 78.5564 232.876 77.9534 232.876 77.3081Z" fill="white"/>
<path fill-rule="evenodd" clip-rule="evenodd" d="M235.625 93.4375C244.6 93.4375 251.875 86.1621 251.875 77.1875C251.875 68.2129 244.6 60.9375 235.625 60.9375C226.65 60.9375 219.375 68.2129 219.375 77.1875C219.375 86.1621 226.65 93.4375 235.625 93.4375ZM227.529 76.9748V77.3081C227.529 78.5564 227.708 79.7149 228.068 80.7834C228.428 81.8414 228.957 82.7671 229.655 83.5605C230.353 84.3434 231.221 84.9517 232.258 85.3855C233.294 85.8192 234.485 86.0361 235.828 86.0361C237.172 86.0361 238.357 85.8192 239.383 85.3855C240.409 84.9517 241.271 84.3434 241.969 83.5605C242.668 82.7671 243.197 81.8414 243.556 80.7834C243.916 79.7149 244.096 78.5564 244.096 77.3081V76.9748C244.096 75.7159 243.916 74.5574 243.556 73.4995C243.197 72.431 242.668 71.5053 241.969 70.7224C241.271 69.9395 240.404 69.3312 239.367 68.8974C238.341 68.4531 237.151 68.2309 235.796 68.2309C234.453 68.2309 233.268 68.4531 232.242 68.8974C231.215 69.3312 230.353 69.9395 229.655 70.7224C228.957 71.5053 228.428 72.431 228.068 73.4995C227.708 74.5574 227.529 75.7159 227.529 76.9748Z" fill="white"/>
<path d="M93.9175 144.772V79.3774H116.829V144.772C116.829 151.144 115.367 156.664 112.443 161.334C109.563 166.003 105.635 169.625 100.66 172.2C95.7286 174.731 90.1863 175.997 84.0331 175.997C77.6616 175.997 71.9884 174.928 67.0134 172.789C62.0821 170.651 58.1981 167.356 55.3615 162.905C52.5685 158.453 51.172 152.78 51.172 145.885H74.214C74.214 149.114 74.585 151.645 75.3268 153.478C76.0687 155.268 77.1597 156.533 78.5999 157.275C80.0836 157.973 81.8947 158.322 84.0331 158.322C86.1278 158.322 87.8952 157.799 89.3353 156.751C90.8191 155.66 91.9537 154.111 92.7393 152.104C93.5248 150.053 93.9175 147.609 93.9175 144.772Z" fill="white"/>
<path d="M180.521 149.354C180.521 147.871 180.303 146.54 179.867 145.361C179.43 144.139 178.623 143.005 177.445 141.957C176.266 140.91 174.565 139.863 172.339 138.815C170.157 137.724 167.277 136.59 163.698 135.411C159.509 134.015 155.472 132.444 151.588 130.698C147.704 128.909 144.235 126.836 141.18 124.48C138.125 122.079 135.703 119.286 133.914 116.101C132.124 112.871 131.23 109.118 131.23 104.841C131.23 100.739 132.146 97.0517 133.979 93.7787C135.812 90.462 138.365 87.6472 141.638 85.3343C144.955 82.9777 148.839 81.1885 153.29 79.9666C157.741 78.701 162.607 78.0682 167.888 78.0682C174.87 78.0682 181.023 79.2901 186.347 81.734C191.715 84.1342 195.905 87.56 198.916 92.0112C201.971 96.4189 203.498 101.634 203.498 107.656H180.652C180.652 105.256 180.15 103.139 179.147 101.307C178.187 99.4737 176.725 98.0336 174.761 96.9862C172.797 95.9389 170.331 95.4152 167.364 95.4152C164.484 95.4152 162.062 95.8516 160.098 96.7244C158.134 97.5972 156.65 98.7755 155.647 100.259C154.643 101.699 154.141 103.292 154.141 105.038C154.141 106.478 154.534 107.787 155.319 108.965C156.148 110.1 157.305 111.169 158.789 112.173C160.316 113.177 162.149 114.137 164.287 115.053C166.469 115.97 168.913 116.864 171.619 117.737C176.681 119.352 181.176 121.163 185.104 123.17C189.075 125.134 192.413 127.382 195.119 129.913C197.868 132.4 199.941 135.237 201.338 138.423C202.778 141.608 203.498 145.209 203.498 149.223C203.498 153.5 202.669 157.297 201.01 160.614C199.352 163.93 196.974 166.745 193.875 169.058C190.777 171.327 187.067 173.051 182.747 174.229C178.427 175.408 173.604 175.997 168.28 175.997C163.393 175.997 158.57 175.386 153.814 174.164C149.1 172.898 144.824 170.978 140.983 168.403C137.143 165.785 134.066 162.446 131.754 158.388C129.484 154.286 128.35 149.42 128.35 143.79H151.392C151.392 146.583 151.763 148.94 152.504 150.86C153.246 152.78 154.337 154.329 155.777 155.508C157.218 156.642 158.985 157.471 161.08 157.995C163.174 158.475 165.575 158.715 168.28 158.715C171.204 158.715 173.561 158.301 175.35 157.471C177.139 156.599 178.448 155.464 179.278 154.068C180.107 152.627 180.521 151.056 180.521 149.354Z" fill="white"/>
</g>
<defs>
<linearGradient id="paint0_linear_3840_350" x1="130" y1="0" x2="130" y2="259.997" gradientUnits="userSpaceOnUse">
<stop stop-color="#0F53B8"/>
<stop offset="1" stop-color="#0D6EFD"/>
</linearGradient>
<linearGradient id="paint1_linear_3840_350" x1="130" y1="0" x2="130" y2="259.997" gradientUnits="userSpaceOnUse">
<stop stop-color="#D2D6DC"/>
<stop offset="1" stop-color="#E3E7ED"/>
</linearGradient>
<linearGradient id="paint2_linear_3840_350" x1="130" y1="0" x2="130" y2="259.997" gradientUnits="userSpaceOnUse">
<stop stop-color="#D2D6DC"/>
<stop offset="1" stop-color="#E3E7ED"/>
</linearGradient>
<linearGradient id="paint3_linear_3840_350" x1="130" y1="0" x2="130" y2="259.997" gradientUnits="userSpaceOnUse">
<stop stop-color="#D2D6DC"/>
<stop offset="1" stop-color="#E3E7ED"/>
</linearGradient>
<linearGradient id="paint4_linear_3840_350" x1="130" y1="0" x2="130" y2="259.997" gradientUnits="userSpaceOnUse">
<stop stop-color="#D2D6DC"/>
<stop offset="1" stop-color="#E3E7ED"/>
</linearGradient>
</defs>
</svg>
