<svg width="66" height="66" viewBox="0 0 66 66" fill="none" xmlns="http://www.w3.org/2000/svg">
<g id="jSopX Logo Color Light">
<mask id="path-1-outside-1_3838_338" maskUnits="userSpaceOnUse" x="0" y="0" width="66" height="66" fill="black">
<rect fill="white" width="66" height="66"/>
<path d="M2 17C2 15.3431 3.34315 14 5 14H61C62.6569 14 64 15.3431 64 17V57C64 58.6569 62.6569 60 61 60H5C3.34315 60 2 58.6569 2 57V17Z"/>
<path d="M47.4 54.33C47.4 53.7777 47.8477 53.33 48.4 53.33H59.4C59.9523 53.33 60.4 53.7777 60.4 54.33V61.33C60.4 61.8823 59.9523 62.33 59.4 62.33H48.4C47.8477 62.33 47.4 61.8823 47.4 61.33V54.33Z"/>
<path d="M22.6733 49.6805C22.7819 49.139 23.309 48.7881 23.8505 48.8968L30.3748 50.2059C30.9162 50.3146 31.2671 50.8417 31.1585 51.3831L28.7863 63.205C28.6776 63.7465 28.1506 64.0974 27.6091 63.9887L21.0848 62.6795C20.5433 62.5709 20.1924 62.0438 20.301 61.5023L22.6733 49.6805Z"/>
<path d="M33.7249 49.928C33.9307 49.4155 34.5129 49.1668 35.0255 49.3725L46.6259 54.0287C47.1384 54.2344 47.3872 54.8166 47.1814 55.3292L43.829 63.6815C43.6233 64.194 43.041 64.4428 42.5285 64.237L30.928 59.5809C30.4155 59.3752 30.1668 58.7929 30.3725 58.2803L33.7249 49.928Z"/>
<path d="M5.8 54.8C5.8 54.2477 6.24772 53.8 6.8 53.8H19.3C19.8523 53.8 20.3 54.2477 20.3 54.8V60.8C20.3 61.3523 19.8523 61.8 19.3 61.8H6.8C6.24772 61.8 5.8 61.3523 5.8 60.8V54.8Z"/>
<path d="M21.8324 11.8486L52.8189 4.06535L53.761 12.9912L21.8324 11.8486Z"/>
<path fill-rule="evenodd" clip-rule="evenodd" d="M57 7.00295C57 3.09953 53.3317 0.235381 49.5448 1.1821L6.72991 11.8858C3.54155 12.0271 1 14.6566 1 17.8798V53.8798C1 56.1436 2.25366 58.1145 4.10457 59.1363C4.10154 59.0912 4.1 59.0458 4.1 59V53C4.1 52.3018 4.45778 51.6871 5 51.3294V48.584C3.2341 47.8124 2 46.0503 2 44C2 41.9497 3.2341 40.1876 5 39.416V36.584C3.2341 35.8124 2 34.0503 2 32C2 29.9497 3.2341 28.1876 5 27.416V24.584C3.2341 23.8124 2 22.0503 2 20C2 17.2386 4.23858 15 7 15C8.05203 15 9.02817 15.3249 9.83355 15.8798H56.1665C56.9718 15.3249 57.948 15 59 15C61.7614 15 64 17.2386 64 20C64 22.0503 62.7659 23.8124 61 24.584V27.416C62.7659 28.1876 64 29.9497 64 32C64 34.0503 62.7659 35.8124 61 36.584V39.416C62.7659 40.1876 64 41.9497 64 44C64 46.0503 62.7659 47.8124 61 48.584V51.3294C61.5422 51.6871 61.9 52.3018 61.9 53V59C61.9 59.0458 61.8985 59.0912 61.8954 59.1363C63.7463 58.1145 65 56.1436 65 53.8798V17.8798C65 14.5661 62.3137 11.8798 59 11.8798H57V7.00295ZM53 11.8798H23.2462L50.5149 5.06267C51.7772 4.7471 53 5.70181 53 7.00295V11.8798Z"/>
<path d="M30.3168 50.2522C30.8583 50.3607 31.2093 50.8876 31.1008 51.4292L28.7433 63.1953C28.6348 63.7368 28.1078 64.0879 27.5663 63.9794L21.6832 62.8006C21.1417 62.6921 20.7907 62.1651 20.8992 61.6236L23.2567 49.8575C23.3652 49.316 23.8922 48.9649 24.4337 49.0734L30.3168 50.2522ZM24.6302 48.0929C23.5471 47.8759 22.4932 48.578 22.2762 49.661L19.9187 61.4272C19.7017 62.5102 20.4037 63.5641 21.4868 63.7811L27.3698 64.9599C28.4529 65.1769 29.5068 64.4748 29.7238 63.3918L32.0813 51.6256C32.2983 50.5426 31.5963 49.4887 30.5132 49.2717L24.6302 48.0929Z"/>
<path d="M24.8212 62.4095C25.3628 62.518 25.8897 62.1669 25.9982 61.6254C26.1067 61.0839 25.7557 60.5569 25.2142 60.4484C24.6726 60.3399 24.1457 60.691 24.0372 61.2325C23.9287 61.774 24.2797 62.301 24.8212 62.4095Z"/>
<path d="M33.9637 50.5277C34.167 50.0142 34.748 49.7627 35.2615 49.9659L46.4191 54.3828C46.9326 54.586 47.1841 55.1671 46.9809 55.6806L44.0363 63.119C43.833 63.6325 43.252 63.884 42.7385 63.6807L31.5809 59.2639C31.0674 59.0606 30.8159 58.4796 31.0191 57.9661L33.9637 50.5277ZM30.0893 57.598C29.6828 58.625 30.1858 59.7872 31.2128 60.1937L42.3704 64.6105C43.3974 65.0171 44.5596 64.5141 44.9661 63.4871L47.9107 56.0487C48.3172 55.0217 47.8142 53.8595 46.7872 53.453L35.6296 49.0361C34.6026 48.6296 33.4404 49.1326 33.0339 50.1596L30.0893 57.598Z"/>
<path d="M44.5788 59.0317C44.7821 58.5182 44.5306 57.9372 44.0171 57.7339C43.5035 57.5306 42.9225 57.7821 42.7192 58.2956C42.5159 58.8091 42.7674 59.3902 43.2809 59.5935C43.7944 59.7968 44.3755 59.5453 44.5788 59.0317Z"/>
<path fill-rule="evenodd" clip-rule="evenodd" d="M7 52.8C5 52.8 5 54.8 5 54.8V60.8C5 62.8 7 62.8 7 62.8H11C11 63.4667 10.9167 63.9667 10.75 64.3H10C9.72386 64.3 9.5 64.5239 9.5 64.8H16.5C16.5 64.5239 16.2761 64.3 16 64.3H15.25C15.0833 63.9667 15 63.4667 15 62.8H19C21 62.8 21 60.8 21 60.8V54.8C21 52.8 19 52.8 19 52.8H7ZM6.39845 53.9445C6.49771 53.8784 6.67498 53.8 7 53.8H18.991C18.995 53.8002 19.003 53.8005 19.0147 53.8014C19.0428 53.8034 19.0895 53.8079 19.1481 53.8176C19.2701 53.838 19.4175 53.8768 19.5528 53.9444C19.6842 54.0101 19.7851 54.0929 19.8554 54.1984C19.9216 54.2977 20 54.475 20 54.8V60.791C19.9998 60.795 19.9995 60.803 19.9986 60.8147C19.9966 60.8428 19.9921 60.8895 19.9824 60.9481C19.962 61.0701 19.9232 61.2175 19.8556 61.3528C19.7899 61.4842 19.7071 61.5851 19.6016 61.6554C19.5023 61.7216 19.325 61.8 19 61.8H7.00903C7.00504 61.7998 6.99697 61.7995 6.98531 61.7986C6.95721 61.7966 6.91053 61.7921 6.8519 61.7824C6.72989 61.762 6.5825 61.7232 6.44721 61.6556C6.31584 61.5899 6.21489 61.5071 6.14455 61.4016C6.07838 61.3023 6 61.125 6 60.8V54.809C6.00016 54.805 6.00053 54.797 6.00136 54.7853C6.00337 54.7572 6.00787 54.7105 6.01764 54.6519C6.03798 54.5299 6.07678 54.3825 6.14443 54.2472C6.21011 54.1158 6.29294 54.0149 6.39845 53.9445Z"/>
<path d="M59.5 53.8C59.7761 53.8 60 54.0239 60 54.3V61.8H48V54.3C48 54.0239 48.2239 53.8 48.5 53.8H59.5ZM48.5 52.8C47.6716 52.8 47 53.4716 47 54.3V62.8H61V54.3C61 53.4716 60.3284 52.8 59.5 52.8H48.5Z"/>
<path d="M46 63.3H62C62 64.1284 61.3284 64.8 60.5 64.8H47.5C46.6716 64.8 46 64.1284 46 63.3Z"/>
<path d="M6.35228 20.0693C6.3819 20.0249 6.38002 19.9666 6.34761 19.9241C6.3152 19.8817 6.2594 19.8645 6.20874 19.8814L5.45874 20.1314L5.5378 20.3686L5.94218 20.2338L5.64427 20.6807C5.61464 20.7251 5.61652 20.7834 5.64893 20.8259C5.68135 20.8683 5.73714 20.8855 5.7878 20.8686L6.19218 20.7338L5.89427 21.1807C5.86464 21.2251 5.86652 21.2834 5.89893 21.3259C5.93135 21.3683 5.98714 21.3855 6.0378 21.3686L6.7878 21.1186L6.70874 20.8814L6.30436 21.0162L6.60228 20.5693C6.6319 20.5249 6.63002 20.4666 6.59761 20.4241C6.5652 20.3817 6.5094 20.3645 6.45874 20.3814L6.05436 20.5162L6.35228 20.0693Z"/>
<path d="M7 24C9.20914 24 11 22.2091 11 20C11 17.7909 9.20914 16 7 16C4.79086 16 3 17.7909 3 20C3 22.2091 4.79086 24 7 24ZM3.89899 21.6244L4.89312 20.796C4.7995 20.5485 4.74827 20.2802 4.74827 20C4.74827 18.7574 5.75563 17.75 6.99827 17.75C7.65723 17.75 8.25003 18.0333 8.66153 18.4847L6.74827 19.25L7.24827 20.5L7.91489 22.0554C7.63492 22.1805 7.32471 22.25 6.99827 22.25C6.71803 22.25 6.44976 22.1988 6.20231 22.1052L5.37339 23.0999C4.74482 22.7693 4.22907 22.2532 3.89899 21.6244ZM9.24827 20C9.24827 20.7142 8.91553 21.3506 8.39662 21.7628L7.74827 20.25L9.2278 19.6952C9.2413 19.7949 9.24827 19.8966 9.24827 20Z"/>
<path fill-rule="evenodd" clip-rule="evenodd" d="M6.86014 35.951C9.11949 35.951 10.951 34.1195 10.951 31.8601C10.951 29.6008 9.11949 27.7692 6.86014 27.7692C4.60079 27.7692 2.76923 29.6008 2.76923 31.8601C2.76923 34.1195 4.60079 35.951 6.86014 35.951ZM7.9583 29.0756C7.99429 28.9599 7.92864 28.8373 7.81167 28.8017C7.6947 28.7661 7.5707 28.831 7.53471 28.9467L5.76199 34.6447C5.726 34.7603 5.79164 34.883 5.90861 34.9186C6.02558 34.9542 6.14958 34.8892 6.18557 34.7736L7.9583 29.0756ZM5.46569 30.1711C5.55223 30.2567 5.55223 30.3955 5.46569 30.481L4.07124 31.8601L5.46569 33.2392C5.55223 33.3248 5.55223 33.4636 5.46569 33.5492C5.37915 33.6347 5.23885 33.6347 5.15231 33.5492L3.60118 32.0151C3.51464 31.9295 3.51464 31.7908 3.60118 31.7052L5.15231 30.1711C5.23885 30.0855 5.37915 30.0855 5.46569 30.1711ZM8.25458 30.481C8.16805 30.3955 8.16805 30.2567 8.25458 30.1711C8.34112 30.0855 8.48142 30.0855 8.56796 30.1711L10.1191 31.7052C10.2056 31.7908 10.2056 31.9295 10.1191 32.0151L8.56796 33.5492C8.48142 33.6347 8.34112 33.6347 8.25458 33.5492C8.16805 33.4636 8.16805 33.3248 8.25458 33.2392L9.64903 31.8601L8.25458 30.481Z"/>
<path d="M6.375 42.375C6.375 41.9953 6.6828 41.6875 7.0625 41.6875C7.4422 41.6875 7.75 41.9953 7.75 42.375V43.0625H6.375V42.375Z"/>
<path fill-rule="evenodd" clip-rule="evenodd" d="M7 48C9.20914 48 11 46.2091 11 44C11 41.7909 9.20914 40 7 40C4.79086 40 3 41.7909 3 44C3 46.2091 4.79086 48 7 48ZM8.4375 43.115V42.375C8.4375 41.6156 7.82189 41 7.0625 41C6.30311 41 5.6875 41.6156 5.6875 42.375V43.115C5.31677 43.2292 5 43.5253 5 43.9562V45.6062C5 46.1675 5.53725 46.5 6.03125 46.5H8.09375C8.58775 46.5 9.125 46.1675 9.125 45.6062V43.9562C9.125 43.5253 8.80823 43.2292 8.4375 43.115Z"/>
<path fill-rule="evenodd" clip-rule="evenodd" d="M59 48C61.2091 48 63 46.2091 63 44C63 41.7909 61.2091 40 59 40C56.7909 40 55 41.7909 55 44C55 46.2091 56.7909 48 59 48ZM59.0354 43.1777L58.2219 41.5234H56.8513L58.2424 43.9912L56.8137 46.5H58.1979L59.0354 44.8149L59.8728 46.5H61.2536L59.8283 43.9912L61.216 41.5234H59.8488L59.0354 43.1777Z"/>
<path d="M58.5868 32.0722C58.626 32.1526 58.6796 32.2186 58.7475 32.2703C58.8432 32.3432 58.973 32.3797 59.1371 32.3797C59.2465 32.3797 59.3376 32.3546 59.4105 32.3045C59.4835 32.2521 59.5416 32.1803 59.5849 32.0892C59.6282 31.9957 59.6589 31.8886 59.6771 31.7679C59.6954 31.6471 59.7045 31.5172 59.7045 31.3782V31.3064C59.7045 31.1629 59.6942 31.0319 59.6737 30.9134C59.6532 30.7926 59.6202 30.6878 59.5746 30.5989C59.5313 30.5101 59.4732 30.4417 59.4003 30.3938C59.3274 30.346 59.2374 30.3221 59.1303 30.3221C59.0072 30.3221 58.9035 30.3414 58.8192 30.3802C58.7372 30.4166 58.6711 30.4736 58.621 30.5511C58.6087 30.5704 58.5973 30.591 58.5868 30.6129V32.0722Z"/>
<path fill-rule="evenodd" clip-rule="evenodd" d="M59 36C61.2091 36 63 34.2091 63 32C63 29.7909 61.2091 28 59 28C56.7909 28 55 29.7909 55 32C55 34.2091 56.7909 36 59 36ZM58.5868 32.8995V34.6219H57.435V29.5018H58.5082L58.5459 29.8423C58.6331 29.7343 58.7333 29.6459 58.8466 29.5769C59.0061 29.4812 59.1964 29.4334 59.4174 29.4334C59.6521 29.4334 59.8583 29.4778 60.036 29.5667C60.216 29.6556 60.3664 29.7832 60.4872 29.9495C60.6103 30.1136 60.7025 30.3107 60.7641 30.5408C60.8256 30.771 60.8563 31.0262 60.8563 31.3064V31.3782C60.8563 31.6471 60.8256 31.8966 60.7641 32.1268C60.7025 32.3569 60.6114 32.5574 60.4906 32.7283C60.3699 32.8992 60.2195 33.0325 60.0395 33.1282C59.8617 33.2216 59.6555 33.2684 59.4208 33.2684C59.1998 33.2684 59.0095 33.2194 58.85 33.1214C58.7525 33.0615 58.6647 32.9875 58.5868 32.8995Z"/>
<path d="M58.3234 20.0297V19.9477C58.3234 19.794 58.3352 19.6495 58.3586 19.5141C58.382 19.376 58.4211 19.2549 58.4758 19.1508C58.5305 19.044 58.6034 18.9607 58.6945 18.9008C58.7883 18.8409 58.9042 18.8109 59.0422 18.8109C59.1828 18.8109 59.3 18.8409 59.3937 18.9008C59.4875 18.9607 59.5617 19.044 59.6164 19.1508C59.6711 19.2549 59.7102 19.376 59.7336 19.5141C59.757 19.6495 59.7687 19.794 59.7687 19.9477V20.0297C59.7687 20.1885 59.757 20.337 59.7336 20.475C59.7102 20.613 59.6711 20.7341 59.6164 20.8383C59.5617 20.9398 59.4875 21.0193 59.3937 21.0766C59.3026 21.1338 59.188 21.1625 59.05 21.1625C58.9094 21.1625 58.7922 21.1338 58.6984 21.0766C58.6047 21.0193 58.5305 20.9398 58.4758 20.8383C58.4211 20.7341 58.382 20.613 58.3586 20.475C58.3352 20.337 58.3234 20.1885 58.3234 20.0297Z"/>
<path fill-rule="evenodd" clip-rule="evenodd" d="M59 24C61.2091 24 63 22.2091 63 20C63 17.7909 61.2091 16 59 16C56.7909 16 55 17.7909 55 20C55 22.2091 56.7909 24 59 24ZM57.007 19.9477V20.0297C57.007 20.337 57.0513 20.6221 57.1398 20.8852C57.2284 21.1456 57.3586 21.3734 57.5305 21.5687C57.7023 21.7615 57.9159 21.9112 58.1711 22.018C58.4263 22.1247 58.7193 22.1781 59.05 22.1781C59.3807 22.1781 59.6724 22.1247 59.925 22.018C60.1776 21.9112 60.3898 21.7615 60.5617 21.5687C60.7336 21.3734 60.8638 21.1456 60.9523 20.8852C61.0409 20.6221 61.0852 20.337 61.0852 20.0297V19.9477C61.0852 19.6378 61.0409 19.3526 60.9523 19.0922C60.8638 18.8292 60.7336 18.6013 60.5617 18.4086C60.3898 18.2159 60.1763 18.0661 59.9211 17.9594C59.6685 17.85 59.3755 17.7953 59.0422 17.7953C58.7115 17.7953 58.4198 17.85 58.1672 17.9594C57.9146 18.0661 57.7023 18.2159 57.5305 18.4086C57.3586 18.6013 57.2284 18.8292 57.1398 19.0922C57.0513 19.3526 57.007 19.6378 57.007 19.9477Z"/>
<path d="M24.1182 36.6362V20.5391H29.7578V36.6362C29.7578 38.2046 29.3979 39.5635 28.6782 40.7129C27.9692 41.8623 27.0024 42.7539 25.7778 43.3877C24.564 44.0107 23.1997 44.3223 21.6851 44.3223C20.1167 44.3223 18.7202 44.0591 17.4956 43.5327C16.2817 43.0063 15.3257 42.1953 14.6274 41.0996C13.9399 40.0039 13.5962 38.6074 13.5962 36.9102H19.2681C19.2681 37.7051 19.3594 38.3281 19.542 38.7793C19.7246 39.2197 19.9932 39.5312 20.3477 39.7139C20.7129 39.8857 21.1587 39.9717 21.6851 39.9717C22.2007 39.9717 22.6357 39.8428 22.9902 39.585C23.3555 39.3164 23.6348 38.9351 23.8281 38.4409C24.0215 37.936 24.1182 37.3345 24.1182 36.6362Z"/>
<path d="M45.436 37.7642C45.436 37.3989 45.3823 37.0713 45.2749 36.7812C45.1675 36.4805 44.9688 36.2012 44.6787 35.9434C44.3887 35.6855 43.9697 35.4277 43.4219 35.1699C42.8848 34.9014 42.1758 34.6221 41.2949 34.332C40.2637 33.9883 39.27 33.6016 38.314 33.1719C37.3579 32.7314 36.5039 32.2212 35.752 31.6411C35 31.0503 34.4038 30.3628 33.9634 29.5786C33.5229 28.7837 33.3027 27.8599 33.3027 26.8071C33.3027 25.7974 33.5283 24.8896 33.9795 24.084C34.4307 23.2676 35.0591 22.5747 35.8647 22.0054C36.6812 21.4253 37.6372 20.9849 38.7329 20.6841C39.8286 20.3726 41.0264 20.2168 42.3262 20.2168C44.0449 20.2168 45.5596 20.5176 46.8701 21.1191C48.1914 21.71 49.2227 22.5532 49.9639 23.6489C50.7158 24.7339 51.0918 26.0176 51.0918 27.5H45.4683C45.4683 26.9092 45.3447 26.3882 45.0977 25.937C44.8613 25.4858 44.5015 25.1313 44.0181 24.8735C43.5347 24.6157 42.9277 24.4868 42.1973 24.4868C41.4883 24.4868 40.8921 24.5942 40.4087 24.8091C39.9253 25.0239 39.5601 25.314 39.313 25.6792C39.0659 26.0337 38.9424 26.4258 38.9424 26.8555C38.9424 27.21 39.0391 27.5322 39.2324 27.8223C39.4365 28.1016 39.7212 28.3647 40.0864 28.6118C40.4624 28.8589 40.9136 29.0952 41.4399 29.3208C41.9771 29.5464 42.5786 29.7666 43.2446 29.9814C44.4907 30.3789 45.5972 30.8247 46.564 31.3188C47.5415 31.8022 48.3633 32.3555 49.0293 32.9785C49.7061 33.5908 50.2163 34.2891 50.5601 35.0732C50.9146 35.8574 51.0918 36.7436 51.0918 37.7319C51.0918 38.7847 50.8877 39.7192 50.4795 40.5356C50.0713 41.352 49.4858 42.0449 48.7231 42.6143C47.9604 43.1728 47.0474 43.5972 45.9839 43.8872C44.9204 44.1772 43.7334 44.3223 42.4229 44.3223C41.2197 44.3223 40.0327 44.1719 38.8618 43.8711C37.7017 43.5596 36.6489 43.0869 35.7036 42.4531C34.7583 41.8086 34.001 40.9868 33.4316 39.9878C32.873 38.978 32.5938 37.7803 32.5938 36.3945H38.2656C38.2656 37.082 38.3569 37.6621 38.5396 38.1348C38.7222 38.6074 38.9907 38.9888 39.3452 39.2788C39.6997 39.5581 40.1348 39.7622 40.6504 39.8911C41.166 40.0093 41.7568 40.0684 42.4229 40.0684C43.1426 40.0684 43.7227 39.9663 44.1631 39.7622C44.6035 39.5474 44.9258 39.2681 45.1299 38.9243C45.334 38.5698 45.436 38.1831 45.436 37.7642Z"/>
</mask>
<path d="M2 17C2 15.3431 3.34315 14 5 14H61C62.6569 14 64 15.3431 64 17V57C64 58.6569 62.6569 60 61 60H5C3.34315 60 2 58.6569 2 57V17Z" fill="url(#paint0_linear_3838_338)"/>
<path d="M47.4 54.33C47.4 53.7777 47.8477 53.33 48.4 53.33H59.4C59.9523 53.33 60.4 53.7777 60.4 54.33V61.33C60.4 61.8823 59.9523 62.33 59.4 62.33H48.4C47.8477 62.33 47.4 61.8823 47.4 61.33V54.33Z" fill="url(#paint1_linear_3838_338)"/>
<path d="M22.6733 49.6805C22.7819 49.139 23.309 48.7881 23.8505 48.8968L30.3748 50.2059C30.9162 50.3146 31.2671 50.8417 31.1585 51.3831L28.7863 63.205C28.6776 63.7465 28.1506 64.0974 27.6091 63.9887L21.0848 62.6795C20.5433 62.5709 20.1924 62.0438 20.301 61.5023L22.6733 49.6805Z" fill="url(#paint2_linear_3838_338)"/>
<path d="M33.7249 49.928C33.9307 49.4155 34.5129 49.1668 35.0255 49.3725L46.6259 54.0287C47.1384 54.2344 47.3872 54.8166 47.1814 55.3292L43.829 63.6815C43.6233 64.194 43.041 64.4428 42.5285 64.237L30.928 59.5809C30.4155 59.3752 30.1668 58.7929 30.3725 58.2803L33.7249 49.928Z" fill="url(#paint3_linear_3838_338)"/>
<path d="M5.8 54.8C5.8 54.2477 6.24772 53.8 6.8 53.8H19.3C19.8523 53.8 20.3 54.2477 20.3 54.8V60.8C20.3 61.3523 19.8523 61.8 19.3 61.8H6.8C6.24772 61.8 5.8 61.3523 5.8 60.8V54.8Z" fill="url(#paint4_linear_3838_338)"/>
<path d="M21.8324 11.8486L52.8189 4.06535L53.761 12.9912L21.8324 11.8486Z" fill="#D2D6DC"/>
<path fill-rule="evenodd" clip-rule="evenodd" d="M57 7.00295C57 3.09953 53.3317 0.235381 49.5448 1.1821L6.72991 11.8858C3.54155 12.0271 1 14.6566 1 17.8798V53.8798C1 56.1436 2.25366 58.1145 4.10457 59.1363C4.10154 59.0912 4.1 59.0458 4.1 59V53C4.1 52.3018 4.45778 51.6871 5 51.3294V48.584C3.2341 47.8124 2 46.0503 2 44C2 41.9497 3.2341 40.1876 5 39.416V36.584C3.2341 35.8124 2 34.0503 2 32C2 29.9497 3.2341 28.1876 5 27.416V24.584C3.2341 23.8124 2 22.0503 2 20C2 17.2386 4.23858 15 7 15C8.05203 15 9.02817 15.3249 9.83355 15.8798H56.1665C56.9718 15.3249 57.948 15 59 15C61.7614 15 64 17.2386 64 20C64 22.0503 62.7659 23.8124 61 24.584V27.416C62.7659 28.1876 64 29.9497 64 32C64 34.0503 62.7659 35.8124 61 36.584V39.416C62.7659 40.1876 64 41.9497 64 44C64 46.0503 62.7659 47.8124 61 48.584V51.3294C61.5422 51.6871 61.9 52.3018 61.9 53V59C61.9 59.0458 61.8985 59.0912 61.8954 59.1363C63.7463 58.1145 65 56.1436 65 53.8798V17.8798C65 14.5661 62.3137 11.8798 59 11.8798H57V7.00295ZM53 11.8798H23.2462L50.5149 5.06267C51.7772 4.7471 53 5.70181 53 7.00295V11.8798Z" fill="white"/>
<path d="M30.3168 50.2522C30.8583 50.3607 31.2093 50.8876 31.1008 51.4292L28.7433 63.1953C28.6348 63.7368 28.1078 64.0879 27.5663 63.9794L21.6832 62.8006C21.1417 62.6921 20.7907 62.1651 20.8992 61.6236L23.2567 49.8575C23.3652 49.316 23.8922 48.9649 24.4337 49.0734L30.3168 50.2522ZM24.6302 48.0929C23.5471 47.8759 22.4932 48.578 22.2762 49.661L19.9187 61.4272C19.7017 62.5102 20.4037 63.5641 21.4868 63.7811L27.3698 64.9599C28.4529 65.1769 29.5068 64.4748 29.7238 63.3918L32.0813 51.6256C32.2983 50.5426 31.5963 49.4887 30.5132 49.2717L24.6302 48.0929Z" fill="white"/>
<path d="M24.8212 62.4095C25.3628 62.518 25.8897 62.1669 25.9982 61.6254C26.1067 61.0839 25.7557 60.5569 25.2142 60.4484C24.6726 60.3399 24.1457 60.691 24.0372 61.2325C23.9287 61.774 24.2797 62.301 24.8212 62.4095Z" fill="white"/>
<path d="M33.9637 50.5277C34.167 50.0142 34.748 49.7627 35.2615 49.9659L46.4191 54.3828C46.9326 54.586 47.1841 55.1671 46.9809 55.6806L44.0363 63.119C43.833 63.6325 43.252 63.884 42.7385 63.6807L31.5809 59.2639C31.0674 59.0606 30.8159 58.4796 31.0191 57.9661L33.9637 50.5277ZM30.0893 57.598C29.6828 58.625 30.1858 59.7872 31.2128 60.1937L42.3704 64.6105C43.3974 65.0171 44.5596 64.5141 44.9661 63.4871L47.9107 56.0487C48.3172 55.0217 47.8142 53.8595 46.7872 53.453L35.6296 49.0361C34.6026 48.6296 33.4404 49.1326 33.0339 50.1596L30.0893 57.598Z" fill="white"/>
<path d="M44.5788 59.0317C44.7821 58.5182 44.5306 57.9372 44.0171 57.7339C43.5035 57.5306 42.9225 57.7821 42.7192 58.2956C42.5159 58.8091 42.7674 59.3902 43.2809 59.5935C43.7944 59.7968 44.3755 59.5453 44.5788 59.0317Z" fill="white"/>
<path fill-rule="evenodd" clip-rule="evenodd" d="M7 52.8C5 52.8 5 54.8 5 54.8V60.8C5 62.8 7 62.8 7 62.8H11C11 63.4667 10.9167 63.9667 10.75 64.3H10C9.72386 64.3 9.5 64.5239 9.5 64.8H16.5C16.5 64.5239 16.2761 64.3 16 64.3H15.25C15.0833 63.9667 15 63.4667 15 62.8H19C21 62.8 21 60.8 21 60.8V54.8C21 52.8 19 52.8 19 52.8H7ZM6.39845 53.9445C6.49771 53.8784 6.67498 53.8 7 53.8H18.991C18.995 53.8002 19.003 53.8005 19.0147 53.8014C19.0428 53.8034 19.0895 53.8079 19.1481 53.8176C19.2701 53.838 19.4175 53.8768 19.5528 53.9444C19.6842 54.0101 19.7851 54.0929 19.8554 54.1984C19.9216 54.2977 20 54.475 20 54.8V60.791C19.9998 60.795 19.9995 60.803 19.9986 60.8147C19.9966 60.8428 19.9921 60.8895 19.9824 60.9481C19.962 61.0701 19.9232 61.2175 19.8556 61.3528C19.7899 61.4842 19.7071 61.5851 19.6016 61.6554C19.5023 61.7216 19.325 61.8 19 61.8H7.00903C7.00504 61.7998 6.99697 61.7995 6.98531 61.7986C6.95721 61.7966 6.91053 61.7921 6.8519 61.7824C6.72989 61.762 6.5825 61.7232 6.44721 61.6556C6.31584 61.5899 6.21489 61.5071 6.14455 61.4016C6.07838 61.3023 6 61.125 6 60.8V54.809C6.00016 54.805 6.00053 54.797 6.00136 54.7853C6.00337 54.7572 6.00787 54.7105 6.01764 54.6519C6.03798 54.5299 6.07678 54.3825 6.14443 54.2472C6.21011 54.1158 6.29294 54.0149 6.39845 53.9445Z" fill="white"/>
<path d="M59.5 53.8C59.7761 53.8 60 54.0239 60 54.3V61.8H48V54.3C48 54.0239 48.2239 53.8 48.5 53.8H59.5ZM48.5 52.8C47.6716 52.8 47 53.4716 47 54.3V62.8H61V54.3C61 53.4716 60.3284 52.8 59.5 52.8H48.5Z" fill="white"/>
<path d="M46 63.3H62C62 64.1284 61.3284 64.8 60.5 64.8H47.5C46.6716 64.8 46 64.1284 46 63.3Z" fill="white"/>
<path d="M6.35228 20.0693C6.3819 20.0249 6.38002 19.9666 6.34761 19.9241C6.3152 19.8817 6.2594 19.8645 6.20874 19.8814L5.45874 20.1314L5.5378 20.3686L5.94218 20.2338L5.64427 20.6807C5.61464 20.7251 5.61652 20.7834 5.64893 20.8259C5.68135 20.8683 5.73714 20.8855 5.7878 20.8686L6.19218 20.7338L5.89427 21.1807C5.86464 21.2251 5.86652 21.2834 5.89893 21.3259C5.93135 21.3683 5.98714 21.3855 6.0378 21.3686L6.7878 21.1186L6.70874 20.8814L6.30436 21.0162L6.60228 20.5693C6.6319 20.5249 6.63002 20.4666 6.59761 20.4241C6.5652 20.3817 6.5094 20.3645 6.45874 20.3814L6.05436 20.5162L6.35228 20.0693Z" fill="white"/>
<path d="M7 24C9.20914 24 11 22.2091 11 20C11 17.7909 9.20914 16 7 16C4.79086 16 3 17.7909 3 20C3 22.2091 4.79086 24 7 24ZM3.89899 21.6244L4.89312 20.796C4.7995 20.5485 4.74827 20.2802 4.74827 20C4.74827 18.7574 5.75563 17.75 6.99827 17.75C7.65723 17.75 8.25003 18.0333 8.66153 18.4847L6.74827 19.25L7.24827 20.5L7.91489 22.0554C7.63492 22.1805 7.32471 22.25 6.99827 22.25C6.71803 22.25 6.44976 22.1988 6.20231 22.1052L5.37339 23.0999C4.74482 22.7693 4.22907 22.2532 3.89899 21.6244ZM9.24827 20C9.24827 20.7142 8.91553 21.3506 8.39662 21.7628L7.74827 20.25L9.2278 19.6952C9.2413 19.7949 9.24827 19.8966 9.24827 20Z" fill="white"/>
<path fill-rule="evenodd" clip-rule="evenodd" d="M6.86014 35.951C9.11949 35.951 10.951 34.1195 10.951 31.8601C10.951 29.6008 9.11949 27.7692 6.86014 27.7692C4.60079 27.7692 2.76923 29.6008 2.76923 31.8601C2.76923 34.1195 4.60079 35.951 6.86014 35.951ZM7.9583 29.0756C7.99429 28.9599 7.92864 28.8373 7.81167 28.8017C7.6947 28.7661 7.5707 28.831 7.53471 28.9467L5.76199 34.6447C5.726 34.7603 5.79164 34.883 5.90861 34.9186C6.02558 34.9542 6.14958 34.8892 6.18557 34.7736L7.9583 29.0756ZM5.46569 30.1711C5.55223 30.2567 5.55223 30.3955 5.46569 30.481L4.07124 31.8601L5.46569 33.2392C5.55223 33.3248 5.55223 33.4636 5.46569 33.5492C5.37915 33.6347 5.23885 33.6347 5.15231 33.5492L3.60118 32.0151C3.51464 31.9295 3.51464 31.7908 3.60118 31.7052L5.15231 30.1711C5.23885 30.0855 5.37915 30.0855 5.46569 30.1711ZM8.25458 30.481C8.16805 30.3955 8.16805 30.2567 8.25458 30.1711C8.34112 30.0855 8.48142 30.0855 8.56796 30.1711L10.1191 31.7052C10.2056 31.7908 10.2056 31.9295 10.1191 32.0151L8.56796 33.5492C8.48142 33.6347 8.34112 33.6347 8.25458 33.5492C8.16805 33.4636 8.16805 33.3248 8.25458 33.2392L9.64903 31.8601L8.25458 30.481Z" fill="white"/>
<path d="M6.375 42.375C6.375 41.9953 6.6828 41.6875 7.0625 41.6875C7.4422 41.6875 7.75 41.9953 7.75 42.375V43.0625H6.375V42.375Z" fill="white"/>
<path fill-rule="evenodd" clip-rule="evenodd" d="M7 48C9.20914 48 11 46.2091 11 44C11 41.7909 9.20914 40 7 40C4.79086 40 3 41.7909 3 44C3 46.2091 4.79086 48 7 48ZM8.4375 43.115V42.375C8.4375 41.6156 7.82189 41 7.0625 41C6.30311 41 5.6875 41.6156 5.6875 42.375V43.115C5.31677 43.2292 5 43.5253 5 43.9562V45.6062C5 46.1675 5.53725 46.5 6.03125 46.5H8.09375C8.58775 46.5 9.125 46.1675 9.125 45.6062V43.9562C9.125 43.5253 8.80823 43.2292 8.4375 43.115Z" fill="white"/>
<path fill-rule="evenodd" clip-rule="evenodd" d="M59 48C61.2091 48 63 46.2091 63 44C63 41.7909 61.2091 40 59 40C56.7909 40 55 41.7909 55 44C55 46.2091 56.7909 48 59 48ZM59.0354 43.1777L58.2219 41.5234H56.8513L58.2424 43.9912L56.8137 46.5H58.1979L59.0354 44.8149L59.8728 46.5H61.2536L59.8283 43.9912L61.216 41.5234H59.8488L59.0354 43.1777Z" fill="white"/>
<path d="M58.5868 32.0722C58.626 32.1526 58.6796 32.2186 58.7475 32.2703C58.8432 32.3432 58.973 32.3797 59.1371 32.3797C59.2465 32.3797 59.3376 32.3546 59.4105 32.3045C59.4835 32.2521 59.5416 32.1803 59.5849 32.0892C59.6282 31.9957 59.6589 31.8886 59.6771 31.7679C59.6954 31.6471 59.7045 31.5172 59.7045 31.3782V31.3064C59.7045 31.1629 59.6942 31.0319 59.6737 30.9134C59.6532 30.7926 59.6202 30.6878 59.5746 30.5989C59.5313 30.5101 59.4732 30.4417 59.4003 30.3938C59.3274 30.346 59.2374 30.3221 59.1303 30.3221C59.0072 30.3221 58.9035 30.3414 58.8192 30.3802C58.7372 30.4166 58.6711 30.4736 58.621 30.5511C58.6087 30.5704 58.5973 30.591 58.5868 30.6129V32.0722Z" fill="white"/>
<path fill-rule="evenodd" clip-rule="evenodd" d="M59 36C61.2091 36 63 34.2091 63 32C63 29.7909 61.2091 28 59 28C56.7909 28 55 29.7909 55 32C55 34.2091 56.7909 36 59 36ZM58.5868 32.8995V34.6219H57.435V29.5018H58.5082L58.5459 29.8423C58.6331 29.7343 58.7333 29.6459 58.8466 29.5769C59.0061 29.4812 59.1964 29.4334 59.4174 29.4334C59.6521 29.4334 59.8583 29.4778 60.036 29.5667C60.216 29.6556 60.3664 29.7832 60.4872 29.9495C60.6103 30.1136 60.7025 30.3107 60.7641 30.5408C60.8256 30.771 60.8563 31.0262 60.8563 31.3064V31.3782C60.8563 31.6471 60.8256 31.8966 60.7641 32.1268C60.7025 32.3569 60.6114 32.5574 60.4906 32.7283C60.3699 32.8992 60.2195 33.0325 60.0395 33.1282C59.8617 33.2216 59.6555 33.2684 59.4208 33.2684C59.1998 33.2684 59.0095 33.2194 58.85 33.1214C58.7525 33.0615 58.6647 32.9875 58.5868 32.8995Z" fill="white"/>
<path d="M58.3234 20.0297V19.9477C58.3234 19.794 58.3352 19.6495 58.3586 19.5141C58.382 19.376 58.4211 19.2549 58.4758 19.1508C58.5305 19.044 58.6034 18.9607 58.6945 18.9008C58.7883 18.8409 58.9042 18.8109 59.0422 18.8109C59.1828 18.8109 59.3 18.8409 59.3937 18.9008C59.4875 18.9607 59.5617 19.044 59.6164 19.1508C59.6711 19.2549 59.7102 19.376 59.7336 19.5141C59.757 19.6495 59.7687 19.794 59.7687 19.9477V20.0297C59.7687 20.1885 59.757 20.337 59.7336 20.475C59.7102 20.613 59.6711 20.7341 59.6164 20.8383C59.5617 20.9398 59.4875 21.0193 59.3937 21.0766C59.3026 21.1338 59.188 21.1625 59.05 21.1625C58.9094 21.1625 58.7922 21.1338 58.6984 21.0766C58.6047 21.0193 58.5305 20.9398 58.4758 20.8383C58.4211 20.7341 58.382 20.613 58.3586 20.475C58.3352 20.337 58.3234 20.1885 58.3234 20.0297Z" fill="white"/>
<path fill-rule="evenodd" clip-rule="evenodd" d="M59 24C61.2091 24 63 22.2091 63 20C63 17.7909 61.2091 16 59 16C56.7909 16 55 17.7909 55 20C55 22.2091 56.7909 24 59 24ZM57.007 19.9477V20.0297C57.007 20.337 57.0513 20.6221 57.1398 20.8852C57.2284 21.1456 57.3586 21.3734 57.5305 21.5687C57.7023 21.7615 57.9159 21.9112 58.1711 22.018C58.4263 22.1247 58.7193 22.1781 59.05 22.1781C59.3807 22.1781 59.6724 22.1247 59.925 22.018C60.1776 21.9112 60.3898 21.7615 60.5617 21.5687C60.7336 21.3734 60.8638 21.1456 60.9523 20.8852C61.0409 20.6221 61.0852 20.337 61.0852 20.0297V19.9477C61.0852 19.6378 61.0409 19.3526 60.9523 19.0922C60.8638 18.8292 60.7336 18.6013 60.5617 18.4086C60.3898 18.2159 60.1763 18.0661 59.9211 17.9594C59.6685 17.85 59.3755 17.7953 59.0422 17.7953C58.7115 17.7953 58.4198 17.85 58.1672 17.9594C57.9146 18.0661 57.7023 18.2159 57.5305 18.4086C57.3586 18.6013 57.2284 18.8292 57.1398 19.0922C57.0513 19.3526 57.007 19.6378 57.007 19.9477Z" fill="white"/>
<path d="M24.1182 36.6362V20.5391H29.7578V36.6362C29.7578 38.2046 29.3979 39.5635 28.6782 40.7129C27.9692 41.8623 27.0024 42.7539 25.7778 43.3877C24.564 44.0107 23.1997 44.3223 21.6851 44.3223C20.1167 44.3223 18.7202 44.0591 17.4956 43.5327C16.2817 43.0063 15.3257 42.1953 14.6274 41.0996C13.9399 40.0039 13.5962 38.6074 13.5962 36.9102H19.2681C19.2681 37.7051 19.3594 38.3281 19.542 38.7793C19.7246 39.2197 19.9932 39.5312 20.3477 39.7139C20.7129 39.8857 21.1587 39.9717 21.6851 39.9717C22.2007 39.9717 22.6357 39.8428 22.9902 39.585C23.3555 39.3164 23.6348 38.9351 23.8281 38.4409C24.0215 37.936 24.1182 37.3345 24.1182 36.6362Z" fill="white"/>
<path d="M45.436 37.7642C45.436 37.3989 45.3823 37.0713 45.2749 36.7812C45.1675 36.4805 44.9688 36.2012 44.6787 35.9434C44.3887 35.6855 43.9697 35.4277 43.4219 35.1699C42.8848 34.9014 42.1758 34.6221 41.2949 34.332C40.2637 33.9883 39.27 33.6016 38.314 33.1719C37.3579 32.7314 36.5039 32.2212 35.752 31.6411C35 31.0503 34.4038 30.3628 33.9634 29.5786C33.5229 28.7837 33.3027 27.8599 33.3027 26.8071C33.3027 25.7974 33.5283 24.8896 33.9795 24.084C34.4307 23.2676 35.0591 22.5747 35.8647 22.0054C36.6812 21.4253 37.6372 20.9849 38.7329 20.6841C39.8286 20.3726 41.0264 20.2168 42.3262 20.2168C44.0449 20.2168 45.5596 20.5176 46.8701 21.1191C48.1914 21.71 49.2227 22.5532 49.9639 23.6489C50.7158 24.7339 51.0918 26.0176 51.0918 27.5H45.4683C45.4683 26.9092 45.3447 26.3882 45.0977 25.937C44.8613 25.4858 44.5015 25.1313 44.0181 24.8735C43.5347 24.6157 42.9277 24.4868 42.1973 24.4868C41.4883 24.4868 40.8921 24.5942 40.4087 24.8091C39.9253 25.0239 39.5601 25.314 39.313 25.6792C39.0659 26.0337 38.9424 26.4258 38.9424 26.8555C38.9424 27.21 39.0391 27.5322 39.2324 27.8223C39.4365 28.1016 39.7212 28.3647 40.0864 28.6118C40.4624 28.8589 40.9136 29.0952 41.4399 29.3208C41.9771 29.5464 42.5786 29.7666 43.2446 29.9814C44.4907 30.3789 45.5972 30.8247 46.564 31.3188C47.5415 31.8022 48.3633 32.3555 49.0293 32.9785C49.7061 33.5908 50.2163 34.2891 50.5601 35.0732C50.9146 35.8574 51.0918 36.7436 51.0918 37.7319C51.0918 38.7847 50.8877 39.7192 50.4795 40.5356C50.0713 41.352 49.4858 42.0449 48.7231 42.6143C47.9604 43.1728 47.0474 43.5972 45.9839 43.8872C44.9204 44.1772 43.7334 44.3223 42.4229 44.3223C41.2197 44.3223 40.0327 44.1719 38.8618 43.8711C37.7017 43.5596 36.6489 43.0869 35.7036 42.4531C34.7583 41.8086 34.001 40.9868 33.4316 39.9878C32.873 38.978 32.5938 37.7803 32.5938 36.3945H38.2656C38.2656 37.082 38.3569 37.6621 38.5396 38.1348C38.7222 38.6074 38.9907 38.9888 39.3452 39.2788C39.6997 39.5581 40.1348 39.7622 40.6504 39.8911C41.166 40.0093 41.7568 40.0684 42.4229 40.0684C43.1426 40.0684 43.7227 39.9663 44.1631 39.7622C44.6035 39.5474 44.9258 39.2681 45.1299 38.9243C45.334 38.5698 45.436 38.1831 45.436 37.7642Z" fill="white"/>
<path d="M21.0848 62.6795L21.0415 62.8952L21.0415 62.8952L21.0848 62.6795ZM20.301 61.5023L20.0853 61.459L20.0853 61.459L20.301 61.5023ZM28.7863 63.205L28.5706 63.1617L28.5706 63.1617L28.7863 63.205ZM27.6091 63.9887L27.6523 63.773L27.6523 63.773L27.6091 63.9887ZM30.3748 50.2059L30.418 49.9902L30.418 49.9902L30.3748 50.2059ZM31.1585 51.3831L31.3742 51.4264L31.3742 51.4264L31.1585 51.3831ZM23.8505 48.8968L23.8072 49.1125L23.8072 49.1125L23.8505 48.8968ZM22.6733 49.6805L22.889 49.7238L22.889 49.7238L22.6733 49.6805ZM30.928 59.5809L31.01 59.3767L31.01 59.3767L30.928 59.5809ZM30.3725 58.2803L30.5767 58.3623L30.5767 58.3623L30.3725 58.2803ZM43.829 63.6815L43.6248 63.5996L43.6248 63.5996L43.829 63.6815ZM42.5285 64.237L42.4465 64.4412L42.4465 64.4412L42.5285 64.237ZM46.6259 54.0287L46.544 54.2328L46.544 54.2328L46.6259 54.0287ZM47.1814 55.3292L47.3856 55.4111L47.3856 55.4111L47.1814 55.3292ZM35.0255 49.3725L35.1074 49.1683L35.1074 49.1683L35.0255 49.3725ZM33.7249 49.928L33.5208 49.8461L33.5208 49.8461L33.7249 49.928ZM21.8324 11.8486L21.7788 11.6352L21.8246 12.0685L21.8324 11.8486ZM52.8189 4.06535L53.0376 4.04226L53.011 3.79025L52.7653 3.85198L52.8189 4.06535ZM53.761 12.9912L53.7531 13.2111L54.0064 13.2202L53.9798 12.9681L53.761 12.9912ZM49.5448 1.1821L49.5981 1.39553L49.5981 1.39553L49.5448 1.1821ZM6.72991 11.8858L6.73964 12.1056L6.76177 12.1046L6.78326 12.0993L6.72991 11.8858ZM4.10457 59.1363L3.99825 59.3289L4.35113 59.5237L4.32407 59.1215L4.10457 59.1363ZM5 51.3294L5.12116 51.513L5.22 51.4478V51.3294H5ZM5 48.584H5.22V48.44L5.08808 48.3824L5 48.584ZM5 39.416L5.08808 39.6176L5.22 39.56V39.416H5ZM5 36.584H5.22V36.44L5.08808 36.3824L5 36.584ZM5 27.416L5.08808 27.6176L5.22 27.56V27.416H5ZM5 24.584H5.22V24.44L5.08808 24.3824L5 24.584ZM9.83355 15.8798L9.70872 16.061L9.76509 16.0998H9.83355V15.8798ZM56.1665 15.8798V16.0998H56.2349L56.2913 16.061L56.1665 15.8798ZM61 24.584L60.9119 24.3824L60.78 24.44V24.584H61ZM61 27.416H60.78V27.56L60.9119 27.6176L61 27.416ZM61 36.584L60.9119 36.3824L60.78 36.44V36.584H61ZM61 39.416H60.78V39.56L60.9119 39.6176L61 39.416ZM61 48.584L60.9119 48.3824L60.78 48.44V48.584H61ZM61 51.3294H60.78V51.4478L60.8788 51.513L61 51.3294ZM61.8954 59.1363L61.6759 59.1215L61.6489 59.5236L62.0017 59.3289L61.8954 59.1363ZM57 11.8798H56.78V12.0998H57V11.8798ZM23.2462 11.8798L23.1929 11.6664L23.2462 12.0998V11.8798ZM53 11.8798V12.0998H53.22V11.8798H53ZM50.5149 5.06267L50.5683 5.2761L50.5683 5.2761L50.5149 5.06267ZM24.4337 49.0734L24.4769 48.8577L24.4769 48.8577L24.4337 49.0734ZM30.3168 50.2522L30.2735 50.4679L30.2735 50.4679L30.3168 50.2522ZM23.2567 49.8575L23.4724 49.9007L23.4724 49.9007L23.2567 49.8575ZM20.8992 61.6236L20.6835 61.5804L20.6835 61.5804L20.8992 61.6236ZM21.6832 62.8006L21.64 63.0163L21.64 63.0163L21.6832 62.8006ZM27.5663 63.9794L27.6095 63.7636L27.6095 63.7636L27.5663 63.9794ZM28.7433 63.1953L28.5276 63.1521L28.5276 63.1521L28.7433 63.1953ZM31.1008 51.4292L31.3165 51.4724L31.3165 51.4724L31.1008 51.4292ZM22.2762 49.661L22.0605 49.6178L22.0605 49.6178L22.2762 49.661ZM24.6302 48.0929L24.5869 48.3086L24.5869 48.3086L24.6302 48.0929ZM19.9187 61.4272L20.1344 61.4704L20.1344 61.4704L19.9187 61.4272ZM21.4868 63.7811L21.4436 63.9968L21.4436 63.9968L21.4868 63.7811ZM27.3698 64.9599L27.4131 64.7442L27.4131 64.7442L27.3698 64.9599ZM29.7238 63.3918L29.9395 63.435L29.9395 63.435L29.7238 63.3918ZM32.0813 51.6256L31.8656 51.5824L31.8656 51.5824L32.0813 51.6256ZM30.5132 49.2717L30.5564 49.056L30.5564 49.056L30.5132 49.2717ZM31.0191 57.9661L31.2237 58.047L31.2237 58.047L31.0191 57.9661ZM33.9637 50.5277L33.7591 50.4467L33.7591 50.4467L33.9637 50.5277ZM31.5809 59.2639L31.4999 59.4685L31.4999 59.4685L31.5809 59.2639ZM42.7385 63.6807L42.8194 63.4762L42.8194 63.4762L42.7385 63.6807ZM44.0363 63.119L43.8318 63.038L43.8318 63.038L44.0363 63.119ZM46.9809 55.6806L47.1854 55.7616L47.1854 55.7616L46.9809 55.6806ZM46.4191 54.3828L46.3382 54.5873L46.3382 54.5873L46.4191 54.3828ZM35.2615 49.9659L35.1806 50.1705L35.2615 49.9659ZM31.2128 60.1937L31.2938 59.9892L31.2938 59.9892L31.2128 60.1937ZM30.0893 57.598L29.8848 57.517L29.8848 57.517L30.0893 57.598ZM42.3704 64.6105L42.2894 64.8151L42.2894 64.8151L42.3704 64.6105ZM44.9661 63.4871L44.7616 63.4061L44.7616 63.4061L44.9661 63.4871ZM47.9107 56.0487L48.1152 56.1297L48.1152 56.1297L47.9107 56.0487ZM46.7872 53.453L46.7062 53.6575L46.7062 53.6575L46.7872 53.453ZM35.6296 49.0361L35.7106 48.8316L35.7106 48.8316L35.6296 49.0361ZM33.0339 50.1596L33.2384 50.2406L33.2384 50.2406L33.0339 50.1596ZM6.39845 53.9445L6.52048 54.1276L6.52048 54.1276L6.39845 53.9445ZM18.991 53.8L18.9996 53.58H18.991V53.8ZM19.0147 53.8014L19.0304 53.5819L19.0304 53.5819L19.0147 53.8014ZM19.1481 53.8176L19.1119 54.0346L19.1119 54.0346L19.1481 53.8176ZM19.5528 53.9444L19.6512 53.7477L19.6512 53.7477L19.5528 53.9444ZM19.8554 54.1984L19.6724 54.3205L19.6724 54.3205L19.8554 54.1984ZM20 60.791L20.22 60.7996V60.791H20ZM19.9986 60.8147L20.2181 60.8304L20.2181 60.8303L19.9986 60.8147ZM19.9824 60.9481L19.7654 60.9119L19.7654 60.9119L19.9824 60.9481ZM19.8556 61.3528L20.0523 61.4512L20.0523 61.4512L19.8556 61.3528ZM19.6016 61.6554L19.7236 61.8385L19.7236 61.8385L19.6016 61.6554ZM7.00903 61.8L7.00044 62.02H7.00903V61.8ZM6.98531 61.7986L6.96963 62.0181L6.96965 62.0181L6.98531 61.7986ZM6.8519 61.7824L6.88807 61.5653L6.88807 61.5653L6.8519 61.7824ZM6.44721 61.6556L6.5456 61.4588L6.5456 61.4588L6.44721 61.6556ZM6.14455 61.4016L5.9615 61.5236L5.9615 61.5236L6.14455 61.4016ZM6 54.809L5.78 54.8004V54.809H6ZM6.00136 54.7853L5.78192 54.7696L5.78192 54.7696L6.00136 54.7853ZM6.01764 54.6519L6.23465 54.6881L6.23465 54.6881L6.01764 54.6519ZM6.14443 54.2472L5.94765 54.1488L5.94765 54.1488L6.14443 54.2472ZM15 62.8V62.58C14.8785 62.58 14.78 62.6785 14.78 62.8H15ZM15.25 64.3L15.0532 64.3984C15.0905 64.4729 15.1667 64.52 15.25 64.52V64.3ZM16.5 64.8V65.02C16.6215 65.02 16.72 64.9215 16.72 64.8H16.5ZM9.5 64.8H9.28C9.28 64.9215 9.3785 65.02 9.5 65.02V64.8ZM10.75 64.3V64.52C10.8333 64.52 10.9095 64.4729 10.9468 64.3984L10.75 64.3ZM11 62.8H11.22C11.22 62.6785 11.1215 62.58 11 62.58V62.8ZM48 61.8H47.78V62.02H48V61.8ZM60 61.8V62.02H60.22V61.8H60ZM47 62.8H46.78V63.02H47V62.8ZM61 62.8V63.02H61.22V62.8H61ZM46 63.3V63.08H45.78V63.3H46ZM62 63.3H62.22V63.08H62V63.3ZM5.37339 23.0999L5.271 23.2946L5.42849 23.3774L5.5424 23.2407L5.37339 23.0999ZM3.89899 21.6244L3.75815 21.4554L3.62155 21.5692L3.70419 21.7267L3.89899 21.6244ZM6.20231 22.1052L6.28015 21.8994L6.1336 21.8439L6.0333 21.9643L6.20231 22.1052ZM7.91489 22.0554L8.0046 22.2563L8.20246 22.1679L8.1171 21.9688L7.91489 22.0554ZM7.24827 20.5L7.04395 20.5817L7.04606 20.5867L7.24827 20.5ZM6.74827 19.25L6.66657 19.0457L6.4623 19.1274L6.54401 19.3317L6.74827 19.25ZM8.66153 18.4847L8.74323 18.689L9.03796 18.5711L8.82411 18.3365L8.66153 18.4847ZM4.89312 20.796L5.03396 20.965L5.15432 20.8647L5.09888 20.7181L4.89312 20.796ZM8.39662 21.7628L8.19441 21.8495L8.30789 22.1143L8.53346 21.9351L8.39662 21.7628ZM7.74827 20.25L7.67102 20.044L7.45531 20.1249L7.54606 20.3367L7.74827 20.25ZM9.2278 19.6952L9.44581 19.6656L9.40879 19.3923L9.15055 19.4892L9.2278 19.6952ZM6.34761 19.9241L6.17277 20.0577L6.17277 20.0577L6.34761 19.9241ZM6.35228 20.0693L6.53533 20.1914L6.53533 20.1914L6.35228 20.0693ZM5.45874 20.1314L5.38917 19.9227L5.18046 19.9923L5.25003 20.201L5.45874 20.1314ZM5.5378 20.3686L5.32909 20.4382L5.39866 20.6469L5.60737 20.5773L5.5378 20.3686ZM5.94218 20.2338L6.12523 20.3558L6.4809 19.8223L5.87261 20.0251L5.94218 20.2338ZM5.64427 20.6807L5.46121 20.5586L5.46121 20.5586L5.64427 20.6807ZM5.64893 20.8259L5.4741 20.9594L5.4741 20.9594L5.64893 20.8259ZM5.7878 20.8686L5.85737 21.0773L5.85737 21.0773L5.7878 20.8686ZM6.19218 20.7338L6.37523 20.8558L6.7309 20.3223L6.12261 20.5251L6.19218 20.7338ZM5.89427 21.1807L6.07732 21.3027L6.07732 21.3027L5.89427 21.1807ZM5.89893 21.3259L6.07377 21.1923L6.07377 21.1923L5.89893 21.3259ZM6.7878 21.1186L6.85737 21.3273L7.06608 21.2577L6.99651 21.049L6.7878 21.1186ZM6.70874 20.8814L6.91745 20.8118L6.84788 20.6031L6.63917 20.6727L6.70874 20.8814ZM6.30436 21.0162L6.12131 20.8942L5.76564 21.4277L6.37393 21.2249L6.30436 21.0162ZM6.60228 20.5693L6.78533 20.6914L6.78533 20.6914L6.60228 20.5693ZM6.59761 20.4241L6.42277 20.5577L6.42277 20.5577L6.59761 20.4241ZM6.45874 20.3814L6.38917 20.1727L6.38917 20.1727L6.45874 20.3814ZM6.05436 20.5162L5.87131 20.3942L5.51564 20.9277L6.12393 20.7249L6.05436 20.5162ZM7.81167 28.8017L7.74762 29.0122L7.74763 29.0122L7.81167 28.8017ZM7.9583 29.0756L7.74823 29.0103L7.74823 29.0103L7.9583 29.0756ZM7.53471 28.9467L7.32465 28.8814L7.32465 28.8814L7.53471 28.9467ZM5.76199 34.6447L5.97205 34.71L5.97205 34.71L5.76199 34.6447ZM5.90861 34.9186L5.97266 34.7081L5.97266 34.7081L5.90861 34.9186ZM6.18557 34.7736L6.39564 34.8389L6.39564 34.8389L6.18557 34.7736ZM5.46569 30.481L5.31099 30.3246L5.31099 30.3246L5.46569 30.481ZM5.46569 30.1711L5.31099 30.3275L5.31099 30.3275L5.46569 30.1711ZM4.07124 31.8601L3.91654 31.7037L3.75838 31.8601L3.91654 32.0166L4.07124 31.8601ZM5.46569 33.2392L5.62039 33.0828L5.62039 33.0828L5.46569 33.2392ZM5.46569 33.5492L5.62039 33.7056L5.62039 33.7056L5.46569 33.5492ZM5.15231 33.5492L4.99761 33.7056L4.99761 33.7056L5.15231 33.5492ZM3.60118 32.0151L3.44648 32.1715L3.44648 32.1715L3.60118 32.0151ZM3.60118 31.7052L3.75588 31.8616L3.75588 31.8616L3.60118 31.7052ZM5.15231 30.1711L5.30701 30.3275L5.30701 30.3275L5.15231 30.1711ZM8.25458 30.1711L8.40928 30.3275L8.40928 30.3275L8.25458 30.1711ZM8.25458 30.481L8.40929 30.3246L8.40928 30.3246L8.25458 30.481ZM8.56796 30.1711L8.72266 30.0147L8.72266 30.0147L8.56796 30.1711ZM10.1191 31.7052L9.9644 31.8616L9.9644 31.8616L10.1191 31.7052ZM10.1191 32.0151L9.9644 31.8587L9.9644 31.8587L10.1191 32.0151ZM8.56796 33.5492L8.72266 33.7056L8.72266 33.7056L8.56796 33.5492ZM8.25458 33.5492L8.09988 33.7056L8.09989 33.7056L8.25458 33.5492ZM8.25458 33.2392L8.09988 33.0828L8.09988 33.0828L8.25458 33.2392ZM9.64903 31.8601L9.80373 32.0166L9.9619 31.8601L9.80373 31.7037L9.64903 31.8601ZM8.4375 43.115H8.2175V43.2774L8.37271 43.3252L8.4375 43.115ZM5.6875 43.115L5.75229 43.3252L5.9075 43.2774V43.115H5.6875ZM7.75 43.0625V43.2825H7.97V43.0625H7.75ZM6.375 43.0625H6.155V43.2825H6.375V43.0625ZM58.2219 41.5234L58.4193 41.4264L58.3589 41.3034H58.2219V41.5234ZM59.0354 43.1777L58.8379 43.2748L59.0354 43.6763L59.2328 43.2748L59.0354 43.1777ZM56.8513 41.5234V41.3034H56.4747L56.6596 41.6315L56.8513 41.5234ZM58.2424 43.9912L58.4336 44.1001L58.4952 43.9918L58.434 43.8832L58.2424 43.9912ZM56.8137 46.5L56.6225 46.3911L56.4352 46.72H56.8137V46.5ZM58.1979 46.5V46.72H58.3343L58.395 46.5979L58.1979 46.5ZM59.0354 44.8149L59.2324 44.717L59.0354 44.3206L58.8383 44.717L59.0354 44.8149ZM59.8728 46.5L59.6757 46.5979L59.7364 46.72H59.8728V46.5ZM61.2536 46.5V46.72H61.6316L61.4449 46.3913L61.2536 46.5ZM59.8283 43.9912L59.6366 43.8834L59.5756 43.9918L59.637 44.0999L59.8283 43.9912ZM61.216 41.5234L61.4078 41.6313L61.5921 41.3034H61.216V41.5234ZM59.8488 41.5234V41.3034H59.7118L59.6514 41.4264L59.8488 41.5234ZM58.5868 32.8995L58.7515 32.7537L58.3668 32.3192V32.8995H58.5868ZM58.5868 34.6219V34.8419H58.8068V34.6219H58.5868ZM57.435 34.6219H57.215V34.8419H57.435V34.6219ZM57.435 29.5018V29.2818H57.215V29.5018H57.435ZM58.5082 29.5018L58.7269 29.4776L58.7052 29.2818H58.5082V29.5018ZM58.5459 29.8423L58.3272 29.8664L58.3852 30.391L58.717 29.9805L58.5459 29.8423ZM58.8466 29.5769L58.7334 29.3883L58.7322 29.389L58.8466 29.5769ZM60.036 29.5667L59.9376 29.7635L59.9386 29.764L60.036 29.5667ZM60.4872 29.9495L60.3092 30.0788L60.3112 30.0815L60.4872 29.9495ZM60.7641 32.1268L60.9766 32.1836L60.9766 32.1836L60.7641 32.1268ZM60.0395 33.1282L60.1418 33.323L60.1427 33.3225L60.0395 33.1282ZM58.85 33.1214L58.9652 32.9339L58.9652 32.9339L58.85 33.1214ZM58.5868 32.0722H58.3668V32.123L58.3891 32.1687L58.5868 32.0722ZM58.7475 32.2703L58.8808 32.0953L58.8808 32.0953L58.7475 32.2703ZM59.4105 32.3045L59.5352 32.4858L59.5389 32.4831L59.4105 32.3045ZM59.5849 32.0892L59.7836 32.1836L59.7845 32.1817L59.5849 32.0892ZM59.6737 30.9134L59.4568 30.9502L59.457 30.9509L59.6737 30.9134ZM59.5746 30.5989L59.3768 30.6953L59.3788 30.6993L59.5746 30.5989ZM58.8192 30.3802L58.9086 30.5812L58.9111 30.5801L58.8192 30.3802ZM58.621 30.5511L58.4363 30.4315L58.4354 30.433L58.621 30.5511ZM58.5868 30.6129L58.3884 30.5178L58.3668 30.5629V30.6129H58.5868ZM57.1398 20.8852L56.9313 20.9553L56.9316 20.956L57.1398 20.8852ZM57.5305 21.5687L57.3653 21.7141L57.3663 21.7152L57.5305 21.5687ZM60.5617 21.5687L60.7259 21.7152L60.7269 21.7141L60.5617 21.5687ZM60.9523 20.8852L61.1606 20.956L61.1608 20.9553L60.9523 20.8852ZM60.9523 19.0922L60.7438 19.1624L60.7441 19.163L60.9523 19.0922ZM59.9211 17.9594L59.8337 18.1613L59.8362 18.1623L59.9211 17.9594ZM58.1672 17.9594L58.2528 18.162L58.2546 18.1613L58.1672 17.9594ZM57.1398 19.0922L57.3481 19.163L57.3483 19.1624L57.1398 19.0922ZM58.3586 19.5141L58.5754 19.5516L58.5755 19.5509L58.3586 19.5141ZM58.4758 19.1508L58.6706 19.253L58.6716 19.2511L58.4758 19.1508ZM58.6945 18.9008L58.5761 18.7154L58.5737 18.7169L58.6945 18.9008ZM59.6164 19.1508L59.4206 19.2511L59.4216 19.253L59.6164 19.1508ZM59.7336 19.5141L59.5167 19.5509L59.5168 19.5516L59.7336 19.5141ZM59.6164 20.8383L59.8101 20.9426L59.8112 20.9405L59.6164 20.8383ZM59.3937 21.0766L59.279 20.8888L59.2767 20.8903L59.3937 21.0766ZM58.4758 20.8383L58.281 20.9405L58.2821 20.9426L58.4758 20.8383ZM24.1182 20.5391V20.3191H23.8982V20.5391H24.1182ZM29.7578 20.5391H29.9778V20.3191H29.7578V20.5391ZM28.6782 40.7129L28.4918 40.5961L28.491 40.5974L28.6782 40.7129ZM25.7778 43.3877L25.8783 43.5834L25.879 43.5831L25.7778 43.3877ZM17.4956 43.5327L17.4081 43.7346L17.4087 43.7348L17.4956 43.5327ZM14.6274 41.0996L14.4411 41.2165L14.4419 41.2178L14.6274 41.0996ZM13.5962 36.9102V36.6902H13.3762V36.9102H13.5962ZM19.2681 36.9102H19.4881V36.6902H19.2681V36.9102ZM19.542 38.7793L19.3381 38.8618L19.3388 38.8636L19.542 38.7793ZM20.3477 39.7139L20.2468 39.9096L20.254 39.9129L20.3477 39.7139ZM22.9902 39.585L23.1196 39.7629L23.1206 39.7622L22.9902 39.585ZM23.8281 38.4409L24.033 38.5211L24.0336 38.5196L23.8281 38.4409ZM45.2749 36.7812L45.0677 36.8552L45.0686 36.8577L45.2749 36.7812ZM43.4219 35.1699L43.3235 35.3667L43.3282 35.369L43.4219 35.1699ZM41.2949 34.332L41.2254 34.5407L41.2261 34.541L41.2949 34.332ZM38.314 33.1719L38.2219 33.3717L38.2238 33.3725L38.314 33.1719ZM35.752 31.6411L35.616 31.8141L35.6176 31.8153L35.752 31.6411ZM33.9634 29.5786L33.7709 29.6852L33.7716 29.6863L33.9634 29.5786ZM33.9795 24.084L34.1714 24.1915L34.172 24.1904L33.9795 24.084ZM35.8647 22.0054L35.9917 22.185L35.9922 22.1847L35.8647 22.0054ZM38.7329 20.6841L38.7912 20.8962L38.7931 20.8957L38.7329 20.6841ZM46.8701 21.1191L46.7783 21.3191L46.7803 21.32L46.8701 21.1191ZM49.9639 23.6489L49.7816 23.7722L49.783 23.7742L49.9639 23.6489ZM51.0918 27.5V27.72H51.3118V27.5H51.0918ZM45.4683 27.5H45.2483V27.72H45.4683V27.5ZM45.0977 25.937L44.9027 26.0391L44.9047 26.0427L45.0977 25.937ZM39.313 25.6792L39.4935 25.805L39.4952 25.8025L39.313 25.6792ZM39.2324 27.8223L39.0492 27.9444L39.0548 27.9521L39.2324 27.8223ZM40.0864 28.6118L39.9631 28.7941L39.9656 28.7957L40.0864 28.6118ZM41.4399 29.3208L41.3533 29.523L41.3548 29.5236L41.4399 29.3208ZM43.2446 29.9814L43.1771 30.1908L43.1778 30.191L43.2446 29.9814ZM46.564 31.3188L46.4638 31.5148L46.4664 31.516L46.564 31.3188ZM49.0293 32.9785L48.879 33.1392L48.8817 33.1416L49.0293 32.9785ZM50.5601 35.0732L50.3586 35.1616L50.3596 35.1639L50.5601 35.0732ZM48.7231 42.6143L48.8531 42.7917L48.8547 42.7906L48.7231 42.6143ZM38.8618 43.8711L38.8048 44.0836L38.8071 44.0842L38.8618 43.8711ZM35.7036 42.4531L35.5797 42.6349L35.5811 42.6359L35.7036 42.4531ZM33.4316 39.9878L33.2391 40.0943L33.2405 40.0967L33.4316 39.9878ZM32.5938 36.3945V36.1745H32.3738V36.3945H32.5938ZM38.2656 36.3945H38.4856V36.1745H38.2656V36.3945ZM39.3452 39.2788L39.2059 39.4491L39.2091 39.4516L39.3452 39.2788ZM40.6504 39.8911L40.597 40.1046L40.6012 40.1056L40.6504 39.8911ZM44.1631 39.7622L44.2556 39.9619L44.2595 39.9599L44.1631 39.7622ZM45.1299 38.9243L45.3191 39.0366L45.3205 39.0341L45.1299 38.9243ZM5 14.22H61V13.78H5V14.22ZM63.78 17V57H64.22V17H63.78ZM61 59.78H5V60.22H61V59.78ZM2.22 57V17H1.78V57H2.22ZM5 59.78C3.46465 59.78 2.22 58.5354 2.22 57H1.78C1.78 58.7784 3.22164 60.22 5 60.22V59.78ZM63.78 57C63.78 58.5354 62.5354 59.78 61 59.78V60.22C62.7784 60.22 64.22 58.7784 64.22 57H63.78ZM61 14.22C62.5354 14.22 63.78 15.4646 63.78 17H64.22C64.22 15.2216 62.7784 13.78 61 13.78V14.22ZM5 13.78C3.22164 13.78 1.78 15.2216 1.78 17H2.22C2.22 15.4646 3.46465 14.22 5 14.22V13.78ZM48.4 53.55H59.4V53.11H48.4V53.55ZM60.18 54.33V61.33H60.62V54.33H60.18ZM59.4 62.11H48.4V62.55H59.4V62.11ZM47.62 61.33V54.33H47.18V61.33H47.62ZM48.4 62.11C47.9692 62.11 47.62 61.7608 47.62 61.33H47.18C47.18 62.0038 47.7262 62.55 48.4 62.55V62.11ZM60.18 61.33C60.18 61.7608 59.8308 62.11 59.4 62.11V62.55C60.0738 62.55 60.62 62.0038 60.62 61.33H60.18ZM59.4 53.55C59.8308 53.55 60.18 53.8992 60.18 54.33H60.62C60.62 53.6562 60.0738 53.11 59.4 53.11V53.55ZM48.4 53.11C47.7262 53.11 47.18 53.6562 47.18 54.33H47.62C47.62 53.8992 47.9692 53.55 48.4 53.55V53.11ZM23.8072 49.1125L30.3315 50.4216L30.418 49.9902L23.8937 48.6811L23.8072 49.1125ZM30.9428 51.3399L28.5706 63.1617L29.002 63.2483L31.3742 51.4264L30.9428 51.3399ZM27.6523 63.773L21.128 62.4638L21.0415 62.8952L27.5658 64.2044L27.6523 63.773ZM20.5167 61.5456L22.889 49.7238L22.4576 49.6372L20.0853 61.459L20.5167 61.5456ZM21.128 62.4638C20.7057 62.3791 20.432 61.968 20.5167 61.5456L20.0853 61.459C19.9528 62.1196 20.3809 62.7626 21.0415 62.8952L21.128 62.4638ZM28.5706 63.1617C28.4858 63.5841 28.0747 63.8577 27.6523 63.773L27.5658 64.2044C28.2264 64.337 28.8694 63.9089 29.002 63.2483L28.5706 63.1617ZM30.3315 50.4216C30.7538 50.5064 31.0275 50.9175 30.9428 51.3399L31.3742 51.4264C31.5067 50.7658 31.0787 50.1228 30.418 49.9902L30.3315 50.4216ZM23.8937 48.6811C23.2331 48.5485 22.5901 48.9766 22.4576 49.6372L22.889 49.7238C22.9737 49.3014 23.3848 49.0277 23.8072 49.1125L23.8937 48.6811ZM34.9435 49.5767L46.544 54.2328L46.7078 53.8245L35.1074 49.1683L34.9435 49.5767ZM46.9773 55.2472L43.6248 63.5996L44.0332 63.7634L47.3856 55.4111L46.9773 55.2472ZM42.6104 64.0329L31.01 59.3767L30.8461 59.785L42.4465 64.4412L42.6104 64.0329ZM30.5767 58.3623L33.9291 50.01L33.5208 49.8461L30.1683 58.1984L30.5767 58.3623ZM31.01 59.3767C30.6102 59.2162 30.4162 58.7621 30.5767 58.3623L30.1683 58.1984C29.9173 58.8237 30.2208 59.5341 30.8461 59.785L31.01 59.3767ZM43.6248 63.5996C43.4644 63.9993 43.0102 64.1933 42.6104 64.0329L42.4465 64.4412C43.0718 64.6922 43.7822 64.3887 44.0332 63.7634L43.6248 63.5996ZM46.544 54.2328C46.9437 54.3933 47.1377 54.8475 46.9773 55.2472L47.3856 55.4111C47.6366 54.7858 47.3331 54.0755 46.7078 53.8245L46.544 54.2328ZM35.1074 49.1683C34.4821 48.9173 33.7717 49.2208 33.5208 49.8461L33.9291 50.01C34.0896 49.6102 34.5437 49.4162 34.9435 49.5767L35.1074 49.1683ZM6.8 54.02H19.3V53.58H6.8V54.02ZM20.08 54.8V60.8H20.52V54.8H20.08ZM19.3 61.58H6.8V62.02H19.3V61.58ZM6.02 60.8V54.8H5.58V60.8H6.02ZM6.8 61.58C6.36922 61.58 6.02 61.2308 6.02 60.8H5.58C5.58 61.4738 6.12622 62.02 6.8 62.02V61.58ZM20.08 60.8C20.08 61.2308 19.7308 61.58 19.3 61.58V62.02C19.9738 62.02 20.52 61.4738 20.52 60.8H20.08ZM19.3 54.02C19.7308 54.02 20.08 54.3692 20.08 54.8H20.52C20.52 54.1262 19.9738 53.58 19.3 53.58V54.02ZM6.8 53.58C6.12622 53.58 5.58 54.1262 5.58 54.8H6.02C6.02 54.3692 6.36922 54.02 6.8 54.02V53.58ZM21.886 12.062L52.8724 4.27873L52.7653 3.85198L21.7788 11.6352L21.886 12.062ZM52.6001 4.08845L53.5422 13.0143L53.9798 12.9681L53.0376 4.04226L52.6001 4.08845ZM53.7688 12.7714L21.8403 11.6288L21.8246 12.0685L53.7531 13.2111L53.7688 12.7714ZM49.5981 1.39553C53.2462 0.483525 56.78 3.24265 56.78 7.00295H57.22C57.22 2.9564 53.4172 -0.0127639 49.4914 0.968669L49.5981 1.39553ZM6.78326 12.0993L49.5981 1.39553L49.4914 0.968669L6.67655 11.6724L6.78326 12.0993ZM1.22 17.8798C1.22 14.7749 3.66836 12.2417 6.73964 12.1056L6.72017 11.666C3.41473 11.8125 0.78 14.5384 0.78 17.8798H1.22ZM1.22 53.8798V17.8798H0.78V53.8798H1.22ZM4.21089 58.9436C2.42727 57.9591 1.22 56.0603 1.22 53.8798H0.78C0.78 56.2269 2.08004 58.27 3.99825 59.3289L4.21089 58.9436ZM3.88 59C3.88 59.0507 3.8817 59.1011 3.88506 59.151L4.32407 59.1215C4.32137 59.0814 4.32 59.0409 4.32 59H3.88ZM3.88 53V59H4.32V53H3.88ZM4.87884 51.1458C4.27753 51.5425 3.88 52.2248 3.88 53H4.32C4.32 52.3788 4.63802 51.8318 5.12116 51.513L4.87884 51.1458ZM4.78 48.584V51.3294H5.22V48.584H4.78ZM1.78 44C1.78 46.1409 3.06877 47.9802 4.91192 48.7856L5.08808 48.3824C3.39942 47.6445 2.22 45.9598 2.22 44H1.78ZM4.91192 39.2144C3.06877 40.0197 1.78 41.8591 1.78 44H2.22C2.22 42.0402 3.39942 40.3554 5.08808 39.6176L4.91192 39.2144ZM4.78 36.584V39.416H5.22V36.584H4.78ZM1.78 32C1.78 34.1409 3.06877 35.9802 4.91192 36.7855L5.08808 36.3824C3.39942 35.6445 2.22 33.9598 2.22 32H1.78ZM4.91192 27.2144C3.06877 28.0197 1.78 29.8591 1.78 32H2.22C2.22 30.0402 3.39942 28.3554 5.08808 27.6176L4.91192 27.2144ZM4.78 24.584V27.416H5.22V24.584H4.78ZM1.78 20C1.78 22.1409 3.06877 23.9802 4.91192 24.7855L5.08808 24.3824C3.39942 23.6445 2.22 21.9598 2.22 20H1.78ZM7 14.78C4.11707 14.78 1.78 17.1171 1.78 20H2.22C2.22 17.3601 4.36008 15.22 7 15.22V14.78ZM9.95838 15.6987C9.11746 15.1193 8.09802 14.78 7 14.78V15.22C8.00604 15.22 8.93888 15.5305 9.70872 16.061L9.95838 15.6987ZM56.1665 15.6598H9.83355V16.0998H56.1665V15.6598ZM56.2913 16.061C57.0611 15.5305 57.994 15.22 59 15.22V14.78C57.902 14.78 56.8825 15.1193 56.0416 15.6987L56.2913 16.061ZM59 15.22C61.6399 15.22 63.78 17.3601 63.78 20H64.22C64.22 17.1171 61.8829 14.78 59 14.78V15.22ZM63.78 20C63.78 21.9598 62.6006 23.6445 60.9119 24.3824L61.0881 24.7855C62.9312 23.9802 64.22 22.1409 64.22 20H63.78ZM61.22 27.416V24.584H60.78V27.416H61.22ZM64.22 32C64.22 29.8591 62.9312 28.0197 61.0881 27.2144L60.9119 27.6176C62.6006 28.3554 63.78 30.0402 63.78 32H64.22ZM61.0881 36.7855C62.9312 35.9802 64.22 34.1409 64.22 32H63.78C63.78 33.9598 62.6006 35.6445 60.9119 36.3824L61.0881 36.7855ZM61.22 39.416V36.584H60.78V39.416H61.22ZM64.22 44C64.22 41.8591 62.9312 40.0197 61.0881 39.2144L60.9119 39.6176C62.6006 40.3554 63.78 42.0402 63.78 44H64.22ZM61.0881 48.7856C62.9312 47.9802 64.22 46.1409 64.22 44H63.78C63.78 45.9598 62.6006 47.6445 60.9119 48.3824L61.0881 48.7856ZM61.22 51.3294V48.584H60.78V51.3294H61.22ZM62.12 53C62.12 52.2248 61.7225 51.5425 61.1212 51.1458L60.8788 51.513C61.362 51.8318 61.68 52.3788 61.68 53H62.12ZM62.12 59V53H61.68V59H62.12ZM62.1149 59.151C62.1183 59.1011 62.12 59.0507 62.12 59H61.68C61.68 59.0409 61.6786 59.0814 61.6759 59.1215L62.1149 59.151ZM64.78 53.8798C64.78 56.0603 63.5727 57.9591 61.7891 58.9436L62.0017 59.3289C63.92 58.27 65.22 56.2269 65.22 53.8798H64.78ZM64.78 17.8798V53.8798H65.22V17.8798H64.78ZM59 12.0998C62.1922 12.0998 64.78 14.6876 64.78 17.8798H65.22C65.22 14.4446 62.4352 11.6598 59 11.6598V12.0998ZM57 12.0998H59V11.6598H57V12.0998ZM56.78 7.00295V11.8798H57.22V7.00295H56.78ZM23.2462 12.0998H53V11.6598H23.2462V12.0998ZM50.4616 4.84924L23.1929 11.6664L23.2996 12.0933L50.5683 5.2761L50.4616 4.84924ZM53.22 7.00295C53.22 5.55869 51.8627 4.49895 50.4616 4.84924L50.5683 5.2761C51.6917 4.99524 52.78 5.84494 52.78 7.00295H53.22ZM53.22 11.8798V7.00295H52.78V11.8798H53.22ZM24.3905 49.2891L30.2735 50.4679L30.36 50.0365L24.4769 48.8577L24.3905 49.2891ZM23.4724 49.9007C23.5571 49.4783 23.9681 49.2045 24.3905 49.2891L24.4769 48.8577C23.8163 48.7253 23.1734 49.1536 23.041 49.8143L23.4724 49.9007ZM21.1149 61.6668L23.4724 49.9007L23.041 49.8143L20.6835 61.5804L21.1149 61.6668ZM21.7265 62.5849C21.3041 62.5002 21.0303 62.0892 21.1149 61.6668L20.6835 61.5804C20.5511 62.2411 20.9794 62.8839 21.64 63.0163L21.7265 62.5849ZM27.6095 63.7636L21.7265 62.5849L21.64 63.0163L27.5231 64.1951L27.6095 63.7636ZM28.5276 63.1521C28.4429 63.5745 28.0319 63.8483 27.6095 63.7636L27.5231 64.1951C28.1837 64.3274 28.8266 63.8992 28.959 63.2385L28.5276 63.1521ZM30.8851 51.3859L28.5276 63.1521L28.959 63.2385L31.3165 51.4724L30.8851 51.3859ZM30.2735 50.4679C30.6959 50.5525 30.9697 50.9636 30.8851 51.3859L31.3165 51.4724C31.4489 50.8117 31.0206 50.1689 30.36 50.0365L30.2735 50.4679ZM22.4919 49.7042C22.6851 48.7403 23.623 48.1155 24.5869 48.3086L24.6734 47.8772C23.4712 47.6363 22.3014 48.4156 22.0605 49.6178L22.4919 49.7042ZM20.1344 61.4704L22.4919 49.7042L22.0605 49.6178L19.703 61.3839L20.1344 61.4704ZM21.53 63.5654C20.5661 63.3723 19.9413 62.4343 20.1344 61.4704L19.703 61.3839C19.4621 62.5861 20.2414 63.7559 21.4436 63.9968L21.53 63.5654ZM27.4131 64.7442L21.53 63.5654L21.4436 63.9968L27.3266 65.1756L27.4131 64.7442ZM29.5081 63.3485C29.3149 64.3125 28.377 64.9373 27.4131 64.7442L27.3266 65.1756C28.5288 65.4165 29.6986 64.6372 29.9395 63.435L29.5081 63.3485ZM31.8656 51.5824L29.5081 63.3485L29.9395 63.435L32.297 51.6688L31.8656 51.5824ZM30.47 49.4874C31.4339 49.6805 32.0587 50.6185 31.8656 51.5824L32.297 51.6688C32.5379 50.4667 31.7586 49.2968 30.5564 49.056L30.47 49.4874ZM24.5869 48.3086L30.47 49.4874L30.5564 49.056L24.6734 47.8772L24.5869 48.3086ZM24.778 62.6252C25.4387 62.7575 26.0815 62.3293 26.2139 61.6686L25.7825 61.5822C25.6979 62.0046 25.2868 62.2784 24.8645 62.1937L24.778 62.6252ZM26.2139 61.6686C26.3463 61.008 25.918 60.3651 25.2574 60.2327L25.1709 60.6641C25.5933 60.7488 25.8671 61.1598 25.7825 61.5822L26.2139 61.6686ZM25.2574 60.2327C24.5967 60.1004 23.9538 60.5286 23.8215 61.1893L24.2529 61.2757C24.3375 60.8533 24.7485 60.5795 25.1709 60.6641L25.2574 60.2327ZM23.8215 61.1893C23.6891 61.8499 24.1174 62.4928 24.778 62.6252L24.8645 62.1937C24.4421 62.1091 24.1683 61.6981 24.2529 61.2757L23.8215 61.1893ZM31.2237 58.047L34.1682 50.6086L33.7591 50.4467L30.8146 57.8851L31.2237 58.047ZM31.6618 59.0594C31.2613 58.9008 31.0651 58.4476 31.2237 58.047L30.8146 57.8851C30.5666 58.5116 30.8734 59.2205 31.4999 59.4685L31.6618 59.0594ZM42.8194 63.4762L31.6618 59.0594L31.4999 59.4685L42.6575 63.8853L42.8194 63.4762ZM43.8318 63.038C43.6732 63.4386 43.22 63.6347 42.8194 63.4762L42.6575 63.8853C43.284 64.1333 43.9929 63.8265 44.2409 63.2L43.8318 63.038ZM46.7763 55.5996L43.8318 63.038L44.2409 63.2L47.1854 55.7616L46.7763 55.5996ZM46.3382 54.5873C46.7387 54.7459 46.9349 55.1991 46.7763 55.5996L47.1854 55.7616C47.4334 55.1351 47.1266 54.4262 46.5001 54.1782L46.3382 54.5873ZM35.1806 50.1705L46.3382 54.5873L46.5001 54.1782L35.3425 49.7614L35.1806 50.1705ZM34.1682 50.6086C34.3268 50.2081 34.78 50.0119 35.1806 50.1705L35.3425 49.7614C34.716 49.5134 34.0071 49.8202 33.7591 50.4467L34.1682 50.6086ZM31.2938 59.9892C30.3797 59.6273 29.9321 58.593 30.2939 57.679L29.8848 57.517C29.4335 58.657 29.9918 59.947 31.1318 60.3983L31.2938 59.9892ZM42.4514 64.406L31.2938 59.9892L31.1318 60.3983L42.2894 64.8151L42.4514 64.406ZM44.7616 63.4061C44.3997 64.3202 43.3654 64.7678 42.4514 64.406L42.2894 64.8151C43.4294 65.2664 44.7194 64.7081 45.1707 63.5681L44.7616 63.4061ZM47.7061 55.9677L44.7616 63.4061L45.1707 63.5681L48.1152 56.1297L47.7061 55.9677ZM46.7062 53.6575C47.6203 54.0193 48.0679 55.0537 47.7061 55.9677L48.1152 56.1297C48.5665 54.9897 48.0082 53.6997 46.8682 53.2484L46.7062 53.6575ZM35.5486 49.2407L46.7062 53.6575L46.8682 53.2484L35.7106 48.8316L35.5486 49.2407ZM33.2384 50.2406C33.6003 49.3265 34.6346 48.8789 35.5486 49.2407L35.7106 48.8316C34.5706 48.3803 33.2806 48.9386 32.8293 50.0786L33.2384 50.2406ZM30.2939 57.679L33.2384 50.2406L32.8293 50.0786L29.8848 57.517L30.2939 57.679ZM44.7833 59.1127C45.0313 58.4862 44.7245 57.7773 44.098 57.5293L43.9361 57.9384C44.3366 58.097 44.5328 58.5502 44.3742 58.9508L44.7833 59.1127ZM44.098 57.5293C43.4716 57.2813 42.7626 57.5881 42.5146 58.2146L42.9238 58.3766C43.0823 57.976 43.5355 57.7799 43.9361 57.9384L44.098 57.5293ZM42.5146 58.2146C42.2666 58.8411 42.5735 59.55 43.2 59.798L43.3619 59.3889C42.9614 59.2304 42.7652 58.7771 42.9238 58.3766L42.5146 58.2146ZM43.2 59.798C43.8264 60.046 44.5353 59.7392 44.7833 59.1127L44.3742 58.9508C44.2157 59.3513 43.7624 59.5475 43.3619 59.3889L43.2 59.798ZM7 53.58C6.63633 53.58 6.41559 53.6687 6.27642 53.7615L6.52048 54.1276C6.57982 54.088 6.71364 54.02 7 54.02V53.58ZM18.991 53.58H7V54.02H18.991V53.58ZM19.0304 53.5819C19.0162 53.5809 19.0058 53.5804 18.9996 53.5802L18.9824 54.0198C18.9841 54.0199 18.9898 54.0202 18.999 54.0208L19.0304 53.5819ZM19.1843 53.6006C19.1179 53.5896 19.0643 53.5843 19.0304 53.5819L18.999 54.0208C19.0213 54.0224 19.061 54.0262 19.1119 54.0346L19.1843 53.6006ZM19.6512 53.7477C19.4906 53.6674 19.3207 53.6234 19.1843 53.6006L19.1119 54.0346C19.2196 54.0526 19.3444 54.0862 19.4544 54.1412L19.6512 53.7477ZM20.0385 54.0764C19.9425 53.9324 19.8089 53.8265 19.6512 53.7477L19.4544 54.1412C19.5595 54.1937 19.6277 54.2535 19.6724 54.3205L20.0385 54.0764ZM20.22 54.8C20.22 54.4363 20.1313 54.2156 20.0385 54.0764L19.6724 54.3205C19.712 54.3798 19.78 54.5136 19.78 54.8H20.22ZM20.22 60.791V54.8H19.78V60.791H20.22ZM20.2181 60.8303C20.2191 60.8162 20.2196 60.8058 20.2198 60.7996L19.7802 60.7824C19.7801 60.7841 19.7798 60.7898 19.7792 60.799L20.2181 60.8303ZM20.1994 60.9843C20.2104 60.9179 20.2157 60.8643 20.2181 60.8304L19.7792 60.799C19.7776 60.8213 19.7738 60.861 19.7654 60.9119L20.1994 60.9843ZM20.0523 61.4512C20.1326 61.2906 20.1766 61.1207 20.1994 60.9843L19.7654 60.9119C19.7474 61.0196 19.7138 61.1444 19.6588 61.2544L20.0523 61.4512ZM19.7236 61.8385C19.8676 61.7425 19.9735 61.6089 20.0523 61.4512L19.6588 61.2544C19.6063 61.3595 19.5465 61.4277 19.4795 61.4724L19.7236 61.8385ZM19 62.02C19.3637 62.02 19.5844 61.9313 19.7236 61.8385L19.4795 61.4724C19.4202 61.512 19.2864 61.58 19 61.58V62.02ZM7.00903 62.02H19V61.58H7.00903V62.02ZM6.96965 62.0181C6.98376 62.0191 6.9942 62.0196 7.00044 62.0198L7.01761 61.5802C7.01589 61.5801 7.01017 61.5798 7.00097 61.5792L6.96965 62.0181ZM6.81573 61.9994C6.8821 62.0104 6.93569 62.0156 6.96963 62.0181L7.00099 61.5792C6.97872 61.5776 6.93897 61.5738 6.88807 61.5653L6.81573 61.9994ZM6.34883 61.8523C6.50936 61.9326 6.67933 61.9766 6.81573 61.9994L6.88807 61.5653C6.78045 61.5474 6.65564 61.5138 6.5456 61.4588L6.34883 61.8523ZM5.9615 61.5236C6.05751 61.6676 6.19114 61.7735 6.34883 61.8523L6.5456 61.4588C6.44055 61.4063 6.37228 61.3465 6.3276 61.2795L5.9615 61.5236ZM5.78 60.8C5.78 61.1637 5.86871 61.3844 5.9615 61.5236L6.3276 61.2795C6.28805 61.2202 6.22 61.0864 6.22 60.8H5.78ZM5.78 54.809V60.8H6.22V54.809H5.78ZM5.78192 54.7696C5.78091 54.7838 5.78041 54.7942 5.78017 54.8004L6.21983 54.8176C6.2199 54.8159 6.22015 54.8101 6.22081 54.801L5.78192 54.7696ZM5.80064 54.6157C5.78958 54.6821 5.78435 54.7357 5.78192 54.7696L6.22081 54.801C6.2224 54.7787 6.22617 54.739 6.23465 54.6881L5.80064 54.6157ZM5.94765 54.1488C5.86739 54.3094 5.82337 54.4793 5.80064 54.6157L6.23465 54.6881C6.25259 54.5804 6.28618 54.4556 6.3412 54.3456L5.94765 54.1488ZM6.27642 53.7615C6.13241 53.8575 6.0265 53.9911 5.94765 54.1488L6.3412 54.3456C6.39373 54.2405 6.45347 54.1723 6.52048 54.1276L6.27642 53.7615ZM7 52.58C6.4615 52.58 6.043 52.7153 5.72172 52.9294C5.4018 53.1427 5.19128 53.4255 5.05323 53.7016C4.91561 53.9768 4.84789 54.2494 4.81424 54.4513C4.79733 54.5528 4.78879 54.6379 4.78447 54.6984C4.7823 54.7287 4.78119 54.753 4.78061 54.7702C4.78032 54.7788 4.78017 54.7857 4.78009 54.7907C4.78005 54.7932 4.78003 54.7953 4.78001 54.7968C4.78001 54.7976 4.78 54.7982 4.78 54.7988C4.78 54.799 4.78 54.7993 4.78 54.7995C4.78 54.7996 4.78 54.7997 4.78 54.7998C4.78 54.7999 4.78 54.8 5 54.8C5.22 54.8 5.22 54.8001 5.22 54.8002C5.22 54.8002 5.22 54.8003 5.22 54.8003C5.22 54.8004 5.22 54.8005 5.22 54.8005C5.22 54.8005 5.22 54.8005 5.22 54.8003C5.22 54.7999 5.22001 54.7991 5.22003 54.7978C5.22007 54.7952 5.22017 54.7909 5.22037 54.7849C5.22077 54.7728 5.22161 54.7541 5.22335 54.7297C5.22684 54.6809 5.23392 54.6097 5.24826 54.5237C5.27711 54.3506 5.33439 54.1231 5.44677 53.8984C5.55872 53.6745 5.7232 53.4573 5.96578 53.2956C6.207 53.1347 6.5385 53.02 7 53.02V52.58ZM19 52.58H7V53.02H19V52.58ZM21.22 54.8C21.22 54.2615 21.0847 53.843 20.8706 53.5217C20.6573 53.2018 20.3745 52.9913 20.0984 52.8532C19.8231 52.7156 19.5506 52.6479 19.3487 52.6142C19.2472 52.5973 19.1621 52.5888 19.1016 52.5845C19.0713 52.5823 19.047 52.5812 19.0298 52.5806C19.0212 52.5803 19.0143 52.5802 19.0093 52.5801C19.0068 52.58 19.0047 52.58 19.0032 52.58C19.0024 52.58 19.0018 52.58 19.0012 52.58C19.001 52.58 19.0007 52.58 19.0005 52.58C19.0004 52.58 19.0003 52.58 19.0002 52.58C19.0001 52.58 19 52.58 19 52.8C19 53.02 18.9999 53.02 18.9998 53.02C18.9998 53.02 18.9997 53.02 18.9997 53.02C18.9996 53.02 18.9995 53.02 18.9995 53.02C18.9994 53.02 18.9995 53.02 18.9997 53.02C19.0001 53.02 19.0009 53.02 19.0022 53.02C19.0048 53.0201 19.0091 53.0202 19.0151 53.0204C19.0272 53.0208 19.0459 53.0216 19.0703 53.0233C19.1191 53.0268 19.1903 53.0339 19.2763 53.0483C19.4494 53.0771 19.6769 53.1344 19.9016 53.2468C20.1255 53.3587 20.3427 53.5232 20.5044 53.7658C20.6653 54.007 20.78 54.3385 20.78 54.8H21.22ZM21.22 60.8V54.8H20.78V60.8H21.22ZM19 63.02C19.5385 63.02 19.957 62.8847 20.2783 62.6706C20.5982 62.4573 20.8087 62.1745 20.9468 61.8984C21.0844 61.6231 21.1521 61.3506 21.1858 61.1487C21.2027 61.0472 21.2112 60.9621 21.2155 60.9016C21.2177 60.8713 21.2188 60.847 21.2194 60.8298C21.2197 60.8212 21.2198 60.8143 21.2199 60.8093C21.22 60.8068 21.22 60.8047 21.22 60.8032C21.22 60.8024 21.22 60.8018 21.22 60.8012C21.22 60.801 21.22 60.8007 21.22 60.8005C21.22 60.8004 21.22 60.8003 21.22 60.8002C21.22 60.8001 21.22 60.8 21 60.8C20.78 60.8 20.78 60.7999 20.78 60.7998C20.78 60.7998 20.78 60.7997 20.78 60.7997C20.78 60.7996 20.78 60.7995 20.78 60.7995C20.78 60.7994 20.78 60.7995 20.78 60.7997C20.78 60.8001 20.78 60.8009 20.78 60.8022C20.7799 60.8048 20.7798 60.8091 20.7796 60.8151C20.7792 60.8272 20.7784 60.8459 20.7767 60.8703C20.7732 60.9191 20.7661 60.9903 20.7517 61.0763C20.7229 61.2494 20.6656 61.4768 20.5532 61.7016C20.4413 61.9255 20.2768 62.1427 20.0342 62.3044C19.793 62.4653 19.4615 62.58 19 62.58V63.02ZM15 63.02H19V62.58H15V63.02ZM15.4468 64.2016C15.3031 63.9143 15.22 63.4554 15.22 62.8H14.78C14.78 63.4779 14.8636 64.0191 15.0532 64.3984L15.4468 64.2016ZM16 64.08H15.25V64.52H16V64.08ZM16.72 64.8C16.72 64.4024 16.3976 64.08 16 64.08V64.52C16.1546 64.52 16.28 64.6454 16.28 64.8H16.72ZM10 64.08C9.60235 64.08 9.28 64.4024 9.28 64.8H9.72C9.72 64.6454 9.84536 64.52 10 64.52V64.08ZM10.75 64.08H10V64.52H10.75V64.08ZM10.78 62.8C10.78 63.4554 10.6969 63.9143 10.5532 64.2016L10.9468 64.3984C11.1364 64.0191 11.22 63.4779 11.22 62.8H10.78ZM7 63.02H11V62.58H7V63.02ZM4.78 60.8C4.78 61.3385 4.91526 61.757 5.12945 62.0783C5.34272 62.3982 5.62551 62.6087 5.90161 62.7468C6.17685 62.8844 6.44942 62.9521 6.65133 62.9858C6.75281 63.0027 6.83785 63.0112 6.89839 63.0155C6.92869 63.0177 6.95297 63.0188 6.97021 63.0194C6.97883 63.0197 6.98571 63.0198 6.99071 63.0199C6.99322 63.0199 6.99525 63.02 6.9968 63.02C6.99758 63.02 6.99824 63.02 6.99877 63.02C6.99904 63.02 6.99927 63.02 6.99948 63.02C6.99958 63.02 6.99971 63.02 6.99976 63.02C6.99988 63.02 7 63.02 7 62.8C7 62.58 7.0001 62.58 7.00019 62.58C7.00021 62.58 7.0003 62.58 7.00034 62.58C7.00042 62.58 7.00048 62.58 7.0005 62.58C7.00055 62.58 7.00048 62.58 7.0003 62.58C6.99993 62.58 6.99909 62.58 6.99781 62.58C6.99525 62.5799 6.99089 62.5798 6.98487 62.5796C6.97281 62.5792 6.95412 62.5784 6.92974 62.5767C6.8809 62.5732 6.80969 62.5661 6.72367 62.5517C6.55058 62.5229 6.32315 62.4656 6.09839 62.3532C5.87449 62.2413 5.65728 62.0768 5.49555 61.8342C5.33474 61.593 5.22 61.2615 5.22 60.8H4.78ZM4.78 54.8V60.8H5.22V54.8H4.78ZM9.5 65.02H16.5V64.58H9.5V65.02ZM48.5 54.02H59.5V53.58H48.5V54.02ZM48.22 54.3C48.22 54.1454 48.3454 54.02 48.5 54.02V53.58C48.1024 53.58 47.78 53.9024 47.78 54.3H48.22ZM48.22 61.8V54.3H47.78V61.8H48.22ZM60 61.58H48V62.02H60V61.58ZM59.78 54.3V61.8H60.22V54.3H59.78ZM59.5 54.02C59.6546 54.02 59.78 54.1454 59.78 54.3H60.22C60.22 53.9024 59.8976 53.58 59.5 53.58V54.02ZM47.22 54.3C47.22 53.5931 47.7931 53.02 48.5 53.02V52.58C47.5501 52.58 46.78 53.3501 46.78 54.3H47.22ZM59.5 53.02C60.2069 53.02 60.78 53.5931 60.78 54.3H61.22C61.22 53.3501 60.4499 52.58 59.5 52.58V53.02ZM48.5 53.02H59.5V52.58H48.5V53.02ZM47.22 62.8V54.3H46.78V62.8H47.22ZM61 62.58H47V63.02H61V62.58ZM60.78 54.3V62.8H61.22V54.3H60.78ZM46 63.52H62V63.08H46V63.52ZM61.78 63.3C61.78 64.0069 61.2069 64.58 60.5 64.58V65.02C61.4499 65.02 62.22 64.2499 62.22 63.3H61.78ZM60.5 64.58H47.5V65.02H60.5V64.58ZM47.5 64.58C46.7931 64.58 46.22 64.0069 46.22 63.3H45.78C45.78 64.2499 46.5501 65.02 47.5 65.02V64.58ZM10.78 20C10.78 22.0876 9.08764 23.78 7 23.78V24.22C9.33064 24.22 11.22 22.3306 11.22 20H10.78ZM7 16.22C9.08764 16.22 10.78 17.9124 10.78 20H11.22C11.22 17.6694 9.33064 15.78 7 15.78V16.22ZM3.22 20C3.22 17.9124 4.91236 16.22 7 16.22V15.78C4.66936 15.78 2.78 17.6694 2.78 20H3.22ZM7 23.78C4.91236 23.78 3.22 22.0876 3.22 20H2.78C2.78 22.3306 4.66936 24.22 7 24.22V23.78ZM5.47578 22.9051C4.88667 22.5954 4.40314 22.1115 4.09378 21.5222L3.70419 21.7267C4.055 22.395 4.60297 22.9433 5.271 23.2946L5.47578 22.9051ZM6.0333 21.9643L5.20438 22.959L5.5424 23.2407L6.37132 22.246L6.0333 21.9643ZM6.99827 22.03C6.74503 22.03 6.50311 21.9837 6.28015 21.8994L6.12447 22.3109C6.39641 22.4138 6.69103 22.47 6.99827 22.47V22.03ZM7.82517 21.8546C7.57288 21.9672 7.2932 22.03 6.99827 22.03V22.47C7.35623 22.47 7.69695 22.3937 8.0046 22.2563L7.82517 21.8546ZM7.04606 20.5867L7.71268 22.1421L8.1171 21.9688L7.45048 20.4133L7.04606 20.5867ZM6.54401 19.3317L7.04401 20.5817L7.45254 20.4183L6.95254 19.1683L6.54401 19.3317ZM8.57982 18.2804L6.66657 19.0457L6.82998 19.4543L8.74323 18.689L8.57982 18.2804ZM6.99827 17.97C7.59279 17.97 8.12737 18.2253 8.49894 18.6329L8.82411 18.3365C8.37268 17.8413 7.72167 17.53 6.99827 17.53V17.97ZM4.96827 20C4.96827 18.8789 5.87713 17.97 6.99827 17.97V17.53C5.63413 17.53 4.52827 18.6359 4.52827 20H4.96827ZM5.09888 20.7181C5.01454 20.4952 4.96827 20.2532 4.96827 20H4.52827C4.52827 20.3072 4.58447 20.6019 4.68735 20.8738L5.09888 20.7181ZM4.03983 21.7934L5.03396 20.965L4.75227 20.627L3.75815 21.4554L4.03983 21.7934ZM8.53346 21.9351C9.10265 21.483 9.46827 20.7841 9.46827 20H9.02827C9.02827 20.6442 8.72842 21.2183 8.25979 21.5905L8.53346 21.9351ZM7.54606 20.3367L8.19441 21.8495L8.59883 21.6761L7.95048 20.1633L7.54606 20.3367ZM9.15055 19.4892L7.67102 20.044L7.82552 20.456L9.30505 19.9012L9.15055 19.4892ZM9.46827 20C9.46827 19.8867 9.46063 19.7751 9.44581 19.6656L9.00979 19.7247C9.02197 19.8146 9.02827 19.9065 9.02827 20H9.46827ZM6.17277 20.0577C6.14814 20.0254 6.14671 19.9811 6.16923 19.9473L6.53533 20.1914C6.61708 20.0687 6.61191 19.9077 6.52244 19.7906L6.17277 20.0577ZM6.27831 20.0901C6.23981 20.103 6.19741 20.0899 6.17277 20.0577L6.52245 19.7906C6.43298 19.6735 6.279 19.6261 6.13917 19.6727L6.27831 20.0901ZM5.52831 20.3401L6.27831 20.0901L6.13917 19.6727L5.38917 19.9227L5.52831 20.3401ZM5.74651 20.299L5.66745 20.0618L5.25003 20.201L5.32909 20.4382L5.74651 20.299ZM5.87261 20.0251L5.46823 20.1599L5.60737 20.5773L6.01175 20.4425L5.87261 20.0251ZM5.82732 20.8027L6.12523 20.3558L5.75913 20.1118L5.46121 20.5586L5.82732 20.8027ZM5.82377 20.6923C5.8484 20.7246 5.84983 20.7689 5.82732 20.8027L5.46121 20.5586C5.37946 20.6813 5.38464 20.8423 5.4741 20.9594L5.82377 20.6923ZM5.71823 20.6599C5.75673 20.647 5.79913 20.6601 5.82377 20.6923L5.4741 20.9594C5.56356 21.0765 5.71755 21.1239 5.85737 21.0773L5.71823 20.6599ZM6.12261 20.5251L5.71823 20.6599L5.85737 21.0773L6.26175 20.9425L6.12261 20.5251ZM6.07732 21.3027L6.37523 20.8558L6.00913 20.6118L5.71121 21.0586L6.07732 21.3027ZM6.07377 21.1923C6.0984 21.2246 6.09983 21.2689 6.07732 21.3027L5.71121 21.0586C5.62946 21.1813 5.63464 21.3423 5.7241 21.4594L6.07377 21.1923ZM5.96823 21.1599C6.00673 21.147 6.04913 21.1601 6.07377 21.1923L5.7241 21.4594C5.81356 21.5765 5.96755 21.6239 6.10737 21.5773L5.96823 21.1599ZM6.71823 20.9099L5.96823 21.1599L6.10737 21.5773L6.85737 21.3273L6.71823 20.9099ZM6.50003 20.951L6.57909 21.1882L6.99651 21.049L6.91745 20.8118L6.50003 20.951ZM6.37393 21.2249L6.77831 21.0901L6.63917 20.6727L6.23479 20.8075L6.37393 21.2249ZM6.41923 20.4473L6.12131 20.8942L6.48742 21.1382L6.78533 20.6914L6.41923 20.4473ZM6.42277 20.5577C6.39814 20.5254 6.39671 20.4811 6.41923 20.4473L6.78533 20.6914C6.86708 20.5687 6.86191 20.4077 6.77244 20.2906L6.42277 20.5577ZM6.52831 20.5901C6.48981 20.603 6.44741 20.5899 6.42277 20.5577L6.77245 20.2906C6.68298 20.1735 6.529 20.1261 6.38917 20.1727L6.52831 20.5901ZM6.12393 20.7249L6.52831 20.5901L6.38917 20.1727L5.98479 20.3075L6.12393 20.7249ZM6.16923 19.9473L5.87131 20.3942L6.23742 20.6382L6.53533 20.1914L6.16923 19.9473ZM10.731 31.8601C10.731 33.998 8.99798 35.731 6.86014 35.731V36.171C9.24099 36.171 11.171 34.241 11.171 31.8601H10.731ZM6.86014 27.9892C8.99798 27.9892 10.731 29.7223 10.731 31.8601H11.171C11.171 29.4793 9.24099 27.5492 6.86014 27.5492V27.9892ZM2.98923 31.8601C2.98923 29.7223 4.7223 27.9892 6.86014 27.9892V27.5492C4.47929 27.5492 2.54923 29.4793 2.54923 31.8601H2.98923ZM6.86014 35.731C4.7223 35.731 2.98923 33.998 2.98923 31.8601H2.54923C2.54923 34.241 4.47929 36.171 6.86014 36.171V35.731ZM7.74763 29.0122C7.74864 29.0125 7.74845 29.0126 7.74839 29.0125C7.74838 29.0124 7.74835 29.0124 7.74831 29.0123C7.74826 29.0121 7.74821 29.0119 7.74818 29.0116C7.7481 29.0108 7.74824 29.0102 7.74823 29.0103L8.16837 29.141C8.24118 28.9069 8.1076 28.6618 7.87572 28.5912L7.74763 29.0122ZM7.74478 29.0121C7.74479 29.012 7.74464 29.0124 7.74441 29.0127C7.74428 29.0128 7.74439 29.0126 7.74487 29.0124C7.74582 29.0119 7.74653 29.0118 7.74762 29.0122L7.87572 28.5912C7.64482 28.521 7.39713 28.6484 7.32465 28.8814L7.74478 29.0121ZM5.97205 34.71L7.74478 29.0121L7.32465 28.8814L5.55192 34.5793L5.97205 34.71ZM5.97266 34.7081C5.97165 34.7078 5.97183 34.7077 5.9719 34.7078C5.9719 34.7078 5.97194 34.7079 5.97198 34.708C5.97202 34.7082 5.97207 34.7084 5.9721 34.7087C5.97218 34.7095 5.97205 34.71 5.97205 34.71L5.55192 34.5793C5.4791 34.8133 5.61268 35.0585 5.84456 35.129L5.97266 34.7081ZM5.9755 34.7082C5.97549 34.7082 5.97564 34.7079 5.97588 34.7076C5.97601 34.7075 5.97589 34.7076 5.97541 34.7079C5.97446 34.7084 5.97376 34.7084 5.97266 34.7081L5.84456 35.129C6.07546 35.1993 6.32315 35.0719 6.39564 34.8389L5.9755 34.7082ZM7.74823 29.0103L5.9755 34.7082L6.39564 34.8389L8.16837 29.141L7.74823 29.0103ZM5.62039 30.6375C5.79399 30.4658 5.79399 30.1864 5.62039 30.0147L5.31099 30.3275C5.31105 30.3276 5.31059 30.3267 5.31059 30.3261C5.31059 30.3254 5.31105 30.3246 5.31099 30.3246L5.62039 30.6375ZM4.22594 32.0166L5.62039 30.6375L5.31099 30.3246L3.91654 31.7037L4.22594 32.0166ZM5.62039 33.0828L4.22594 31.7037L3.91654 32.0166L5.31099 33.3957L5.62039 33.0828ZM5.62039 33.7056C5.79399 33.5339 5.79399 33.2545 5.62039 33.0828L5.31099 33.3957C5.31105 33.3957 5.31059 33.3949 5.31059 33.3942C5.31059 33.3935 5.31105 33.3927 5.31099 33.3927L5.62039 33.7056ZM4.99761 33.7056C5.16986 33.8759 5.44814 33.8759 5.62039 33.7056L5.31099 33.3927C5.31081 33.3929 5.31051 33.3934 5.309 33.3934C5.30749 33.3934 5.30719 33.3929 5.30701 33.3927L4.99761 33.7056ZM3.44648 32.1715L4.99761 33.7056L5.30701 33.3927L3.75588 31.8587L3.44648 32.1715ZM3.44648 31.5488C3.27287 31.7204 3.27287 31.9998 3.44648 32.1715L3.75588 31.8587C3.75582 31.8586 3.75627 31.8595 3.75627 31.8601C3.75627 31.8608 3.75582 31.8617 3.75588 31.8616L3.44648 31.5488ZM4.99761 30.0147L3.44648 31.5488L3.75588 31.8616L5.30701 30.3275L4.99761 30.0147ZM5.62039 30.0147C5.44814 29.8443 5.16986 29.8443 4.99761 30.0147L5.30701 30.3275C5.30719 30.3274 5.30749 30.3269 5.309 30.3269C5.31051 30.3269 5.31081 30.3274 5.31099 30.3275L5.62039 30.0147ZM8.09988 30.0147C7.92628 30.1864 7.92628 30.4658 8.09988 30.6375L8.40928 30.3246C8.40922 30.3246 8.40968 30.3254 8.40968 30.3261C8.40968 30.3267 8.40922 30.3276 8.40928 30.3275L8.09988 30.0147ZM8.72266 30.0147C8.55041 29.8443 8.27214 29.8443 8.09988 30.0147L8.40928 30.3275C8.40947 30.3274 8.40976 30.3269 8.41127 30.3269C8.41279 30.3269 8.41308 30.3274 8.41326 30.3275L8.72266 30.0147ZM10.2738 31.5488L8.72266 30.0147L8.41326 30.3275L9.9644 31.8616L10.2738 31.5488ZM10.2738 32.1715C10.4474 31.9998 10.4474 31.7204 10.2738 31.5488L9.9644 31.8616C9.96446 31.8617 9.964 31.8608 9.964 31.8601C9.964 31.8595 9.96446 31.8586 9.9644 31.8587L10.2738 32.1715ZM8.72266 33.7056L10.2738 32.1715L9.9644 31.8587L8.41326 33.3927L8.72266 33.7056ZM8.09989 33.7056C8.27214 33.8759 8.55041 33.8759 8.72266 33.7056L8.41326 33.3927C8.41308 33.3929 8.41279 33.3934 8.41127 33.3934C8.40976 33.3934 8.40947 33.3929 8.40928 33.3927L8.09989 33.7056ZM8.09988 33.0828C7.92628 33.2545 7.92628 33.5339 8.09988 33.7056L8.40929 33.3927C8.40923 33.3927 8.40968 33.3935 8.40968 33.3942C8.40968 33.3949 8.40923 33.3957 8.40929 33.3957L8.09988 33.0828ZM9.49433 31.7037L8.09988 33.0828L8.40928 33.3957L9.80373 32.0166L9.49433 31.7037ZM8.09988 30.6375L9.49433 32.0166L9.80373 31.7037L8.40929 30.3246L8.09988 30.6375ZM10.78 44C10.78 46.0876 9.08764 47.78 7 47.78V48.22C9.33064 48.22 11.22 46.3306 11.22 44H10.78ZM7 40.22C9.08764 40.22 10.78 41.9124 10.78 44H11.22C11.22 41.6694 9.33064 39.78 7 39.78V40.22ZM3.22 44C3.22 41.9124 4.91236 40.22 7 40.22V39.78C4.66936 39.78 2.78 41.6694 2.78 44H3.22ZM7 47.78C4.91236 47.78 3.22 46.0876 3.22 44H2.78C2.78 46.3306 4.66936 48.22 7 48.22V47.78ZM8.2175 42.375V43.115H8.6575V42.375H8.2175ZM7.0625 41.22C7.70039 41.22 8.2175 41.7371 8.2175 42.375H8.6575C8.6575 41.4941 7.94339 40.78 7.0625 40.78V41.22ZM5.9075 42.375C5.9075 41.7371 6.42461 41.22 7.0625 41.22V40.78C6.18161 40.78 5.4675 41.4941 5.4675 42.375H5.9075ZM5.9075 43.115V42.375H5.4675V43.115H5.9075ZM5.22 43.9562C5.22 43.6518 5.44162 43.4209 5.75229 43.3252L5.62271 42.9047C5.19193 43.0375 4.78 43.3988 4.78 43.9562H5.22ZM5.22 45.6062V43.9562H4.78V45.6062H5.22ZM6.03125 46.28C5.8302 46.28 5.62083 46.2114 5.46588 46.0903C5.31469 45.9721 5.22 45.8091 5.22 45.6062H4.78C4.78 45.9646 4.95393 46.2485 5.19487 46.4369C5.43204 46.6223 5.7383 46.72 6.03125 46.72V46.28ZM8.09375 46.28H6.03125V46.72H8.09375V46.28ZM8.905 45.6062C8.905 45.8091 8.81031 45.9721 8.65912 46.0903C8.50417 46.2114 8.2948 46.28 8.09375 46.28V46.72C8.3867 46.72 8.69296 46.6223 8.93013 46.4369C9.17107 46.2485 9.345 45.9646 9.345 45.6062H8.905ZM8.905 43.9562V45.6062H9.345V43.9562H8.905ZM8.37271 43.3252C8.68338 43.4209 8.905 43.6518 8.905 43.9562H9.345C9.345 43.3988 8.93307 43.0375 8.50229 42.9047L8.37271 43.3252ZM7.0625 41.4675C6.5613 41.4675 6.155 41.8738 6.155 42.375H6.595C6.595 42.1168 6.80431 41.9075 7.0625 41.9075V41.4675ZM7.97 42.375C7.97 41.8738 7.5637 41.4675 7.0625 41.4675V41.9075C7.32069 41.9075 7.53 42.1168 7.53 42.375H7.97ZM7.97 43.0625V42.375H7.53V43.0625H7.97ZM6.375 43.2825H7.75V42.8425H6.375V43.2825ZM6.155 42.375V43.0625H6.595V42.375H6.155ZM62.78 44C62.78 46.0876 61.0876 47.78 59 47.78V48.22C61.3306 48.22 63.22 46.3306 63.22 44H62.78ZM59 40.22C61.0876 40.22 62.78 41.9124 62.78 44H63.22C63.22 41.6694 61.3306 39.78 59 39.78V40.22ZM55.22 44C55.22 41.9124 56.9124 40.22 59 40.22V39.78C56.6694 39.78 54.78 41.6694 54.78 44H55.22ZM59 47.78C56.9124 47.78 55.22 46.0876 55.22 44H54.78C54.78 46.3306 56.6694 48.22 59 48.22V47.78ZM58.0245 41.6205L58.8379 43.2748L59.2328 43.0807L58.4193 41.4264L58.0245 41.6205ZM56.8513 41.7434H58.2219V41.3034H56.8513V41.7434ZM58.434 43.8832L57.0429 41.4154L56.6596 41.6315L58.0507 44.0992L58.434 43.8832ZM57.0048 46.6089L58.4336 44.1001L58.0512 43.8823L56.6225 46.3911L57.0048 46.6089ZM58.1979 46.28H56.8137V46.72H58.1979V46.28ZM58.8383 44.717L58.0009 46.4021L58.395 46.5979L59.2324 44.9128L58.8383 44.717ZM60.0698 46.4021L59.2324 44.717L58.8383 44.9128L59.6757 46.5979L60.0698 46.4021ZM61.2536 46.28H59.8728V46.72H61.2536V46.28ZM59.637 44.0999L61.0623 46.6087L61.4449 46.3913L60.0196 43.8825L59.637 44.0999ZM61.0243 41.4156L59.6366 43.8834L60.0201 44.099L61.4078 41.6313L61.0243 41.4156ZM59.8488 41.7434H61.216V41.3034H59.8488V41.7434ZM59.2328 43.2748L60.0462 41.6205L59.6514 41.4264L58.8379 43.0807L59.2328 43.2748ZM62.78 32C62.78 34.0876 61.0876 35.78 59 35.78V36.22C61.3306 36.22 63.22 34.3306 63.22 32H62.78ZM59 28.22C61.0876 28.22 62.78 29.9124 62.78 32H63.22C63.22 29.6694 61.3306 27.78 59 27.78V28.22ZM55.22 32C55.22 29.9124 56.9124 28.22 59 28.22V27.78C56.6694 27.78 54.78 29.6694 54.78 32H55.22ZM59 35.78C56.9124 35.78 55.22 34.0876 55.22 32H54.78C54.78 34.3306 56.6694 36.22 59 36.22V35.78ZM58.3668 32.8995V34.6219H58.8068V32.8995H58.3668ZM58.5868 34.4019H57.435V34.8419H58.5868V34.4019ZM57.655 34.6219V29.5018H57.215V34.6219H57.655ZM57.435 29.7218H58.5082V29.2818H57.435V29.7218ZM58.2895 29.5259L58.3272 29.8664L58.7645 29.8181L58.7269 29.4776L58.2895 29.5259ZM58.717 29.9805C58.789 29.8914 58.8703 29.82 58.961 29.7649L58.7322 29.389C58.5963 29.4717 58.4771 29.5773 58.3747 29.704L58.717 29.9805ZM58.9598 29.7656C59.0791 29.694 59.2287 29.6534 59.4174 29.6534V29.2134C59.164 29.2134 58.933 29.2685 58.7334 29.3883L58.9598 29.7656ZM59.4174 29.6534C59.6241 29.6534 59.7955 29.6924 59.9376 29.7635L60.1344 29.3699C59.9211 29.2632 59.6801 29.2134 59.4174 29.2134V29.6534ZM59.9386 29.764C60.0859 29.8366 60.2089 29.9406 60.3092 30.0788L60.6652 29.8203C60.524 29.6258 60.3462 29.4745 60.1334 29.3694L59.9386 29.764ZM60.3112 30.0815C60.4149 30.2197 60.4961 30.3903 60.5515 30.5976L60.9766 30.484C60.909 30.231 60.8056 30.0074 60.6632 29.8175L60.3112 30.0815ZM60.5515 30.5976C60.6073 30.8063 60.6363 31.0421 60.6363 31.3064H61.0763C61.0763 31.0103 61.0439 30.7356 60.9766 30.484L60.5515 30.5976ZM60.6363 31.3064V31.3782H61.0763V31.3064H60.6363ZM60.6363 31.3782C60.6363 31.6303 60.6075 31.8605 60.5515 32.0699L60.9766 32.1836C61.0437 31.9327 61.0763 31.6639 61.0763 31.3782H60.6363ZM60.5515 32.0699C60.4958 32.2784 60.4148 32.4544 60.311 32.6013L60.6703 32.8553C60.808 32.6604 60.9093 32.4354 60.9766 32.1836L60.5515 32.0699ZM60.311 32.6013C60.2095 32.7449 60.085 32.8548 59.9362 32.934L60.1427 33.3225C60.3539 33.2102 60.5302 33.0535 60.6703 32.8553L60.311 32.6013ZM59.9371 32.9335C59.7959 33.0077 59.6259 33.0484 59.4208 33.0484V33.4884C59.6851 33.4884 59.9276 33.4356 60.1418 33.323L59.9371 32.9335ZM59.4208 33.0484C59.233 33.0484 59.0842 33.007 58.9652 32.9339L58.7348 33.3088C58.9348 33.4317 59.1666 33.4884 59.4208 33.4884V33.0484ZM58.9652 32.9339C58.8866 32.8857 58.8155 32.8259 58.7515 32.7537L58.4221 33.0453C58.514 33.1491 58.6183 33.2373 58.7348 33.3088L58.9652 32.9339ZM58.3891 32.1687C58.4426 32.2783 58.5176 32.3718 58.6141 32.4453L58.8808 32.0953C58.8415 32.0654 58.8094 32.0268 58.7845 31.9757L58.3891 32.1687ZM58.6141 32.4453C58.7599 32.5564 58.9422 32.5997 59.1371 32.5997V32.1597C59.0039 32.1597 58.9264 32.1301 58.8808 32.0953L58.6141 32.4453ZM59.1371 32.5997C59.2804 32.5997 59.4177 32.5665 59.5352 32.4858L59.2859 32.1232C59.2575 32.1427 59.2126 32.1597 59.1371 32.1597V32.5997ZM59.5389 32.4831C59.6456 32.4065 59.7263 32.304 59.7836 32.1835L59.3861 31.9948C59.3568 32.0566 59.3213 32.0977 59.2821 32.1258L59.5389 32.4831ZM59.7845 32.1817C59.838 32.0662 59.8739 31.9384 59.8947 31.8007L59.4596 31.735C59.4439 31.8389 59.4183 31.9253 59.3853 31.9967L59.7845 32.1817ZM59.8947 31.8007C59.9148 31.6677 59.9245 31.5267 59.9245 31.3782H59.4845C59.4845 31.5077 59.476 31.6265 59.4596 31.735L59.8947 31.8007ZM59.9245 31.3782V31.3064H59.4845V31.3782H59.9245ZM59.9245 31.3064C59.9245 31.1526 59.9135 31.0088 59.8905 30.8759L59.457 30.9509C59.475 31.0549 59.4845 31.1731 59.4845 31.3064H59.9245ZM59.8906 30.8765C59.8672 30.7384 59.8282 30.6113 59.7704 30.4985L59.3788 30.6993C59.4122 30.7643 59.4393 30.8468 59.4568 30.9502L59.8906 30.8765ZM59.7724 30.5026C59.7141 30.383 59.6313 30.2823 59.521 30.2099L59.2796 30.5778C59.3152 30.6011 59.3485 30.6372 59.3768 30.6953L59.7724 30.5026ZM59.521 30.2099C59.4048 30.1337 59.2704 30.1021 59.1303 30.1021V30.5421C59.2043 30.5421 59.25 30.5583 59.2796 30.5778L59.521 30.2099ZM59.1303 30.1021C58.9854 30.1021 58.8483 30.1247 58.7274 30.1803L58.9111 30.5801C58.9588 30.5582 59.0291 30.5421 59.1303 30.5421V30.1021ZM58.7299 30.1791C58.6077 30.2334 58.5089 30.3193 58.4363 30.4316L58.8057 30.6706C58.8333 30.6279 58.8667 30.5998 58.9086 30.5812L58.7299 30.1791ZM58.4354 30.433C58.4181 30.4601 58.4025 30.4884 58.3884 30.5178L58.7852 30.708C58.7921 30.6936 58.7993 30.6807 58.8066 30.6692L58.4354 30.433ZM58.3668 30.6129V32.0722H58.8068V30.6129H58.3668ZM62.78 20C62.78 22.0876 61.0876 23.78 59 23.78V24.22C61.3306 24.22 63.22 22.3306 63.22 20H62.78ZM59 16.22C61.0876 16.22 62.78 17.9124 62.78 20H63.22C63.22 17.6694 61.3306 15.78 59 15.78V16.22ZM55.22 20C55.22 17.9124 56.9124 16.22 59 16.22V15.78C56.6694 15.78 54.78 17.6694 54.78 20H55.22ZM59 23.78C56.9124 23.78 55.22 22.0876 55.22 20H54.78C54.78 22.3306 56.6694 24.22 59 24.22V23.78ZM57.227 20.0297V19.9477H56.787V20.0297H57.227ZM57.3483 20.815C57.2682 20.5768 57.227 20.3156 57.227 20.0297H56.787C56.787 20.3583 56.8344 20.6674 56.9313 20.9553L57.3483 20.815ZM57.6956 21.4234C57.544 21.2511 57.4279 21.0489 57.3481 20.8143L56.9316 20.956C57.0289 21.2422 57.1732 21.4958 57.3653 21.7141L57.6956 21.4234ZM58.256 21.815C58.0289 21.72 57.8431 21.5888 57.6947 21.4223L57.3663 21.7152C57.5616 21.9341 57.8029 22.1024 58.0862 22.2209L58.256 21.815ZM59.05 21.9581C58.7428 21.9581 58.4796 21.9086 58.256 21.815L58.0862 22.2209C58.373 22.3409 58.6957 22.3981 59.05 22.3981V21.9581ZM59.8393 21.8153C59.6188 21.9085 59.3572 21.9581 59.05 21.9581V22.3981C59.4042 22.3981 59.726 22.3409 60.0107 22.2206L59.8393 21.8153ZM60.3975 21.4223C60.2487 21.5892 60.0638 21.7204 59.8393 21.8153L60.0107 22.2206C60.2914 22.1019 60.531 21.9337 60.7259 21.7152L60.3975 21.4223ZM60.7441 20.8143C60.6643 21.0489 60.5482 21.2511 60.3966 21.4234L60.7269 21.7141C60.919 21.4958 61.0633 21.2422 61.1606 20.956L60.7441 20.8143ZM60.8652 20.0297C60.8652 20.3156 60.824 20.5768 60.7438 20.815L61.1608 20.9553C61.2578 20.6674 61.3052 20.3583 61.3052 20.0297H60.8652ZM60.8652 19.9477V20.0297H61.3052V19.9477H60.8652ZM60.7441 19.163C60.8239 19.3979 60.8652 19.6588 60.8652 19.9477H61.3052C61.3052 19.6167 61.2578 19.3073 61.1606 19.0214L60.7441 19.163ZM60.3975 18.555C60.5482 18.724 60.6641 18.9254 60.7438 19.1624L61.1608 19.022C61.0635 18.733 60.919 18.4786 60.7259 18.2622L60.3975 18.555ZM59.8362 18.1623C60.0633 18.2573 60.2491 18.3886 60.3975 18.555L60.7259 18.2622C60.5306 18.0432 60.2893 17.8749 60.006 17.7564L59.8362 18.1623ZM59.0422 18.0153C59.3517 18.0153 59.6138 18.0661 59.8337 18.1613L60.0085 17.7575C59.7231 17.6339 59.3994 17.5753 59.0422 17.5753V18.0153ZM58.2546 18.1613C58.4746 18.066 58.7356 18.0153 59.0422 18.0153V17.5753C58.6873 17.5753 58.3649 17.634 58.0798 17.7575L58.2546 18.1613ZM57.6947 18.555C57.8435 18.3881 58.0283 18.2569 58.2528 18.162L58.0815 17.7567C57.8008 17.8754 57.5612 18.0436 57.3663 18.2622L57.6947 18.555ZM57.3483 19.1624C57.4281 18.9254 57.544 18.724 57.6947 18.555L57.3663 18.2622C57.1732 18.4786 57.0286 18.733 56.9313 19.022L57.3483 19.1624ZM57.227 19.9477C57.227 19.6588 57.2683 19.3979 57.3481 19.163L56.9316 19.0214C56.8343 19.3073 56.787 19.6167 56.787 19.9477H57.227ZM58.1034 19.9477V20.0297H58.5434V19.9477H58.1034ZM58.1418 19.4765C58.116 19.6257 58.1034 19.7829 58.1034 19.9477H58.5434C58.5434 19.8051 58.5543 19.6732 58.5754 19.5516L58.1418 19.4765ZM58.281 19.0485C58.2137 19.1767 58.1683 19.3206 58.1417 19.4772L58.5755 19.5509C58.5958 19.4315 58.6285 19.3332 58.6706 19.253L58.281 19.0485ZM58.5737 18.7169C58.4477 18.7998 58.3502 18.9133 58.28 19.0505L58.6716 19.2511C58.7107 19.1747 58.7591 19.1216 58.8154 19.0846L58.5737 18.7169ZM59.0422 18.5909C58.8723 18.5909 58.7129 18.628 58.5761 18.7154L58.813 19.0862C58.8637 19.0538 58.936 19.0309 59.0422 19.0309V18.5909ZM59.5122 18.7154C59.3748 18.6276 59.2138 18.5909 59.0422 18.5909V19.0309C59.1519 19.0309 59.2252 19.0541 59.2753 19.0862L59.5122 18.7154ZM59.8122 19.0505C59.7412 18.9118 59.6414 18.7979 59.5122 18.7154L59.2753 19.0862C59.3336 19.1234 59.3823 19.1762 59.4206 19.2511L59.8122 19.0505ZM59.9505 19.4772C59.9239 19.3206 59.8785 19.1767 59.8112 19.0485L59.4216 19.253C59.4637 19.3332 59.4964 19.4315 59.5167 19.5509L59.9505 19.4772ZM59.9887 19.9477C59.9887 19.7829 59.9762 19.6257 59.9504 19.4765L59.5168 19.5516C59.5379 19.6732 59.5487 19.8051 59.5487 19.9477H59.9887ZM59.9887 20.0297V19.9477H59.5487V20.0297H59.9887ZM59.9505 20.5118C59.9762 20.3601 59.9887 20.1993 59.9887 20.0297H59.5487C59.5487 20.1778 59.5378 20.3138 59.5167 20.4382L59.9505 20.5118ZM59.8112 20.9405C59.8785 20.8124 59.9239 20.6685 59.9505 20.5118L59.5167 20.4382C59.4964 20.5576 59.4637 20.6558 59.4216 20.736L59.8112 20.9405ZM59.5085 21.2643C59.6372 21.1856 59.7379 21.0767 59.8101 20.9426L59.4227 20.734C59.3855 20.803 59.3378 20.8529 59.279 20.8888L59.5085 21.2643ZM59.05 21.3825C59.2179 21.3825 59.376 21.3476 59.5108 21.2628L59.2767 20.8903C59.2292 20.9201 59.1581 20.9425 59.05 20.9425V21.3825ZM58.5837 21.2643C58.7204 21.3478 58.8801 21.3825 59.05 21.3825V20.9425C58.9387 20.9425 58.8639 20.9199 58.8132 20.8888L58.5837 21.2643ZM58.2821 20.9426C58.3543 21.0767 58.455 21.1856 58.5837 21.2643L58.8132 20.8888C58.7543 20.8529 58.7067 20.803 58.6695 20.734L58.2821 20.9426ZM58.1417 20.5118C58.1683 20.6685 58.2137 20.8124 58.281 20.9405L58.6706 20.736C58.6285 20.6558 58.5958 20.5576 58.5755 20.4382L58.1417 20.5118ZM58.1034 20.0297C58.1034 20.1993 58.1159 20.3601 58.1417 20.5118L58.5755 20.4382C58.5544 20.3138 58.5434 20.1778 58.5434 20.0297H58.1034ZM24.3382 36.6362V20.5391H23.8982V36.6362H24.3382ZM24.1182 20.7591H29.7578V20.3191H24.1182V20.7591ZM29.5378 20.5391V36.6362H29.9778V20.5391H29.5378ZM29.5378 36.6362C29.5378 38.1699 29.1863 39.4869 28.4918 40.5961L28.8647 40.8296C29.6096 39.64 29.9778 38.2393 29.9778 36.6362H29.5378ZM28.491 40.5974C27.8034 41.7121 26.8667 42.5764 25.6767 43.1923L25.879 43.5831C27.1382 42.9314 28.1351 42.0125 28.8655 40.8284L28.491 40.5974ZM25.6774 43.192C24.4979 43.7974 23.1687 44.1023 21.6851 44.1023V44.5423C23.2307 44.5423 24.63 44.2241 25.8783 43.5834L25.6774 43.192ZM21.6851 44.1023C20.1414 44.1023 18.7752 43.8433 17.5825 43.3306L17.4087 43.7348C18.6652 44.2749 20.092 44.5423 21.6851 44.5423V44.1023ZM17.5831 43.3309C16.4088 42.8216 15.4872 42.0393 14.813 40.9814L14.4419 41.2178C15.1642 42.3513 16.1547 43.1911 17.4081 43.7346L17.5831 43.3309ZM14.8138 40.9827C14.1542 39.9314 13.8162 38.5787 13.8162 36.9102H13.3762C13.3762 38.6361 13.7257 40.0764 14.4411 41.2165L14.8138 40.9827ZM13.5962 37.1302H19.2681V36.6902H13.5962V37.1302ZM19.0481 36.9102C19.0481 37.7177 19.1402 38.373 19.3381 38.8618L19.7459 38.6968C19.5785 38.2832 19.4881 37.6924 19.4881 36.9102H19.0481ZM19.3388 38.8636C19.5372 39.3422 19.8375 39.6985 20.2469 39.9094L20.4484 39.5183C20.1488 39.364 19.912 39.0972 19.7452 38.695L19.3388 38.8636ZM20.254 39.9129C20.656 40.1021 21.1358 40.1917 21.6851 40.1917V39.7517C21.1816 39.7517 20.7698 39.6694 20.4413 39.5148L20.254 39.9129ZM21.6851 40.1917C22.2387 40.1917 22.7212 40.0526 23.1196 39.7629L22.8608 39.407C22.5503 39.6329 22.1626 39.7517 21.6851 39.7517V40.1917ZM23.1206 39.7622C23.5247 39.465 23.8271 39.0473 24.033 38.5211L23.6233 38.3607C23.4424 38.8228 23.1862 39.1678 22.8599 39.4077L23.1206 39.7622ZM24.0336 38.5196C24.2389 37.9835 24.3382 37.3539 24.3382 36.6362H23.8982C23.8982 37.315 23.8041 37.8886 23.6227 38.3622L24.0336 38.5196ZM45.656 37.7642C45.656 37.3775 45.5992 37.0233 45.4812 36.7048L45.0686 36.8577C45.1655 37.1193 45.216 37.4204 45.216 37.7642H45.656ZM45.4821 36.7073C45.3598 36.3649 45.1366 36.056 44.8249 35.7789L44.5326 36.1078C44.8009 36.3463 44.9751 36.596 45.0677 36.8552L45.4821 36.7073ZM44.8249 35.7789C44.5129 35.5016 44.0731 35.2332 43.5156 34.9709L43.3282 35.369C43.8664 35.6222 44.2645 35.8695 44.5326 36.1078L44.8249 35.7789ZM43.5203 34.9731C42.9699 34.698 42.2499 34.4149 41.3637 34.1231L41.2261 34.541C42.1017 34.8293 42.7996 35.1047 43.3235 35.3667L43.5203 34.9731ZM41.3645 34.1233C40.34 33.7818 39.3532 33.3978 38.4042 32.9712L38.2238 33.3725C39.1868 33.8054 40.1874 34.1947 41.2254 34.5407L41.3645 34.1233ZM38.406 32.9721C37.4634 32.5378 36.6239 32.0359 35.8863 31.4669L35.6176 31.8153C36.384 32.4065 37.2524 32.9251 38.2219 33.3717L38.406 32.9721ZM35.8879 31.4681C35.1572 30.894 34.5806 30.2283 34.1552 29.4709L33.7716 29.6863C34.227 30.4973 34.8428 31.2066 35.616 31.8141L35.8879 31.4681ZM34.1558 29.472C33.7361 28.7145 33.5227 27.8285 33.5227 26.8071H33.0827C33.0827 27.8912 33.3098 28.8528 33.7709 29.6852L34.1558 29.472ZM33.5227 26.8071C33.5227 25.8314 33.7404 24.9613 34.1714 24.1915L33.7875 23.9765C33.3163 24.818 33.0827 25.7633 33.0827 26.8071H33.5227ZM34.172 24.1904C34.6062 23.4047 35.2116 22.7363 35.9917 22.185L35.7378 21.8257C34.9066 22.4131 34.2551 23.1304 33.7869 23.9776L34.172 24.1904ZM35.9922 22.1847C36.785 21.6214 37.7169 21.1911 38.7911 20.8962L38.6747 20.4719C37.5575 20.7786 36.5773 21.2292 35.7373 21.826L35.9922 22.1847ZM38.7931 20.8957C39.8667 20.5905 41.0439 20.4368 42.3262 20.4368V19.9968C41.0088 19.9968 39.7905 20.1547 38.6727 20.4725L38.7931 20.8957ZM42.3262 20.4368C44.0192 20.4368 45.5016 20.733 46.7783 21.3191L46.9619 20.9192C45.6176 20.3021 44.0706 19.9968 42.3262 19.9968V20.4368ZM46.7803 21.32C48.0678 21.8957 49.0656 22.7136 49.7816 23.7722L50.1461 23.5257C49.3798 22.3928 48.315 21.5242 46.9599 20.9183L46.7803 21.32ZM49.783 23.7742C50.5064 24.8179 50.8718 26.0566 50.8718 27.5H51.3118C51.3118 25.9785 50.9252 24.6498 50.1447 23.5236L49.783 23.7742ZM51.0918 27.28H45.4683V27.72H51.0918V27.28ZM45.6883 27.5C45.6883 26.8778 45.5579 26.3194 45.2906 25.8313L44.9047 26.0427C45.1315 26.4569 45.2483 26.9406 45.2483 27.5H45.6883ZM45.2925 25.8349C45.0341 25.3416 44.6409 24.9564 44.1216 24.6794L43.9145 25.0676C44.362 25.3063 44.6885 25.6301 44.9028 26.0391L45.2925 25.8349ZM44.1216 24.6794C43.5975 24.3999 42.9523 24.2668 42.1973 24.2668V24.7068C42.9032 24.7068 43.4718 24.8315 43.9145 25.0676L44.1216 24.6794ZM42.1973 24.2668C41.4674 24.2668 40.8387 24.3772 40.3193 24.608L40.498 25.0101C40.9455 24.8113 41.5091 24.7068 42.1973 24.7068V24.2668ZM40.3193 24.608C39.8059 24.8362 39.4051 25.1503 39.1308 25.5559L39.4952 25.8025C39.715 25.4776 40.0447 25.2116 40.498 25.0101L40.3193 24.608ZM39.1325 25.5534C38.8599 25.9446 38.7224 26.3805 38.7224 26.8555H39.1624C39.1624 26.471 39.272 26.1228 39.4935 25.805L39.1325 25.5534ZM38.7224 26.8555C38.7224 27.2526 38.8315 27.6175 39.0494 27.9443L39.4155 27.7002C39.2466 27.447 39.1624 27.1673 39.1624 26.8555H38.7224ZM39.0548 27.9521C39.2773 28.2566 39.5824 28.5365 39.9632 28.794L40.2097 28.4296C39.86 28.193 39.5957 27.9465 39.41 27.6925L39.0548 27.9521ZM39.9656 28.7957C40.3549 29.0515 40.8181 29.2936 41.3533 29.523L41.5266 29.1186C41.0091 28.8968 40.5699 28.6663 40.2072 28.428L39.9656 28.7957ZM41.3548 29.5236C41.8987 29.7521 42.5062 29.9744 43.1771 30.1908L43.3122 29.7721C42.651 29.5588 42.0554 29.3407 41.5251 29.118L41.3548 29.5236ZM43.1778 30.191C44.4147 30.5856 45.5096 31.027 46.4638 31.5147L46.6641 31.1229C45.6847 30.6224 44.5668 30.1722 43.3115 29.7718L43.1778 30.191ZM46.4664 31.516C47.4284 31.9917 48.2314 32.5334 48.879 33.1392L49.1796 32.8179C48.4951 32.1776 47.6547 31.6128 46.6615 31.1216L46.4664 31.516ZM48.8817 33.1416C49.537 33.7345 50.0281 34.4077 50.3586 35.1616L50.7615 34.9849C50.4045 34.1704 49.8752 33.4471 49.1769 32.8154L48.8817 33.1416ZM50.3596 35.1639C50.6994 35.9156 50.8718 36.7703 50.8718 37.7319H51.3118C51.3118 36.717 51.1297 35.7992 50.7605 34.9826L50.3596 35.1639ZM50.8718 37.7319C50.8718 38.7558 50.6735 39.6558 50.2827 40.4373L50.6763 40.634C51.1019 39.7827 51.3118 38.8136 51.3118 37.7319H50.8718ZM50.2827 40.4373C49.8905 41.2216 49.3279 41.8882 48.5915 42.438L48.8547 42.7906C49.6437 42.2016 50.2521 41.4825 50.6763 40.634L50.2827 40.4373ZM48.5932 42.4368C47.8554 42.9771 46.9678 43.3908 45.926 43.675L46.0418 44.0995C47.127 43.8035 48.0655 43.3686 48.8531 42.7917L48.5932 42.4368ZM45.926 43.675C44.8845 43.959 43.7174 44.1023 42.4229 44.1023V44.5423C43.7494 44.5423 44.9563 44.3955 46.0418 44.0995L45.926 43.675ZM42.4229 44.1023C41.2383 44.1023 40.0697 43.9542 38.9166 43.658L38.8071 44.0842C39.9958 44.3895 41.2012 44.5423 42.4229 44.5423V44.1023ZM38.9189 43.6586C37.7807 43.353 36.7503 42.89 35.8261 42.2704L35.5811 42.6359C36.5475 43.2838 37.6226 43.7661 38.8048 44.0836L38.9189 43.6586ZM35.8275 42.2714C34.91 41.6458 34.1756 40.849 33.6228 39.8789L33.2405 40.0967C33.8263 41.1247 34.6066 41.9714 35.5797 42.6349L35.8275 42.2714ZM33.6241 39.8813C33.0869 38.9101 32.8137 37.7505 32.8137 36.3945H32.3738C32.3738 37.8101 32.6592 39.046 33.2391 40.0943L33.6241 39.8813ZM32.5938 36.6145H38.2656V36.1745H32.5938V36.6145ZM38.0456 36.3945C38.0456 37.1001 38.1391 37.7088 38.3343 38.214L38.7448 38.0555C38.5747 37.6154 38.4856 37.064 38.4856 36.3945H38.0456ZM38.3343 38.214C38.5292 38.7184 38.8189 39.1324 39.2059 39.4491L39.4845 39.1085C39.1626 38.8451 38.9152 38.4965 38.7448 38.0555L38.3343 38.214ZM39.2091 39.4516C39.5919 39.7533 40.0565 39.9694 40.597 40.1045L40.7037 39.6777C40.213 39.555 39.8075 39.3629 39.4814 39.106L39.2091 39.4516ZM40.6012 40.1056C41.1365 40.2282 41.7443 40.2884 42.4229 40.2884V39.8484C41.7693 39.8484 41.1955 39.7903 40.6995 39.6767L40.6012 40.1056ZM42.4229 40.2884C43.1604 40.2884 43.7756 40.1842 44.2556 39.9618L44.0706 39.5626C43.6697 39.7484 43.1247 39.8484 42.4229 39.8484V40.2884ZM44.2595 39.9599C44.7298 39.7305 45.0885 39.4249 45.3191 39.0366L44.9407 38.812C44.763 39.1113 44.4773 39.3642 44.0666 39.5645L44.2595 39.9599ZM45.3205 39.0341C45.5443 38.6454 45.656 38.2207 45.656 37.7642H45.216C45.216 38.1455 45.1236 38.4943 44.9392 38.8145L45.3205 39.0341Z" fill="#212529" fill-opacity="0.1" mask="url(#path-1-outside-1_3838_338)"/>
</g>
<defs>
<linearGradient id="paint0_linear_3838_338" x1="33" y1="1" x2="33" y2="64.9992" gradientUnits="userSpaceOnUse">
<stop stop-color="#0F53B8"/>
<stop offset="1" stop-color="#0D6EFD"/>
</linearGradient>
<linearGradient id="paint1_linear_3838_338" x1="33" y1="1" x2="33" y2="64.9992" gradientUnits="userSpaceOnUse">
<stop stop-color="#D2D6DC"/>
<stop offset="1" stop-color="#E3E7ED"/>
</linearGradient>
<linearGradient id="paint2_linear_3838_338" x1="33" y1="1" x2="33" y2="64.9992" gradientUnits="userSpaceOnUse">
<stop stop-color="#D2D6DC"/>
<stop offset="1" stop-color="#E3E7ED"/>
</linearGradient>
<linearGradient id="paint3_linear_3838_338" x1="33" y1="1" x2="33" y2="64.9992" gradientUnits="userSpaceOnUse">
<stop stop-color="#D2D6DC"/>
<stop offset="1" stop-color="#E3E7ED"/>
</linearGradient>
<linearGradient id="paint4_linear_3838_338" x1="33" y1="1" x2="33" y2="64.9992" gradientUnits="userSpaceOnUse">
<stop stop-color="#D2D6DC"/>
<stop offset="1" stop-color="#E3E7ED"/>
</linearGradient>
</defs>
</svg>
