<svg xmlns="http://www.w3.org/2000/svg" style="height: 0; width: 0; position: absolute;"><symbol id="jsopx-icon-jsopx-js-logo-64-64" viewBox="0 0 64 64"><title>jsopx js logo 64 64</title><g class="nc-icon-wrapper"><path fill-rule="evenodd" clip-rule="evenodd" d="M14 14.7556C14 12.5808 15.5553 10.7172 17.695 10.3281L41.695 5.96451C44.4573 5.46227 47 7.58435 47 10.3919V11.8026C48.7934 12.84 50 14.7791 50 17V46H47V17C47 15.3431 45.6569 14 44 14H20C18.3431 14 17 15.3431 17 17V46H14V14.7556ZM40 50V53H36.7477L37.1691 50H40ZM28.9607 50H26V53H28.5394L28.9607 50Z" fill="currentColor" stroke="none"></path><path d="M11 47C11 47 11 45 13 45H25C25 45 27 45 27 47V53C27 53 27 55 25 55H21C21 55.6667 21.0833 56.1667 21.25 56.5H22C22.2761 56.5 22.5 56.7239 22.5 57C22.5 57.2761 22.2761 57.5 22 57.5H16C15.7239 57.5 15.5 57.2761 15.5 57C15.5 56.7239 15.7239 56.5 16 56.5H16.75C16.9167 56.1667 17 55.6667 17 55H13C13 55 11 55 11 53V47ZM12.3985 46.1446C12.2929 46.2149 12.2101 46.3158 12.1444 46.4472C12.0768 46.5825 12.038 46.7299 12.0176 46.8519C12.0079 46.9105 12.0034 46.9572 12.0014 46.9853C12.0005 46.997 12.0002 47.005 12 47.009V53C12 53.325 12.0784 53.5023 12.1446 53.6016C12.2149 53.7071 12.3158 53.7899 12.4472 53.8556C12.5825 53.9232 12.7299 53.962 12.8519 53.9824C12.9105 53.9921 12.9572 53.9966 12.9853 53.9986C12.997 53.9995 13.005 53.9998 13.009 54H25C25.325 54 25.5023 53.9216 25.6016 53.8554C25.7071 53.7851 25.7899 53.6842 25.8556 53.5528C25.9232 53.4175 25.962 53.2701 25.9824 53.1481C25.9921 53.0895 25.9966 53.0428 25.9986 53.0147C25.9995 53.003 25.9998 52.995 26 52.991V47C26 46.675 25.9216 46.4977 25.8554 46.3985C25.7851 46.2929 25.6842 46.2101 25.5528 46.1444C25.4175 46.0768 25.2701 46.038 25.1481 46.0176C25.0895 46.0079 25.0428 46.0034 25.0147 46.0014C25.003 46.0005 24.995 46.0002 24.991 46H13C12.675 46 12.4977 46.0784 12.3985 46.1446Z" fill="currentColor" stroke="none"></path><path d="M36.8752 43.4439C37.4229 43.5149 37.8093 44.0165 37.7383 44.5642L36.1953 56.4645C36.1242 57.0122 35.6227 57.3987 35.075 57.3276L29.1248 56.5561C28.5771 56.4851 28.1907 55.9835 28.2617 55.4358L29.8047 43.5354C29.8758 42.9877 30.3773 42.6013 30.925 42.6723L36.8752 43.4439ZM31.0536 41.6806C29.9582 41.5386 28.9551 42.3115 28.813 43.4069L27.27 55.3072C27.1279 56.4026 27.9008 57.4058 28.9962 57.5478L34.9464 58.3193C36.0418 58.4614 37.0449 57.6885 37.1869 56.5931L38.73 44.6928C38.8721 43.5974 38.0992 42.5942 37.0038 42.4522L31.0536 41.6806Z" fill="currentColor" stroke="none"></path><path d="M32.2285 55.9502C32.7762 56.0212 33.2777 55.6348 33.3487 55.0871C33.4198 54.5394 33.0333 54.0378 32.4856 53.9668C31.9379 53.8958 31.4364 54.2822 31.3654 54.8299C31.2943 55.3776 31.6808 55.8792 32.2285 55.9502Z" fill="currentColor" stroke="none"></path><path d="M51.5 46C51.7761 46 52 46.2239 52 46.5V54H40V46.5C40 46.2239 40.2239 46 40.5 46H51.5ZM40.5 45C39.6716 45 39 45.6716 39 46.5V55H53V46.5C53 45.6716 52.3284 45 51.5 45H40.5Z" fill="currentColor" stroke="none"></path><path d="M38 55.5H54C54 56.3284 53.3284 57 52.5 57H39.5C38.6716 57 38 56.3284 38 55.5Z" fill="currentColor" stroke="none"></path><path d="M18.6919 27.9011L19.9324 28.3549L19.9304 28.8842L18.2456 28.1632L18.2469 27.7882L18.6919 27.9011ZM19.9354 27.5385L18.6896 27.991L18.2458 28.0948L18.2472 27.7198L19.9373 27.0112L19.9354 27.5385ZM26.1573 25.4758L26.188 17.1004L28.6699 17.1095L28.6392 25.4849C28.6363 26.2929 28.4567 26.9867 28.1004 27.5665C27.7441 28.1407 27.2583 28.5816 26.6429 28.8893C26.033 29.1969 25.3463 29.3494 24.5826 29.3466C23.7913 29.3437 23.0917 29.2083 22.484 28.9404C21.8762 28.6726 21.399 28.2641 21.0524 27.715C20.7058 27.1603 20.5341 26.4596 20.5372 25.613L23.0357 25.6221C23.0341 26.0648 23.0936 26.4164 23.2144 26.677C23.3408 26.9375 23.5199 27.1236 23.7519 27.2351C23.984 27.3466 24.2632 27.403 24.5897 27.4042C24.9051 27.4053 25.1793 27.3316 25.4123 27.1831C25.6453 27.0345 25.8259 26.8166 25.9542 26.5293C26.0881 26.242 26.1558 25.8909 26.1573 25.4758ZM37.0542 26.0636C37.055 25.8478 37.0225 25.654 36.9567 25.4822C36.8965 25.3049 36.7808 25.144 36.6098 24.9995C36.4388 24.8494 36.1986 24.7019 35.8893 24.5569C35.5799 24.4119 35.1793 24.261 34.6873 24.1042C34.1401 23.9251 33.6207 23.724 33.129 23.5009C32.6428 23.2777 32.2121 23.0188 31.8369 22.7242C31.4672 22.424 31.1752 22.077 30.9608 21.6833C30.752 21.2897 30.6485 20.8327 30.6504 20.3126C30.6522 19.809 30.7646 19.3529 30.9874 18.9442C31.2103 18.5299 31.5215 18.1769 31.921 17.8851C32.3205 17.5877 32.7917 17.3598 33.3346 17.2013C33.8831 17.0428 34.4838 16.9648 35.1368 16.9672C36.0277 16.9704 36.8046 17.1337 37.4675 17.4571C38.1304 17.7805 38.6434 18.2224 39.0066 18.7826C39.3753 19.3429 39.5584 19.9827 39.5558 20.7021L37.0821 20.6931C37.0834 20.3389 37.0099 20.0287 36.8614 19.7626C36.7185 19.4909 36.498 19.277 36.1997 19.121C35.907 18.9649 35.5365 18.8861 35.0883 18.8845C34.6566 18.8829 34.2967 18.948 34.0084 19.0797C33.7202 19.206 33.5038 19.3795 33.3591 19.6003C33.2144 19.8156 33.1416 20.0588 33.1406 20.33C33.1398 20.5347 33.1889 20.7203 33.2879 20.8867C33.3925 21.0531 33.5469 21.2086 33.7511 21.3532C33.9553 21.4979 34.2066 21.6344 34.505 21.7627C34.8033 21.8911 35.1487 22.0169 35.5412 22.1401C36.199 22.3417 36.7764 22.5679 37.2736 22.8188C37.7762 23.0696 38.1958 23.3506 38.5322 23.6618C38.8686 23.9729 39.1219 24.3252 39.292 24.7188C39.4621 25.1123 39.5463 25.5581 39.5445 26.0561C39.5425 26.5818 39.4384 27.0518 39.2322 27.4661C39.0259 27.8804 38.7285 28.2307 38.3401 28.5171C37.9517 28.8034 37.4888 29.0203 36.9515 29.1677C36.4142 29.3152 35.8135 29.3877 35.1494 29.3853C34.5518 29.3831 33.9627 29.3034 33.3822 29.1464C32.8018 28.9838 32.2742 28.7411 31.7994 28.4184C31.3302 28.0957 30.9554 27.6848 30.675 27.1858C30.3946 26.6867 30.2557 26.0968 30.2582 25.4161L32.7567 25.4253C32.7553 25.8016 32.8122 26.12 32.9275 26.3805C33.0428 26.641 33.2052 26.8519 33.4149 27.0132C33.6302 27.1744 33.8843 27.2916 34.1773 27.3646C34.4759 27.4376 34.8022 27.4748 35.1564 27.4761C35.588 27.4777 35.9424 27.4181 36.2196 27.2974C36.5022 27.1767 36.7104 27.0086 36.844 26.7933C36.9831 26.578 37.0532 26.3348 37.0542 26.0636ZM41.5911 26.3991L40.5368 29.4831L40.1188 29.4816L41.1731 26.3975L41.5911 26.3991ZM43.1201 28.0687L41.8698 27.6169L41.8717 27.0915L43.5703 27.8126L43.5689 28.1895L43.1201 28.0687ZM41.8668 28.4391L43.1224 27.9867L43.57 27.8809L43.5686 28.2559L41.8649 28.9645L41.8668 28.4391Z" fill="currentColor" stroke="none"></path><path d="M29.7412 41.2344V33.2046H31.1753L31.2129 33.8813H31.2397C31.3687 33.6593 31.5853 33.4731 31.8896 33.3228C32.1976 33.1724 32.5449 33.0972 32.9316 33.0972C33.6979 33.0972 34.3138 33.3675 34.7793 33.9082C35.2448 34.4489 35.4775 35.1507 35.4775 36.0137V36.1855C35.4775 37.0521 35.2466 37.7557 34.7847 38.2964C34.3228 38.8371 33.714 39.1074 32.9585 39.1074C32.5754 39.1074 32.2352 39.0448 31.938 38.9194C31.6444 38.7941 31.4224 38.6187 31.272 38.3931V41.2344H29.7412ZM31.272 37.104C31.3651 37.3332 31.5262 37.5337 31.7554 37.7056C31.9845 37.8774 32.2549 37.9634 32.5664 37.9634C33.0247 37.9634 33.3631 37.8058 33.5815 37.4907C33.8 37.172 33.9092 36.7513 33.9092 36.2285V35.9707C33.9092 35.4515 33.8 35.0326 33.5815 34.7139C33.3631 34.3952 33.0247 34.2358 32.5664 34.2358C32.2441 34.2358 31.972 34.3218 31.75 34.4937C31.5316 34.6655 31.3722 34.8625 31.272 35.0845V37.104ZM35.9395 39L38.7271 34.6279H39.0225L41.0688 31.1797H42.6318L40.0107 35.4229H39.7153L37.5347 39H35.9395ZM36.063 31.1797L37.8945 31.1851L39.9624 34.6172H40L42.8145 39H40.9668L38.7808 35.4497H38.7539L36.063 31.1797Z" fill="currentColor" stroke="none"></path><path d="M23.1903 35.36C23.2274 35.3124 23.225 35.2499 23.1845 35.2044C23.144 35.159 23.0743 35.1406 23.0109 35.1587L22.0734 35.4265L22.1722 35.6806L22.6777 35.5362L22.3053 36.015C22.2683 36.0626 22.2706 36.1251 22.3112 36.1706C22.3517 36.216 22.4214 36.2344 22.4847 36.2163L22.9902 36.0719L22.6178 36.5507C22.5808 36.5983 22.5831 36.6608 22.6237 36.7063C22.6642 36.7518 22.7339 36.7701 22.7972 36.7521L23.7347 36.4842L23.6359 36.2301L23.1305 36.3745L23.5028 35.8957C23.5399 35.8481 23.5375 35.7856 23.497 35.7401C23.4565 35.6947 23.3868 35.6763 23.3234 35.6944L22.818 35.8388L23.1903 35.36Z" fill="currentColor" stroke="none"></path><path d="M24 39.5714C26.7614 39.5714 29 37.6526 29 35.2857C29 32.9188 26.7614 31 24 31C21.2386 31 19 32.9188 19 35.2857C19 37.6526 21.2386 39.5714 24 39.5714ZM20.1237 37.0261L21.3664 36.1385C21.2494 35.8734 21.1853 35.586 21.1853 35.2857C21.1853 33.9543 22.4445 32.875 23.9978 32.875C24.8215 32.875 25.5625 33.1785 26.0769 33.6622L23.6853 34.4821L24.3103 35.8214L25.1436 37.488C24.7936 37.6219 24.4059 37.6964 23.9978 37.6964C23.6475 37.6964 23.3122 37.6415 23.0029 37.5412L21.9667 38.607C21.181 38.2529 20.5363 37.6999 20.1237 37.0261ZM26.8103 35.2857C26.8103 36.0509 26.3944 36.7328 25.7458 37.1744L24.9353 35.5536L26.7847 34.9591C26.8016 35.0659 26.8103 35.1749 26.8103 35.2857Z" fill="currentColor" stroke="none"></path></g></symbol><symbol id="jsopx-icon-jsopx-logo" viewBox="0 0 64 64"><title>jsopx logo</title><g class="nc-icon-wrapper"><g id="1720382845818-6273594_Property 1=Default" stroke="none" fill="none"><g id="1720382845818-6273594_Official Logo" stroke="none" fill="none"><path id="1720382845818-6273594_Subtract" fill-rule="evenodd" clip-rule="evenodd" d="M14 14.7556C14 12.5808 15.5553 10.7172 17.695 10.3281L41.695 5.96451C44.4573 5.46227 47 7.58435 47 10.3919V11.8026C48.7934 12.84 50 14.7791 50 17V46H47V17C47 15.3431 45.6569 14 44 14H20C18.3431 14 17 15.3431 17 17V46H14V14.7556ZM40 50V53H36.7477L37.1691 50H40ZM28.9607 50H26V53H28.5394L28.9607 50Z" fill="currentColor" stroke="none"></path></g><g id="1720382845818-6273594_display" stroke="none" fill="none"><path id="1720382845818-6273594_Union" d="M11 47C11 47 11 45 13 45H25C25 45 27 45 27 47V53C27 53 27 55 25 55H21C21 55.6667 21.0833 56.1667 21.25 56.5H22C22.2761 56.5 22.5 56.7239 22.5 57C22.5 57.2761 22.2761 57.5 22 57.5H16C15.7239 57.5 15.5 57.2761 15.5 57C15.5 56.7239 15.7239 56.5 16 56.5H16.75C16.9167 56.1667 17 55.6667 17 55H13C13 55 11 55 11 53V47ZM12.3985 46.1446C12.2929 46.2149 12.2101 46.3158 12.1444 46.4472C12.0768 46.5825 12.038 46.7299 12.0176 46.8519C12.0079 46.9105 12.0034 46.9572 12.0014 46.9853C12.0005 46.997 12.0002 47.005 12 47.009V53C12 53.325 12.0784 53.5023 12.1446 53.6016C12.2149 53.7071 12.3158 53.7899 12.4472 53.8556C12.5825 53.9232 12.7299 53.962 12.8519 53.9824C12.9105 53.9921 12.9572 53.9966 12.9853 53.9986C12.997 53.9995 13.005 53.9998 13.009 54H25C25.325 54 25.5023 53.9216 25.6016 53.8554C25.7071 53.7851 25.7899 53.6842 25.8556 53.5528C25.9232 53.4175 25.962 53.2701 25.9824 53.1481C25.9921 53.0895 25.9966 53.0428 25.9986 53.0147C25.9995 53.003 25.9998 52.995 26 52.991V47C26 46.675 25.9216 46.4977 25.8554 46.3985C25.7851 46.2929 25.6842 46.2101 25.5528 46.1444C25.4175 46.0768 25.2701 46.038 25.1481 46.0176C25.0895 46.0079 25.0428 46.0034 25.0147 46.0014C25.003 46.0005 24.995 46.0002 24.991 46H13C12.675 46 12.4977 46.0784 12.3985 46.1446Z" fill="currentColor" stroke="none"></path></g><g id="1720382845818-6273594_phone" stroke="none" fill="none"><g id="1720382845818-6273594_Vector" stroke="none" fill="none"><path d="M36.8752 43.4439C37.4229 43.5149 37.8093 44.0165 37.7383 44.5642L36.1953 56.4646C36.1242 57.0123 35.6227 57.3987 35.075 57.3277L29.1248 56.5561C28.5771 56.4851 28.1907 55.9835 28.2617 55.4358L29.8047 43.5355C29.8758 42.9878 30.3773 42.6013 30.925 42.6724L36.8752 43.4439ZM31.0536 41.6807C29.9582 41.5386 28.9551 42.3115 28.813 43.4069L27.27 55.3072C27.1279 56.4026 27.9008 57.4058 28.9962 57.5478L34.9464 58.3194C36.0418 58.4614 37.0449 57.6885 37.1869 56.5931L38.73 44.6928C38.8721 43.5974 38.0992 42.5942 37.0038 42.4522L31.0536 41.6807Z" fill="currentColor" stroke="none"></path><path d="M32.2285 55.9502C32.7762 56.0212 33.2777 55.6348 33.3487 55.0871C33.4198 54.5394 33.0333 54.0378 32.4856 53.9668C31.9379 53.8958 31.4364 54.2822 31.3654 54.8299C31.2943 55.3776 31.6808 55.8792 32.2285 55.9502Z" fill="currentColor" stroke="none"></path></g></g><g id="1720382845818-6273594_Laptop" stroke="none" fill="none"><g id="1720382845818-6273594_laptop" stroke="none" fill="none"><g id="1720382845818-6273594_Vector_2" stroke="none" fill="none"><path d="M51.5 46C51.7761 46 52 46.2239 52 46.5V54H40V46.5C40 46.2239 40.2239 46 40.5 46H51.5ZM40.5 45C39.6716 45 39 45.6716 39 46.5V55H53V46.5C53 45.6716 52.3284 45 51.5 45H40.5Z" fill="currentColor" stroke="none"></path><path d="M38 55.5H54C54 56.3284 53.3284 57 52.5 57H39.5C38.6716 57 38 56.3284 38 55.5Z" fill="currentColor" stroke="none"></path></g></g></g><path id="1720382845818-6273594_<JSopX></path>" d="M21.3736 37.0497V36.6406L23.3168 35.7429V36.2472L21.9361 36.8395L21.9517 36.8125V36.8778L21.9361 36.8509L23.3168 37.4432V37.9474L21.3736 37.0497ZM25.4847 34.3636H26.1381V36.9205C26.137 37.1548 26.0872 37.3567 25.989 37.5259C25.8907 37.694 25.7534 37.8236 25.5771 37.9148C25.4019 38.0047 25.1977 38.0497 24.9645 38.0497C24.7514 38.0497 24.5597 38.0118 24.3892 37.9361C24.2199 37.8591 24.0856 37.7455 23.9862 37.5952C23.8867 37.4448 23.837 37.2578 23.837 37.0341H24.4922C24.4934 37.1323 24.5147 37.217 24.5561 37.288C24.5987 37.359 24.6573 37.4135 24.7319 37.4513C24.8065 37.4892 24.8923 37.5082 24.9893 37.5082C25.0947 37.5082 25.1841 37.4863 25.2575 37.4425C25.3308 37.3975 25.3865 37.3312 25.4244 37.2436C25.4634 37.156 25.4835 37.0483 25.4847 36.9205V34.3636ZM28.829 35.3633C28.8124 35.2082 28.7426 35.0875 28.6195 35.0011C28.4976 34.9147 28.339 34.8714 28.1436 34.8714C28.0063 34.8714 27.8886 34.8922 27.7903 34.9336C27.6921 34.975 27.6169 35.0312 27.5648 35.1023C27.5127 35.1733 27.4861 35.2544 27.4849 35.3455C27.4849 35.4213 27.5021 35.487 27.5364 35.5426C27.5719 35.5982 27.6199 35.6456 27.6802 35.6847C27.7406 35.7225 27.8075 35.7545 27.8809 35.7805C27.9542 35.8066 28.0282 35.8285 28.1028 35.8462L28.4437 35.9315C28.581 35.9634 28.713 36.0066 28.8397 36.0611C28.9675 36.1155 29.0817 36.1842 29.1824 36.267C29.2842 36.3499 29.3646 36.4499 29.4238 36.5671C29.483 36.6843 29.5126 36.8216 29.5126 36.979C29.5126 37.1921 29.4582 37.3797 29.3493 37.5419C29.2404 37.7029 29.0829 37.829 28.877 37.9201C28.6722 38.0101 28.4242 38.055 28.133 38.055C27.8501 38.055 27.6045 38.0112 27.3961 37.9237C27.189 37.8361 27.0268 37.7082 26.9096 37.5401C26.7936 37.372 26.7309 37.1673 26.7214 36.9258H27.3695C27.379 37.0524 27.418 37.1578 27.4867 37.2418C27.5553 37.3259 27.6447 37.3886 27.7548 37.43C27.8661 37.4715 27.9904 37.4922 28.1277 37.4922C28.2709 37.4922 28.3964 37.4709 28.5041 37.4283C28.613 37.3845 28.6982 37.3241 28.7598 37.2472C28.8213 37.169 28.8527 37.0779 28.8539 36.9737C28.8527 36.879 28.8249 36.8009 28.7704 36.7393C28.716 36.6766 28.6396 36.6245 28.5414 36.5831C28.4443 36.5405 28.3307 36.5026 28.2005 36.4695L27.7868 36.3629C27.4873 36.286 27.2505 36.1694 27.0765 36.0131C26.9037 35.8557 26.8173 35.6468 26.8173 35.3864C26.8173 35.1721 26.8753 34.9845 26.9913 34.8235C27.1085 34.6625 27.2677 34.5376 27.4689 34.4489C27.6702 34.3589 27.898 34.3139 28.1525 34.3139C28.4106 34.3139 28.6367 34.3589 28.8308 34.4489C29.0261 34.5376 29.1794 34.6613 29.2907 34.82C29.4019 34.9774 29.4593 35.1585 29.4629 35.3633H28.829ZM31.2611 38.0533C30.9948 38.0533 30.7639 37.9947 30.5686 37.8775C30.3733 37.7603 30.2218 37.5964 30.1141 37.3857C30.0075 37.175 29.9543 36.9287 29.9543 36.647C29.9543 36.3653 30.0075 36.1185 30.1141 35.9066C30.2218 35.6947 30.3733 35.5302 30.5686 35.413C30.7639 35.2958 30.9948 35.2372 31.2611 35.2372C31.5274 35.2372 31.7583 35.2958 31.9536 35.413C32.1489 35.5302 32.2998 35.6947 32.4063 35.9066C32.5141 36.1185 32.5679 36.3653 32.5679 36.647C32.5679 36.9287 32.5141 37.175 32.4063 37.3857C32.2998 37.5964 32.1489 37.7603 31.9536 37.8775C31.7583 37.9947 31.5274 38.0533 31.2611 38.0533ZM31.2646 37.5384C31.4091 37.5384 31.5298 37.4987 31.6269 37.4194C31.7239 37.3389 31.7961 37.2312 31.8435 37.0962C31.892 36.9613 31.9163 36.811 31.9163 36.6452C31.9163 36.4783 31.892 36.3274 31.8435 36.1925C31.7961 36.0563 31.7239 35.948 31.6269 35.8675C31.5298 35.7871 31.4091 35.7468 31.2646 35.7468C31.1167 35.7468 30.9936 35.7871 30.8953 35.8675C30.7983 35.948 30.7255 36.0563 30.6769 36.1925C30.6296 36.3274 30.6059 36.4783 30.6059 36.6452C30.6059 36.811 30.6296 36.9613 30.6769 37.0962C30.7255 37.2312 30.7983 37.3389 30.8953 37.4194C30.9936 37.4987 31.1167 37.5384 31.2646 37.5384ZM33.1135 39.0227V35.2727H33.7456V35.7237H33.7828C33.816 35.6574 33.8627 35.587 33.9231 35.5124C33.9835 35.4367 34.0652 35.3722 34.1681 35.3189C34.2711 35.2644 34.4025 35.2372 34.5623 35.2372C34.773 35.2372 34.963 35.2911 35.1323 35.3988C35.3027 35.5053 35.4377 35.6634 35.5371 35.8729C35.6377 36.0812 35.688 36.3369 35.688 36.6399C35.688 36.9394 35.6389 37.1939 35.5407 37.4034C35.4424 37.6129 35.3087 37.7727 35.1394 37.8828C34.9701 37.9929 34.7783 38.0479 34.5641 38.0479C34.4078 38.0479 34.2782 38.0219 34.1752 37.9698C34.0723 37.9177 33.9894 37.855 33.9267 37.7816C33.8651 37.707 33.8172 37.6366 33.7828 37.5703H33.7562V39.0227H33.1135ZM33.7438 36.6364C33.7438 36.8127 33.7686 36.9672 33.8184 37.0998C33.8693 37.2324 33.9421 37.3359 34.0368 37.4105C34.1326 37.4839 34.2486 37.5206 34.3848 37.5206C34.5268 37.5206 34.6458 37.4827 34.7417 37.407C34.8375 37.33 34.9097 37.2253 34.9583 37.0927C35.008 36.9589 35.0328 36.8068 35.0328 36.6364C35.0328 36.4671 35.0086 36.3168 34.96 36.1854C34.9115 36.054 34.8393 35.951 34.7434 35.8764C34.6475 35.8018 34.528 35.7646 34.3848 35.7646C34.2475 35.7646 34.1309 35.8007 34.035 35.8729C33.9391 35.9451 33.8663 36.0463 33.8166 36.1765C33.7681 36.3067 33.7438 36.46 33.7438 36.6364ZM36.6757 34.3636L37.4765 35.6953H37.5049L38.3092 34.3636H39.0603L37.9399 36.1818L39.078 38H38.3145L37.5049 36.6772H37.4765L36.6668 38H35.9069L37.0557 36.1818L35.9211 34.3636H36.6757ZM40.6705 34.9545L39.733 38.4375H39.2827L40.2202 34.9545H40.6705ZM43.0511 37.0497L41.108 37.9474V37.4432L42.4886 36.8509L42.473 36.8778V36.8125L42.4886 36.8395L41.108 36.2472V35.7429L43.0511 36.6406V37.0497Z" fill="currentColor" stroke="none"></path><g id="1720382845818-6273594_wrench-adjustable-circle-fill" stroke="none" fill="none"><g id="1720382845818-6273594_Subtract_2" stroke="none" fill="none"><path d="M30.7046 24.1387C30.7638 24.0498 30.76 23.9331 30.6952 23.8483C30.6304 23.7634 30.5188 23.7291 30.4175 23.7628L28.9175 24.2628L29.0756 24.7372L29.8844 24.4676L29.2885 25.3613C29.2293 25.4502 29.233 25.5669 29.2979 25.6517C29.3627 25.7366 29.4743 25.7709 29.5756 25.7372L30.3844 25.4676L29.7885 26.3613C29.7293 26.4502 29.733 26.5669 29.7979 26.6517C29.8627 26.7366 29.9743 26.7709 30.0756 26.7372L31.5756 26.2372L31.4175 25.7628L30.6087 26.0324L31.2046 25.1387C31.2638 25.0498 31.26 24.9331 31.1952 24.8483C31.1304 24.7634 31.0188 24.7291 30.9175 24.7628L30.1087 25.0324L30.7046 24.1387Z" fill="currentColor" stroke="none"></path><path d="M32 32C36.4183 32 40 28.4183 40 24C40 19.5817 36.4183 16 32 16C27.5817 16 24 19.5817 24 24C24 28.4183 27.5817 32 32 32ZM25.798 27.2488L27.7862 25.5919C27.599 25.097 27.4965 24.5605 27.4965 24C27.4965 21.5147 29.5113 19.5 31.9965 19.5C33.3145 19.5 34.5001 20.0666 35.3231 20.9694L31.4965 22.5L32.4965 25L33.8298 28.1109C33.2698 28.361 32.6494 28.5 31.9965 28.5C31.4361 28.5 30.8995 28.3975 30.4046 28.2103L28.7468 30.1997C27.4896 29.5387 26.4581 28.5065 25.798 27.2488ZM36.4965 24C36.4965 25.4284 35.8311 26.7013 34.7932 27.5256L33.4965 24.5L36.4556 23.3904C36.4826 23.5897 36.4965 23.7932 36.4965 24Z" fill="currentColor" stroke="none"></path></g></g></g></g></symbol><symbol id="jsopx-icon-jsopx-logo-living-color-260-260" viewBox="0 0 260 260"><title>jsopx logo living color 260 260</title><g fill="none" class="nc-icon-wrapper" stroke="none"><g id="1720382845844-7099437_JSopX-Logo-Living-Color-260x260"><path d="M0 20.3125C0 9.09422 9.09422 0 20.3125 0H239.688C250.906 0 260 9.09422 260 20.3125V239.688C260 250.906 250.906 260 239.688 260H20.3125C9.09422 260 0 250.906 0 239.688V20.3125Z" fill="url(#1720382845844-7099437_paint0_linear_3811_3437)"></path><path d="M69.0625 69.0625C69.0625 60.0879 76.3379 52.8125 85.3125 52.8125H174.688C183.662 52.8125 190.938 60.0879 190.938 69.0625V190.938C190.938 199.912 183.662 207.188 174.688 207.188H85.3125C76.3379 207.188 69.0625 199.912 69.0625 190.938V69.0625Z" fill="#698EC5"></path><path d="M56.875 59.9445C56.875 51.1094 63.1934 43.5385 71.886 41.9581L169.386 24.2308C180.608 22.1905 190.938 30.8114 190.938 42.2172V47.9479C198.223 52.1626 203.125 60.0403 203.125 69.0625V186.875H190.938V69.0625C190.938 62.3315 185.481 56.875 178.75 56.875H81.25C74.519 56.875 69.0625 62.3315 69.0625 69.0625V186.875H56.875V59.9445Z" fill="#fff"></path><path d="M162.5 203.125V215.312H149.288L150.999 203.125H162.5Z" fill="#fff"></path><path d="M117.653 203.125H105.625V215.312H115.941L117.653 203.125Z" fill="#fff"></path><path d="M48.75 190.938C48.75 188.694 50.5688 186.875 52.8125 186.875H101.562C103.806 186.875 105.625 188.694 105.625 190.938V215.312C105.625 217.556 103.806 219.375 101.562 219.375H52.8125C50.5688 219.375 48.75 217.556 48.75 215.312V190.938Z" fill="#698EC5"></path><path d="M44.6875 190.938C44.6875 190.938 44.6875 182.812 52.8125 182.812H101.562C101.562 182.812 109.688 182.812 109.688 190.938V215.312C109.688 215.312 109.688 223.438 101.562 223.438H85.3125C85.3125 226.146 85.651 228.177 86.3281 229.531H89.375C90.4968 229.531 91.4062 230.441 91.4062 231.562C91.4062 232.684 90.4968 233.594 89.375 233.594H65C63.8782 233.594 62.9688 232.684 62.9688 231.562C62.9688 230.441 63.8782 229.531 65 229.531H68.0469C68.724 228.177 69.0625 226.146 69.0625 223.438H52.8125C52.8125 223.438 44.6875 223.438 44.6875 215.312V190.938ZM50.3687 187.462C49.94 187.748 49.6036 188.158 49.3367 188.692C49.0619 189.241 48.9043 189.84 48.8217 190.336C48.782 190.574 48.7637 190.764 48.7555 190.878C48.7522 190.925 48.7506 190.958 48.75 190.974V215.312C48.75 216.633 49.0684 217.353 49.3372 217.756C49.623 218.185 50.0331 218.521 50.5668 218.788C51.1164 219.063 51.7152 219.221 52.2108 219.303C52.449 219.343 52.6387 219.361 52.7528 219.369C52.8002 219.373 52.833 219.374 52.8492 219.375H101.562C102.883 219.375 103.603 219.057 104.006 218.788C104.435 218.502 104.771 218.092 105.038 217.558C105.313 217.009 105.471 216.41 105.553 215.914C105.593 215.676 105.611 215.486 105.619 215.372C105.623 215.325 105.624 215.292 105.625 215.276V190.938C105.625 189.617 105.307 188.897 105.038 188.494C104.752 188.065 104.342 187.729 103.808 187.462C103.259 187.187 102.66 187.029 102.164 186.947C101.926 186.907 101.736 186.889 101.622 186.881C101.575 186.877 101.542 186.876 101.526 186.875H52.8125C51.4921 186.875 50.7719 187.193 50.3687 187.462Z" fill="#fff"></path><path d="M121.28 174.644C121.609 172.424 123.674 170.891 125.894 171.22L150.836 174.911C153.056 175.239 154.589 177.305 154.26 179.524L146.54 231.692C146.212 233.911 144.147 235.444 141.927 235.116L116.984 231.425C114.765 231.096 113.232 229.031 113.56 226.811L121.28 174.644Z" fill="#698EC5"></path><path d="M149.806 176.491C152.031 176.779 153.6 178.817 153.312 181.042L147.043 229.387C146.755 231.612 144.717 233.182 142.492 232.894L118.319 229.759C116.094 229.471 114.525 227.433 114.813 225.208L121.082 176.863C121.37 174.638 123.408 173.068 125.633 173.356L149.806 176.491ZM126.155 169.328C121.705 168.751 117.63 171.89 117.053 176.34L110.784 224.686C110.207 229.136 113.347 233.211 117.797 233.788L141.97 236.922C146.42 237.499 150.495 234.36 151.072 229.91L157.341 181.564C157.918 177.114 154.778 173.039 150.328 172.462L126.155 169.328Z" fill="#fff"></path><path d="M130.928 227.298C133.153 227.586 135.191 226.016 135.479 223.791C135.768 221.566 134.198 219.529 131.973 219.24C129.748 218.952 127.71 220.521 127.422 222.746C127.133 224.972 128.703 227.009 130.928 227.298Z" fill="#fff"></path><path d="M162.5 186.875H211.25V219.375H162.5V186.875Z" fill="#698EC5"></path><path d="M209.219 186.875C210.341 186.875 211.25 187.784 211.25 188.906V219.375H162.5V188.906C162.5 187.784 163.409 186.875 164.531 186.875H209.219ZM164.531 182.812C161.166 182.812 158.438 185.541 158.438 188.906V223.438H215.312V188.906C215.312 185.541 212.584 182.812 209.219 182.812H164.531Z" fill="#fff"></path><path d="M154.375 225.469H219.375C219.375 228.834 216.647 231.562 213.281 231.562H160.469C157.103 231.562 154.375 228.834 154.375 225.469Z" fill="#fff"></path><path d="M86.8302 150.514V148.853L94.7243 145.206V147.254L89.1153 149.66L89.1788 149.551V149.816L89.1153 149.707L94.7243 152.113V154.161L86.8302 150.514Z" fill="#fff"></path><path d="M103.532 139.602H106.186V149.989C106.181 150.942 105.979 151.761 105.58 152.449C105.181 153.132 104.623 153.658 103.907 154.029C103.195 154.394 102.366 154.577 101.418 154.577C100.553 154.577 99.7736 154.423 99.0811 154.115C98.3935 153.803 97.8477 153.341 97.4437 152.73C97.0398 152.12 96.8378 151.36 96.8378 150.451H99.4995C99.5043 150.85 99.5909 151.194 99.7592 151.482C99.9323 151.771 100.17 151.992 100.473 152.146C100.776 152.3 101.125 152.377 101.519 152.377C101.947 152.377 102.31 152.288 102.608 152.11C102.907 151.927 103.133 151.658 103.286 151.302C103.445 150.946 103.527 150.509 103.532 149.989V139.602Z" fill="#fff"></path><path d="M117.118 143.663C117.051 143.033 116.767 142.543 116.267 142.192C115.771 141.841 115.127 141.665 114.334 141.665C113.776 141.665 113.297 141.749 112.898 141.918C112.499 142.086 112.194 142.314 111.982 142.603C111.77 142.892 111.662 143.221 111.657 143.591C111.657 143.899 111.727 144.166 111.867 144.392C112.011 144.618 112.206 144.81 112.451 144.969C112.696 145.123 112.968 145.253 113.266 145.358C113.564 145.464 113.865 145.553 114.168 145.625L115.553 145.972C116.11 146.101 116.647 146.277 117.161 146.498C117.68 146.719 118.145 146.998 118.553 147.335C118.967 147.671 119.294 148.078 119.534 148.554C119.775 149.03 119.895 149.588 119.895 150.227C119.895 151.093 119.674 151.855 119.231 152.514C118.789 153.168 118.149 153.68 117.313 154.05C116.481 154.416 115.473 154.599 114.29 154.599C113.141 154.599 112.143 154.421 111.297 154.065C110.455 153.709 109.796 153.19 109.32 152.507C108.849 151.824 108.594 150.992 108.556 150.011H111.189C111.227 150.526 111.386 150.954 111.665 151.295C111.944 151.636 112.307 151.891 112.754 152.06C113.206 152.228 113.711 152.312 114.269 152.312C114.85 152.312 115.36 152.225 115.798 152.052C116.24 151.874 116.586 151.629 116.837 151.317C117.087 150.999 117.214 150.629 117.219 150.206C117.214 149.821 117.101 149.504 116.88 149.254C116.659 148.999 116.348 148.787 115.949 148.619C115.555 148.446 115.093 148.292 114.564 148.157L112.884 147.724C111.667 147.412 110.705 146.938 109.998 146.303C109.296 145.664 108.945 144.815 108.945 143.757C108.945 142.887 109.181 142.125 109.652 141.471C110.128 140.817 110.775 140.309 111.593 139.949C112.41 139.583 113.336 139.4 114.37 139.4C115.418 139.4 116.336 139.583 117.125 139.949C117.919 140.309 118.541 140.812 118.993 141.456C119.445 142.096 119.679 142.831 119.693 143.663H117.118Z" fill="#fff"></path><path d="M126.998 154.591C125.916 154.591 124.979 154.353 124.185 153.877C123.392 153.401 122.776 152.735 122.338 151.879C121.906 151.023 121.689 150.023 121.689 148.879C121.689 147.734 121.906 146.731 122.338 145.871C122.776 145.01 123.392 144.341 124.185 143.865C124.979 143.389 125.916 143.151 126.998 143.151C128.08 143.151 129.018 143.389 129.811 143.865C130.605 144.341 131.218 145.01 131.651 145.871C132.088 146.731 132.307 147.734 132.307 148.879C132.307 150.023 132.088 151.023 131.651 151.879C131.218 152.735 130.605 153.401 129.811 153.877C129.018 154.353 128.08 154.591 126.998 154.591ZM127.013 152.5C127.599 152.5 128.09 152.338 128.484 152.016C128.878 151.689 129.172 151.252 129.364 150.703C129.561 150.155 129.66 149.545 129.66 148.871C129.66 148.193 129.561 147.58 129.364 147.032C129.172 146.479 128.878 146.039 128.484 145.712C128.09 145.385 127.599 145.221 127.013 145.221C126.412 145.221 125.911 145.385 125.512 145.712C125.118 146.039 124.822 146.479 124.625 147.032C124.433 147.58 124.337 148.193 124.337 148.871C124.337 149.545 124.433 150.155 124.625 150.703C124.822 151.252 125.118 151.689 125.512 152.016C125.911 152.338 126.412 152.5 127.013 152.5Z" fill="#fff"></path><path d="M134.523 158.53V143.295H137.091V145.128H137.243C137.377 144.858 137.567 144.572 137.813 144.269C138.058 143.961 138.39 143.699 138.808 143.483C139.226 143.262 139.76 143.151 140.409 143.151C141.265 143.151 142.037 143.37 142.725 143.808C143.417 144.24 143.966 144.882 144.37 145.734C144.778 146.58 144.983 147.619 144.983 148.85C144.983 150.066 144.783 151.1 144.384 151.951C143.985 152.803 143.441 153.452 142.754 153.899C142.066 154.346 141.287 154.57 140.417 154.57C139.782 154.57 139.255 154.464 138.837 154.252C138.419 154.041 138.082 153.786 137.827 153.488C137.577 153.185 137.382 152.899 137.243 152.629H137.135V158.53H134.523ZM137.084 148.835C137.084 149.552 137.185 150.179 137.387 150.718C137.594 151.256 137.89 151.677 138.274 151.98C138.664 152.278 139.135 152.427 139.688 152.427C140.265 152.427 140.748 152.274 141.138 151.966C141.527 151.653 141.821 151.228 142.018 150.689C142.22 150.146 142.321 149.528 142.321 148.835C142.321 148.148 142.222 147.537 142.025 147.003C141.828 146.469 141.535 146.051 141.145 145.748C140.756 145.445 140.27 145.294 139.688 145.294C139.13 145.294 138.657 145.44 138.267 145.734C137.878 146.027 137.582 146.438 137.38 146.967C137.183 147.496 137.084 148.119 137.084 148.835Z" fill="#fff"></path><path d="M148.995 139.602L152.248 145.012H152.364L155.631 139.602H158.682L154.131 146.989L158.755 154.375H155.653L152.364 149.001H152.248L148.959 154.375H145.872L150.539 146.989L145.929 139.602H148.995Z" fill="#fff"></path><path d="M165.224 142.003L161.415 156.152H159.586L163.394 142.003H165.224Z" fill="#fff"></path><path d="M174.895 150.514L167.001 154.161V152.113L172.61 149.707L172.547 149.816V149.551L172.61 149.66L167.001 147.254V145.206L174.895 148.853V150.514Z" fill="#fff"></path><path d="M124.737 98.0634C124.978 97.7024 124.963 97.2283 124.699 96.8835C124.436 96.5387 123.983 96.3993 123.571 96.5365L117.477 98.5677L118.12 100.495L121.405 99.3996L118.985 103.03C118.744 103.391 118.759 103.865 119.023 104.21C119.286 104.555 119.739 104.694 120.151 104.557L123.436 103.462L121.016 107.093C120.775 107.454 120.79 107.928 121.054 108.273C121.317 108.618 121.771 108.757 122.182 108.62L128.276 106.589L127.634 104.661L124.348 105.757L126.769 102.126C127.009 101.765 126.994 101.291 126.731 100.946C126.467 100.601 126.014 100.462 125.602 100.599L122.317 101.694L124.737 98.0634Z" fill="#fff"></path><path d="M130 130C147.949 130 162.5 115.449 162.5 97.5C162.5 79.5507 147.949 65 130 65C112.051 65 97.5 79.5507 97.5 97.5C97.5 115.449 112.051 130 130 130ZM104.804 110.698L112.882 103.967C112.121 101.957 111.705 99.7769 111.705 97.5C111.705 87.4035 119.89 79.2188 129.986 79.2188C135.34 79.2188 140.156 81.5204 143.5 85.1882L127.955 91.4062L132.017 101.562L137.433 114.2C135.159 115.216 132.638 115.781 129.986 115.781C127.709 115.781 125.529 115.365 123.519 114.604L116.784 122.686C111.677 120.001 107.486 115.808 104.804 110.698ZM148.267 97.5C148.267 103.303 145.564 108.474 141.348 111.823L136.08 99.5312L148.101 95.0233C148.211 95.8332 148.267 96.66 148.267 97.5Z" fill="#fff"></path></g><defs><linearGradient id="1720382845844-7099437_paint0_linear_3811_3437" x1="130" y1="0" x2="130" y2="260" gradientUnits="userSpaceOnUse"><stop stop-color="#698EC5"></stop><stop offset="1" stop-color="#13171C"></stop></linearGradient></defs></g></symbol><symbol id="jsopx-icon-jsopx-logo-white-64-64" viewBox="0 0 64 64"><title>jsopx logo white 64 64</title><g class="nc-icon-wrapper"><g id="1720382845848-4060874_Property 1=White" stroke="none" fill="none"><g id="1720382845848-4060874_Official Logo" stroke="none" fill="none"><path id="1720382845848-4060874_Subtract" fill-rule="evenodd" clip-rule="evenodd" d="M14 14.7556C14 12.5808 15.5553 10.7172 17.695 10.3281L41.695 5.96451C44.4573 5.46227 47 7.58435 47 10.3919V11.8026C48.7934 12.84 50 14.7791 50 17V46H47V17C47 15.3431 45.6569 14 44 14H20C18.3431 14 17 15.3431 17 17V46H14V14.7556ZM40 50V53H36.7477L37.1691 50H40ZM28.9607 50H26V53H28.5394L28.9607 50Z" fill="currentColor" stroke="none"></path></g><g id="1720382845848-4060874_display" stroke="none" fill="none"><path id="1720382845848-4060874_Union" d="M11 47C11 47 11 45 13 45H25C25 45 27 45 27 47V53C27 53 27 55 25 55H21C21 55.6667 21.0833 56.1667 21.25 56.5H22C22.2761 56.5 22.5 56.7239 22.5 57C22.5 57.2761 22.2761 57.5 22 57.5H16C15.7239 57.5 15.5 57.2761 15.5 57C15.5 56.7239 15.7239 56.5 16 56.5H16.75C16.9167 56.1667 17 55.6667 17 55H13C13 55 11 55 11 53V47ZM12.3985 46.1446C12.2929 46.2149 12.2101 46.3158 12.1444 46.4472C12.0768 46.5825 12.038 46.7299 12.0176 46.8519C12.0079 46.9105 12.0034 46.9572 12.0014 46.9853C12.0005 46.997 12.0002 47.005 12 47.009V53C12 53.325 12.0784 53.5023 12.1446 53.6016C12.2149 53.7071 12.3158 53.7899 12.4472 53.8556C12.5825 53.9232 12.7299 53.962 12.8519 53.9824C12.9105 53.9921 12.9572 53.9966 12.9853 53.9986C12.997 53.9995 13.005 53.9998 13.009 54H25C25.325 54 25.5023 53.9216 25.6016 53.8554C25.7071 53.7851 25.7899 53.6842 25.8556 53.5528C25.9232 53.4175 25.962 53.2701 25.9824 53.1481C25.9921 53.0895 25.9966 53.0428 25.9986 53.0147C25.9995 53.003 25.9998 52.995 26 52.991V47C26 46.675 25.9216 46.4977 25.8554 46.3985C25.7851 46.2929 25.6842 46.2101 25.5528 46.1444C25.4175 46.0768 25.2701 46.038 25.1481 46.0176C25.0895 46.0079 25.0428 46.0034 25.0147 46.0014C25.003 46.0005 24.995 46.0002 24.991 46H13C12.675 46 12.4977 46.0784 12.3985 46.1446Z" fill="currentColor" stroke="none"></path></g><g id="1720382845848-4060874_phone" stroke="none" fill="none"><g id="1720382845848-4060874_Vector" stroke="none" fill="none"><path d="M36.8752 43.4439C37.4229 43.5149 37.8093 44.0165 37.7383 44.5642L36.1953 56.4646C36.1242 57.0123 35.6227 57.3987 35.075 57.3277L29.1248 56.5561C28.5771 56.4851 28.1907 55.9835 28.2617 55.4358L29.8047 43.5355C29.8758 42.9878 30.3773 42.6013 30.925 42.6724L36.8752 43.4439ZM31.0536 41.6807C29.9582 41.5386 28.9551 42.3115 28.813 43.4069L27.27 55.3072C27.1279 56.4026 27.9008 57.4058 28.9962 57.5478L34.9464 58.3194C36.0418 58.4614 37.0449 57.6885 37.1869 56.5931L38.73 44.6928C38.8721 43.5974 38.0992 42.5942 37.0038 42.4522L31.0536 41.6807Z" fill="currentColor" stroke="none"></path><path d="M32.2285 55.9502C32.7762 56.0212 33.2777 55.6348 33.3487 55.0871C33.4198 54.5394 33.0333 54.0378 32.4856 53.9668C31.9379 53.8958 31.4364 54.2822 31.3654 54.8299C31.2943 55.3776 31.6808 55.8792 32.2285 55.9502Z" fill="currentColor" stroke="none"></path></g></g><g id="1720382845848-4060874_Laptop" stroke="none" fill="none"><g id="1720382845848-4060874_laptop" stroke="none" fill="none"><g id="1720382845848-4060874_Vector_2" stroke="none" fill="none"><path d="M51.5 46C51.7761 46 52 46.2239 52 46.5V54H40V46.5C40 46.2239 40.2239 46 40.5 46H51.5ZM40.5 45C39.6716 45 39 45.6716 39 46.5V55H53V46.5C53 45.6716 52.3284 45 51.5 45H40.5Z" fill="currentColor" stroke="none"></path><path d="M38 55.5H54C54 56.3284 53.3284 57 52.5 57H39.5C38.6716 57 38 56.3284 38 55.5Z" fill="currentColor" stroke="none"></path></g></g></g><path d="M21.3736 37.0497V36.6406L23.3168 35.7429V36.2472L21.9361 36.8395L21.9517 36.8125V36.8778L21.9361 36.8509L23.3168 37.4432V37.9474L21.3736 37.0497ZM25.4847 34.3636H26.1381V36.9205C26.137 37.1548 26.0872 37.3567 25.989 37.5259C25.8907 37.694 25.7534 37.8236 25.5771 37.9148C25.4019 38.0047 25.1977 38.0497 24.9645 38.0497C24.7514 38.0497 24.5597 38.0118 24.3892 37.9361C24.2199 37.8591 24.0856 37.7455 23.9862 37.5952C23.8867 37.4448 23.837 37.2578 23.837 37.0341H24.4922C24.4934 37.1323 24.5147 37.217 24.5561 37.288C24.5987 37.359 24.6573 37.4135 24.7319 37.4513C24.8065 37.4892 24.8923 37.5082 24.9893 37.5082C25.0947 37.5082 25.1841 37.4863 25.2575 37.4425C25.3308 37.3975 25.3865 37.3312 25.4244 37.2436C25.4634 37.156 25.4835 37.0483 25.4847 36.9205V34.3636ZM28.829 35.3633C28.8124 35.2082 28.7426 35.0875 28.6195 35.0011C28.4976 34.9147 28.339 34.8714 28.1436 34.8714C28.0063 34.8714 27.8886 34.8922 27.7903 34.9336C27.6921 34.975 27.6169 35.0312 27.5648 35.1023C27.5127 35.1733 27.4861 35.2544 27.4849 35.3455C27.4849 35.4213 27.5021 35.487 27.5364 35.5426C27.5719 35.5982 27.6199 35.6456 27.6802 35.6847C27.7406 35.7225 27.8075 35.7545 27.8809 35.7805C27.9542 35.8066 28.0282 35.8285 28.1028 35.8462L28.4437 35.9315C28.581 35.9634 28.713 36.0066 28.8397 36.0611C28.9675 36.1155 29.0817 36.1842 29.1824 36.267C29.2842 36.3499 29.3646 36.4499 29.4238 36.5671C29.483 36.6843 29.5126 36.8216 29.5126 36.979C29.5126 37.1921 29.4582 37.3797 29.3493 37.5419C29.2404 37.7029 29.0829 37.829 28.877 37.9201C28.6722 38.0101 28.4242 38.055 28.133 38.055C27.8501 38.055 27.6045 38.0112 27.3961 37.9237C27.189 37.8361 27.0268 37.7082 26.9096 37.5401C26.7936 37.372 26.7309 37.1673 26.7214 36.9258H27.3695C27.379 37.0524 27.418 37.1578 27.4867 37.2418C27.5553 37.3259 27.6447 37.3886 27.7548 37.43C27.8661 37.4715 27.9904 37.4922 28.1277 37.4922C28.2709 37.4922 28.3964 37.4709 28.5041 37.4283C28.613 37.3845 28.6982 37.3241 28.7598 37.2472C28.8213 37.169 28.8527 37.0779 28.8539 36.9737C28.8527 36.879 28.8249 36.8009 28.7704 36.7393C28.716 36.6766 28.6396 36.6245 28.5414 36.5831C28.4443 36.5405 28.3307 36.5026 28.2005 36.4695L27.7868 36.3629C27.4873 36.286 27.2505 36.1694 27.0765 36.0131C26.9037 35.8557 26.8173 35.6468 26.8173 35.3864C26.8173 35.1721 26.8753 34.9845 26.9913 34.8235C27.1085 34.6625 27.2677 34.5376 27.4689 34.4489C27.6702 34.3589 27.898 34.3139 28.1525 34.3139C28.4106 34.3139 28.6367 34.3589 28.8308 34.4489C29.0261 34.5376 29.1794 34.6613 29.2907 34.82C29.4019 34.9774 29.4593 35.1585 29.4629 35.3633H28.829ZM31.2611 38.0533C30.9948 38.0533 30.7639 37.9947 30.5686 37.8775C30.3733 37.7603 30.2218 37.5964 30.1141 37.3857C30.0075 37.175 29.9543 36.9287 29.9543 36.647C29.9543 36.3653 30.0075 36.1185 30.1141 35.9066C30.2218 35.6947 30.3733 35.5302 30.5686 35.413C30.7639 35.2958 30.9948 35.2372 31.2611 35.2372C31.5274 35.2372 31.7583 35.2958 31.9536 35.413C32.1489 35.5302 32.2998 35.6947 32.4063 35.9066C32.5141 36.1185 32.5679 36.3653 32.5679 36.647C32.5679 36.9287 32.5141 37.175 32.4063 37.3857C32.2998 37.5964 32.1489 37.7603 31.9536 37.8775C31.7583 37.9947 31.5274 38.0533 31.2611 38.0533ZM31.2646 37.5384C31.4091 37.5384 31.5298 37.4987 31.6269 37.4194C31.7239 37.3389 31.7961 37.2312 31.8435 37.0962C31.892 36.9613 31.9163 36.811 31.9163 36.6452C31.9163 36.4783 31.892 36.3274 31.8435 36.1925C31.7961 36.0563 31.7239 35.948 31.6269 35.8675C31.5298 35.7871 31.4091 35.7468 31.2646 35.7468C31.1167 35.7468 30.9936 35.7871 30.8953 35.8675C30.7983 35.948 30.7255 36.0563 30.6769 36.1925C30.6296 36.3274 30.6059 36.4783 30.6059 36.6452C30.6059 36.811 30.6296 36.9613 30.6769 37.0962C30.7255 37.2312 30.7983 37.3389 30.8953 37.4194C30.9936 37.4987 31.1167 37.5384 31.2646 37.5384ZM33.1135 39.0227V35.2727H33.7456V35.7237H33.7828C33.816 35.6574 33.8627 35.587 33.9231 35.5124C33.9835 35.4367 34.0652 35.3722 34.1681 35.3189C34.2711 35.2644 34.4025 35.2372 34.5623 35.2372C34.773 35.2372 34.963 35.2911 35.1323 35.3988C35.3027 35.5053 35.4377 35.6634 35.5371 35.8729C35.6377 36.0812 35.688 36.3369 35.688 36.6399C35.688 36.9394 35.6389 37.1939 35.5407 37.4034C35.4424 37.6129 35.3087 37.7727 35.1394 37.8828C34.9701 37.9929 34.7783 38.0479 34.5641 38.0479C34.4078 38.0479 34.2782 38.0219 34.1752 37.9698C34.0723 37.9177 33.9894 37.855 33.9267 37.7816C33.8651 37.707 33.8172 37.6366 33.7828 37.5703H33.7562V39.0227H33.1135ZM33.7438 36.6364C33.7438 36.8127 33.7686 36.9672 33.8184 37.0998C33.8693 37.2324 33.9421 37.3359 34.0368 37.4105C34.1326 37.4839 34.2486 37.5206 34.3848 37.5206C34.5268 37.5206 34.6458 37.4827 34.7417 37.407C34.8375 37.33 34.9097 37.2253 34.9583 37.0927C35.008 36.9589 35.0328 36.8068 35.0328 36.6364C35.0328 36.4671 35.0086 36.3168 34.96 36.1854C34.9115 36.054 34.8393 35.951 34.7434 35.8764C34.6475 35.8018 34.528 35.7646 34.3848 35.7646C34.2475 35.7646 34.1309 35.8007 34.035 35.8729C33.9391 35.9451 33.8663 36.0463 33.8166 36.1765C33.7681 36.3067 33.7438 36.46 33.7438 36.6364ZM36.6757 34.3636L37.4765 35.6953H37.5049L38.3092 34.3636H39.0603L37.9399 36.1818L39.078 38H38.3145L37.5049 36.6772H37.4765L36.6668 38H35.9069L37.0557 36.1818L35.9211 34.3636H36.6757ZM40.6705 34.9545L39.733 38.4375H39.2827L40.2202 34.9545H40.6705ZM43.0511 37.0497L41.108 37.9474V37.4432L42.4886 36.8509L42.473 36.8778V36.8125L42.4886 36.8395L41.108 36.2472V35.7429L43.0511 36.6406V37.0497Z" fill="currentColor" id="1720382845848-4060874_<JSopX></path>" stroke="none"></path><g id="1720382845848-4060874_wrench-adjustable-circle-fill" stroke="none" fill="none"><g id="1720382845848-4060874_Subtract_2" stroke="none" fill="none"><path d="M30.7046 24.1387C30.7638 24.0498 30.76 23.9331 30.6952 23.8483C30.6304 23.7634 30.5188 23.7291 30.4175 23.7628L28.9175 24.2628L29.0756 24.7372L29.8844 24.4676L29.2885 25.3613C29.2293 25.4502 29.233 25.5669 29.2979 25.6517C29.3627 25.7366 29.4743 25.7709 29.5756 25.7372L30.3844 25.4676L29.7885 26.3613C29.7293 26.4502 29.733 26.5669 29.7979 26.6517C29.8627 26.7366 29.9743 26.7709 30.0756 26.7372L31.5756 26.2372L31.4175 25.7628L30.6087 26.0324L31.2046 25.1387C31.2638 25.0498 31.26 24.9331 31.1952 24.8483C31.1304 24.7634 31.0188 24.7291 30.9175 24.7628L30.1087 25.0324L30.7046 24.1387Z" fill="currentColor" stroke="none"></path><path d="M32 32C36.4183 32 40 28.4183 40 24C40 19.5817 36.4183 16 32 16C27.5817 16 24 19.5817 24 24C24 28.4183 27.5817 32 32 32ZM25.798 27.2488L27.7862 25.5919C27.599 25.097 27.4965 24.5605 27.4965 24C27.4965 21.5147 29.5113 19.5 31.9965 19.5C33.3145 19.5 34.5001 20.0666 35.3231 20.9694L31.4965 22.5L32.4965 25L33.8298 28.1109C33.2698 28.361 32.6494 28.5 31.9965 28.5C31.4361 28.5 30.8995 28.3975 30.4046 28.2103L28.7468 30.1997C27.4896 29.5387 26.4581 28.5065 25.798 27.2488ZM36.4965 24C36.4965 25.4284 35.8311 26.7013 34.7932 27.5256L33.4965 24.5L36.4556 23.3904C36.4826 23.5897 36.4965 23.7932 36.4965 24Z" fill="currentColor" stroke="none"></path></g></g></g></g></symbol><symbol id="jsopx-icon-jsopx-header-page-logo-black-white" viewBox="0 0 512 408"><title>jsopx header page logo black white</title><g class="nc-icon-wrapper"><path d="M106.342 0c-29.214 0-50.827 25.58-49.86 53.32.927 26.647-.278 61.165-8.966 89.31C38.802 170.862 24.07 188.707 0 191v26c24.069 2.293 38.802 20.138 47.516 48.37 8.688 28.145 9.893 62.663 8.965 89.311C55.515 382.42 77.128 408 106.342 408h299.353c29.214 0 50.827-25.58 49.861-53.319-.928-26.648.277-61.166 8.964-89.311 8.715-28.232 23.411-46.077 47.48-48.37v-26c-24.069-2.293-38.765-20.138-47.48-48.37-8.687-28.145-9.892-62.663-8.964-89.31C456.522 25.58 434.909 0 405.695 0H106.342zm236.559 251.102c0 38.197-28.501 61.355-75.798 61.355h-87.202a2 2 0 01-2-2v-213a2 2 0 012-2h86.74c39.439 0 65.322 21.354 65.322 54.138 0 23.008-17.409 43.61-39.594 47.219v1.203c30.196 3.309 50.532 24.212 50.532 53.085zm-84.58-128.125h-45.91v64.814h38.669c29.888 0 46.373-12.03 46.373-33.535 0-20.151-14.174-31.279-39.132-31.279zm-45.91 90.53v71.431h47.605c31.12 0 47.605-12.482 47.605-35.941 0-23.46-16.947-35.49-49.608-35.49h-45.602z" stroke="none"></path></g></symbol><symbol id="jsopx-icon-jsopx-header-page-logo-color" viewBox="0 0 512 408"><title>jsopx header page logo color</title><g class="nc-icon-wrapper" stroke="none"><defs><linearGradient id="1720382845816-8160393_bs-logo-a" x1="76.079" x2="523.48" y1="10.798" y2="365.945" gradientUnits="userSpaceOnUse"><stop stop-color="#9013fe"></stop><stop offset="1" stop-color="#6610f2"></stop></linearGradient><linearGradient id="1720382845816-8160393_bs-logo-b" x1="193.508" x2="293.514" y1="109.74" y2="278.872" gradientUnits="userSpaceOnUse"><stop stop-color="#fff"></stop><stop offset="1" stop-color="#f1e5fc"></stop></linearGradient><filter xmlns="http://www.w3.org/2000/svg" id="1720382845816-8160393_bs-logo-c" width="197" height="249" x="161.901" y="83.457" color-interpolation-filters="sRGB" filterUnits="userSpaceOnUse"><feFlood flood-opacity="0" result="BackgroundImageFix"></feFlood><feColorMatrix in="SourceAlpha" values="0 0 0 0 0 0 0 0 0 0 0 0 0 0 0 0 0 0 127 0"></feColorMatrix><feOffset dy="4"></feOffset><feGaussianBlur stdDeviation="8"></feGaussianBlur><feColorMatrix values="0 0 0 0 0 0 0 0 0 0 0 0 0 0 0 0 0 0 0.15 0"></feColorMatrix><feBlend in2="BackgroundImageFix" result="effect1_dropShadow"></feBlend><feBlend in="SourceGraphic" in2="effect1_dropShadow" result="shape"></feBlend></filter></defs><path fill="url(#1720382845816-8160393_bs-logo-a)" d="M56.481 53.32C55.515 25.58 77.128 0 106.342 0h299.353c29.214 0 50.827 25.58 49.861 53.32-.928 26.647.277 61.165 8.964 89.31 8.715 28.232 23.411 46.077 47.48 48.37v26c-24.069 2.293-38.765 20.138-47.48 48.37-8.687 28.145-9.892 62.663-8.964 89.311.966 27.739-20.647 53.319-49.861 53.319H106.342c-29.214 0-50.827-25.58-49.86-53.319.927-26.648-.278-61.166-8.966-89.311C38.802 237.138 24.07 219.293 0 217v-26c24.069-2.293 38.802-20.138 47.516-48.37 8.688-28.145 9.893-62.663 8.965-89.31z"></path><path fill="url(#1720382845816-8160393_bs-logo-b)" filter="url(#1720382845816-8160393_bs-logo-c)" stroke="#fff" d="M267.103 312.457c47.297 0 75.798-23.158 75.798-61.355 0-28.873-20.336-49.776-50.532-53.085v-1.203c22.185-3.609 39.594-24.211 39.594-47.219 0-32.783-25.882-54.138-65.322-54.138h-88.74v217h89.202zm-54.692-189.48h45.911c24.958 0 39.131 11.128 39.131 31.279 0 21.505-16.484 33.535-46.372 33.535h-38.67v-64.814zm0 161.961v-71.431h45.602c32.661 0 49.608 12.03 49.608 35.49 0 23.459-16.484 35.941-47.605 35.941h-47.605z"></path></g></symbol><symbol id="jsopx-icon-jsopx-logo-living-color" viewBox="0 0 64 64"><title>jsopx logo living color</title><g fill="none" class="nc-icon-wrapper" stroke="none"><g id="1720382506883-7920651_Logo for Release Living Color" filter="url(#1720382506883-7920651_filter0_dd_3808_2920)"><rect id="1720382506883-7920651_Forced Background" width="64" height="64" rx="5" fill="url(#1720382506883-7920651_paint0_linear_3808_2920)"></rect><rect id="1720382506883-7920651_open x cover" x="17" y="13" width="30" height="38" rx="4" fill="#698EC5"></rect><g id="1720382506883-7920651_Official Logo"><path id="1720382506883-7920651_Subtract" fill-rule="evenodd" clip-rule="evenodd" d="M14 14.7556C14 12.5808 15.5553 10.7172 17.695 10.3281L41.695 5.96451C44.4573 5.46227 47 7.58435 47 10.3919V11.8026C48.7934 12.84 50 14.7791 50 17V46H47V17C47 15.3431 45.6569 14 44 14H20C18.3431 14 17 15.3431 17 17V46H14V14.7556ZM40 50V53H36.7477L37.1691 50H40ZM28.9607 50H26V53H28.5394L28.9607 50Z" fill="#fff"></path></g><rect id="1720382506883-7920651_display cover" x="12" y="46" width="14" height="8" rx="1" fill="#698EC5"></rect><g id="1720382506883-7920651_display"><path id="1720382506883-7920651_Union" d="M11 47C11 47 11 45 13 45H25C25 45 27 45 27 47V53C27 53 27 55 25 55H21C21 55.6667 21.0833 56.1667 21.25 56.5H22C22.2761 56.5 22.5 56.7239 22.5 57C22.5 57.2761 22.2761 57.5 22 57.5H16C15.7239 57.5 15.5 57.2761 15.5 57C15.5 56.7239 15.7239 56.5 16 56.5H16.75C16.9167 56.1667 17 55.6667 17 55H13C13 55 11 55 11 53V47ZM12.3985 46.1446C12.2929 46.2149 12.2101 46.3158 12.1444 46.4472C12.0768 46.5825 12.038 46.7299 12.0176 46.8519C12.0079 46.9105 12.0034 46.9572 12.0014 46.9853C12.0005 46.997 12.0002 47.005 12 47.009V53C12 53.325 12.0784 53.5023 12.1446 53.6016C12.2149 53.7071 12.3158 53.7899 12.4472 53.8556C12.5825 53.9232 12.7299 53.962 12.8519 53.9824C12.9105 53.9921 12.9572 53.9966 12.9853 53.9986C12.997 53.9995 13.005 53.9998 13.009 54H25C25.325 54 25.5023 53.9216 25.6016 53.8554C25.7071 53.7851 25.7899 53.6842 25.8556 53.5528C25.9232 53.4175 25.962 53.2701 25.9824 53.1481C25.9921 53.0895 25.9966 53.0428 25.9986 53.0147C25.9995 53.003 25.9998 52.995 26 52.991V47C26 46.675 25.9216 46.4977 25.8554 46.3985C25.7851 46.2929 25.6842 46.2101 25.5528 46.1444C25.4175 46.0768 25.2701 46.038 25.1481 46.0176C25.0895 46.0079 25.0428 46.0034 25.0147 46.0014C25.003 46.0005 24.995 46.0002 24.991 46H13C12.675 46 12.4977 46.0784 12.3985 46.1446Z" fill="#fff"></path></g><rect id="1720382506883-7920651_iphone cover" x="30" y="42" width="8.207" height="14.981" rx="1" transform="rotate(8.418 30 42)" fill="#698EC5"></rect><g id="1720382506883-7920651_phone"><g id="1720382506883-7920651_Vector"><path d="M36.8752 43.4439C37.4229 43.5149 37.8093 44.0165 37.7383 44.5642L36.1953 56.4646C36.1242 57.0123 35.6227 57.3987 35.075 57.3277L29.1248 56.5561C28.5771 56.4851 28.1907 55.9835 28.2617 55.4358L29.8047 43.5355C29.8758 42.9878 30.3773 42.6013 30.925 42.6724L36.8752 43.4439ZM31.0536 41.6807C29.9582 41.5386 28.9551 42.3115 28.813 43.4069L27.27 55.3072C27.1279 56.4026 27.9008 57.4058 28.9962 57.5478L34.9464 58.3194C36.0418 58.4614 37.0449 57.6885 37.1869 56.5931L38.73 44.6928C38.8721 43.5974 38.0992 42.5942 37.0038 42.4522L31.0536 41.6807Z" fill="#fff"></path><path d="M32.2285 55.9502C32.7762 56.0212 33.2777 55.6348 33.3487 55.0871C33.4198 54.5394 33.0333 54.0378 32.4856 53.9668C31.9379 53.8958 31.4364 54.2822 31.3654 54.8299C31.2943 55.3776 31.6808 55.8792 32.2285 55.9502Z" fill="#fff"></path></g></g><path id="1720382506883-7920651_laptop covers" fill="#698EC5" d="M40 46H52V54H40z"></path><g id="1720382506883-7920651_Laptop"><g id="1720382506883-7920651_laptop"><g id="1720382506883-7920651_Vector_2"><path d="M51.5 46C51.7761 46 52 46.2239 52 46.5V54H40V46.5C40 46.2239 40.2239 46 40.5 46H51.5ZM40.5 45C39.6716 45 39 45.6716 39 46.5V55H53V46.5C53 45.6716 52.3284 45 51.5 45H40.5Z" fill="#fff"></path><path d="M38 55.5H54C54 56.3284 53.3284 57 52.5 57H39.5C38.6716 57 38 56.3284 38 55.5Z" fill="#fff"></path></g></g></g><path d="M21.3736 37.0497V36.6406L23.3168 35.7429V36.2472L21.9361 36.8395L21.9517 36.8125V36.8778L21.9361 36.8509L23.3168 37.4432V37.9474L21.3736 37.0497ZM25.4847 34.3636H26.1381V36.9205C26.137 37.1548 26.0872 37.3567 25.989 37.5259C25.8907 37.694 25.7534 37.8236 25.5771 37.9148C25.4019 38.0047 25.1977 38.0497 24.9645 38.0497C24.7514 38.0497 24.5597 38.0118 24.3892 37.9361C24.2199 37.8591 24.0856 37.7455 23.9862 37.5952C23.8867 37.4448 23.837 37.2578 23.837 37.0341H24.4922C24.4934 37.1323 24.5147 37.217 24.5561 37.288C24.5987 37.359 24.6573 37.4135 24.7319 37.4513C24.8065 37.4892 24.8923 37.5082 24.9893 37.5082C25.0947 37.5082 25.1841 37.4863 25.2575 37.4425C25.3308 37.3975 25.3865 37.3312 25.4244 37.2436C25.4634 37.156 25.4835 37.0483 25.4847 36.9205V34.3636ZM28.829 35.3633C28.8124 35.2082 28.7426 35.0875 28.6195 35.0011C28.4976 34.9147 28.339 34.8714 28.1436 34.8714C28.0063 34.8714 27.8886 34.8922 27.7903 34.9336C27.6921 34.975 27.6169 35.0312 27.5648 35.1023C27.5127 35.1733 27.4861 35.2544 27.4849 35.3455C27.4849 35.4213 27.5021 35.487 27.5364 35.5426C27.5719 35.5982 27.6199 35.6456 27.6802 35.6847C27.7406 35.7225 27.8075 35.7545 27.8809 35.7805C27.9542 35.8066 28.0282 35.8285 28.1028 35.8462L28.4437 35.9315C28.581 35.9634 28.713 36.0066 28.8397 36.0611C28.9675 36.1155 29.0817 36.1842 29.1824 36.267C29.2842 36.3499 29.3646 36.4499 29.4238 36.5671C29.483 36.6843 29.5126 36.8216 29.5126 36.979C29.5126 37.1921 29.4582 37.3797 29.3493 37.5419C29.2404 37.7029 29.0829 37.829 28.877 37.9201C28.6722 38.0101 28.4242 38.055 28.133 38.055C27.8501 38.055 27.6045 38.0112 27.3961 37.9237C27.189 37.8361 27.0268 37.7082 26.9096 37.5401C26.7936 37.372 26.7309 37.1673 26.7214 36.9258H27.3695C27.379 37.0524 27.418 37.1578 27.4867 37.2418C27.5553 37.3259 27.6447 37.3886 27.7548 37.43C27.8661 37.4715 27.9904 37.4922 28.1277 37.4922C28.2709 37.4922 28.3964 37.4709 28.5041 37.4283C28.613 37.3845 28.6982 37.3241 28.7598 37.2472C28.8213 37.169 28.8527 37.0779 28.8539 36.9737C28.8527 36.879 28.8249 36.8009 28.7704 36.7393C28.716 36.6766 28.6396 36.6245 28.5414 36.5831C28.4443 36.5405 28.3307 36.5026 28.2005 36.4695L27.7868 36.3629C27.4873 36.286 27.2505 36.1694 27.0765 36.0131C26.9037 35.8557 26.8173 35.6468 26.8173 35.3864C26.8173 35.1721 26.8753 34.9845 26.9913 34.8235C27.1085 34.6625 27.2677 34.5376 27.4689 34.4489C27.6702 34.3589 27.898 34.3139 28.1525 34.3139C28.4106 34.3139 28.6367 34.3589 28.8308 34.4489C29.0261 34.5376 29.1794 34.6613 29.2907 34.82C29.4019 34.9774 29.4593 35.1585 29.4629 35.3633H28.829ZM31.2611 38.0533C30.9948 38.0533 30.7639 37.9947 30.5686 37.8775C30.3733 37.7603 30.2218 37.5964 30.1141 37.3857C30.0075 37.175 29.9543 36.9287 29.9543 36.647C29.9543 36.3653 30.0075 36.1185 30.1141 35.9066C30.2218 35.6947 30.3733 35.5302 30.5686 35.413C30.7639 35.2958 30.9948 35.2372 31.2611 35.2372C31.5274 35.2372 31.7583 35.2958 31.9536 35.413C32.1489 35.5302 32.2998 35.6947 32.4063 35.9066C32.5141 36.1185 32.5679 36.3653 32.5679 36.647C32.5679 36.9287 32.5141 37.175 32.4063 37.3857C32.2998 37.5964 32.1489 37.7603 31.9536 37.8775C31.7583 37.9947 31.5274 38.0533 31.2611 38.0533ZM31.2646 37.5384C31.4091 37.5384 31.5298 37.4987 31.6269 37.4194C31.7239 37.3389 31.7961 37.2312 31.8435 37.0962C31.892 36.9613 31.9163 36.811 31.9163 36.6452C31.9163 36.4783 31.892 36.3274 31.8435 36.1925C31.7961 36.0563 31.7239 35.948 31.6269 35.8675C31.5298 35.7871 31.4091 35.7468 31.2646 35.7468C31.1167 35.7468 30.9936 35.7871 30.8953 35.8675C30.7983 35.948 30.7255 36.0563 30.6769 36.1925C30.6296 36.3274 30.6059 36.4783 30.6059 36.6452C30.6059 36.811 30.6296 36.9613 30.6769 37.0962C30.7255 37.2312 30.7983 37.3389 30.8953 37.4194C30.9936 37.4987 31.1167 37.5384 31.2646 37.5384ZM33.1135 39.0227V35.2727H33.7456V35.7237H33.7828C33.816 35.6574 33.8627 35.587 33.9231 35.5124C33.9835 35.4367 34.0652 35.3722 34.1681 35.3189C34.2711 35.2644 34.4025 35.2372 34.5623 35.2372C34.773 35.2372 34.963 35.2911 35.1323 35.3988C35.3027 35.5053 35.4377 35.6634 35.5371 35.8729C35.6377 36.0812 35.688 36.3369 35.688 36.6399C35.688 36.9394 35.6389 37.1939 35.5407 37.4034C35.4424 37.6129 35.3087 37.7727 35.1394 37.8828C34.9701 37.9929 34.7783 38.0479 34.5641 38.0479C34.4078 38.0479 34.2782 38.0219 34.1752 37.9698C34.0723 37.9177 33.9894 37.855 33.9267 37.7816C33.8651 37.707 33.8172 37.6366 33.7828 37.5703H33.7562V39.0227H33.1135ZM33.7438 36.6364C33.7438 36.8127 33.7686 36.9672 33.8184 37.0998C33.8693 37.2324 33.9421 37.3359 34.0368 37.4105C34.1326 37.4839 34.2486 37.5206 34.3848 37.5206C34.5268 37.5206 34.6458 37.4827 34.7417 37.407C34.8375 37.33 34.9097 37.2253 34.9583 37.0927C35.008 36.9589 35.0328 36.8068 35.0328 36.6364C35.0328 36.4671 35.0086 36.3168 34.96 36.1854C34.9115 36.054 34.8393 35.951 34.7434 35.8764C34.6475 35.8018 34.528 35.7646 34.3848 35.7646C34.2475 35.7646 34.1309 35.8007 34.035 35.8729C33.9391 35.9451 33.8663 36.0463 33.8166 36.1765C33.7681 36.3067 33.7438 36.46 33.7438 36.6364ZM36.6757 34.3636L37.4765 35.6953H37.5049L38.3092 34.3636H39.0603L37.9399 36.1818L39.078 38H38.3145L37.5049 36.6772H37.4765L36.6668 38H35.9069L37.0557 36.1818L35.9211 34.3636H36.6757ZM40.6705 34.9545L39.733 38.4375H39.2827L40.2202 34.9545H40.6705ZM43.0511 37.0497L41.108 37.9474V37.4432L42.4886 36.8509L42.473 36.8778V36.8125L42.4886 36.8395L41.108 36.2472V35.7429L43.0511 36.6406V37.0497Z" fill="#fff" id="1720382506883-7920651_<JSopX></path>"></path><g id="1720382506883-7920651_wrench-adjustable-circle-fill"><g id="1720382506883-7920651_Subtract_2"><path d="M30.7046 24.1387C30.7638 24.0498 30.76 23.9331 30.6952 23.8483C30.6304 23.7634 30.5188 23.7291 30.4175 23.7628L28.9175 24.2628L29.0756 24.7372L29.8844 24.4676L29.2885 25.3613C29.2293 25.4502 29.233 25.5669 29.2979 25.6517C29.3627 25.7366 29.4743 25.7709 29.5756 25.7372L30.3844 25.4676L29.7885 26.3613C29.7293 26.4502 29.733 26.5669 29.7979 26.6517C29.8627 26.7366 29.9743 26.7709 30.0756 26.7372L31.5756 26.2372L31.4175 25.7628L30.6087 26.0324L31.2046 25.1387C31.2638 25.0498 31.26 24.9331 31.1952 24.8483C31.1304 24.7634 31.0188 24.7291 30.9175 24.7628L30.1087 25.0324L30.7046 24.1387Z" fill="#fff"></path><path d="M32 32C36.4183 32 40 28.4183 40 24C40 19.5817 36.4183 16 32 16C27.5817 16 24 19.5817 24 24C24 28.4183 27.5817 32 32 32ZM25.798 27.2488L27.7862 25.5919C27.599 25.097 27.4965 24.5605 27.4965 24C27.4965 21.5147 29.5113 19.5 31.9965 19.5C33.3145 19.5 34.5001 20.0666 35.3231 20.9694L31.4965 22.5L32.4965 25L33.8298 28.1109C33.2698 28.361 32.6494 28.5 31.9965 28.5C31.4361 28.5 30.8995 28.3975 30.4046 28.2103L28.7468 30.1997C27.4896 29.5387 26.4581 28.5065 25.798 27.2488ZM36.4965 24C36.4965 25.4284 35.8311 26.7013 34.7932 27.5256L33.4965 24.5L36.4556 23.3904C36.4826 23.5897 36.4965 23.7932 36.4965 24Z" fill="#fff"></path></g></g></g><defs><filter id="1720382506883-7920651_filter0_dd_3808_2920" x="-4" y="-3" width="72" height="72" filterUnits="userSpaceOnUse" color-interpolation-filters="sRGB"><feFlood flood-opacity="0" result="BackgroundImageFix"></feFlood><feColorMatrix in="SourceAlpha" type="matrix" values="0 0 0 0 0 0 0 0 0 0 0 0 0 0 0 0 0 0 127 0" result="hardAlpha"></feColorMatrix><feMorphology radius="1" operator="dilate" in="SourceAlpha" result="effect1_dropShadow_3808_2920"></feMorphology><feOffset dy="1"></feOffset><feGaussianBlur stdDeviation="1.5"></feGaussianBlur><feColorMatrix type="matrix" values="0 0 0 0 0 0 0 0 0 0 0 0 0 0 0 0 0 0 0.15 0"></feColorMatrix><feBlend mode="normal" in2="BackgroundImageFix" result="effect1_dropShadow_3808_2920"></feBlend><feColorMatrix in="SourceAlpha" type="matrix" values="0 0 0 0 0 0 0 0 0 0 0 0 0 0 0 0 0 0 127 0" result="hardAlpha"></feColorMatrix><feOffset dy="1"></feOffset><feGaussianBlur stdDeviation="1"></feGaussianBlur><feColorMatrix type="matrix" values="0 0 0 0 0 0 0 0 0 0 0 0 0 0 0 0 0 0 0.3 0"></feColorMatrix><feBlend mode="normal" in2="effect1_dropShadow_3808_2920" result="effect2_dropShadow_3808_2920"></feBlend><feBlend mode="normal" in="SourceGraphic" in2="effect2_dropShadow_3808_2920" result="shape"></feBlend></filter><linearGradient id="1720382506883-7920651_paint0_linear_3808_2920" x1="32" y1="0" x2="32" y2="64" gradientUnits="userSpaceOnUse"><stop stop-color="#698EC5"></stop><stop offset="1" stop-color="#13171C"></stop></linearGradient></defs></g></symbol></svg>