<svg xmlns="http://www.w3.org/2000/svg" width="117.955" height="94.01" viewBox="0 0 2133 1700">
  <defs>
    <style>
      .cls-1 {
        fill: #3498db;
      }

      .cls-1, .cls-3 {
        stroke: #afd5ee;
        stroke-linejoin: round;
        stroke-width: 13px;
      }

      .cls-1, .cls-2, .cls-3 {
        fill-rule: evenodd;
      }

      .cls-2 {
        fill: #e1e8f8;
        stroke: #236c9c;
        stroke-width: 1px;
        opacity: 0.33;
      }

      .cls-3 {
        fill: #fff;
      }
    </style>
  </defs>
  <path class="cls-1" d="M1067,30.486c505.62,0,915.51,368.252,915.51,822.514S1572.62,1675.51,1067,1675.51,151.494,1307.26,151.494,853,561.38,30.486,1067,30.486Z"/>
  <path id="Tools_1_copy" data-name="Tools 1 copy" class="cls-2" d="M782.2,407.623l-32.4,15.718a15.374,15.374,0,0,1-13.069-.052c-0.117,9.247-5.052,19.071-14.013,27.773,49.059,52.3,219.139,233.683,219.345,233.926,6.852,8.057,4.12,18.645-6.1,23.6l-42.757,20.741c-10.227,4.961-24.12,2.438-31.213-5.9,0,0-149.331-194.438-190.928-248.62-11.726,1.589-23.068.944-32.676-1.815L650.4,487.113c3.614,4.25,2.034,9.881-3.537,12.583l-35.946,17.437c-5.59,2.712-13.046,1.464-16.66-2.786L543.74,454.94c-3.614-4.251-2.015-9.891,3.576-12.6L583.262,424.9c5.57-2.7,13.007-1.446,16.621,2.8l12.094,14.223c1.253-14.471,13.989-30.031,35.122-40.282,21.56-10.458,46.1-12.625,64.143-7.08-2.322-4.038-.545-8.85,4.487-11.291l32.4-15.717c5.591-2.712,13.028-1.456,16.641,2.794l20.986,24.679C789.384,399.3,787.79,404.911,782.2,407.623Zm-72.322,53.349a91.986,91.986,0,0,1-8.371,4.659,100.349,100.349,0,0,1-12.688,5.088c44.559,58.019,188.817,245.858,188.614,245.619a4.9,4.9,0,0,0,5.586,1.009l42.757-20.741a2.642,2.642,0,0,0,1.088-4.246C927.066,692.6,761.879,516.442,709.878,460.972ZM727.19,790.505l-2.586,3.907c-0.622.936-15.518,23.115-39.869,34.928-24.41,11.841-56.425,12.335-57.776,12.349l-5.657.067L467.249,628.249l-72.835-1.224-50.148-58.974,32.364-57.8,10.817-5.248,48.96,57.578,0.256-.124,31.025-15.049,0.216-.106-48.96-57.577,10.768-5.224,83.082,1.8,50.148,58.974-28.814,50.708ZM542.22,546.149l-39.261-46.171-0.139.067L448.3,498.973l-0.02.01,45.01,52.932L431.4,581.938,386.5,529.13l-0.244-.057L364.918,567.29l0.118-.057,39.042,45.913,0.039-.019,73.68,1.253,153.71,213.053c9.5-.713,28.678-3.11,43.039-10.076,14.3-6.937,25.688-19.51,30.872-25.952L513.034,597.287ZM668.578,809.456c-9.528,4.622-22.4,2.276-28.753-5.2-6.384-7.507-3.857-17.322,5.67-21.944,9.489-4.6,22.4-2.274,28.78,5.233C680.632,795.02,678.066,804.854,668.578,809.456Z"/>
  <path id="Tools_1_copy-2" data-name="Tools 1 copy" class="cls-2" d="M1663.46,732.786l-33.25-29.572c-4.21-3.745-7.07-8.843-7.62-13.005-8.45,1.444-20.25-1.807-33.39-9.252-18.6,57.609-83.13,257.338-83.23,257.584-3.28,8.173-14.47,7.243-24.96-2.081l-43.88-39.023c-10.5-9.334-16.37-23.576-12.97-32.036,0,0,88.54-181.3,113.22-231.8-8.32-11.394-14.39-22.782-17.53-32.8l-5.75,14.324c-1.73,4.312-7.76,3.69-13.48-1.394l-36.89-32.807c-5.74-5.1-8.98-12.727-7.25-17.038l24.18-60.256c1.73-4.311,7.78-3.672,13.52,1.43l36.89,32.807c5.72,5.084,8.94,12.691,7.21,17l-5.79,14.426c13.85-1.2,35.42,8.846,57.11,28.133,22.13,19.677,38.49,43.718,44.05,62.6,2.3-2.99,7.7-2.035,12.87,2.557l33.25,29.572c5.74,5.1,8.97,12.71,7.24,17.02L1676.96,734.2C1675.22,738.526,1669.2,737.888,1663.46,732.786Zm-90.77-62.924c-3.03-2.346-6.08-4.821-9.14-7.539-4.24-3.778-8.26-7.725-12.05-11.76-26.42,54.1-111.96,229.238-111.86,229-0.59,1.471.48,4.045,2.37,5.726l43.88,39.022c1.88,1.671,3.89,1.836,4.48.365C1490.28,924.913,1552.95,730.93,1572.69,669.862Zm-288.41,72.793-5.06-1.913c-1.21-.46-30.05-11.534-55.04-33.758-25.06-22.278-44.29-54.032-45.1-55.373L1175.7,646l103.05-189.209-41.64-72.638,24.01-59.817,71.36,22.437,11.1,9.872-23.44,58.4,0.27,0.234,31.84,28.314,0.22,0.2,23.44-58.4,11.05,9.827,47.12,82.926-24,59.817-62.85-20.1ZM1397.13,517.5l18.79-46.831-0.14-.126-31.02-54.4-0.02-.019-21.55,53.688-63.52-56.485,21.49-53.562-0.09-.252-47.14-14.77,0.12,0.108-18.69,46.569,0.04,0.036,42.1,73.484L1194.67,653.729c6.22,9.327,19.65,28,34.38,41.1,14.68,13.052,32.76,22.256,41.63,26.326L1333.67,497.1ZM1232.71,687.563c-9.78-8.7-15.2-21.888-12.16-29.471,3.06-7.614,13.43-6.757,23.21,1.938,9.74,8.66,15.2,21.889,12.15,29.5C1252.86,697.116,1242.45,696.223,1232.71,687.563Z"/>
  <path id="Shape_86_1" data-name="Shape 86 1" class="cls-3" d="M1616.96,805l-70.33,91.921s-68.21-134.828-83.13-165.463-25.57-30.646-42.62-45.966-44.76-76.6-44.76-76.6-104.44-220.624-112.96-202.234-29.84,98.042-29.84,98.042l-57.55,125.638s-68.2-110.313-85.25-150.143-27.71-107.253-40.5-131.758S977.547,109.418,951.973,127.8,789.989,520.022,760.151,556.793,674.9,752.9,674.9,752.9l-34.1-110.3C600.536,720.24,422.738,1045.67,306,1266.15H1361.01c-30.8-38.14-65.36-62.27-78.14-106.47-4.42-15.25-123.14-184.078-81.18-204.072,90.42-43.055,13.86-131.075,86.17-194,9.77-8.507-18.36-91.757-23.44-151.2-2.54-29.709,8.95-63.15,1.76-147.089-4.28-50.079,15.57,7.306,22.56,4.6,7.67,55.469,58.15,131.61,81.18,190.382,35.96,91.763.75,26.548,9.13,59.359,2.16,8.449,68,95.49,82.33,129.09,40.23,94.288-20.66-14.654-33.73,54.759-5.1,27.046-6.8-9.9-7.64,38.433-0.95,53.859-61.06,20.81-65.19,21.323-83.39,52.839-12.77,83.549,11.72,135.3,34.59,73.08-12.06,13.37,42.08,126.69,0.57,1.19,4.55,20.24,8.11,42.9h196.55c62.98-81.55-44.55-32.52-19.66-126.03,33.13-124.48,3.48-50.19-7.19-136.97-3.88-31.544-18.79-27.018-8.1-64.88,1.38-4.865-7.85-40.947-8.78-36.765,0.37-1.657,44.98-80.244,47.33-41.366,2.25,37.089,138.26,267.741,78.86,223.681-24.65-18.28-27.08-17.76-7.28,21.85,8.73,17.43,16.21,54.76,36.14,78.75,4.19,5.04,26.74,46.44,43.05,81.73H1836C1732.2,1066.34,1704.16,965.915,1616.96,805h0ZM638.685,703.1c-0.8,22.1,31.205,83.039,12.087,84.9-14.28,1.4-18.271,42.557-25.668,66.411-10.288,33.161,18.178,9.18-12.7,64.341-8.356,14.939-10.893,26.453-25.849,50.037-23.592,37.191-55.037,115.851-68.569,164.591-14.273,51.41-29.083,72.09-10.385-8.05,14.573-62.45,29.629-112.64,44.486-170.194,10.741-41.6-12.938-14.626,33.126-61.286,26.447-26.787-8.632-46.019,30.023-127.692,5.234-11.053,12.183-56.946,24.417-59.423l-0.97-3.637h0ZM944.53,198.27c20.034,102.154,99.64,288.412,146.52,384.563,32.89,67.47-34.52-26.31-26.98,87.809,4.69,70.958-15.55,44.574,26.12,129.481,9.37,19.084,37.65,118.386-21.31,94.468-11.85-4.807-118.213-26.167-110.163,8.926,37.543,163.643,7.127,68.359,7.127,160.393,0,29.73,42.626,57.44,42.626,199.17,0,1.13-109.441-144.37-132.693-205.04-15.841-41.33-137.973-236.2-80.991-236.2,96.416,0,17.386-82.954,96.459-73.277,26.88,3.283,70.168-51.207,44.575-112.588-6.006-14.415-18.892-215.623-14.735-224.474C947.014,356.274,932.073,212.166,944.53,198.27Z"/>
</svg>
