<svg width="64" height="64" viewBox="0 0 64 64" fill="none" xmlns="http://www.w3.org/2000/svg">
<g id="Logo for Release Living Color" filter="url(#filter0_dd_3808_2920)">
<rect id="Forced Background" width="64" height="64" rx="5" fill="url(#paint0_linear_3808_2920)"/>
<rect id="open x cover" x="17" y="13" width="30" height="38" rx="4" fill="#698EC5"/>
<g id="Official Logo">
<path id="Subtract" fill-rule="evenodd" clip-rule="evenodd" d="M14 14.7556C14 12.5808 15.5553 10.7172 17.695 10.3281L41.695 5.96451C44.4573 5.46227 47 7.58435 47 10.3919V11.8026C48.7934 12.84 50 14.7791 50 17V46H47V17C47 15.3431 45.6569 14 44 14H20C18.3431 14 17 15.3431 17 17V46H14V14.7556ZM40 50V53H36.7477L37.1691 50H40ZM28.9607 50H26V53H28.5394L28.9607 50Z" fill="white"/>
</g>
<rect id="display cover" x="12" y="46" width="14" height="8" rx="1" fill="#698EC5"/>
<g id="display">
<path id="Union" d="M11 47C11 47 11 45 13 45H25C25 45 27 45 27 47V53C27 53 27 55 25 55H21C21 55.6667 21.0833 56.1667 21.25 56.5H22C22.2761 56.5 22.5 56.7239 22.5 57C22.5 57.2761 22.2761 57.5 22 57.5H16C15.7239 57.5 15.5 57.2761 15.5 57C15.5 56.7239 15.7239 56.5 16 56.5H16.75C16.9167 56.1667 17 55.6667 17 55H13C13 55 11 55 11 53V47ZM12.3985 46.1446C12.2929 46.2149 12.2101 46.3158 12.1444 46.4472C12.0768 46.5825 12.038 46.7299 12.0176 46.8519C12.0079 46.9105 12.0034 46.9572 12.0014 46.9853C12.0005 46.997 12.0002 47.005 12 47.009V53C12 53.325 12.0784 53.5023 12.1446 53.6016C12.2149 53.7071 12.3158 53.7899 12.4472 53.8556C12.5825 53.9232 12.7299 53.962 12.8519 53.9824C12.9105 53.9921 12.9572 53.9966 12.9853 53.9986C12.997 53.9995 13.005 53.9998 13.009 54H25C25.325 54 25.5023 53.9216 25.6016 53.8554C25.7071 53.7851 25.7899 53.6842 25.8556 53.5528C25.9232 53.4175 25.962 53.2701 25.9824 53.1481C25.9921 53.0895 25.9966 53.0428 25.9986 53.0147C25.9995 53.003 25.9998 52.995 26 52.991V47C26 46.675 25.9216 46.4977 25.8554 46.3985C25.7851 46.2929 25.6842 46.2101 25.5528 46.1444C25.4175 46.0768 25.2701 46.038 25.1481 46.0176C25.0895 46.0079 25.0428 46.0034 25.0147 46.0014C25.003 46.0005 24.995 46.0002 24.991 46H13C12.675 46 12.4977 46.0784 12.3985 46.1446Z" fill="white"/>
</g>
<rect id="iphone cover" x="30" y="42" width="8.20656" height="14.9811" rx="1" transform="rotate(8.41765 30 42)" fill="#698EC5"/>
<g id="phone">
<g id="Vector">
<path d="M36.8752 43.4439C37.4229 43.5149 37.8093 44.0165 37.7383 44.5642L36.1953 56.4646C36.1242 57.0123 35.6227 57.3987 35.075 57.3277L29.1248 56.5561C28.5771 56.4851 28.1907 55.9835 28.2617 55.4358L29.8047 43.5355C29.8758 42.9878 30.3773 42.6013 30.925 42.6724L36.8752 43.4439ZM31.0536 41.6807C29.9582 41.5386 28.9551 42.3115 28.813 43.4069L27.27 55.3072C27.1279 56.4026 27.9008 57.4058 28.9962 57.5478L34.9464 58.3194C36.0418 58.4614 37.0449 57.6885 37.1869 56.5931L38.73 44.6928C38.8721 43.5974 38.0992 42.5942 37.0038 42.4522L31.0536 41.6807Z" fill="white"/>
<path d="M32.2285 55.9502C32.7762 56.0212 33.2777 55.6348 33.3487 55.0871C33.4198 54.5394 33.0333 54.0378 32.4856 53.9668C31.9379 53.8958 31.4364 54.2822 31.3654 54.8299C31.2943 55.3776 31.6808 55.8792 32.2285 55.9502Z" fill="white"/>
</g>
</g>
<rect id="laptop covers" x="40" y="46" width="12" height="8" fill="#698EC5"/>
<g id="Laptop">
<g id="laptop">
<g id="Vector_2">
<path d="M51.5 46C51.7761 46 52 46.2239 52 46.5V54H40V46.5C40 46.2239 40.2239 46 40.5 46H51.5ZM40.5 45C39.6716 45 39 45.6716 39 46.5V55H53V46.5C53 45.6716 52.3284 45 51.5 45H40.5Z" fill="white"/>
<path d="M38 55.5H54C54 56.3284 53.3284 57 52.5 57H39.5C38.6716 57 38 56.3284 38 55.5Z" fill="white"/>
</g>
</g>
</g>
<g id="&#60;JSopX/&#62;">
<path d="M21.3736 37.0497V36.6406L23.3168 35.7429V36.2472L21.9361 36.8395L21.9517 36.8125V36.8778L21.9361 36.8509L23.3168 37.4432V37.9474L21.3736 37.0497ZM25.4847 34.3636H26.1381V36.9205C26.137 37.1548 26.0872 37.3567 25.989 37.5259C25.8907 37.694 25.7534 37.8236 25.5771 37.9148C25.4019 38.0047 25.1977 38.0497 24.9645 38.0497C24.7514 38.0497 24.5597 38.0118 24.3892 37.9361C24.2199 37.8591 24.0856 37.7455 23.9862 37.5952C23.8867 37.4448 23.837 37.2578 23.837 37.0341H24.4922C24.4934 37.1323 24.5147 37.217 24.5561 37.288C24.5987 37.359 24.6573 37.4135 24.7319 37.4513C24.8065 37.4892 24.8923 37.5082 24.9893 37.5082C25.0947 37.5082 25.1841 37.4863 25.2575 37.4425C25.3308 37.3975 25.3865 37.3312 25.4244 37.2436C25.4634 37.156 25.4835 37.0483 25.4847 36.9205V34.3636ZM28.829 35.3633C28.8124 35.2082 28.7426 35.0875 28.6195 35.0011C28.4976 34.9147 28.339 34.8714 28.1436 34.8714C28.0063 34.8714 27.8886 34.8922 27.7903 34.9336C27.6921 34.975 27.6169 35.0312 27.5648 35.1023C27.5127 35.1733 27.4861 35.2544 27.4849 35.3455C27.4849 35.4213 27.5021 35.487 27.5364 35.5426C27.5719 35.5982 27.6199 35.6456 27.6802 35.6847C27.7406 35.7225 27.8075 35.7545 27.8809 35.7805C27.9542 35.8066 28.0282 35.8285 28.1028 35.8462L28.4437 35.9315C28.581 35.9634 28.713 36.0066 28.8397 36.0611C28.9675 36.1155 29.0817 36.1842 29.1824 36.267C29.2842 36.3499 29.3646 36.4499 29.4238 36.5671C29.483 36.6843 29.5126 36.8216 29.5126 36.979C29.5126 37.1921 29.4582 37.3797 29.3493 37.5419C29.2404 37.7029 29.0829 37.829 28.877 37.9201C28.6722 38.0101 28.4242 38.055 28.133 38.055C27.8501 38.055 27.6045 38.0112 27.3961 37.9237C27.189 37.8361 27.0268 37.7082 26.9096 37.5401C26.7936 37.372 26.7309 37.1673 26.7214 36.9258H27.3695C27.379 37.0524 27.418 37.1578 27.4867 37.2418C27.5553 37.3259 27.6447 37.3886 27.7548 37.43C27.8661 37.4715 27.9904 37.4922 28.1277 37.4922C28.2709 37.4922 28.3964 37.4709 28.5041 37.4283C28.613 37.3845 28.6982 37.3241 28.7598 37.2472C28.8213 37.169 28.8527 37.0779 28.8539 36.9737C28.8527 36.879 28.8249 36.8009 28.7704 36.7393C28.716 36.6766 28.6396 36.6245 28.5414 36.5831C28.4443 36.5405 28.3307 36.5026 28.2005 36.4695L27.7868 36.3629C27.4873 36.286 27.2505 36.1694 27.0765 36.0131C26.9037 35.8557 26.8173 35.6468 26.8173 35.3864C26.8173 35.1721 26.8753 34.9845 26.9913 34.8235C27.1085 34.6625 27.2677 34.5376 27.4689 34.4489C27.6702 34.3589 27.898 34.3139 28.1525 34.3139C28.4106 34.3139 28.6367 34.3589 28.8308 34.4489C29.0261 34.5376 29.1794 34.6613 29.2907 34.82C29.4019 34.9774 29.4593 35.1585 29.4629 35.3633H28.829ZM31.2611 38.0533C30.9948 38.0533 30.7639 37.9947 30.5686 37.8775C30.3733 37.7603 30.2218 37.5964 30.1141 37.3857C30.0075 37.175 29.9543 36.9287 29.9543 36.647C29.9543 36.3653 30.0075 36.1185 30.1141 35.9066C30.2218 35.6947 30.3733 35.5302 30.5686 35.413C30.7639 35.2958 30.9948 35.2372 31.2611 35.2372C31.5274 35.2372 31.7583 35.2958 31.9536 35.413C32.1489 35.5302 32.2998 35.6947 32.4063 35.9066C32.5141 36.1185 32.5679 36.3653 32.5679 36.647C32.5679 36.9287 32.5141 37.175 32.4063 37.3857C32.2998 37.5964 32.1489 37.7603 31.9536 37.8775C31.7583 37.9947 31.5274 38.0533 31.2611 38.0533ZM31.2646 37.5384C31.4091 37.5384 31.5298 37.4987 31.6269 37.4194C31.7239 37.3389 31.7961 37.2312 31.8435 37.0962C31.892 36.9613 31.9163 36.811 31.9163 36.6452C31.9163 36.4783 31.892 36.3274 31.8435 36.1925C31.7961 36.0563 31.7239 35.948 31.6269 35.8675C31.5298 35.7871 31.4091 35.7468 31.2646 35.7468C31.1167 35.7468 30.9936 35.7871 30.8953 35.8675C30.7983 35.948 30.7255 36.0563 30.6769 36.1925C30.6296 36.3274 30.6059 36.4783 30.6059 36.6452C30.6059 36.811 30.6296 36.9613 30.6769 37.0962C30.7255 37.2312 30.7983 37.3389 30.8953 37.4194C30.9936 37.4987 31.1167 37.5384 31.2646 37.5384ZM33.1135 39.0227V35.2727H33.7456V35.7237H33.7828C33.816 35.6574 33.8627 35.587 33.9231 35.5124C33.9835 35.4367 34.0652 35.3722 34.1681 35.3189C34.2711 35.2644 34.4025 35.2372 34.5623 35.2372C34.773 35.2372 34.963 35.2911 35.1323 35.3988C35.3027 35.5053 35.4377 35.6634 35.5371 35.8729C35.6377 36.0812 35.688 36.3369 35.688 36.6399C35.688 36.9394 35.6389 37.1939 35.5407 37.4034C35.4424 37.6129 35.3087 37.7727 35.1394 37.8828C34.9701 37.9929 34.7783 38.0479 34.5641 38.0479C34.4078 38.0479 34.2782 38.0219 34.1752 37.9698C34.0723 37.9177 33.9894 37.855 33.9267 37.7816C33.8651 37.707 33.8172 37.6366 33.7828 37.5703H33.7562V39.0227H33.1135ZM33.7438 36.6364C33.7438 36.8127 33.7686 36.9672 33.8184 37.0998C33.8693 37.2324 33.9421 37.3359 34.0368 37.4105C34.1326 37.4839 34.2486 37.5206 34.3848 37.5206C34.5268 37.5206 34.6458 37.4827 34.7417 37.407C34.8375 37.33 34.9097 37.2253 34.9583 37.0927C35.008 36.9589 35.0328 36.8068 35.0328 36.6364C35.0328 36.4671 35.0086 36.3168 34.96 36.1854C34.9115 36.054 34.8393 35.951 34.7434 35.8764C34.6475 35.8018 34.528 35.7646 34.3848 35.7646C34.2475 35.7646 34.1309 35.8007 34.035 35.8729C33.9391 35.9451 33.8663 36.0463 33.8166 36.1765C33.7681 36.3067 33.7438 36.46 33.7438 36.6364ZM36.6757 34.3636L37.4765 35.6953H37.5049L38.3092 34.3636H39.0603L37.9399 36.1818L39.078 38H38.3145L37.5049 36.6772H37.4765L36.6668 38H35.9069L37.0557 36.1818L35.9211 34.3636H36.6757ZM40.6705 34.9545L39.733 38.4375H39.2827L40.2202 34.9545H40.6705ZM43.0511 37.0497L41.108 37.9474V37.4432L42.4886 36.8509L42.473 36.8778V36.8125L42.4886 36.8395L41.108 36.2472V35.7429L43.0511 36.6406V37.0497Z" fill="white"/>
</g>
<g id="wrench-adjustable-circle-fill">
<g id="Subtract_2">
<path d="M30.7046 24.1387C30.7638 24.0498 30.76 23.9331 30.6952 23.8483C30.6304 23.7634 30.5188 23.7291 30.4175 23.7628L28.9175 24.2628L29.0756 24.7372L29.8844 24.4676L29.2885 25.3613C29.2293 25.4502 29.233 25.5669 29.2979 25.6517C29.3627 25.7366 29.4743 25.7709 29.5756 25.7372L30.3844 25.4676L29.7885 26.3613C29.7293 26.4502 29.733 26.5669 29.7979 26.6517C29.8627 26.7366 29.9743 26.7709 30.0756 26.7372L31.5756 26.2372L31.4175 25.7628L30.6087 26.0324L31.2046 25.1387C31.2638 25.0498 31.26 24.9331 31.1952 24.8483C31.1304 24.7634 31.0188 24.7291 30.9175 24.7628L30.1087 25.0324L30.7046 24.1387Z" fill="white"/>
<path d="M32 32C36.4183 32 40 28.4183 40 24C40 19.5817 36.4183 16 32 16C27.5817 16 24 19.5817 24 24C24 28.4183 27.5817 32 32 32ZM25.798 27.2488L27.7862 25.5919C27.599 25.097 27.4965 24.5605 27.4965 24C27.4965 21.5147 29.5113 19.5 31.9965 19.5C33.3145 19.5 34.5001 20.0666 35.3231 20.9694L31.4965 22.5L32.4965 25L33.8298 28.1109C33.2698 28.361 32.6494 28.5 31.9965 28.5C31.4361 28.5 30.8995 28.3975 30.4046 28.2103L28.7468 30.1997C27.4896 29.5387 26.4581 28.5065 25.798 27.2488ZM36.4965 24C36.4965 25.4284 35.8311 26.7013 34.7932 27.5256L33.4965 24.5L36.4556 23.3904C36.4826 23.5897 36.4965 23.7932 36.4965 24Z" fill="white"/>
</g>
</g>
</g>
<defs>
<filter id="filter0_dd_3808_2920" x="-4" y="-3" width="72" height="72" filterUnits="userSpaceOnUse" color-interpolation-filters="sRGB">
<feFlood flood-opacity="0" result="BackgroundImageFix"/>
<feColorMatrix in="SourceAlpha" type="matrix" values="0 0 0 0 0 0 0 0 0 0 0 0 0 0 0 0 0 0 127 0" result="hardAlpha"/>
<feMorphology radius="1" operator="dilate" in="SourceAlpha" result="effect1_dropShadow_3808_2920"/>
<feOffset dy="1"/>
<feGaussianBlur stdDeviation="1.5"/>
<feColorMatrix type="matrix" values="0 0 0 0 0 0 0 0 0 0 0 0 0 0 0 0 0 0 0.15 0"/>
<feBlend mode="normal" in2="BackgroundImageFix" result="effect1_dropShadow_3808_2920"/>
<feColorMatrix in="SourceAlpha" type="matrix" values="0 0 0 0 0 0 0 0 0 0 0 0 0 0 0 0 0 0 127 0" result="hardAlpha"/>
<feOffset dy="1"/>
<feGaussianBlur stdDeviation="1"/>
<feColorMatrix type="matrix" values="0 0 0 0 0 0 0 0 0 0 0 0 0 0 0 0 0 0 0.3 0"/>
<feBlend mode="normal" in2="effect1_dropShadow_3808_2920" result="effect2_dropShadow_3808_2920"/>
<feBlend mode="normal" in="SourceGraphic" in2="effect2_dropShadow_3808_2920" result="shape"/>
</filter>
<linearGradient id="paint0_linear_3808_2920" x1="32" y1="0" x2="32" y2="64" gradientUnits="userSpaceOnUse">
<stop stop-color="#698EC5"/>
<stop offset="1" stop-color="#13171C"/>
</linearGradient>
</defs>
</svg>
