<svg width="64" height="64" viewBox="0 0 64 64" fill="none" xmlns="http://www.w3.org/2000/svg">
<path fill-rule="evenodd" clip-rule="evenodd" d="M14 14.7556C14 12.5808 15.5553 10.7172 17.695 10.3281L41.695 5.96451C44.4573 5.46227 47 7.58435 47 10.3919V11.8026C48.7934 12.84 50 14.7791 50 17V46H47V17C47 15.3431 45.6569 14 44 14H20C18.3431 14 17 15.3431 17 17V46H14V14.7556ZM40 50V53H36.7477L37.1691 50H40ZM28.9607 50H26V53H28.5394L28.9607 50Z" fill="black"/>
<path d="M11 47C11 47 11 45 13 45H25C25 45 27 45 27 47V53C27 53 27 55 25 55H21C21 55.6667 21.0833 56.1667 21.25 56.5H22C22.2761 56.5 22.5 56.7239 22.5 57C22.5 57.2761 22.2761 57.5 22 57.5H16C15.7239 57.5 15.5 57.2761 15.5 57C15.5 56.7239 15.7239 56.5 16 56.5H16.75C16.9167 56.1667 17 55.6667 17 55H13C13 55 11 55 11 53V47ZM12.3985 46.1446C12.2929 46.2149 12.2101 46.3158 12.1444 46.4472C12.0768 46.5825 12.038 46.7299 12.0176 46.8519C12.0079 46.9105 12.0034 46.9572 12.0014 46.9853C12.0005 46.997 12.0002 47.005 12 47.009V53C12 53.325 12.0784 53.5023 12.1446 53.6016C12.2149 53.7071 12.3158 53.7899 12.4472 53.8556C12.5825 53.9232 12.7299 53.962 12.8519 53.9824C12.9105 53.9921 12.9572 53.9966 12.9853 53.9986C12.997 53.9995 13.005 53.9998 13.009 54H25C25.325 54 25.5023 53.9216 25.6016 53.8554C25.7071 53.7851 25.7899 53.6842 25.8556 53.5528C25.9232 53.4175 25.962 53.2701 25.9824 53.1481C25.9921 53.0895 25.9966 53.0428 25.9986 53.0147C25.9995 53.003 25.9998 52.995 26 52.991V47C26 46.675 25.9216 46.4977 25.8554 46.3985C25.7851 46.2929 25.6842 46.2101 25.5528 46.1444C25.4175 46.0768 25.2701 46.038 25.1481 46.0176C25.0895 46.0079 25.0428 46.0034 25.0147 46.0014C25.003 46.0005 24.995 46.0002 24.991 46H13C12.675 46 12.4977 46.0784 12.3985 46.1446Z" fill="black"/>
<path d="M36.8752 43.4439C37.4229 43.5149 37.8093 44.0165 37.7383 44.5642L36.1953 56.4645C36.1242 57.0122 35.6227 57.3987 35.075 57.3276L29.1248 56.5561C28.5771 56.4851 28.1907 55.9835 28.2617 55.4358L29.8047 43.5354C29.8758 42.9877 30.3773 42.6013 30.925 42.6723L36.8752 43.4439ZM31.0536 41.6806C29.9582 41.5386 28.9551 42.3115 28.813 43.4069L27.27 55.3072C27.1279 56.4026 27.9008 57.4058 28.9962 57.5478L34.9464 58.3193C36.0418 58.4614 37.0449 57.6885 37.1869 56.5931L38.73 44.6928C38.8721 43.5974 38.0992 42.5942 37.0038 42.4522L31.0536 41.6806Z" fill="black"/>
<path d="M32.2285 55.9502C32.7762 56.0212 33.2777 55.6348 33.3487 55.0871C33.4198 54.5394 33.0333 54.0378 32.4856 53.9668C31.9379 53.8958 31.4364 54.2822 31.3654 54.8299C31.2943 55.3776 31.6808 55.8792 32.2285 55.9502Z" fill="black"/>
<path d="M51.5 46C51.7761 46 52 46.2239 52 46.5V54H40V46.5C40 46.2239 40.2239 46 40.5 46H51.5ZM40.5 45C39.6716 45 39 45.6716 39 46.5V55H53V46.5C53 45.6716 52.3284 45 51.5 45H40.5Z" fill="black"/>
<path d="M38 55.5H54C54 56.3284 53.3284 57 52.5 57H39.5C38.6716 57 38 56.3284 38 55.5Z" fill="black"/>
<path d="M18.6919 27.9011L19.9324 28.3549L19.9304 28.8842L18.2456 28.1632L18.2469 27.7882L18.6919 27.9011ZM19.9354 27.5385L18.6896 27.991L18.2458 28.0948L18.2472 27.7198L19.9373 27.0112L19.9354 27.5385ZM26.1573 25.4758L26.188 17.1004L28.6699 17.1095L28.6392 25.4849C28.6363 26.2929 28.4567 26.9867 28.1004 27.5665C27.7441 28.1407 27.2583 28.5816 26.6429 28.8893C26.033 29.1969 25.3463 29.3494 24.5826 29.3466C23.7913 29.3437 23.0917 29.2083 22.484 28.9404C21.8762 28.6726 21.399 28.2641 21.0524 27.715C20.7058 27.1603 20.5341 26.4596 20.5372 25.613L23.0357 25.6221C23.0341 26.0648 23.0936 26.4164 23.2144 26.677C23.3408 26.9375 23.5199 27.1236 23.7519 27.2351C23.984 27.3466 24.2632 27.403 24.5897 27.4042C24.9051 27.4053 25.1793 27.3316 25.4123 27.1831C25.6453 27.0345 25.8259 26.8166 25.9542 26.5293C26.0881 26.242 26.1558 25.8909 26.1573 25.4758ZM37.0542 26.0636C37.055 25.8478 37.0225 25.654 36.9567 25.4822C36.8965 25.3049 36.7808 25.144 36.6098 24.9995C36.4388 24.8494 36.1986 24.7019 35.8893 24.5569C35.5799 24.4119 35.1793 24.261 34.6873 24.1042C34.1401 23.9251 33.6207 23.724 33.129 23.5009C32.6428 23.2777 32.2121 23.0188 31.8369 22.7242C31.4672 22.424 31.1752 22.077 30.9608 21.6833C30.752 21.2897 30.6485 20.8327 30.6504 20.3126C30.6522 19.809 30.7646 19.3529 30.9874 18.9442C31.2103 18.5299 31.5215 18.1769 31.921 17.8851C32.3205 17.5877 32.7917 17.3598 33.3346 17.2013C33.8831 17.0428 34.4838 16.9648 35.1368 16.9672C36.0277 16.9704 36.8046 17.1337 37.4675 17.4571C38.1304 17.7805 38.6434 18.2224 39.0066 18.7826C39.3753 19.3429 39.5584 19.9827 39.5558 20.7021L37.0821 20.6931C37.0834 20.3389 37.0099 20.0287 36.8614 19.7626C36.7185 19.4909 36.498 19.277 36.1997 19.121C35.907 18.9649 35.5365 18.8861 35.0883 18.8845C34.6566 18.8829 34.2967 18.948 34.0084 19.0797C33.7202 19.206 33.5038 19.3795 33.3591 19.6003C33.2144 19.8156 33.1416 20.0588 33.1406 20.33C33.1398 20.5347 33.1889 20.7203 33.2879 20.8867C33.3925 21.0531 33.5469 21.2086 33.7511 21.3532C33.9553 21.4979 34.2066 21.6344 34.505 21.7627C34.8033 21.8911 35.1487 22.0169 35.5412 22.1401C36.199 22.3417 36.7764 22.5679 37.2736 22.8188C37.7762 23.0696 38.1958 23.3506 38.5322 23.6618C38.8686 23.9729 39.1219 24.3252 39.292 24.7188C39.4621 25.1123 39.5463 25.5581 39.5445 26.0561C39.5425 26.5818 39.4384 27.0518 39.2322 27.4661C39.0259 27.8804 38.7285 28.2307 38.3401 28.5171C37.9517 28.8034 37.4888 29.0203 36.9515 29.1677C36.4142 29.3152 35.8135 29.3877 35.1494 29.3853C34.5518 29.3831 33.9627 29.3034 33.3822 29.1464C32.8018 28.9838 32.2742 28.7411 31.7994 28.4184C31.3302 28.0957 30.9554 27.6848 30.675 27.1858C30.3946 26.6867 30.2557 26.0968 30.2582 25.4161L32.7567 25.4253C32.7553 25.8016 32.8122 26.12 32.9275 26.3805C33.0428 26.641 33.2052 26.8519 33.4149 27.0132C33.6302 27.1744 33.8843 27.2916 34.1773 27.3646C34.4759 27.4376 34.8022 27.4748 35.1564 27.4761C35.588 27.4777 35.9424 27.4181 36.2196 27.2974C36.5022 27.1767 36.7104 27.0086 36.844 26.7933C36.9831 26.578 37.0532 26.3348 37.0542 26.0636ZM41.5911 26.3991L40.5368 29.4831L40.1188 29.4816L41.1731 26.3975L41.5911 26.3991ZM43.1201 28.0687L41.8698 27.6169L41.8717 27.0915L43.5703 27.8126L43.5689 28.1895L43.1201 28.0687ZM41.8668 28.4391L43.1224 27.9867L43.57 27.8809L43.5686 28.2559L41.8649 28.9645L41.8668 28.4391Z" fill="black"/>
<path d="M29.7412 41.2344V33.2046H31.1753L31.2129 33.8813H31.2397C31.3687 33.6593 31.5853 33.4731 31.8896 33.3228C32.1976 33.1724 32.5449 33.0972 32.9316 33.0972C33.6979 33.0972 34.3138 33.3675 34.7793 33.9082C35.2448 34.4489 35.4775 35.1507 35.4775 36.0137V36.1855C35.4775 37.0521 35.2466 37.7557 34.7847 38.2964C34.3228 38.8371 33.714 39.1074 32.9585 39.1074C32.5754 39.1074 32.2352 39.0448 31.938 38.9194C31.6444 38.7941 31.4224 38.6187 31.272 38.3931V41.2344H29.7412ZM31.272 37.104C31.3651 37.3332 31.5262 37.5337 31.7554 37.7056C31.9845 37.8774 32.2549 37.9634 32.5664 37.9634C33.0247 37.9634 33.3631 37.8058 33.5815 37.4907C33.8 37.172 33.9092 36.7513 33.9092 36.2285V35.9707C33.9092 35.4515 33.8 35.0326 33.5815 34.7139C33.3631 34.3952 33.0247 34.2358 32.5664 34.2358C32.2441 34.2358 31.972 34.3218 31.75 34.4937C31.5316 34.6655 31.3722 34.8625 31.272 35.0845V37.104ZM35.9395 39L38.7271 34.6279H39.0225L41.0688 31.1797H42.6318L40.0107 35.4229H39.7153L37.5347 39H35.9395ZM36.063 31.1797L37.8945 31.1851L39.9624 34.6172H40L42.8145 39H40.9668L38.7808 35.4497H38.7539L36.063 31.1797Z" fill="black"/>
<path d="M23.1903 35.36C23.2274 35.3124 23.225 35.2499 23.1845 35.2044C23.144 35.159 23.0743 35.1406 23.0109 35.1587L22.0734 35.4265L22.1722 35.6806L22.6777 35.5362L22.3053 36.015C22.2683 36.0626 22.2706 36.1251 22.3112 36.1706C22.3517 36.216 22.4214 36.2344 22.4847 36.2163L22.9902 36.0719L22.6178 36.5507C22.5808 36.5983 22.5831 36.6608 22.6237 36.7063C22.6642 36.7518 22.7339 36.7701 22.7972 36.7521L23.7347 36.4842L23.6359 36.2301L23.1305 36.3745L23.5028 35.8957C23.5399 35.8481 23.5375 35.7856 23.497 35.7401C23.4565 35.6947 23.3868 35.6763 23.3234 35.6944L22.818 35.8388L23.1903 35.36Z" fill="black"/>
<path d="M24 39.5714C26.7614 39.5714 29 37.6526 29 35.2857C29 32.9188 26.7614 31 24 31C21.2386 31 19 32.9188 19 35.2857C19 37.6526 21.2386 39.5714 24 39.5714ZM20.1237 37.0261L21.3664 36.1385C21.2494 35.8734 21.1853 35.586 21.1853 35.2857C21.1853 33.9543 22.4445 32.875 23.9978 32.875C24.8215 32.875 25.5625 33.1785 26.0769 33.6622L23.6853 34.4821L24.3103 35.8214L25.1436 37.488C24.7936 37.6219 24.4059 37.6964 23.9978 37.6964C23.6475 37.6964 23.3122 37.6415 23.0029 37.5412L21.9667 38.607C21.181 38.2529 20.5363 37.6999 20.1237 37.0261ZM26.8103 35.2857C26.8103 36.0509 26.3944 36.7328 25.7458 37.1744L24.9353 35.5536L26.7847 34.9591C26.8016 35.0659 26.8103 35.1749 26.8103 35.2857Z" fill="black"/>
</svg>
