<svg width="64" height="61" viewBox="0 0 64 61" fill="none" xmlns="http://www.w3.org/2000/svg">
<path d="M45 59.0342H62C62 59.9316 61.2865 60.6592 60.4062 60.6592H46.5938C45.7135 60.6592 45 59.9316 45 59.0342Z" fill="white"/>
<path d="M3.1 53.6592C3.1 53.705 3.10154 53.7504 3.10457 53.7954L3.0625 53.772V56.3258C3.0625 56.6779 3.14578 56.87 3.21608 56.9775C3.29082 57.0918 3.39808 57.1816 3.53766 57.2527C3.68141 57.326 3.83801 57.368 3.96764 57.3901C4.02994 57.4007 4.07953 57.4055 4.10939 57.4077L4.12107 57.4085L4.13459 57.4092H16.875C17.2203 57.4092 17.4087 57.3243 17.5141 57.2526C17.5727 57.2127 17.6248 57.1638 17.671 57.1059C17.6778 57.0308 17.6887 56.9553 17.7039 56.8797L17.9375 55.7137V49.8258C17.9375 49.4737 17.8542 49.2817 17.7839 49.1742C17.7092 49.0599 17.6019 48.9701 17.4623 48.899C17.3186 48.8257 17.162 48.7837 17.0324 48.7616C16.9701 48.751 16.9205 48.7462 16.8906 48.744C16.8782 48.7431 16.8696 48.7427 16.8654 48.7425H4.125C3.77967 48.7425 3.59131 48.8274 3.48585 48.8991C3.37374 48.9753 3.28574 49.0847 3.21595 49.227C3.16107 49.3389 3.12405 49.4585 3.1 49.5676V53.6592Z" fill="white"/>
<path fill-rule="evenodd" clip-rule="evenodd" d="M28.6492 45.1166L22.4565 43.8758C21.8865 43.7616 21.3318 44.1311 21.2176 44.7011L19 55.7689V56.3258C19 56.3258 19 56.8814 18.7241 57.4299C18.7809 57.8645 19.1076 58.2345 19.5613 58.3254L25.754 59.5662C26.324 59.6804 26.8787 59.3109 26.9929 58.7409L29.4745 46.3555C29.5888 45.7855 29.2193 45.2308 28.6492 45.1166ZM24.1034 57.0884C23.9892 57.6584 23.4345 58.0279 22.8645 57.9137C22.2944 57.7995 21.9249 57.2448 22.0391 56.6748C22.1534 56.1048 22.708 55.7353 23.2781 55.8495C23.8481 55.9637 24.2176 56.5184 24.1034 57.0884Z" fill="white"/>
<path d="M47.6562 48.7425H59.3438C59.6371 48.7425 59.875 48.985 59.875 49.2842V57.4092H47.125V49.2842C47.125 48.985 47.3629 48.7425 47.6562 48.7425Z" fill="white"/>
<path fill-rule="evenodd" clip-rule="evenodd" d="M47.5 0.159169C51.2869 -0.787551 58 2.63558 58 6.53901C61.3137 6.53901 64 9.2253 64 12.539V48.539C64 50.7856 62.7653 52.7437 60.9375 53.772L60.8954 53.7954C60.8985 53.7504 60.9 53.705 60.9 53.6592V48.9321V47.6592C60.9 46.961 60.5422 46.3463 60 45.9886V43.2431C61.7659 42.4716 63 40.7095 63 38.6592C63 36.6088 61.7659 34.8468 60 34.0752V31.2431C61.7659 30.4716 63 28.7095 63 26.6592C63 24.6088 61.7659 22.8468 60 22.0752V19.2431C61.7659 18.4716 63 16.7095 63 14.6592C63 11.8977 60.7614 9.65915 58 9.65915C56.948 9.65915 55.9718 9.98406 55.1664 10.539H8.83355C8.02817 9.98406 7.05203 9.65915 6 9.65915C3.23858 9.65915 1 11.8977 1 14.6592C1 16.7095 2.2341 18.4716 4 19.2431V22.0752C3.29986 22.3811 2.68332 22.8427 2.19414 23.4163C1.44951 24.2893 1 25.4217 1 26.6592C1 27.4575 1.1871 28.2121 1.51986 28.8816C2.04168 29.9315 2.92169 30.772 4 31.2431V34.0752C2.2341 34.8468 1 36.6088 1 38.6592C1 40.7095 2.2341 42.4716 4 43.2431V45.9886C3.45778 46.3463 3.1 46.961 3.1 47.6592V47.8785C2 48.429 2 49.8258 2 49.8258V53.0112C0.772501 51.9126 0 50.316 0 48.539V12.539C0 9.31581 2.54155 6.68623 5.72991 6.54498L47.5 0.159169ZM3.0625 53.772C2.68047 53.5571 2.32435 53.3015 2 53.0112V56.3258C2 58.4925 4.125 58.4925 4.125 58.4925H8.375C8.375 59.2147 8.28646 59.7564 8.10938 60.1175H7.3125C7.0191 60.1175 6.78125 60.36 6.78125 60.6592H14.2188C14.2188 60.36 13.9809 60.1175 13.6875 60.1175H12.8906C12.7135 59.7564 12.625 59.2147 12.625 58.4925H16.875C17.2957 58.4925 17.6331 58.4076 17.9038 58.2714C17.7203 57.9222 17.6335 57.5199 17.671 57.1059C17.7133 57.053 17.7507 56.9926 17.784 56.9247C17.8559 56.7781 17.8971 56.6185 17.9188 56.4863C17.9291 56.4228 17.9339 56.3722 17.9361 56.3418C17.9369 56.3291 17.9373 56.3204 17.9375 56.3161V55.7137L17.7039 56.8797C17.6887 56.9553 17.6778 57.0308 17.671 57.1059C17.6248 57.1638 17.5727 57.2127 17.5141 57.2526C17.4087 57.3243 17.2203 57.4092 16.875 57.4092H4.13459L4.12107 57.4085L4.10939 57.4077C4.07953 57.4055 4.02994 57.4007 3.96764 57.3901C3.83801 57.368 3.68141 57.326 3.53766 57.2527C3.39808 57.1816 3.29082 57.0918 3.21608 56.9775C3.14578 56.87 3.0625 56.6779 3.0625 56.3258V53.772ZM3.0625 53.772V49.8356C3.06267 49.8313 3.06307 49.8226 3.06395 49.8099C3.06608 49.7795 3.07086 49.7289 3.08125 49.6654C3.08635 49.6342 3.09256 49.6014 3.1 49.5676V53.6592C3.1 53.705 3.10154 53.7504 3.10457 53.7954L3.0625 53.772ZM19 55.7689V56.3258C19 56.3258 19 56.8814 18.7241 57.4299C18.7095 57.3185 18.7127 57.2028 18.736 57.0865L19 55.7689ZM22.2462 6.53901H52V5.65916C52 4.35802 46.7623 4.84359 45.5 5.15916L22.2462 6.53901Z" fill="white"/>
<path fill-rule="evenodd" clip-rule="evenodd" d="M29.7115 54.3826L32.5446 47.2259C32.7402 46.7318 33.3119 46.4949 33.8215 46.6966L44.8954 51.0803C45.4051 51.2821 45.6597 51.8461 45.4641 52.3402L42.6311 59.4969C42.4355 59.9909 41.8638 60.2279 41.3541 60.0262L30.2802 55.6425C29.7706 55.4407 29.516 54.8766 29.7115 54.3826ZM42.5561 54.2933C43.0658 54.4951 43.3204 55.0592 43.1248 55.5532C42.9292 56.0473 42.3575 56.2843 41.8478 56.0825C41.3382 55.8808 41.0836 55.3167 41.2791 54.8226C41.4747 54.3285 42.0464 54.0916 42.5561 54.2933Z" fill="white"/>
<path fill-rule="evenodd" clip-rule="evenodd" d="M6.4375 37.0342V37.7741C6.80823 37.8884 7.125 38.1845 7.125 38.6154V40.2654C7.125 40.8266 6.58775 41.1592 6.09375 41.1592H4.03125C3.53725 41.1592 3 40.8266 3 40.2654V38.6154C3 38.1845 3.31677 37.8884 3.6875 37.7741V37.0342C3.6875 36.2748 4.30311 35.6592 5.0625 35.6592C5.82189 35.6592 6.4375 36.2748 6.4375 37.0342ZM4.375 37.0342C4.375 36.6545 4.6828 36.3467 5.0625 36.3467C5.4422 36.3467 5.75 36.6545 5.75 37.0342V37.7217H4.375V37.0342Z" fill="white"/>
<path fill-rule="evenodd" clip-rule="evenodd" d="M3.1 47.6592C3.1 46.961 3.45778 46.3463 4 45.9886V43.2431C2.2341 42.4716 1 40.7095 1 38.6592C1 40.8683 2.79086 42.6592 5 42.6592C7.20914 42.6592 9 40.8683 9 38.6592C9 36.45 7.20914 34.6592 5 34.6592C2.79086 34.6592 1 36.45 1 38.6592C1 36.6088 2.2341 34.8468 4 34.0752V31.2431C2.92169 30.772 2.04168 29.9315 1.51986 28.8816C2.26089 29.9275 3.48079 30.6102 4.86014 30.6102C7.11948 30.6102 8.95104 28.7786 8.95104 26.5193C8.95104 24.2599 7.11948 22.4283 4.86014 22.4283C3.84169 22.4283 2.91016 22.8005 2.19414 23.4163C2.68332 22.8427 3.29986 22.3811 4 22.0752V19.2431C2.2341 18.4716 1 16.7095 1 14.6592C1 16.8683 2.79086 18.6592 5 18.6592C7.20914 18.6592 9 16.8683 9 14.6592C9 12.45 7.20914 10.6592 5 10.6592C2.79086 10.6592 1 12.45 1 14.6592C1 11.8977 3.23858 9.65915 6 9.65915C7.05203 9.65915 8.02817 9.98406 8.83355 10.539H55.1664C55.9718 9.98406 56.948 9.65915 58 9.65915C60.7614 9.65915 63 11.8977 63 14.6592C63 12.45 61.2091 10.6592 59 10.6592C56.7909 10.6592 55 12.45 55 14.6592C55 16.8683 56.7909 18.6592 59 18.6592C61.2091 18.6592 63 16.8683 63 14.6592C63 16.7095 61.7659 18.4716 60 19.2431V22.0752C61.7659 22.8468 63 24.6088 63 26.6592C63 24.45 61.2091 22.6592 59 22.6592C56.7909 22.6592 55 24.45 55 26.6592C55 28.8683 56.7909 30.6592 59 30.6592C61.2091 30.6592 63 28.8683 63 26.6592C63 28.7095 61.7659 30.4716 60 31.2431V34.0752C61.7659 34.8468 63 36.6088 63 38.6592C63 36.45 61.2091 34.6592 59 34.6592C56.7909 34.6592 55 36.45 55 38.6592C55 40.8683 56.7909 42.6592 59 42.6592C61.2091 42.6592 63 40.8683 63 38.6592C63 40.7095 61.7659 42.4716 60 43.2431V45.9886C60.5422 46.3463 60.9 46.961 60.9 47.6592V48.9321C60.7422 48.2039 60.1054 47.6592 59.3438 47.6592H47.6562C46.776 47.6592 46.0625 48.3867 46.0625 49.2842V50.772C45.8531 50.5207 45.5778 50.3156 45.2496 50.1857L34.1757 45.802C33.1563 45.3985 32.0129 45.8724 31.6217 46.8606L29.2428 52.8703L30.5067 46.5623C30.7351 45.4223 29.9961 44.3129 28.856 44.0845L22.6633 42.8437C21.5233 42.6152 20.4139 43.3542 20.1855 44.4943L19 50.4109V49.8258C19 47.6592 16.875 47.6592 16.875 47.6592H4.125C3.70623 47.6592 3.36998 47.7433 3.1 47.8785V47.6592ZM2.19414 23.4163C1.32172 24.1665 0.769226 25.2784 0.769226 26.5193C0.769226 27.3993 1.04708 28.2144 1.51986 28.8816C1.1871 28.2121 1 27.4575 1 26.6592C1 25.4217 1.44951 24.2893 2.19414 23.4163ZM3.37339 17.759C2.74482 17.4285 2.22907 16.9124 1.89899 16.2836L2.89312 15.4551C2.7995 15.2077 2.74827 14.9394 2.74827 14.6592C2.74827 13.4165 3.75563 12.4092 4.99827 12.4092C5.65723 12.4092 6.25003 12.6925 6.66153 13.1439L4.74827 13.9092L5.24827 15.1592L5.91489 16.7146C5.63492 16.8397 5.32471 16.9092 4.99827 16.9092C4.71803 16.9092 4.44976 16.8579 4.20231 16.7643L3.37339 17.759ZM6.39662 16.422C6.91553 16.0098 7.24827 15.3734 7.24827 14.6592C7.24827 14.5558 7.2413 14.454 7.2278 14.3544L5.74827 14.9092L6.39662 16.422ZM4.34761 14.5833C4.38002 14.6257 4.3819 14.6841 4.35228 14.7285L4.05436 15.1754L4.45874 15.0406C4.5094 15.0237 4.5652 15.0409 4.59761 15.0833C4.63002 15.1257 4.6319 15.1841 4.60228 15.2285L4.30436 15.6754L4.70874 15.5406L4.7878 15.7778L4.0378 16.0278C3.98714 16.0447 3.93135 16.0275 3.89893 15.9851C3.86652 15.9426 3.86464 15.8843 3.89427 15.8398L4.19218 15.393L3.7878 15.5278C3.73714 15.5447 3.68135 15.5275 3.64893 15.4851C3.61652 15.4426 3.61464 15.3843 3.64427 15.3398L3.94218 14.893L3.5378 15.0278L3.45874 14.7906L4.20874 14.5406C4.2594 14.5237 4.3152 14.5409 4.34761 14.5833ZM5.95829 23.7347C5.99428 23.6191 5.92864 23.4964 5.81167 23.4608C5.6947 23.4252 5.5707 23.4902 5.53471 23.6058L3.76198 29.3038C3.72599 29.4195 3.79164 29.5421 3.90861 29.5777C4.02558 29.6133 4.14957 29.5484 4.18556 29.4327L5.95829 23.7347ZM3.46568 24.8302C3.55222 24.9158 3.55222 25.0546 3.46568 25.1402L2.07124 26.5193L3.46568 27.8984C3.55222 27.9839 3.55222 28.1227 3.46568 28.2083C3.37915 28.2939 3.23884 28.2939 3.15231 28.2083L1.60117 26.6742C1.51463 26.5886 1.51463 26.4499 1.60117 26.3643L3.15231 24.8302C3.23884 24.7446 3.37915 24.7446 3.46568 24.8302ZM6.25458 25.1402C6.16804 25.0546 6.16804 24.9158 6.25458 24.8302C6.34112 24.7446 6.48142 24.7446 6.56796 24.8302L8.11909 26.3643C8.20563 26.4499 8.20563 26.5886 8.11909 26.6742L6.56796 28.2083C6.48142 28.2939 6.34112 28.2939 6.25458 28.2083C6.16804 28.1227 6.16804 27.9839 6.25458 27.8984L7.64903 26.5193L6.25458 25.1402ZM58.2219 36.1826L59.0354 37.8369L59.8488 36.1826H61.216L59.8283 38.6504L61.2536 41.1592H59.8728L59.0354 39.4741L58.1979 41.1592H56.8137L58.2424 38.6504L56.8513 36.1826H58.2219ZM58.5868 29.2811V27.5587C58.6647 27.6467 58.7525 27.7207 58.85 27.7806C59.0095 27.8785 59.1998 27.9275 59.4208 27.9275C59.6555 27.9275 59.8617 27.8808 60.0395 27.7874C60.2195 27.6917 60.3699 27.5584 60.4906 27.3875C60.6114 27.2166 60.7025 27.0161 60.7641 26.7859C60.8256 26.5558 60.8563 26.3063 60.8563 26.0374V25.9656C60.8563 25.6853 60.8256 25.4301 60.7641 25.2C60.7025 24.9699 60.6103 24.7728 60.4872 24.6087C60.3664 24.4423 60.216 24.3147 60.036 24.2259C59.8583 24.137 59.6521 24.0926 59.4174 24.0926C59.1964 24.0926 59.0061 24.1404 58.8466 24.2361C58.7333 24.3051 58.6331 24.3935 58.5459 24.5014L58.5082 24.1609H57.435V29.2811H58.5868ZM58.7475 26.9295C58.6796 26.8778 58.626 26.8117 58.5868 26.7314V25.2721C58.5973 25.2502 58.6087 25.2296 58.621 25.2103C58.6711 25.1328 58.7372 25.0758 58.8192 25.0394C58.9035 25.0006 59.0072 24.9812 59.1303 24.9812C59.2374 24.9812 59.3274 25.0052 59.4003 25.053C59.4732 25.1009 59.5313 25.1692 59.5746 25.2581C59.6202 25.347 59.6532 25.4518 59.6737 25.5726C59.6942 25.691 59.7045 25.8221 59.7045 25.9656V26.0374C59.7045 26.1764 59.6954 26.3063 59.6771 26.427C59.6589 26.5478 59.6282 26.6549 59.5849 26.7483C59.5416 26.8395 59.4835 26.9113 59.4105 26.9637C59.3376 27.0138 59.2465 27.0389 59.1371 27.0389C58.973 27.0389 58.8432 27.0024 58.7475 26.9295ZM58.3234 14.6889C58.3234 14.8477 58.3352 14.9962 58.3586 15.1342C58.382 15.2722 58.4211 15.3933 58.4758 15.4975C58.5305 15.599 58.6047 15.6785 58.6984 15.7357C58.7922 15.793 58.9094 15.8217 59.05 15.8217C59.188 15.8217 59.3026 15.793 59.3937 15.7357C59.4875 15.6785 59.5617 15.599 59.6164 15.4975C59.6711 15.3933 59.7102 15.2722 59.7336 15.1342C59.757 14.9962 59.7687 14.8477 59.7687 14.6889V14.6068C59.7687 14.4532 59.757 14.3087 59.7336 14.1732C59.7102 14.0352 59.6711 13.9141 59.6164 13.81C59.5617 13.7032 59.4875 13.6199 59.3937 13.56C59.3 13.5001 59.1828 13.4701 59.0422 13.4701C58.9042 13.4701 58.7883 13.5001 58.6945 13.56C58.6034 13.6199 58.5305 13.7032 58.4758 13.81C58.4211 13.9141 58.382 14.0352 58.3586 14.1732C58.3352 14.3087 58.3234 14.4532 58.3234 14.6068V14.6889ZM45.1423 32.1885C45.2641 32.5094 45.325 32.8747 45.325 33.2842C45.325 33.7712 45.2032 34.2139 44.9597 34.6123C44.7162 35.0107 44.3399 35.3262 43.8308 35.5586C43.3328 35.7799 42.6798 35.8906 41.8718 35.8906C41.1746 35.8906 40.5437 35.8242 39.9792 35.6914C39.4148 35.5586 38.9333 35.3372 38.5349 35.0273C38.1475 34.7174 37.8487 34.3135 37.6384 33.8154C37.4281 33.3063 37.323 32.6865 37.323 31.9561H31.9109C31.9109 33.3506 32.1931 34.557 32.7576 35.5752C33.3331 36.5824 34.0968 37.4124 35.0486 38.0654C36.0115 38.7184 37.085 39.2054 38.2693 39.5264C39.4535 39.8363 40.6544 39.9912 41.8718 39.9912C43.211 39.9912 44.4229 39.8418 45.5076 39.543C46.5922 39.2441 47.5219 38.807 48.2966 38.2314C49.0824 37.6449 49.6801 36.9365 50.0896 36.1064C50.5102 35.2764 50.7205 34.3245 50.7205 33.251C50.7205 32.2438 50.5434 31.3418 50.1892 30.5449C49.8461 29.748 49.3315 29.0342 48.6453 28.4033C47.9591 27.7725 47.1124 27.208 46.1052 26.71C45.1091 26.2119 43.9636 25.7581 42.6687 25.3486C41.9272 25.1273 41.2686 24.8949 40.6931 24.6514C40.1176 24.4079 39.6306 24.1533 39.2322 23.8877C38.8448 23.611 38.546 23.3177 38.3357 23.0078C38.1365 22.6868 38.0369 22.3327 38.0369 21.9453C38.0369 21.4583 38.1697 21.0101 38.4353 20.6006C38.712 20.1911 39.116 19.8701 39.6472 19.6377C40.1895 19.3942 40.8591 19.2725 41.656 19.2725C42.475 19.2725 43.1557 19.4163 43.698 19.7041C44.2514 19.9919 44.6609 20.3903 44.9265 20.8994C45.2032 21.3975 45.3416 21.973 45.3416 22.626H50.7205C50.7205 21.1429 50.3442 19.8424 49.5916 18.7246C48.8389 17.5957 47.7875 16.7214 46.4373 16.1016C45.0981 15.4707 43.543 15.1553 41.7722 15.1553C40.4441 15.1553 39.2266 15.3158 38.1199 15.6367C37.0131 15.9466 36.0502 16.4004 35.2312 16.998C34.4122 17.5846 33.7758 18.293 33.322 19.123C32.8682 19.9531 32.6414 20.8828 32.6414 21.9121C32.6414 22.9746 32.8572 23.9043 33.2888 24.7012C33.7315 25.498 34.3347 26.1953 35.0984 26.793C35.8621 27.3906 36.7309 27.9163 37.7048 28.3701C38.6899 28.8128 39.7247 29.2113 40.8093 29.5654C41.7612 29.8643 42.5304 30.1576 43.1169 30.4453C43.7035 30.722 44.1573 30.9987 44.4783 31.2754C44.7992 31.5521 45.0206 31.8564 45.1423 32.1885ZM23.4441 32.1553V15.4873H28.823V32.1553C28.823 33.7712 28.4578 35.1657 27.7273 36.3389C27.0079 37.501 26.0284 38.403 24.7888 39.0449C23.5603 39.6758 22.1713 39.9912 20.6218 39.9912C19.0281 39.9912 17.6114 39.7256 16.3718 39.1943C15.1322 38.652 14.1583 37.8275 13.45 36.7207C12.7527 35.6029 12.4041 34.1807 12.4041 32.4541H17.8162C17.8162 33.3063 17.9213 33.9814 18.1316 34.4795C18.3529 34.9665 18.6739 35.3096 19.0945 35.5088C19.5151 35.708 20.0242 35.8076 20.6218 35.8076C21.1973 35.8076 21.6954 35.6693 22.116 35.3926C22.5365 35.1048 22.863 34.6898 23.0955 34.1475C23.3279 33.5941 23.4441 32.93 23.4441 32.1553ZM57.007 14.6889V14.6068C57.007 14.2969 57.0513 14.0118 57.1398 13.7514C57.2284 13.4883 57.3586 13.2605 57.5305 13.0678C57.7023 12.8751 57.9146 12.7253 58.1672 12.6186C58.4198 12.5092 58.7115 12.4545 59.0422 12.4545C59.3755 12.4545 59.6685 12.5092 59.9211 12.6186C60.1763 12.7253 60.3898 12.8751 60.5617 13.0678C60.7336 13.2605 60.8638 13.4883 60.9523 13.7514C61.0409 14.0118 61.0852 14.2969 61.0852 14.6068V14.6889C61.0852 14.9962 61.0409 15.2813 60.9523 15.5443C60.8638 15.8047 60.7336 16.0326 60.5617 16.2279C60.3898 16.4206 60.1776 16.5704 59.925 16.6771C59.6724 16.7839 59.3807 16.8373 59.05 16.8373C58.7193 16.8373 58.4263 16.7839 58.1711 16.6771C57.9159 16.5704 57.7023 16.4206 57.5305 16.2279C57.3586 16.0326 57.2284 15.8047 57.1398 15.5443C57.0513 15.2813 57.007 14.9962 57.007 14.6889Z" fill="white"/>
</svg>
