<?xml version="1.0" standalone="no"?>
<!DOCTYPE svg PUBLIC "-//W3C//DTD SVG 20010904//EN"
 "http://www.w3.org/TR/2001/REC-SVG-20010904/DTD/svg10.dtd">
<svg version="1.0" xmlns="http://www.w3.org/2000/svg"
 width="700.000000pt" height="700.000000pt" viewBox="0 0 700.000000 700.000000"
 preserveAspectRatio="xMidYMid meet">
<metadata>
Created by potrace 1.14, written by Peter Selinger 2001-2017
</metadata>
<g transform="translate(0.000000,700.000000) scale(0.100000,-0.100000)"
fill="#000000" stroke="none">
<path d="M540 5436 c-188 -53 -336 -201 -385 -387 -8 -30 -15 -92 -15 -139 0
-159 45 -266 160 -380 41 -41 94 -84 118 -94 l42 -19 0 -156 0 -156 -47 -25
c-66 -35 -156 -121 -197 -188 -57 -95 -79 -185 -74 -305 9 -194 95 -342 259
-444 l59 -36 0 -151 0 -151 -50 -28 c-113 -63 -202 -174 -247 -306 -27 -80
-31 -217 -8 -306 34 -131 133 -260 247 -324 l58 -33 0 -147 c0 -146 0 -148
-26 -172 -14 -13 -36 -42 -47 -64 -21 -38 -22 -54 -25 -398 -2 -196 -5 -357
-8 -357 -17 0 -99 68 -154 126 l-63 68 7 -40 c23 -123 141 -233 269 -250 l47
-7 0 295 c0 331 6 371 62 425 68 65 37 63 801 63 759 0 749 1 810 -58 45 -43
59 -79 65 -171 l6 -86 66 330 c37 182 70 342 74 356 18 63 99 130 176 143 34
6 689 -118 751 -142 40 -16 88 -61 109 -103 24 -46 26 -125 5 -219 -25 -113
-16 -100 59 88 76 192 104 234 173 267 81 39 91 36 764 -230 343 -136 630
-251 638 -255 10 -5 23 2 40 23 49 58 34 57 721 57 699 0 674 2 726 -66 l29
-37 3 -340 3 -340 46 7 c128 17 246 128 269 250 l7 40 -63 -68 c-55 -58 -137
-126 -154 -126 -3 0 -6 161 -8 357 -3 344 -4 360 -25 398 -11 22 -33 51 -47
64 -26 24 -26 26 -26 172 l0 147 58 33 c113 64 213 195 247 324 19 76 19 204
0 280 -34 130 -138 267 -252 331 l-53 29 0 151 0 151 59 36 c107 67 191 169
233 282 15 43 23 91 26 165 4 94 1 114 -22 183 -15 43 -41 102 -60 130 -40 64
-135 152 -193 180 l-43 21 0 156 0 156 44 21 c60 30 159 124 200 191 57 95 79
185 74 305 -8 188 -87 329 -243 433 -153 103 -380 112 -544 24 l-55 -30 -2516
0 -2516 0 -55 30 c-30 16 -81 36 -114 45 -70 18 -211 18 -275 1z m305 -125
c164 -73 265 -226 265 -402 0 -187 -125 -356 -302 -410 -156 -48 -322 -7 -436
107 -209 209 -151 559 113 690 112 56 255 61 360 15z m5658 -9 c333 -156 333
-628 0 -784 -120 -57 -284 -49 -398 17 -222 131 -283 426 -131 633 122 165
344 221 529 134z m-1723 -442 c235 -48 431 -165 546 -326 84 -118 133 -258
134 -381 l0 -53 -305 0 -305 0 0 35 c0 51 -38 142 -77 186 -19 21 -60 51 -91
66 -49 24 -72 28 -163 31 -163 6 -275 -37 -335 -128 -32 -49 -43 -137 -24
-194 28 -87 175 -174 458 -271 453 -155 684 -316 787 -550 80 -180 73 -438
-15 -604 -130 -244 -398 -378 -795 -398 -499 -25 -942 195 -1080 536 -30 72
-55 195 -55 266 l0 55 303 0 304 0 11 -80 c28 -199 122 -284 343 -311 166 -20
286 7 358 79 95 95 96 240 3 343 -54 61 -179 124 -382 194 -523 181 -775 373
-844 640 -63 246 2 469 184 638 229 212 657 305 1040 227z m-1633 -957 c-3
-851 -5 -954 -20 -1011 -99 -367 -397 -597 -802 -619 -197 -10 -384 25 -544
103 -167 82 -293 231 -350 416 -21 69 -46 263 -35 279 3 5 139 9 308 9 l303 0
6 -72 c16 -189 88 -262 257 -261 77 0 123 18 169 64 50 50 79 121 91 224 6 55
10 426 10 953 l0 862 305 0 306 0 -4 -947z m-2406 157 c234 -44 400 -276 360
-503 -45 -260 -296 -427 -546 -362 -340 89 -450 512 -194 750 111 102 241 141
380 115z m5711 -40 c296 -91 401 -462 197 -694 -101 -114 -238 -166 -389 -145
-215 31 -370 211 -370 430 0 290 283 495 562 409z m-5667 -1295 c127 -34 230
-120 288 -242 30 -63 32 -75 32 -173 0 -86 -5 -115 -24 -163 -72 -182 -268
-297 -457 -270 -192 28 -342 173 -374 364 -30 175 68 367 228 448 104 53 199
64 307 36z m5634 4 c216 -49 365 -267 331 -483 -15 -97 -49 -166 -116 -237
-215 -225 -571 -164 -708 121 -29 61 -31 72 -31 175 0 103 2 114 32 178 90
189 295 292 492 246z"/>
<path d="M633 5149 c-57 -10 -93 -31 -136 -78 -57 -63 -75 -145 -51 -232 3
-10 -15 -31 -50 -59 l-55 -44 17 -29 c21 -35 119 -127 136 -127 7 0 30 22 52
49 l39 50 56 -6 c31 -3 74 -2 94 1 46 9 46 6 -28 183 -50 119 -54 134 -39 141
9 5 54 24 100 42 45 18 82 36 82 40 0 10 -46 43 -75 55 -38 15 -100 21 -142
14z m-23 -237 c0 -4 -7 -18 -17 -31 -16 -24 -16 -24 10 -17 32 8 41 -5 22 -30
-20 -26 -18 -33 6 -27 38 10 16 -19 -26 -34 -47 -16 -54 -10 -33 27 l17 29
-30 -6 c-33 -6 -36 2 -13 36 16 22 15 23 -6 19 -36 -5 -34 18 2 29 41 14 68
15 68 5z"/>
<path d="M835 4913 c-38 -15 -71 -27 -73 -28 -4 -3 59 -148 68 -158 10 -11 54
46 75 96 15 37 21 117 8 116 -5 0 -39 -12 -78 -26z"/>
<path d="M6219 5122 c-75 -39 -109 -104 -109 -208 0 -154 75 -235 216 -235
114 0 186 54 214 161 15 57 6 148 -20 200 -52 103 -190 140 -301 82z m164
-114 c26 -35 28 -154 3 -193 -21 -32 -83 -35 -111 -5 -36 39 -32 173 6 211 28
28 76 22 102 -13z"/>
<path d="M744 3948 c-18 -27 -202 -632 -197 -645 3 -8 13 -13 22 -11 11 2 42
87 113 313 54 171 97 319 95 329 -3 24 -22 32 -33 14z"/>
<path d="M392 3723 c-50 -49 -92 -93 -92 -99 0 -6 43 -52 95 -104 90 -88 97
-92 113 -77 15 16 11 22 -66 100 l-82 82 80 80 c44 44 79 84 77 90 -9 26 -39
9 -125 -72z"/>
<path d="M810 3793 c0 -10 35 -53 77 -95 l78 -78 -78 -78 c-76 -77 -87 -94
-66 -108 12 -7 199 173 199 191 0 5 -39 49 -87 97 -85 85 -123 107 -123 71z"/>
<path d="M6308 3871 c-31 -17 -38 -18 -38 -6 0 12 -13 15 -60 15 l-60 0 2
-277 3 -278 60 0 60 0 3 87 3 86 39 -15 c73 -29 146 4 181 81 28 61 26 178 -3
236 -42 80 -120 109 -190 71z m67 -101 c25 -28 32 -115 12 -163 -14 -32 -20
-37 -49 -37 -51 0 -58 14 -58 110 0 54 5 91 12 98 19 19 63 14 83 -8z"/>
<path d="M612 2610 c-50 -31 -72 -75 -72 -147 0 -53 -3 -63 -20 -68 -11 -3
-29 -18 -40 -32 -17 -22 -20 -40 -20 -135 0 -179 9 -187 217 -188 166 0 196 7
219 51 17 33 20 213 4 254 -5 14 -23 34 -40 43 -28 16 -30 21 -30 77 0 99 -58
165 -145 165 -22 0 -54 -9 -73 -20z m131 -82 c11 -13 17 -37 17 -69 l0 -49
-75 0 -75 0 0 46 c0 25 5 54 11 65 22 42 89 46 122 7z"/>
<path d="M6166 2439 l74 -131 -51 -92 c-28 -50 -63 -110 -76 -133 l-25 -43 74
0 74 0 39 81 c22 44 43 83 47 85 4 3 27 -33 50 -81 l42 -85 74 0 73 0 -42 78
c-24 42 -56 100 -72 127 -17 28 -30 55 -30 61 0 9 76 150 125 232 l20 32 -76
0 -75 0 -41 -87 -42 -88 -44 88 -44 87 -74 0 -75 0 75 -131z"/>
<path d="M4984 658 l-31 -83 29 -3 c17 -2 32 -1 34 1 3 3 4 41 2 87 l-3 82
-31 -84z"/>
<path d="M3220 586 c0 -10 8 -16 22 -16 12 0 19 1 17 3 -2 1 -12 9 -21 16 -15
12 -18 11 -18 -3z"/>
</g>
</svg>
