<svg width="64" height="61" viewBox="0 0 64 61" fill="none" xmlns="http://www.w3.org/2000/svg">
<g id="jsopx-asp-core-logo-white-fill">
<path d="M45 59.0342H62C62 59.9316 61.2865 60.6592 60.4062 60.6592H46.5938C45.7135 60.6592 45 59.9316 45 59.0342Z" fill="white"/>
<path d="M3.1 53.6592C3.1 53.705 3.10154 53.7504 3.10457 53.7954L3.0625 53.772V56.3258C3.0625 56.6779 3.14578 56.87 3.21608 56.9775C3.29082 57.0918 3.39808 57.1816 3.53766 57.2527C3.68141 57.326 3.83801 57.368 3.96764 57.3901C4.02994 57.4007 4.07953 57.4055 4.10939 57.4077L4.12107 57.4085L4.13459 57.4092H16.875C17.2203 57.4092 17.4087 57.3243 17.5141 57.2526C17.5727 57.2127 17.6248 57.1638 17.671 57.1059C17.6778 57.0308 17.6887 56.9553 17.7039 56.8797L17.9375 55.7137V49.8258C17.9375 49.4737 17.8542 49.2817 17.7839 49.1742C17.7092 49.0599 17.6019 48.9701 17.4623 48.899C17.3186 48.8257 17.162 48.7837 17.0324 48.7616C16.9701 48.751 16.9205 48.7462 16.8906 48.744C16.8782 48.7431 16.8696 48.7427 16.8654 48.7425H4.125C3.77967 48.7425 3.59131 48.8274 3.48585 48.8991C3.37374 48.9753 3.28574 49.0847 3.21595 49.227C3.16107 49.3389 3.12405 49.4585 3.1 49.5676V53.6592Z" fill="white"/>
<path fill-rule="evenodd" clip-rule="evenodd" d="M28.6492 45.1166L22.4565 43.8758C21.8865 43.7616 21.3318 44.1311 21.2176 44.7011L19 55.7689V56.3258C19 56.3258 19 56.8814 18.7241 57.4299C18.7809 57.8645 19.1076 58.2345 19.5613 58.3254L25.754 59.5662C26.324 59.6804 26.8787 59.3109 26.9929 58.7409L29.4745 46.3555C29.5888 45.7855 29.2193 45.2308 28.6492 45.1166ZM24.1034 57.0884C23.9892 57.6584 23.4345 58.0279 22.8645 57.9137C22.2944 57.7995 21.9249 57.2448 22.0391 56.6748C22.1534 56.1048 22.708 55.7353 23.2781 55.8495C23.8481 55.9637 24.2176 56.5184 24.1034 57.0884Z" fill="white"/>
<path d="M47.6562 48.7425H59.3438C59.6371 48.7425 59.875 48.985 59.875 49.2842V57.4092H47.125V49.2842C47.125 48.985 47.3629 48.7425 47.6562 48.7425Z" fill="white"/>
<path fill-rule="evenodd" clip-rule="evenodd" d="M47.5 0.159169C51.2869 -0.787551 58 2.63558 58 6.53901C61.3137 6.53901 64 9.2253 64 12.539V48.539C64 50.7856 62.7653 52.7437 60.9375 53.772L60.8954 53.7954C60.8985 53.7504 60.9 53.705 60.9 53.6592V48.9321V47.6592C60.9 46.961 60.5422 46.3463 60 45.9886V43.2431C61.7659 42.4716 63 40.7095 63 38.6592C63 36.6088 61.7659 34.8468 60 34.0752V31.2431C61.7659 30.4716 63 28.7095 63 26.6592C63 24.6088 61.7659 22.8468 60 22.0752V19.2431C61.7659 18.4716 63 16.7095 63 14.6592C63 11.8977 60.7614 9.65915 58 9.65915C56.948 9.65915 55.9718 9.98406 55.1664 10.539H8.83355C8.02817 9.98406 7.05203 9.65915 6 9.65915C3.23858 9.65915 1 11.8977 1 14.6592C1 16.7095 2.2341 18.4716 4 19.2431V22.0752C3.29986 22.3811 2.68332 22.8427 2.19414 23.4163C1.44951 24.2893 1 25.4217 1 26.6592C1 27.4575 1.1871 28.2121 1.51986 28.8816C2.04168 29.9315 2.92169 30.772 4 31.2431V34.0752C2.2341 34.8468 1 36.6088 1 38.6592C1 40.7095 2.2341 42.4716 4 43.2431V45.9886C3.45778 46.3463 3.1 46.961 3.1 47.6592V47.8785C2 48.429 2 49.8258 2 49.8258V53.0112C0.772501 51.9126 0 50.316 0 48.539V12.539C0 9.31581 2.54155 6.68623 5.72991 6.54498L47.5 0.159169ZM3.0625 53.772C2.68047 53.5571 2.32435 53.3015 2 53.0112V56.3258C2 58.4925 4.125 58.4925 4.125 58.4925H8.375C8.375 59.2147 8.28646 59.7564 8.10938 60.1175H7.3125C7.0191 60.1175 6.78125 60.36 6.78125 60.6592H14.2188C14.2188 60.36 13.9809 60.1175 13.6875 60.1175H12.8906C12.7135 59.7564 12.625 59.2147 12.625 58.4925H16.875C17.2957 58.4925 17.6331 58.4076 17.9038 58.2714C17.7203 57.9222 17.6335 57.5199 17.671 57.1059C17.7133 57.053 17.7507 56.9926 17.784 56.9247C17.8559 56.7781 17.8971 56.6185 17.9188 56.4863C17.9291 56.4228 17.9339 56.3722 17.9361 56.3418C17.9369 56.3291 17.9373 56.3204 17.9375 56.3161V55.7137L17.7039 56.8797C17.6887 56.9553 17.6778 57.0308 17.671 57.1059C17.6248 57.1638 17.5727 57.2127 17.5141 57.2526C17.4087 57.3243 17.2203 57.4092 16.875 57.4092H4.13459L4.12107 57.4085L4.10939 57.4077C4.07953 57.4055 4.02994 57.4007 3.96764 57.3901C3.83801 57.368 3.68141 57.326 3.53766 57.2527C3.39808 57.1816 3.29082 57.0918 3.21608 56.9775C3.14578 56.87 3.0625 56.6779 3.0625 56.3258V53.772ZM3.0625 53.772V49.8356C3.06267 49.8313 3.06307 49.8226 3.06395 49.8099C3.06608 49.7795 3.07086 49.7289 3.08125 49.6654C3.08635 49.6342 3.09256 49.6014 3.1 49.5676V53.6592C3.1 53.705 3.10154 53.7504 3.10457 53.7954L3.0625 53.772ZM19 55.7689V56.3258C19 56.3258 19 56.8814 18.7241 57.4299C18.7095 57.3185 18.7127 57.2028 18.736 57.0865L19 55.7689ZM22.2462 6.53901H52V5.65916C52 4.35802 46.7623 4.84359 45.5 5.15916L22.2462 6.53901Z" fill="white"/>
<path fill-rule="evenodd" clip-rule="evenodd" d="M29.7115 54.3826L32.5446 47.2259C32.7402 46.7318 33.3119 46.4949 33.8215 46.6966L44.8954 51.0803C45.4051 51.2821 45.6597 51.8461 45.4641 52.3402L42.6311 59.4969C42.4355 59.9909 41.8638 60.2279 41.3541 60.0262L30.2802 55.6425C29.7706 55.4407 29.516 54.8766 29.7115 54.3826ZM42.5561 54.2933C43.0658 54.4951 43.3204 55.0592 43.1248 55.5532C42.9292 56.0473 42.3575 56.2843 41.8478 56.0825C41.3382 55.8808 41.0836 55.3167 41.2791 54.8226C41.4747 54.3285 42.0464 54.0916 42.5561 54.2933Z" fill="white"/>
<path fill-rule="evenodd" clip-rule="evenodd" d="M6.4375 37.0342V37.7741C6.80823 37.8884 7.125 38.1845 7.125 38.6154V40.2654C7.125 40.8266 6.58775 41.1592 6.09375 41.1592H4.03125C3.53725 41.1592 3 40.8266 3 40.2654V38.6154C3 38.1845 3.31677 37.8884 3.6875 37.7741V37.0342C3.6875 36.2748 4.30311 35.6592 5.0625 35.6592C5.82189 35.6592 6.4375 36.2748 6.4375 37.0342ZM4.375 37.0342C4.375 36.6545 4.6828 36.3467 5.0625 36.3467C5.4422 36.3467 5.75 36.6545 5.75 37.0342V37.7217H4.375V37.0342Z" fill="white"/>
<path fill-rule="evenodd" clip-rule="evenodd" d="M3.1 47.6592C3.1 46.961 3.45778 46.3463 4 45.9886V43.2431C2.2341 42.4716 1 40.7095 1 38.6592C1 40.8683 2.79086 42.6592 5 42.6592C7.20914 42.6592 9 40.8683 9 38.6592C9 36.45 7.20914 34.6592 5 34.6592C2.79086 34.6592 1 36.45 1 38.6592C1 36.6088 2.2341 34.8468 4 34.0752V31.2431C2.92169 30.772 2.04168 29.9315 1.51986 28.8816C2.26089 29.9275 3.48079 30.6102 4.86014 30.6102C7.11948 30.6102 8.95104 28.7786 8.95104 26.5193C8.95104 24.2599 7.11948 22.4283 4.86014 22.4283C3.84169 22.4283 2.91016 22.8005 2.19414 23.4163C2.68332 22.8427 3.29986 22.3811 4 22.0752V19.2431C2.2341 18.4716 1 16.7095 1 14.6592C1 16.8683 2.79086 18.6592 5 18.6592C7.20914 18.6592 9 16.8683 9 14.6592C9 12.45 7.20914 10.6592 5 10.6592C2.79086 10.6592 1 12.45 1 14.6592C1 11.8977 3.23858 9.65915 6 9.65915C7.05203 9.65915 8.02817 9.98406 8.83355 10.539H55.1664C55.9718 9.98406 56.948 9.65915 58 9.65915C60.7614 9.65915 63 11.8977 63 14.6592C63 12.45 61.2091 10.6592 59 10.6592C56.7909 10.6592 55 12.45 55 14.6592C55 16.8683 56.7909 18.6592 59 18.6592C61.2091 18.6592 63 16.8683 63 14.6592C63 16.7095 61.7659 18.4716 60 19.2431V22.0752C61.7659 22.8468 63 24.6088 63 26.6592C63 24.45 61.2091 22.6592 59 22.6592C56.7909 22.6592 55 24.45 55 26.6592C55 28.8683 56.7909 30.6592 59 30.6592C61.2091 30.6592 63 28.8683 63 26.6592C63 28.7095 61.7659 30.4716 60 31.2431V34.0752C61.7659 34.8468 63 36.6088 63 38.6592C63 36.45 61.2091 34.6592 59 34.6592C56.7909 34.6592 55 36.45 55 38.6592C55 40.8683 56.7909 42.6592 59 42.6592C61.2091 42.6592 63 40.8683 63 38.6592C63 40.7095 61.7659 42.4716 60 43.2431V45.9886C60.5422 46.3463 60.9 46.961 60.9 47.6592V48.9321C60.7422 48.2039 60.1054 47.6592 59.3438 47.6592H47.6562C46.776 47.6592 46.0625 48.3867 46.0625 49.2842V50.772C45.8531 50.5207 45.5778 50.3156 45.2496 50.1857L34.1757 45.802C33.1563 45.3985 32.0129 45.8724 31.6217 46.8606L29.2428 52.8703L30.5067 46.5623C30.7351 45.4223 29.9961 44.3129 28.856 44.0845L22.6633 42.8437C21.5233 42.6152 20.4139 43.3542 20.1855 44.4943L19 50.4109V49.8258C19 47.6592 16.875 47.6592 16.875 47.6592H4.125C3.70623 47.6592 3.36998 47.7433 3.1 47.8785V47.6592ZM2.19414 23.4163C1.32172 24.1665 0.769226 25.2784 0.769226 26.5193C0.769226 27.3993 1.04708 28.2144 1.51986 28.8816C1.1871 28.2121 1 27.4575 1 26.6592C1 25.4217 1.44951 24.2893 2.19414 23.4163ZM3.37339 17.759C2.74482 17.4285 2.22907 16.9124 1.89899 16.2836L2.89312 15.4551C2.7995 15.2077 2.74827 14.9394 2.74827 14.6592C2.74827 13.4165 3.75563 12.4092 4.99827 12.4092C5.65723 12.4092 6.25003 12.6925 6.66153 13.1439L4.74827 13.9092L5.24827 15.1592L5.91489 16.7146C5.63492 16.8397 5.32471 16.9092 4.99827 16.9092C4.71803 16.9092 4.44976 16.8579 4.20231 16.7643L3.37339 17.759ZM6.39662 16.422C6.91553 16.0098 7.24827 15.3734 7.24827 14.6592C7.24827 14.5558 7.2413 14.454 7.2278 14.3544L5.74827 14.9092L6.39662 16.422ZM4.34761 14.5833C4.38002 14.6257 4.3819 14.6841 4.35228 14.7285L4.05436 15.1754L4.45874 15.0406C4.5094 15.0237 4.5652 15.0409 4.59761 15.0833C4.63002 15.1257 4.6319 15.1841 4.60228 15.2285L4.30436 15.6754L4.70874 15.5406L4.7878 15.7778L4.0378 16.0278C3.98714 16.0447 3.93135 16.0275 3.89893 15.9851C3.86652 15.9426 3.86464 15.8843 3.89427 15.8398L4.19218 15.393L3.7878 15.5278C3.73714 15.5447 3.68135 15.5275 3.64893 15.4851C3.61652 15.4426 3.61464 15.3843 3.64427 15.3398L3.94218 14.893L3.5378 15.0278L3.45874 14.7906L4.20874 14.5406C4.2594 14.5237 4.3152 14.5409 4.34761 14.5833ZM5.95829 23.7347C5.99428 23.6191 5.92864 23.4964 5.81167 23.4608C5.6947 23.4252 5.5707 23.4902 5.53471 23.6058L3.76198 29.3038C3.72599 29.4195 3.79164 29.5421 3.90861 29.5777C4.02558 29.6133 4.14957 29.5484 4.18556 29.4327L5.95829 23.7347ZM3.46568 24.8302C3.55222 24.9158 3.55222 25.0546 3.46568 25.1402L2.07124 26.5193L3.46568 27.8984C3.55222 27.9839 3.55222 28.1227 3.46568 28.2083C3.37915 28.2939 3.23884 28.2939 3.15231 28.2083L1.60117 26.6742C1.51463 26.5886 1.51463 26.4499 1.60117 26.3643L3.15231 24.8302C3.23884 24.7446 3.37915 24.7446 3.46568 24.8302ZM6.25458 25.1402C6.16804 25.0546 6.16804 24.9158 6.25458 24.8302C6.34112 24.7446 6.48142 24.7446 6.56796 24.8302L8.11909 26.3643C8.20563 26.4499 8.20563 26.5886 8.11909 26.6742L6.56796 28.2083C6.48142 28.2939 6.34112 28.2939 6.25458 28.2083C6.16804 28.1227 6.16804 27.9839 6.25458 27.8984L7.64903 26.5193L6.25458 25.1402ZM58.2219 36.1826L59.0354 37.8369L59.8488 36.1826H61.216L59.8283 38.6504L61.2536 41.1592H59.8728L59.0354 39.4741L58.1979 41.1592H56.8137L58.2424 38.6504L56.8513 36.1826H58.2219ZM58.5868 29.2811V27.5587C58.6647 27.6467 58.7525 27.7207 58.85 27.7806C59.0095 27.8785 59.1998 27.9275 59.4208 27.9275C59.6555 27.9275 59.8617 27.8808 60.0395 27.7874C60.2195 27.6917 60.3699 27.5584 60.4906 27.3875C60.6114 27.2166 60.7025 27.0161 60.7641 26.7859C60.8256 26.5558 60.8563 26.3063 60.8563 26.0374V25.9656C60.8563 25.6853 60.8256 25.4301 60.7641 25.2C60.7025 24.9699 60.6103 24.7728 60.4872 24.6087C60.3664 24.4423 60.216 24.3147 60.036 24.2259C59.8583 24.137 59.6521 24.0926 59.4174 24.0926C59.1964 24.0926 59.0061 24.1404 58.8466 24.2361C58.7333 24.3051 58.6331 24.3935 58.5459 24.5014L58.5082 24.1609H57.435V29.2811H58.5868ZM58.7475 26.9295C58.6796 26.8778 58.626 26.8117 58.5868 26.7314V25.2721C58.5973 25.2502 58.6087 25.2296 58.621 25.2103C58.6711 25.1328 58.7372 25.0758 58.8192 25.0394C58.9035 25.0006 59.0072 24.9812 59.1303 24.9812C59.2374 24.9812 59.3274 25.0052 59.4003 25.053C59.4732 25.1009 59.5313 25.1692 59.5746 25.2581C59.6202 25.347 59.6532 25.4518 59.6737 25.5726C59.6942 25.691 59.7045 25.8221 59.7045 25.9656V26.0374C59.7045 26.1764 59.6954 26.3063 59.6771 26.427C59.6589 26.5478 59.6282 26.6549 59.5849 26.7483C59.5416 26.8395 59.4835 26.9113 59.4105 26.9637C59.3376 27.0138 59.2465 27.0389 59.1371 27.0389C58.973 27.0389 58.8432 27.0024 58.7475 26.9295ZM58.3234 14.6889C58.3234 14.8477 58.3352 14.9962 58.3586 15.1342C58.382 15.2722 58.4211 15.3933 58.4758 15.4975C58.5305 15.599 58.6047 15.6785 58.6984 15.7357C58.7922 15.793 58.9094 15.8217 59.05 15.8217C59.188 15.8217 59.3026 15.793 59.3937 15.7357C59.4875 15.6785 59.5617 15.599 59.6164 15.4975C59.6711 15.3933 59.7102 15.2722 59.7336 15.1342C59.757 14.9962 59.7687 14.8477 59.7687 14.6889V14.6068C59.7687 14.4532 59.757 14.3087 59.7336 14.1732C59.7102 14.0352 59.6711 13.9141 59.6164 13.81C59.5617 13.7032 59.4875 13.6199 59.3937 13.56C59.3 13.5001 59.1828 13.4701 59.0422 13.4701C58.9042 13.4701 58.7883 13.5001 58.6945 13.56C58.6034 13.6199 58.5305 13.7032 58.4758 13.81C58.4211 13.9141 58.382 14.0352 58.3586 14.1732C58.3352 14.3087 58.3234 14.4532 58.3234 14.6068V14.6889ZM57.007 14.6068V14.6889C57.007 14.9962 57.0513 15.2813 57.1398 15.5443C57.2284 15.8047 57.3586 16.0326 57.5305 16.2279C57.7023 16.4206 57.9159 16.5704 58.1711 16.6771C58.4263 16.7839 58.7193 16.8373 59.05 16.8373C59.3807 16.8373 59.6724 16.7839 59.925 16.6771C60.1776 16.5704 60.3898 16.4206 60.5617 16.2279C60.7336 16.0326 60.8638 15.8047 60.9523 15.5443C61.0409 15.2813 61.0852 14.9962 61.0852 14.6889V14.6068C61.0852 14.2969 61.0409 14.0118 60.9523 13.7514C60.8638 13.4883 60.7336 13.2605 60.5617 13.0678C60.3898 12.8751 60.1763 12.7253 59.9211 12.6186C59.6685 12.5092 59.3755 12.4545 59.0422 12.4545C58.7115 12.4545 58.4198 12.5092 58.1672 12.6186C57.9146 12.7253 57.7023 12.8751 57.5305 13.0678C57.3586 13.2605 57.2284 13.4883 57.1398 13.7514C57.0513 14.0118 57.007 14.2969 57.007 14.6068ZM31.1787 16.149H39.5767V17.574H33.3827V22.191H38.1707V23.578H33.3827V28.575H39.5767V30H31.4447V17.384L31.1787 16.149ZM26.0702 25.269L20.1422 16.149H17.6342L17.9002 17.403V30H19.4772V19.683C19.4772 19.4803 19.4709 19.2777 19.4582 19.075C19.4456 18.8597 19.4266 18.6507 19.4012 18.448C19.5279 18.6253 19.6546 18.809 19.7812 18.999C19.9079 19.1763 20.0219 19.3537 20.1232 19.531L27.0202 30.095H28.3122V16.149H26.7542V25.098C26.7542 25.3007 26.7606 25.516 26.7732 25.744C26.7859 25.972 26.7986 26.1937 26.8112 26.409C26.6846 26.2317 26.5579 26.0417 26.4312 25.839C26.3046 25.6363 26.1842 25.4463 26.0702 25.269ZM15.344 28.898C15.344 29.2527 15.211 29.5567 14.945 29.81C14.6917 30.0633 14.394 30.19 14.052 30.19C13.6973 30.19 13.3933 30.0633 13.14 29.81C12.8867 29.5567 12.76 29.2527 12.76 28.898C12.76 28.5433 12.8803 28.2393 13.121 27.986C13.3743 27.7327 13.6847 27.606 14.052 27.606C14.4067 27.606 14.7107 27.7327 14.964 27.986C15.2173 28.2393 15.344 28.5433 15.344 28.898ZM40.7325 17.574H44.7985V30H46.7555V17.574H50.8785V16.149H40.7325V17.574ZM24.147 40.132C23.509 40.132 22.959 40.0257 22.497 39.813C22.035 39.593 21.65 39.2923 21.342 38.911C21.0413 38.5297 20.8177 38.1007 20.671 37.624C20.5243 37.14 20.451 36.634 20.451 36.106C20.451 35.5487 20.5317 35.017 20.693 34.511C20.8617 34.005 21.1037 33.554 21.419 33.158C21.7343 32.7547 22.1267 32.4393 22.596 32.212C23.0653 31.9847 23.608 31.871 24.224 31.871C24.4807 31.871 24.763 31.9003 25.071 31.959C25.379 32.0177 25.676 32.1093 25.962 32.234C26.248 32.3587 26.4827 32.52 26.666 32.718L26.05 33.422C25.9107 33.268 25.7347 33.136 25.522 33.026C25.3167 32.916 25.0967 32.8353 24.862 32.784C24.6347 32.7253 24.4183 32.696 24.213 32.696C23.7877 32.696 23.4173 32.7913 23.102 32.982C22.7867 33.1653 22.5227 33.422 22.31 33.752C22.0973 34.0747 21.936 34.4377 21.826 34.841C21.7233 35.237 21.672 35.6403 21.672 36.051C21.672 36.711 21.7747 37.283 21.98 37.767C22.1927 38.2437 22.4897 38.614 22.871 38.878C23.2523 39.1347 23.7033 39.263 24.224 39.263C24.532 39.263 24.862 39.219 25.214 39.131C25.5733 39.043 25.9437 38.9037 26.325 38.713L26.688 39.373C26.5193 39.4903 26.3287 39.5967 26.116 39.692C25.9107 39.7873 25.6943 39.868 25.467 39.934C25.2397 40 25.0123 40.0477 24.785 40.077C24.5577 40.1137 24.345 40.132 24.147 40.132ZM28.1682 39.747C28.5422 40.011 28.9969 40.143 29.5322 40.143C29.9429 40.143 30.3059 40.0623 30.6212 39.901C30.9365 39.7397 31.2005 39.5233 31.4132 39.252C31.6259 38.9807 31.7872 38.6727 31.8972 38.328C32.0145 37.976 32.0732 37.613 32.0732 37.239C32.0732 36.733 31.9815 36.2637 31.7982 35.831C31.6149 35.3983 31.3362 35.0537 30.9622 34.797C30.5955 34.533 30.1409 34.401 29.5982 34.401C29.2022 34.401 28.8465 34.4817 28.5312 34.643C28.2159 34.797 27.9482 35.0133 27.7282 35.292C27.5082 35.5633 27.3432 35.875 27.2332 36.227C27.1232 36.5717 27.0682 36.931 27.0682 37.305C27.0682 37.8037 27.1599 38.2693 27.3432 38.702C27.5265 39.1347 27.8015 39.483 28.1682 39.747ZM29.5432 39.417C29.8219 39.417 30.0565 39.351 30.2472 39.219C30.4379 39.0797 30.5882 38.9037 30.6982 38.691C30.8155 38.471 30.8962 38.2363 30.9402 37.987C30.9915 37.7377 31.0172 37.4993 31.0172 37.272C31.0172 37.0373 30.9952 36.7953 30.9512 36.546C30.9072 36.2967 30.8339 36.0657 30.7312 35.853C30.6285 35.6403 30.4819 35.468 30.2912 35.336C30.1005 35.1967 29.8659 35.127 29.5872 35.127C29.3085 35.127 29.0739 35.1967 28.8832 35.336C28.6999 35.468 28.5495 35.644 28.4322 35.864C28.3222 36.0767 28.2415 36.3077 28.1902 36.557C28.1462 36.8063 28.1242 37.0447 28.1242 37.272C28.1242 37.492 28.1462 37.7267 28.1902 37.976C28.2415 38.2253 28.3185 38.46 28.4212 38.68C28.5312 38.8927 28.6779 39.0687 28.8612 39.208C29.0445 39.3473 29.2719 39.417 29.5432 39.417ZM34.0339 34.434C34.1733 34.764 34.2613 35.1123 34.2979 35.479C34.4813 35.1783 34.7343 34.929 35.0569 34.731C35.3869 34.533 35.7316 34.434 36.0909 34.434L35.8709 35.468C35.5263 35.468 35.2293 35.5597 34.9799 35.743C34.7306 35.919 34.5069 36.15 34.3089 36.436V40H33.3299V36.029C33.3299 35.8897 33.3189 35.7283 33.2969 35.545C33.2749 35.3543 33.2383 35.171 33.1869 34.995C33.1356 34.819 33.0659 34.6723 32.9779 34.555L34.0339 34.434ZM40.3664 34.687C40.0657 34.4963 39.6881 34.401 39.2334 34.401C38.8154 34.401 38.4487 34.4817 38.1334 34.643C37.8254 34.8043 37.5651 35.028 37.3524 35.314C37.1397 35.5927 36.9821 35.9043 36.8794 36.249C36.7767 36.5937 36.7254 36.953 36.7254 37.327C36.7254 37.6863 36.7767 38.0383 36.8794 38.383C36.9894 38.7203 37.1507 39.021 37.3634 39.285C37.5761 39.549 37.8437 39.758 38.1664 39.912C38.4891 40.066 38.8667 40.143 39.2994 40.143C39.6221 40.143 39.9484 40.0917 40.2784 39.989C40.6157 39.8863 40.9127 39.7323 41.1694 39.527L40.8284 38.944C40.5717 39.076 40.3261 39.1787 40.0914 39.252C39.8641 39.318 39.6441 39.351 39.4314 39.351C38.9254 39.351 38.5221 39.1677 38.2214 38.801C37.9207 38.427 37.7704 37.9027 37.7704 37.228H41.2244C41.2391 37.1107 41.2501 36.997 41.2574 36.887C41.2721 36.777 41.2794 36.667 41.2794 36.557C41.2794 36.139 41.2024 35.7687 41.0484 35.446C40.9017 35.1233 40.6744 34.8703 40.3664 34.687ZM39.1564 35.127C38.9071 35.127 38.6871 35.1967 38.4964 35.336C38.3131 35.4753 38.1664 35.6513 38.0564 35.864C37.9464 36.0767 37.8694 36.293 37.8254 36.513H40.2454C40.2601 36.2197 40.2234 35.9703 40.1354 35.765C40.0547 35.5597 39.9301 35.402 39.7614 35.292C39.5927 35.182 39.3911 35.127 39.1564 35.127Z" fill="white"/>
</g>
</svg>
