<svg width="64" height="62" viewBox="0 0 64 62" fill="none" xmlns="http://www.w3.org/2000/svg">
<g id="jsopx-blazor-core-logo">
<path d="M46.7925 21.6073C46.144 26.1056 44.0742 30.2034 40.9514 33.1716C37.8287 36.1399 33.8555 37.786 29.7388 37.8172C28.905 37.8531 28.0701 37.7975 27.2463 37.6513C25.5234 37.3275 23.953 36.3599 22.797 34.9098C21.6409 33.4598 20.9692 31.615 20.8938 29.6832C20.9012 27.522 21.6788 25.4513 23.0577 23.9205C24.4366 22.3898 26.3055 21.5227 28.2587 21.5074C30.2119 21.4921 32.0918 22.3298 33.4901 23.8388C34.8885 25.3478 35.6924 27.4062 35.7275 29.5671C35.7588 30.9266 35.2263 32.1202 34.1313 32.1548C32.9613 32.1548 32.4138 31.2309 32.4138 29.9875V26.5298C32.4144 25.9703 32.215 25.4333 31.859 25.036C31.503 24.6387 31.0194 24.4135 30.5138 24.4095H27.8938C27.1319 24.4039 26.3809 24.6097 25.7094 25.008C25.0379 25.4063 24.4673 25.9844 24.0497 26.6895C23.6321 27.3947 23.3809 28.2043 23.3189 29.0446C23.2569 29.8848 23.3862 30.7288 23.695 31.4995C24.0037 32.2702 24.4821 32.9431 25.0863 33.4565C25.6906 33.97 26.4015 34.3078 27.1541 34.439C27.9067 34.5702 28.6771 34.4906 29.3948 34.2076C30.1124 33.9245 30.7546 33.4471 31.2625 32.8187L31.3538 32.6666L31.4463 32.8339C31.7612 33.3075 32.1771 33.6877 32.6569 33.9406C33.1366 34.1934 33.6654 34.3112 34.1963 34.2834C35.1426 34.2074 36.0245 33.7251 36.6539 32.9396C37.2833 32.154 37.6102 31.1274 37.565 30.0788C37.5743 29.1787 37.4832 28.2807 37.2938 27.4053C36.8093 24.9314 35.5139 22.7437 33.6576 21.2643C31.8012 19.7849 29.5154 19.1187 27.2413 19.3942C24.9672 19.6697 22.8659 20.8675 21.3428 22.7563C19.8198 24.6451 18.9829 27.0911 18.9938 29.6224C19.0228 32.3056 19.9908 34.872 21.6943 36.782C23.3979 38.6919 25.7043 39.7968 28.1288 39.8642C28.1288 39.8642 28.815 39.9334 29.5875 39.9126C33.3476 39.8865 37.0227 38.6735 40.1813 36.4161C40.2263 36.3816 40.2713 36.4507 40.2413 36.5005C38.7036 38.3332 36.8234 39.773 34.7315 40.7196C32.6396 41.6662 30.3864 42.0969 28.1288 41.9817C26.6528 42.0114 25.1867 41.71 23.8189 41.0956C22.451 40.4812 21.2099 39.5667 20.1703 38.407C19.1306 37.2474 18.3141 35.8667 17.7698 34.3484C17.2256 32.83 16.965 31.2054 17.0038 29.5726C17.0045 27.626 17.4156 25.7064 18.2043 23.9664C18.9931 22.2264 20.1378 20.7139 21.5475 19.5493C23.4419 18.0058 25.7312 17.1697 28.0838 17.1621H31.6C32.9737 17.1609 34.332 16.8433 35.5886 16.2294C36.8452 15.6155 37.9725 14.7188 38.8988 13.5964C38.9182 13.5725 38.9441 13.5561 38.9725 13.5494C39.0013 13.5426 39.0313 13.5461 39.0582 13.5592C39.0852 13.5724 39.1077 13.5946 39.1225 13.6227C39.1373 13.6507 39.1439 13.6831 39.1413 13.7154C38.9924 15.4638 38.4664 17.1472 37.6075 18.624C37.5945 18.6492 37.5884 18.678 37.59 18.707C37.5921 18.7363 37.6019 18.7643 37.6181 18.7876C37.6343 18.8109 37.6562 18.8286 37.6813 18.8384C37.7061 18.8485 37.733 18.8504 37.7588 18.8439C39.3818 18.4382 40.8961 17.6166 42.1799 16.4453C43.4636 15.274 44.4809 13.7856 45.15 12.0999C45.1671 12.0695 45.1907 12.0443 45.2188 12.0266C45.2468 12.0092 45.2785 12 45.3107 12C45.3428 12 45.3745 12.0092 45.4025 12.0266C45.4302 12.0444 45.4534 12.0696 45.47 12.0999C46.8479 15.0199 47.3129 18.364 46.7925 21.6073ZM28.1188 26.4855C27.5778 26.4855 27.0491 26.663 26.5993 26.9955C26.1495 27.328 25.799 27.8007 25.592 28.3536C25.385 28.9066 25.3308 29.5151 25.4363 30.1021C25.5419 30.6891 25.8023 31.2284 26.1848 31.6516C26.5673 32.0748 27.0547 32.363 27.5852 32.4798C28.1157 32.5966 28.6657 32.5366 29.1654 32.3076C29.6652 32.0785 30.0923 31.6907 30.3928 31.193C30.6934 30.6953 30.8538 30.1103 30.8538 29.5117V26.6874C30.8514 26.6333 30.8308 26.5821 30.7962 26.5437C30.7615 26.5054 30.7152 26.4827 30.6663 26.48L28.1188 26.4855Z" fill="black"/>
<path d="M28.6492 45.1166C29.2193 45.2308 29.5888 45.7855 29.4745 46.3555L26.9929 58.7409C26.8787 59.3109 26.324 59.6804 25.754 59.5662L19.5613 58.3254C18.9913 58.2112 18.6218 57.6565 18.736 57.0865L21.2176 44.7011C21.3318 44.1311 21.8865 43.7616 22.4565 43.8758L28.6492 45.1166ZM22.6633 42.8437C21.5233 42.6152 20.4139 43.3542 20.1855 44.4943L17.7039 56.8797C17.4755 58.0197 18.2145 59.1291 19.3545 59.3575L25.5472 60.5983C26.6873 60.8268 27.7966 60.0878 28.0251 58.9477L30.5067 46.5623C30.7351 45.4223 29.9961 44.3129 28.856 44.0845L22.6633 42.8437Z" fill="black"/>
<path d="M22.8645 57.9137C23.4345 58.0279 23.9892 57.6584 24.1034 57.0884C24.2176 56.5184 23.8481 55.9637 23.2781 55.8495C22.708 55.7353 22.1534 56.1048 22.0391 56.6748C21.9249 57.2448 22.2944 57.7995 22.8645 57.9137Z" fill="black"/>
<path d="M32.5446 47.2259C32.7402 46.7318 33.3119 46.4949 33.8215 46.6966L44.8954 51.0803C45.4051 51.2821 45.6597 51.8461 45.4641 52.3402L42.6311 59.4969C42.4355 59.9909 41.8638 60.2279 41.3542 60.0262L30.2803 55.6425C29.7706 55.4407 29.516 54.8766 29.7116 54.3826L32.5446 47.2259ZM28.7887 54.0173C28.3976 55.0054 28.9068 56.1335 29.9261 56.5371L41 60.9207C42.0194 61.3242 43.1628 60.8503 43.5539 59.8622L46.387 52.7055C46.7781 51.7174 46.2689 50.5892 45.2496 50.1857L34.1757 45.802C33.1563 45.3985 32.0129 45.8724 31.6218 46.8606L28.7887 54.0173Z" fill="black"/>
<path d="M43.1248 55.5532C43.3204 55.0592 43.0658 54.4951 42.5561 54.2933C42.0464 54.0916 41.4747 54.3286 41.2791 54.8226C41.0836 55.3167 41.3382 55.8808 41.8478 56.0825C42.3575 56.2843 42.9292 56.0473 43.1248 55.5532Z" fill="black"/>
<path fill-rule="evenodd" clip-rule="evenodd" d="M4.125 47.6592C2 47.6592 2 49.8258 2 49.8258V56.3258C2 58.4925 4.125 58.4925 4.125 58.4925H8.375C8.375 59.2147 8.28646 59.7564 8.10938 60.1175H7.3125C7.0191 60.1175 6.78125 60.36 6.78125 60.6592H14.2188C14.2188 60.36 13.9809 60.1175 13.6875 60.1175H12.8906C12.7135 59.7564 12.625 59.2147 12.625 58.4925H16.875C19 58.4925 19 56.3258 19 56.3258V49.8258C19 47.6592 16.875 47.6592 16.875 47.6592H4.125ZM3.48585 48.8991C3.59131 48.8274 3.77967 48.7425 4.125 48.7425H16.8654C16.8696 48.7427 16.8782 48.7431 16.8906 48.744C16.9205 48.7462 16.9701 48.751 17.0324 48.7616C17.162 48.7837 17.3186 48.8257 17.4623 48.899C17.6019 48.9701 17.7092 49.0599 17.7839 49.1742C17.8542 49.2817 17.9375 49.4737 17.9375 49.8258V56.3161C17.9373 56.3204 17.9369 56.3291 17.9361 56.3418C17.9339 56.3722 17.9291 56.4228 17.9188 56.4863C17.8971 56.6185 17.8559 56.7781 17.784 56.9247C17.7143 57.067 17.6263 57.1764 17.5141 57.2526C17.4087 57.3243 17.2203 57.4092 16.875 57.4092H4.13459C4.13036 57.409 4.12178 57.4086 4.10939 57.4077C4.07953 57.4055 4.02994 57.4007 3.96764 57.3901C3.83801 57.368 3.68141 57.326 3.53766 57.2527C3.39808 57.1816 3.29082 57.0918 3.21608 56.9775C3.14578 56.87 3.0625 56.6779 3.0625 56.3258V49.8356C3.06267 49.8313 3.06307 49.8226 3.06395 49.8099C3.06608 49.7795 3.07086 49.7289 3.08125 49.6654C3.10285 49.5332 3.14408 49.3736 3.21595 49.227C3.28574 49.0847 3.37374 48.9753 3.48585 48.8991Z" fill="black"/>
<path d="M59.3438 48.7425C59.6372 48.7425 59.875 48.985 59.875 49.2842V57.4092H47.125V49.2842C47.125 48.985 47.3628 48.7425 47.6562 48.7425H59.3438ZM47.6562 47.6592C46.776 47.6592 46.0625 48.3867 46.0625 49.2842V58.4925H60.9375V49.2842C60.9375 48.3867 60.224 47.6592 59.3438 47.6592H47.6562Z" fill="black"/>
<path d="M45 59.0342H62C62 59.9316 61.2865 60.6592 60.4062 60.6592H46.5938C45.7135 60.6592 45 59.9316 45 59.0342Z" fill="black"/>
<path d="M5.35228 14.7285C5.3819 14.6841 5.38002 14.6257 5.34761 14.5833C5.3152 14.5409 5.2594 14.5237 5.20874 14.5406L4.45874 14.7906L4.5378 15.0278L4.94218 14.893L4.64427 15.3398C4.61464 15.3843 4.61652 15.4426 4.64893 15.4851C4.68135 15.5275 4.73714 15.5447 4.7878 15.5278L5.19218 15.393L4.89427 15.8398C4.86464 15.8843 4.86652 15.9426 4.89893 15.9851C4.93135 16.0275 4.98714 16.0447 5.0378 16.0278L5.7878 15.7778L5.70874 15.5406L5.30436 15.6754L5.60228 15.2285C5.6319 15.1841 5.63002 15.1257 5.59761 15.0833C5.5652 15.0409 5.5094 15.0237 5.45874 15.0406L5.05436 15.1754L5.35228 14.7285Z" fill="black"/>
<path d="M6 18.6592C8.20914 18.6592 10 16.8683 10 14.6592C10 12.45 8.20914 10.6592 6 10.6592C3.79086 10.6592 2 12.45 2 14.6592C2 16.8683 3.79086 18.6592 6 18.6592ZM2.89899 16.2836L3.89312 15.4551C3.7995 15.2077 3.74827 14.9394 3.74827 14.6592C3.74827 13.4165 4.75563 12.4092 5.99827 12.4092C6.65723 12.4092 7.25003 12.6925 7.66153 13.1439L5.74827 13.9092L6.24827 15.1592L6.91489 16.7146C6.63492 16.8397 6.32471 16.9092 5.99827 16.9092C5.71803 16.9092 5.44976 16.8579 5.20231 16.7643L4.37339 17.759C3.74482 17.4285 3.22907 16.9124 2.89899 16.2836ZM8.24827 14.6592C8.24827 15.3734 7.91553 16.0098 7.39662 16.422L6.74827 14.9092L8.2278 14.3544C8.2413 14.454 8.24827 14.5558 8.24827 14.6592Z" fill="black"/>
<path fill-rule="evenodd" clip-rule="evenodd" d="M5.86014 30.6102C8.11948 30.6102 9.95104 28.7786 9.95104 26.5193C9.95104 24.2599 8.11948 22.4283 5.86014 22.4283C3.60079 22.4283 1.76923 24.2599 1.76923 26.5193C1.76923 28.7786 3.60079 30.6102 5.86014 30.6102ZM6.95829 23.7347C6.99428 23.6191 6.92864 23.4964 6.81167 23.4608C6.6947 23.4252 6.5707 23.4902 6.53471 23.6058L4.76198 29.3038C4.72599 29.4195 4.79164 29.5421 4.90861 29.5777C5.02558 29.6133 5.14957 29.5484 5.18556 29.4327L6.95829 23.7347ZM4.46568 24.8302C4.55222 24.9158 4.55222 25.0546 4.46568 25.1402L3.07124 26.5193L4.46568 27.8984C4.55222 27.9839 4.55222 28.1227 4.46568 28.2083C4.37915 28.2939 4.23884 28.2939 4.15231 28.2083L2.60117 26.6742C2.51463 26.5886 2.51463 26.4499 2.60117 26.3643L4.15231 24.8302C4.23884 24.7447 4.37915 24.7447 4.46568 24.8302ZM7.25458 25.1402C7.16804 25.0546 7.16804 24.9158 7.25458 24.8302C7.34112 24.7447 7.48142 24.7447 7.56796 24.8302L9.11909 26.3643C9.20563 26.4499 9.20563 26.5886 9.11909 26.6742L7.56796 28.2083C7.48142 28.2939 7.34112 28.2939 7.25458 28.2083C7.16804 28.1227 7.16804 27.9839 7.25458 27.8984L8.64903 26.5193L7.25458 25.1402Z" fill="black"/>
<path d="M5.375 37.0342C5.375 36.6545 5.6828 36.3467 6.0625 36.3467C6.4422 36.3467 6.75 36.6545 6.75 37.0342V37.7217H5.375V37.0342Z" fill="black"/>
<path fill-rule="evenodd" clip-rule="evenodd" d="M6 42.6592C8.20914 42.6592 10 40.8683 10 38.6592C10 36.45 8.20914 34.6592 6 34.6592C3.79086 34.6592 2 36.45 2 38.6592C2 40.8683 3.79086 42.6592 6 42.6592ZM7.4375 37.7741V37.0342C7.4375 36.2748 6.82189 35.6592 6.0625 35.6592C5.30311 35.6592 4.6875 36.2748 4.6875 37.0342V37.7741C4.31677 37.8884 4 38.1845 4 38.6154V40.2654C4 40.8266 4.53725 41.1592 5.03125 41.1592H7.09375C7.58775 41.1592 8.125 40.8266 8.125 40.2654V38.6154C8.125 38.1845 7.80823 37.8884 7.4375 37.7741Z" fill="black"/>
<path fill-rule="evenodd" clip-rule="evenodd" d="M58 42.6592C60.2091 42.6592 62 40.8683 62 38.6592C62 36.45 60.2091 34.6592 58 34.6592C55.7909 34.6592 54 36.45 54 38.6592C54 40.8683 55.7909 42.6592 58 42.6592ZM58.0354 37.8369L57.2219 36.1826H55.8513L57.2424 38.6504L55.8137 41.1592H57.1979L58.0354 39.4741L58.8728 41.1592H60.2536L58.8283 38.6504L60.216 36.1826H58.8488L58.0354 37.8369Z" fill="black"/>
<path d="M57.5868 26.7314C57.626 26.8117 57.6796 26.8778 57.7475 26.9295C57.8432 27.0024 57.973 27.0389 58.1371 27.0389C58.2465 27.0389 58.3376 27.0138 58.4105 26.9637C58.4835 26.9113 58.5416 26.8395 58.5849 26.7483C58.6282 26.6549 58.6589 26.5478 58.6771 26.427C58.6954 26.3063 58.7045 26.1764 58.7045 26.0374V25.9656C58.7045 25.8221 58.6942 25.691 58.6737 25.5726C58.6532 25.4518 58.6202 25.347 58.5746 25.2581C58.5313 25.1692 58.4732 25.1009 58.4003 25.053C58.3274 25.0052 58.2374 24.9812 58.1303 24.9812C58.0072 24.9812 57.9035 25.0006 57.8192 25.0394C57.7372 25.0758 57.6711 25.1328 57.621 25.2103C57.6087 25.2296 57.5973 25.2502 57.5868 25.2721V26.7314Z" fill="black"/>
<path fill-rule="evenodd" clip-rule="evenodd" d="M58 30.6592C60.2091 30.6592 62 28.8683 62 26.6592C62 24.45 60.2091 22.6592 58 22.6592C55.7909 22.6592 54 24.45 54 26.6592C54 28.8683 55.7909 30.6592 58 30.6592ZM57.5868 27.5587V29.2811H56.435V24.1609H57.5082L57.5459 24.5014C57.6331 24.3935 57.7333 24.3051 57.8466 24.2361C58.0061 24.1404 58.1964 24.0926 58.4174 24.0926C58.6521 24.0926 58.8583 24.137 59.036 24.2259C59.216 24.3147 59.3664 24.4423 59.4872 24.6087C59.6103 24.7728 59.7025 24.9699 59.7641 25.2C59.8256 25.4301 59.8563 25.6853 59.8563 25.9656V26.0374C59.8563 26.3063 59.8256 26.5558 59.7641 26.7859C59.7025 27.0161 59.6114 27.2166 59.4906 27.3875C59.3699 27.5584 59.2195 27.6917 59.0395 27.7874C58.8617 27.8808 58.6555 27.9275 58.4208 27.9275C58.1998 27.9275 58.0095 27.8785 57.85 27.7806C57.7525 27.7207 57.6647 27.6467 57.5868 27.5587Z" fill="black"/>
<path d="M57.3234 14.6889V14.6068C57.3234 14.4532 57.3352 14.3087 57.3586 14.1732C57.382 14.0352 57.4211 13.9141 57.4758 13.81C57.5305 13.7032 57.6034 13.6199 57.6945 13.56C57.7883 13.5001 57.9042 13.4701 58.0422 13.4701C58.1828 13.4701 58.3 13.5001 58.3937 13.56C58.4875 13.6199 58.5617 13.7032 58.6164 13.81C58.6711 13.9141 58.7102 14.0352 58.7336 14.1732C58.757 14.3087 58.7687 14.4532 58.7687 14.6068V14.6889C58.7687 14.8477 58.757 14.9962 58.7336 15.1342C58.7102 15.2722 58.6711 15.3933 58.6164 15.4975C58.5617 15.599 58.4875 15.6785 58.3937 15.7357C58.3026 15.793 58.188 15.8217 58.05 15.8217C57.9094 15.8217 57.7922 15.793 57.6984 15.7357C57.6047 15.6785 57.5305 15.599 57.4758 15.4975C57.4211 15.3933 57.382 15.2722 57.3586 15.1342C57.3352 14.9962 57.3234 14.8477 57.3234 14.6889Z" fill="black"/>
<path fill-rule="evenodd" clip-rule="evenodd" d="M58 18.6592C60.2091 18.6592 62 16.8683 62 14.6592C62 12.45 60.2091 10.6592 58 10.6592C55.7909 10.6592 54 12.45 54 14.6592C54 16.8683 55.7909 18.6592 58 18.6592ZM56.007 14.6068V14.6889C56.007 14.9962 56.0513 15.2813 56.1398 15.5443C56.2284 15.8047 56.3586 16.0326 56.5305 16.2279C56.7023 16.4206 56.9159 16.5704 57.1711 16.6771C57.4263 16.7839 57.7193 16.8373 58.05 16.8373C58.3807 16.8373 58.6724 16.7839 58.925 16.6771C59.1776 16.5704 59.3898 16.4206 59.5617 16.2279C59.7336 16.0326 59.8638 15.8047 59.9523 15.5443C60.0409 15.2813 60.0852 14.9962 60.0852 14.6889V14.6068C60.0852 14.2969 60.0409 14.0118 59.9523 13.7514C59.8638 13.4883 59.7336 13.2605 59.5617 13.0678C59.3898 12.8751 59.1763 12.7253 58.9211 12.6186C58.6685 12.5092 58.3755 12.4545 58.0422 12.4545C57.7115 12.4545 57.4198 12.5092 57.1672 12.6186C56.9146 12.7253 56.7023 12.8751 56.5305 13.0678C56.3586 13.2605 56.2284 13.4883 56.1398 13.7514C56.0513 14.0118 56.007 14.2969 56.007 14.6068Z" fill="black"/>
<path fill-rule="evenodd" clip-rule="evenodd" d="M58 6.53901C58 2.63558 51.2869 -0.787551 47.5 0.159169L5.72991 6.54498C2.54155 6.68623 0 9.31581 0 12.539V48.539C0 50.8028 1.25366 52.7737 3.10457 53.7954C3.10154 53.7504 3.1 53.705 3.1 53.6592V47.6592C3.1 46.961 3.45778 46.3463 4 45.9886V43.2431C2.2341 42.4716 1 40.7095 1 38.6592C1 36.6088 2.2341 34.8468 4 34.0752V31.2431C2.2341 30.4716 1 28.7095 1 26.6592C1 24.6088 2.2341 22.8468 4 22.0752V19.2431C2.2341 18.4716 1 16.7095 1 14.6592C1 11.8977 3.23858 9.65915 6 9.65915C7.05203 9.65915 8.02817 9.98406 8.83355 10.539H55.1664C55.9718 9.98406 56.948 9.65915 58 9.65915C60.7614 9.65915 63 11.8977 63 14.6592C63 16.7095 61.7659 18.4716 60 19.2431V22.0752C61.7659 22.8468 63 24.6088 63 26.6592C63 28.7095 61.7659 30.4716 60 31.2431V34.0752C61.7659 34.8468 63 36.6088 63 38.6592C63 40.7095 61.7659 42.4716 60 43.2431V45.9886C60.5422 46.3463 60.9 46.961 60.9 47.6592V53.6592C60.9 53.705 60.8985 53.7504 60.8954 53.7954C62.7463 52.7737 64 50.8028 64 48.539V12.539C64 9.2253 61.3137 6.53901 58 6.53901ZM52 6.53901H22.2462L45.5 5.15916C46.7623 4.84359 52 4.35802 52 5.65916V6.53901Z" fill="black"/>
<path d="M28.6492 45.1166C29.2193 45.2308 29.5888 45.7855 29.4745 46.3555L26.9929 58.7409C26.8787 59.3109 26.324 59.6804 25.754 59.5662L19.5613 58.3254C18.9913 58.2112 18.6218 57.6565 18.736 57.0865L21.2176 44.7011C21.3318 44.1311 21.8865 43.7616 22.4565 43.8758L28.6492 45.1166ZM22.6633 42.8437C21.5233 42.6152 20.4139 43.3542 20.1855 44.4943L17.7039 56.8797C17.4755 58.0197 18.2145 59.1291 19.3545 59.3575L25.5472 60.5983C26.6873 60.8268 27.7966 60.0878 28.0251 58.9477L30.5067 46.5623C30.7351 45.4223 29.9961 44.3129 28.856 44.0845L22.6633 42.8437Z" fill="black"/>
<path d="M22.8645 57.9137C23.4345 58.0279 23.9892 57.6584 24.1034 57.0884C24.2176 56.5184 23.8481 55.9637 23.2781 55.8495C22.708 55.7353 22.1534 56.1048 22.0391 56.6748C21.9249 57.2448 22.2944 57.7995 22.8645 57.9137Z" fill="black"/>
<path d="M32.5446 47.2259C32.7402 46.7318 33.3119 46.4949 33.8215 46.6966L44.8954 51.0803C45.4051 51.2821 45.6597 51.8461 45.4641 52.3402L42.6311 59.4969C42.4355 59.9909 41.8638 60.2279 41.3542 60.0262L30.2803 55.6425C29.7706 55.4407 29.516 54.8766 29.7116 54.3826L32.5446 47.2259ZM28.7887 54.0173C28.3976 55.0054 28.9068 56.1335 29.9261 56.5371L41 60.9207C42.0194 61.3242 43.1628 60.8503 43.5539 59.8622L46.387 52.7055C46.7781 51.7174 46.2689 50.5892 45.2496 50.1857L34.1757 45.802C33.1563 45.3985 32.0129 45.8724 31.6218 46.8606L28.7887 54.0173Z" fill="black"/>
<path d="M43.1248 55.5532C43.3204 55.0592 43.0658 54.4951 42.5561 54.2933C42.0464 54.0916 41.4747 54.3286 41.2791 54.8226C41.0836 55.3167 41.3382 55.8808 41.8478 56.0825C42.3575 56.2843 42.9292 56.0473 43.1248 55.5532Z" fill="black"/>
<path fill-rule="evenodd" clip-rule="evenodd" d="M4.125 47.6592C2 47.6592 2 49.8258 2 49.8258V56.3258C2 58.4925 4.125 58.4925 4.125 58.4925H8.375C8.375 59.2147 8.28646 59.7564 8.10938 60.1175H7.3125C7.0191 60.1175 6.78125 60.36 6.78125 60.6592H14.2188C14.2188 60.36 13.9809 60.1175 13.6875 60.1175H12.8906C12.7135 59.7564 12.625 59.2147 12.625 58.4925H16.875C19 58.4925 19 56.3258 19 56.3258V49.8258C19 47.6592 16.875 47.6592 16.875 47.6592H4.125ZM3.48585 48.8991C3.59131 48.8274 3.77967 48.7425 4.125 48.7425H16.8654C16.8696 48.7427 16.8782 48.7431 16.8906 48.744C16.9205 48.7462 16.9701 48.751 17.0324 48.7616C17.162 48.7837 17.3186 48.8257 17.4623 48.899C17.6019 48.9701 17.7092 49.0599 17.7839 49.1742C17.8542 49.2817 17.9375 49.4737 17.9375 49.8258V56.3161C17.9373 56.3204 17.9369 56.3291 17.9361 56.3418C17.9339 56.3722 17.9291 56.4228 17.9188 56.4863C17.8971 56.6185 17.8559 56.7781 17.784 56.9247C17.7143 57.067 17.6263 57.1764 17.5141 57.2526C17.4087 57.3243 17.2203 57.4092 16.875 57.4092H4.13459C4.13036 57.409 4.12178 57.4086 4.10939 57.4077C4.07953 57.4055 4.02994 57.4007 3.96764 57.3901C3.83801 57.368 3.68141 57.326 3.53766 57.2527C3.39808 57.1816 3.29082 57.0918 3.21608 56.9775C3.14578 56.87 3.0625 56.6779 3.0625 56.3258V49.8356C3.06267 49.8313 3.06307 49.8226 3.06395 49.8099C3.06608 49.7795 3.07086 49.7289 3.08125 49.6654C3.10285 49.5332 3.14408 49.3736 3.21595 49.227C3.28574 49.0847 3.37374 48.9753 3.48585 48.8991Z" fill="black"/>
<path d="M59.3438 48.7425C59.6372 48.7425 59.875 48.985 59.875 49.2842V57.4092H47.125V49.2842C47.125 48.985 47.3628 48.7425 47.6562 48.7425H59.3438ZM47.6562 47.6592C46.776 47.6592 46.0625 48.3867 46.0625 49.2842V58.4925H60.9375V49.2842C60.9375 48.3867 60.224 47.6592 59.3438 47.6592H47.6562Z" fill="black"/>
<path d="M45 59.0342H62C62 59.9316 61.2865 60.6592 60.4062 60.6592H46.5938C45.7135 60.6592 45 59.9316 45 59.0342Z" fill="black"/>
<path d="M5.35228 14.7285C5.3819 14.6841 5.38002 14.6257 5.34761 14.5833C5.3152 14.5409 5.2594 14.5237 5.20874 14.5406L4.45874 14.7906L4.5378 15.0278L4.94218 14.893L4.64427 15.3398C4.61464 15.3843 4.61652 15.4426 4.64893 15.4851C4.68135 15.5275 4.73714 15.5447 4.7878 15.5278L5.19218 15.393L4.89427 15.8398C4.86464 15.8843 4.86652 15.9426 4.89893 15.9851C4.93135 16.0275 4.98714 16.0447 5.0378 16.0278L5.7878 15.7778L5.70874 15.5406L5.30436 15.6754L5.60228 15.2285C5.6319 15.1841 5.63002 15.1257 5.59761 15.0833C5.5652 15.0409 5.5094 15.0237 5.45874 15.0406L5.05436 15.1754L5.35228 14.7285Z" fill="black"/>
<path d="M6 18.6592C8.20914 18.6592 10 16.8683 10 14.6592C10 12.45 8.20914 10.6592 6 10.6592C3.79086 10.6592 2 12.45 2 14.6592C2 16.8683 3.79086 18.6592 6 18.6592ZM2.89899 16.2836L3.89312 15.4551C3.7995 15.2077 3.74827 14.9394 3.74827 14.6592C3.74827 13.4165 4.75563 12.4092 5.99827 12.4092C6.65723 12.4092 7.25003 12.6925 7.66153 13.1439L5.74827 13.9092L6.24827 15.1592L6.91489 16.7146C6.63492 16.8397 6.32471 16.9092 5.99827 16.9092C5.71803 16.9092 5.44976 16.8579 5.20231 16.7643L4.37339 17.759C3.74482 17.4285 3.22907 16.9124 2.89899 16.2836ZM8.24827 14.6592C8.24827 15.3734 7.91553 16.0098 7.39662 16.422L6.74827 14.9092L8.2278 14.3544C8.2413 14.454 8.24827 14.5558 8.24827 14.6592Z" fill="black"/>
<path fill-rule="evenodd" clip-rule="evenodd" d="M5.86014 30.6102C8.11948 30.6102 9.95104 28.7786 9.95104 26.5193C9.95104 24.2599 8.11948 22.4283 5.86014 22.4283C3.60079 22.4283 1.76923 24.2599 1.76923 26.5193C1.76923 28.7786 3.60079 30.6102 5.86014 30.6102ZM6.95829 23.7347C6.99428 23.6191 6.92864 23.4964 6.81167 23.4608C6.6947 23.4252 6.5707 23.4902 6.53471 23.6058L4.76198 29.3038C4.72599 29.4195 4.79164 29.5421 4.90861 29.5777C5.02558 29.6133 5.14957 29.5484 5.18556 29.4327L6.95829 23.7347ZM4.46568 24.8302C4.55222 24.9158 4.55222 25.0546 4.46568 25.1402L3.07124 26.5193L4.46568 27.8984C4.55222 27.9839 4.55222 28.1227 4.46568 28.2083C4.37915 28.2939 4.23884 28.2939 4.15231 28.2083L2.60117 26.6742C2.51463 26.5886 2.51463 26.4499 2.60117 26.3643L4.15231 24.8302C4.23884 24.7447 4.37915 24.7447 4.46568 24.8302ZM7.25458 25.1402C7.16804 25.0546 7.16804 24.9158 7.25458 24.8302C7.34112 24.7447 7.48142 24.7447 7.56796 24.8302L9.11909 26.3643C9.20563 26.4499 9.20563 26.5886 9.11909 26.6742L7.56796 28.2083C7.48142 28.2939 7.34112 28.2939 7.25458 28.2083C7.16804 28.1227 7.16804 27.9839 7.25458 27.8984L8.64903 26.5193L7.25458 25.1402Z" fill="black"/>
<path d="M5.375 37.0342C5.375 36.6545 5.6828 36.3467 6.0625 36.3467C6.4422 36.3467 6.75 36.6545 6.75 37.0342V37.7217H5.375V37.0342Z" fill="black"/>
<path fill-rule="evenodd" clip-rule="evenodd" d="M6 42.6592C8.20914 42.6592 10 40.8683 10 38.6592C10 36.45 8.20914 34.6592 6 34.6592C3.79086 34.6592 2 36.45 2 38.6592C2 40.8683 3.79086 42.6592 6 42.6592ZM7.4375 37.7741V37.0342C7.4375 36.2748 6.82189 35.6592 6.0625 35.6592C5.30311 35.6592 4.6875 36.2748 4.6875 37.0342V37.7741C4.31677 37.8884 4 38.1845 4 38.6154V40.2654C4 40.8266 4.53725 41.1592 5.03125 41.1592H7.09375C7.58775 41.1592 8.125 40.8266 8.125 40.2654V38.6154C8.125 38.1845 7.80823 37.8884 7.4375 37.7741Z" fill="black"/>
<path fill-rule="evenodd" clip-rule="evenodd" d="M58 42.6592C60.2091 42.6592 62 40.8683 62 38.6592C62 36.45 60.2091 34.6592 58 34.6592C55.7909 34.6592 54 36.45 54 38.6592C54 40.8683 55.7909 42.6592 58 42.6592ZM58.0354 37.8369L57.2219 36.1826H55.8513L57.2424 38.6504L55.8137 41.1592H57.1979L58.0354 39.4741L58.8728 41.1592H60.2536L58.8283 38.6504L60.216 36.1826H58.8488L58.0354 37.8369Z" fill="black"/>
<path d="M57.5868 26.7314C57.626 26.8117 57.6796 26.8778 57.7475 26.9295C57.8432 27.0024 57.973 27.0389 58.1371 27.0389C58.2465 27.0389 58.3376 27.0138 58.4105 26.9637C58.4835 26.9113 58.5416 26.8395 58.5849 26.7483C58.6282 26.6549 58.6589 26.5478 58.6771 26.427C58.6954 26.3063 58.7045 26.1764 58.7045 26.0374V25.9656C58.7045 25.8221 58.6942 25.691 58.6737 25.5726C58.6532 25.4518 58.6202 25.347 58.5746 25.2581C58.5313 25.1692 58.4732 25.1009 58.4003 25.053C58.3274 25.0052 58.2374 24.9812 58.1303 24.9812C58.0072 24.9812 57.9035 25.0006 57.8192 25.0394C57.7372 25.0758 57.6711 25.1328 57.621 25.2103C57.6087 25.2296 57.5973 25.2502 57.5868 25.2721V26.7314Z" fill="black"/>
<path fill-rule="evenodd" clip-rule="evenodd" d="M58 30.6592C60.2091 30.6592 62 28.8683 62 26.6592C62 24.45 60.2091 22.6592 58 22.6592C55.7909 22.6592 54 24.45 54 26.6592C54 28.8683 55.7909 30.6592 58 30.6592ZM57.5868 27.5587V29.2811H56.435V24.1609H57.5082L57.5459 24.5014C57.6331 24.3935 57.7333 24.3051 57.8466 24.2361C58.0061 24.1404 58.1964 24.0926 58.4174 24.0926C58.6521 24.0926 58.8583 24.137 59.036 24.2259C59.216 24.3147 59.3664 24.4423 59.4872 24.6087C59.6103 24.7728 59.7025 24.9699 59.7641 25.2C59.8256 25.4301 59.8563 25.6853 59.8563 25.9656V26.0374C59.8563 26.3063 59.8256 26.5558 59.7641 26.7859C59.7025 27.0161 59.6114 27.2166 59.4906 27.3875C59.3699 27.5584 59.2195 27.6917 59.0395 27.7874C58.8617 27.8808 58.6555 27.9275 58.4208 27.9275C58.1998 27.9275 58.0095 27.8785 57.85 27.7806C57.7525 27.7207 57.6647 27.6467 57.5868 27.5587Z" fill="black"/>
<path d="M57.3234 14.6889V14.6068C57.3234 14.4532 57.3352 14.3087 57.3586 14.1732C57.382 14.0352 57.4211 13.9141 57.4758 13.81C57.5305 13.7032 57.6034 13.6199 57.6945 13.56C57.7883 13.5001 57.9042 13.4701 58.0422 13.4701C58.1828 13.4701 58.3 13.5001 58.3937 13.56C58.4875 13.6199 58.5617 13.7032 58.6164 13.81C58.6711 13.9141 58.7102 14.0352 58.7336 14.1732C58.757 14.3087 58.7687 14.4532 58.7687 14.6068V14.6889C58.7687 14.8477 58.757 14.9962 58.7336 15.1342C58.7102 15.2722 58.6711 15.3933 58.6164 15.4975C58.5617 15.599 58.4875 15.6785 58.3937 15.7357C58.3026 15.793 58.188 15.8217 58.05 15.8217C57.9094 15.8217 57.7922 15.793 57.6984 15.7357C57.6047 15.6785 57.5305 15.599 57.4758 15.4975C57.4211 15.3933 57.382 15.2722 57.3586 15.1342C57.3352 14.9962 57.3234 14.8477 57.3234 14.6889Z" fill="black"/>
<path fill-rule="evenodd" clip-rule="evenodd" d="M58 18.6592C60.2091 18.6592 62 16.8683 62 14.6592C62 12.45 60.2091 10.6592 58 10.6592C55.7909 10.6592 54 12.45 54 14.6592C54 16.8683 55.7909 18.6592 58 18.6592ZM56.007 14.6068V14.6889C56.007 14.9962 56.0513 15.2813 56.1398 15.5443C56.2284 15.8047 56.3586 16.0326 56.5305 16.2279C56.7023 16.4206 56.9159 16.5704 57.1711 16.6771C57.4263 16.7839 57.7193 16.8373 58.05 16.8373C58.3807 16.8373 58.6724 16.7839 58.925 16.6771C59.1776 16.5704 59.3898 16.4206 59.5617 16.2279C59.7336 16.0326 59.8638 15.8047 59.9523 15.5443C60.0409 15.2813 60.0852 14.9962 60.0852 14.6889V14.6068C60.0852 14.2969 60.0409 14.0118 59.9523 13.7514C59.8638 13.4883 59.7336 13.2605 59.5617 13.0678C59.3898 12.8751 59.1763 12.7253 58.9211 12.6186C58.6685 12.5092 58.3755 12.4545 58.0422 12.4545C57.7115 12.4545 57.4198 12.5092 57.1672 12.6186C56.9146 12.7253 56.7023 12.8751 56.5305 13.0678C56.3586 13.2605 56.2284 13.4883 56.1398 13.7514C56.0513 14.0118 56.007 14.2969 56.007 14.6068Z" fill="black"/>
<path fill-rule="evenodd" clip-rule="evenodd" d="M58 6.53901C58 2.63558 51.2869 -0.787551 47.5 0.159169L5.72991 6.54498C2.54155 6.68623 0 9.31581 0 12.539V48.539C0 50.8028 1.25366 52.7737 3.10457 53.7954C3.10154 53.7504 3.1 53.705 3.1 53.6592V47.6592C3.1 46.961 3.45778 46.3463 4 45.9886V43.2431C2.2341 42.4716 1 40.7095 1 38.6592C1 36.6088 2.2341 34.8468 4 34.0752V31.2431C2.2341 30.4716 1 28.7095 1 26.6592C1 24.6088 2.2341 22.8468 4 22.0752V19.2431C2.2341 18.4716 1 16.7095 1 14.6592C1 11.8977 3.23858 9.65915 6 9.65915C7.05203 9.65915 8.02817 9.98406 8.83355 10.539H55.1664C55.9718 9.98406 56.948 9.65915 58 9.65915C60.7614 9.65915 63 11.8977 63 14.6592C63 16.7095 61.7659 18.4716 60 19.2431V22.0752C61.7659 22.8468 63 24.6088 63 26.6592C63 28.7095 61.7659 30.4716 60 31.2431V34.0752C61.7659 34.8468 63 36.6088 63 38.6592C63 40.7095 61.7659 42.4716 60 43.2431V45.9886C60.5422 46.3463 60.9 46.961 60.9 47.6592V53.6592C60.9 53.705 60.8985 53.7504 60.8954 53.7954C62.7463 52.7737 64 50.8028 64 48.539V12.539C64 9.2253 61.3137 6.53901 58 6.53901ZM52 6.53901H22.2462L45.5 5.15916C46.7623 4.84359 52 4.35802 52 5.65916V6.53901Z" fill="black"/>
</g>
</svg>
