<svg width="64" height="62" viewBox="0 0 64 62" fill="none" xmlns="http://www.w3.org/2000/svg">
<g id="jsopx-react-core-logo">
<path d="M31.3867 25.5006C30.8365 25.7832 30.3928 26.2046 30.1119 26.7115C29.8309 27.2184 29.7252 27.788 29.8081 28.3483C29.891 28.9086 30.1589 29.4345 30.5777 29.8594C30.9966 30.2843 31.5478 30.5892 32.1614 30.7354C32.7751 30.8817 33.4237 30.8628 34.0252 30.6811C34.6268 30.4994 35.1543 30.1631 35.541 29.7147C35.9278 29.2664 36.1563 28.726 36.1979 28.1621C36.2394 27.5981 36.092 27.0359 35.7743 26.5464C35.3483 25.8902 34.6468 25.4113 33.8239 25.2152C33.0011 25.0191 32.1244 25.1218 31.3867 25.5006ZM45.7834 28.6009C45.5726 28.3865 45.35 28.1716 45.1159 27.956C45.2794 27.8031 45.4377 27.6503 45.5907 27.4976C48.4788 24.6108 49.6978 21.7157 48.5683 19.9752C47.4853 18.3064 44.2636 17.8091 40.2304 18.5067C39.8332 18.5759 39.4381 18.6539 39.0452 18.7407C38.97 18.51 38.89 18.2807 38.8052 18.0527C37.4369 14.3847 35.2267 11.9987 32.9677 12C30.8015 12.0009 28.7079 14.2353 27.3723 17.692C27.2409 18.033 27.1194 18.3768 27.0076 18.7235C26.745 18.6662 26.4812 18.6132 26.2163 18.5646C21.9609 17.7874 18.5335 18.2993 17.4062 20.0408C16.3253 21.7108 17.4558 24.4405 20.1553 27.1961C20.4231 27.4688 20.6984 27.7353 20.9813 27.9958C20.6478 28.3014 20.332 28.6068 20.0377 28.9105C17.4035 31.6273 16.3377 34.3123 17.4169 35.9751C18.5314 37.6927 21.9106 38.2541 26.0236 37.5341C26.357 37.4753 26.6884 37.4092 27.0181 37.3357C27.1388 37.7107 27.2713 38.0824 27.4155 38.4509C28.7452 41.8382 30.827 44.0007 32.9855 44C35.2147 43.9988 37.4494 41.6754 38.8033 38.146C38.9103 37.8671 39.0115 37.5775 39.1074 37.2792C39.5332 37.3735 39.9618 37.4571 40.3931 37.5301C44.3559 38.1971 47.5019 37.6725 48.5791 36.0085C49.6914 34.2897 48.5446 31.4069 45.7834 28.6009ZM18.7379 20.7229C19.4319 19.6509 22.2329 19.2327 25.907 19.9037C26.1418 19.9467 26.3806 19.9947 26.6235 20.0477C26.2648 21.4593 26.0117 22.8906 25.8658 24.332C24.5401 25.1617 23.2762 26.0668 22.0819 27.0417C21.8188 26.7997 21.5627 26.5517 21.3136 26.2979C19.0006 23.9368 18.0865 21.7293 18.7379 20.7229ZM25.7282 29.8878C24.8099 29.2693 23.9565 28.6356 23.182 27.9982C23.956 27.3649 24.8099 26.7333 25.7263 26.1164C25.6934 26.7448 25.6771 27.3737 25.6774 28.0031C25.6778 28.6316 25.6948 29.2598 25.7282 29.8878ZM25.7271 36.1928C24.1682 36.5011 22.5589 36.5517 20.9795 36.3418C20.5465 36.3118 20.125 36.2032 19.7411 36.0225C19.3572 35.8419 19.019 35.5932 18.7475 35.2917C18.0927 34.2827 18.9485 32.1269 21.2013 29.8034C21.4845 29.5122 21.777 29.2286 22.0788 28.9526C23.2732 29.9326 24.5392 30.8413 25.8685 31.6727C26.0164 33.1325 26.2724 34.5821 26.6351 36.0119C26.3341 36.0788 26.0315 36.1391 25.7271 36.1928ZM38.4987 23.3299C37.8955 22.9917 37.2849 22.6644 36.6667 22.348C36.0585 22.0366 35.4429 21.7368 34.82 21.4487C35.8865 21.0498 36.9349 20.7091 37.947 20.4314C38.1856 21.3887 38.3698 22.3561 38.4987 23.3299ZM28.8255 18.1363C29.9698 15.1745 31.663 13.3675 32.9685 13.367C34.3589 13.3664 36.1655 15.3162 37.3467 18.4832C37.4235 18.6896 37.496 18.8972 37.5644 19.106C36.0124 19.5342 34.494 20.0533 33.0192 20.6599C31.5504 20.0462 30.0368 19.5213 28.4887 19.0888C28.5921 18.7689 28.7044 18.4514 28.8255 18.1363ZM28.1055 20.4144C29.1612 20.71 30.1994 21.0529 31.2163 21.4416C29.9564 22.02 28.7289 22.6501 27.5341 23.3318C27.6784 22.311 27.8705 21.333 28.1055 20.4144ZM27.5367 32.6714C28.1326 33.0108 28.7371 33.3376 29.3504 33.6518C29.976 33.9722 30.6099 34.2792 31.2521 34.5727C30.2275 34.9748 29.1803 35.3299 28.1147 35.6366C27.877 34.7052 27.6828 33.71 27.5367 32.6714ZM37.349 37.7042C36.8705 39.0596 36.1157 40.3251 35.1222 41.4374C34.8767 41.756 34.5603 42.0266 34.1926 42.2322C33.825 42.4377 33.4139 42.5741 32.9847 42.6327C31.675 42.6334 30.0033 40.8967 28.8662 38C28.7323 37.6575 28.6091 37.3119 28.4966 36.9632C30.0522 36.5168 31.5719 35.977 33.0454 35.3477C34.5324 35.9582 36.0629 36.4812 37.6269 36.9133C37.5415 37.1789 37.4489 37.4425 37.349 37.7042ZM38.0005 35.5855C36.9767 35.3039 35.9131 34.9575 34.8312 34.5527C35.4411 34.2671 36.0554 33.9656 36.6742 33.648C37.3091 33.3218 37.9279 32.9875 38.5305 32.645C38.4105 33.6326 38.2336 34.614 38.0005 35.5855ZM38.8032 27.9972C38.8045 28.9689 38.7704 29.9398 38.7009 30.9099C37.8147 31.4434 36.8793 31.9643 35.9059 32.4642C34.9366 32.9621 33.9762 33.4196 33.0341 33.8336C32.0427 33.411 31.0705 32.9555 30.1173 32.4672C29.1695 31.9819 28.2435 31.4651 27.3392 30.9168C27.2565 29.947 27.2148 28.9754 27.2142 28.0021C27.2135 27.0294 27.2544 26.0581 27.3366 25.0875C28.2225 24.5493 29.1512 24.0288 30.1114 23.5356C31.076 23.0401 32.0484 22.5845 33.0155 22.1716C33.9946 22.595 34.9562 23.0487 35.9 23.5327C36.8471 24.017 37.7758 24.5282 38.6859 25.0666C38.7641 26.042 38.8031 27.0188 38.8032 27.9972ZM40.5239 19.8487C43.9795 19.2508 46.5849 19.653 47.2377 20.6587C47.933 21.7301 46.9364 24.0963 44.443 26.5888C44.3053 26.7263 44.1622 26.8645 44.0141 27.0032C42.7992 26.0262 41.5109 25.1239 40.1581 24.3026C40.0216 22.877 39.778 21.461 39.4289 20.0643C39.801 19.9829 40.166 19.911 40.5239 19.8487ZM40.2903 26.0642C41.2027 26.6569 42.08 27.2912 42.9186 27.9648C42.0837 28.6493 41.2092 29.2947 40.2986 29.898C40.3265 29.2645 40.3402 28.6307 40.3398 27.9966C40.3394 27.3523 40.3229 26.7082 40.2903 26.0642ZM47.2472 35.3262C46.5935 36.3361 44.0676 36.7572 40.6785 36.1867C40.2902 36.1215 39.8916 36.0439 39.483 35.9538C39.8237 34.5392 40.0565 33.1056 40.1798 31.663C41.5303 30.8274 42.8146 29.9101 44.0235 28.9176C44.235 29.1131 44.4362 29.3077 44.6271 29.5014C45.7082 30.5471 46.5636 31.7608 47.1506 33.082C47.3383 33.4303 47.4438 33.8092 47.4604 34.1952C47.477 34.5812 47.4044 34.9661 47.2472 35.3262Z" fill="black"/>
<path d="M28.6492 45.1166C29.2193 45.2308 29.5888 45.7855 29.4745 46.3555L26.9929 58.7409C26.8787 59.3109 26.324 59.6804 25.754 59.5662L19.5613 58.3254C18.9913 58.2112 18.6218 57.6565 18.736 57.0865L21.2176 44.7011C21.3318 44.1311 21.8865 43.7616 22.4565 43.8758L28.6492 45.1166ZM22.6633 42.8437C21.5233 42.6152 20.4139 43.3542 20.1855 44.4943L17.7039 56.8797C17.4755 58.0197 18.2145 59.1291 19.3545 59.3575L25.5472 60.5983C26.6873 60.8268 27.7966 60.0878 28.0251 58.9477L30.5067 46.5623C30.7351 45.4223 29.9961 44.3129 28.856 44.0845L22.6633 42.8437Z" fill="black"/>
<path d="M22.8645 57.9137C23.4345 58.0279 23.9892 57.6584 24.1034 57.0884C24.2176 56.5184 23.8481 55.9637 23.2781 55.8495C22.708 55.7353 22.1534 56.1048 22.0391 56.6748C21.9249 57.2448 22.2944 57.7995 22.8645 57.9137Z" fill="black"/>
<path d="M32.5446 47.2259C32.7402 46.7318 33.3119 46.4949 33.8215 46.6966L44.8954 51.0803C45.4051 51.2821 45.6597 51.8461 45.4641 52.3402L42.6311 59.4969C42.4355 59.9909 41.8638 60.2279 41.3542 60.0262L30.2803 55.6425C29.7706 55.4407 29.516 54.8766 29.7116 54.3826L32.5446 47.2259ZM28.7887 54.0173C28.3976 55.0054 28.9068 56.1335 29.9261 56.5371L41 60.9207C42.0194 61.3242 43.1628 60.8503 43.5539 59.8622L46.387 52.7055C46.7781 51.7174 46.2689 50.5892 45.2496 50.1857L34.1757 45.802C33.1563 45.3985 32.0129 45.8724 31.6218 46.8606L28.7887 54.0173Z" fill="black"/>
<path d="M43.1248 55.5532C43.3204 55.0592 43.0658 54.4951 42.5561 54.2933C42.0464 54.0916 41.4747 54.3286 41.2791 54.8226C41.0836 55.3167 41.3382 55.8808 41.8478 56.0825C42.3575 56.2843 42.9292 56.0473 43.1248 55.5532Z" fill="black"/>
<path fill-rule="evenodd" clip-rule="evenodd" d="M4.125 47.6592C2 47.6592 2 49.8258 2 49.8258V56.3258C2 58.4925 4.125 58.4925 4.125 58.4925H8.375C8.375 59.2147 8.28646 59.7564 8.10938 60.1175H7.3125C7.0191 60.1175 6.78125 60.36 6.78125 60.6592H14.2188C14.2188 60.36 13.9809 60.1175 13.6875 60.1175H12.8906C12.7135 59.7564 12.625 59.2147 12.625 58.4925H16.875C19 58.4925 19 56.3258 19 56.3258V49.8258C19 47.6592 16.875 47.6592 16.875 47.6592H4.125ZM3.48585 48.8991C3.59131 48.8274 3.77967 48.7425 4.125 48.7425H16.8654C16.8696 48.7427 16.8782 48.7431 16.8906 48.744C16.9205 48.7462 16.9701 48.751 17.0324 48.7616C17.162 48.7837 17.3186 48.8257 17.4623 48.899C17.6019 48.9701 17.7092 49.0599 17.7839 49.1742C17.8542 49.2817 17.9375 49.4737 17.9375 49.8258V56.3161C17.9373 56.3204 17.9369 56.3291 17.9361 56.3418C17.9339 56.3722 17.9291 56.4228 17.9188 56.4863C17.8971 56.6185 17.8559 56.7781 17.784 56.9247C17.7143 57.067 17.6263 57.1764 17.5141 57.2526C17.4087 57.3243 17.2203 57.4092 16.875 57.4092H4.13459C4.13036 57.409 4.12178 57.4086 4.10939 57.4077C4.07953 57.4055 4.02994 57.4007 3.96764 57.3901C3.83801 57.368 3.68141 57.326 3.53766 57.2527C3.39808 57.1816 3.29082 57.0918 3.21608 56.9775C3.14578 56.87 3.0625 56.6779 3.0625 56.3258V49.8356C3.06267 49.8313 3.06307 49.8226 3.06395 49.8099C3.06608 49.7795 3.07086 49.7289 3.08125 49.6654C3.10285 49.5332 3.14408 49.3736 3.21595 49.227C3.28574 49.0847 3.37374 48.9753 3.48585 48.8991Z" fill="black"/>
<path d="M59.3438 48.7425C59.6371 48.7425 59.875 48.985 59.875 49.2842V57.4092H47.125V49.2842C47.125 48.985 47.3629 48.7425 47.6562 48.7425H59.3438ZM47.6562 47.6592C46.776 47.6592 46.0625 48.3867 46.0625 49.2842V58.4925H60.9375V49.2842C60.9375 48.3867 60.224 47.6592 59.3438 47.6592H47.6562Z" fill="black"/>
<path d="M45 59.0342H62C62 59.9316 61.2865 60.6592 60.4062 60.6592H46.5938C45.7135 60.6592 45 59.9316 45 59.0342Z" fill="black"/>
<path d="M5.35228 14.7285C5.3819 14.6841 5.38002 14.6257 5.34761 14.5833C5.3152 14.5409 5.2594 14.5237 5.20874 14.5406L4.45874 14.7906L4.5378 15.0278L4.94218 14.893L4.64427 15.3398C4.61464 15.3843 4.61652 15.4426 4.64893 15.4851C4.68135 15.5275 4.73714 15.5447 4.7878 15.5278L5.19218 15.393L4.89427 15.8398C4.86464 15.8843 4.86652 15.9426 4.89893 15.9851C4.93135 16.0275 4.98714 16.0447 5.0378 16.0278L5.7878 15.7778L5.70874 15.5406L5.30436 15.6754L5.60228 15.2285C5.6319 15.1841 5.63002 15.1257 5.59761 15.0833C5.5652 15.0409 5.5094 15.0237 5.45874 15.0406L5.05436 15.1754L5.35228 14.7285Z" fill="black"/>
<path d="M6 18.6592C8.20914 18.6592 10 16.8683 10 14.6592C10 12.45 8.20914 10.6592 6 10.6592C3.79086 10.6592 2 12.45 2 14.6592C2 16.8683 3.79086 18.6592 6 18.6592ZM2.89899 16.2836L3.89312 15.4551C3.7995 15.2077 3.74827 14.9394 3.74827 14.6592C3.74827 13.4165 4.75563 12.4092 5.99827 12.4092C6.65723 12.4092 7.25003 12.6925 7.66153 13.1439L5.74827 13.9092L6.24827 15.1592L6.91489 16.7146C6.63492 16.8397 6.32471 16.9092 5.99827 16.9092C5.71803 16.9092 5.44976 16.8579 5.20231 16.7643L4.37339 17.759C3.74482 17.4285 3.22907 16.9124 2.89899 16.2836ZM8.24827 14.6592C8.24827 15.3734 7.91553 16.0098 7.39662 16.422L6.74827 14.9092L8.2278 14.3544C8.2413 14.454 8.24827 14.5558 8.24827 14.6592Z" fill="black"/>
<path fill-rule="evenodd" clip-rule="evenodd" d="M5.86014 30.6102C8.11948 30.6102 9.95104 28.7786 9.95104 26.5193C9.95104 24.2599 8.11948 22.4283 5.86014 22.4283C3.60079 22.4283 1.76923 24.2599 1.76923 26.5193C1.76923 28.7786 3.60079 30.6102 5.86014 30.6102ZM6.95829 23.7347C6.99428 23.6191 6.92864 23.4964 6.81167 23.4608C6.6947 23.4252 6.5707 23.4902 6.53471 23.6058L4.76198 29.3038C4.72599 29.4195 4.79164 29.5421 4.90861 29.5777C5.02558 29.6133 5.14957 29.5484 5.18556 29.4327L6.95829 23.7347ZM4.46568 24.8302C4.55222 24.9158 4.55222 25.0546 4.46568 25.1402L3.07124 26.5193L4.46568 27.8984C4.55222 27.9839 4.55222 28.1227 4.46568 28.2083C4.37915 28.2939 4.23884 28.2939 4.15231 28.2083L2.60117 26.6742C2.51463 26.5886 2.51463 26.4499 2.60117 26.3643L4.15231 24.8302C4.23884 24.7446 4.37915 24.7446 4.46568 24.8302ZM7.25458 25.1402C7.16804 25.0546 7.16804 24.9158 7.25458 24.8302C7.34112 24.7446 7.48142 24.7446 7.56796 24.8302L9.11909 26.3643C9.20563 26.4499 9.20563 26.5886 9.11909 26.6742L7.56796 28.2083C7.48142 28.2939 7.34112 28.2939 7.25458 28.2083C7.16804 28.1227 7.16804 27.9839 7.25458 27.8984L8.64903 26.5193L7.25458 25.1402Z" fill="black"/>
<path d="M5.375 37.0342C5.375 36.6545 5.6828 36.3467 6.0625 36.3467C6.4422 36.3467 6.75 36.6545 6.75 37.0342V37.7217H5.375V37.0342Z" fill="black"/>
<path fill-rule="evenodd" clip-rule="evenodd" d="M6 42.6592C8.20914 42.6592 10 40.8683 10 38.6592C10 36.45 8.20914 34.6592 6 34.6592C3.79086 34.6592 2 36.45 2 38.6592C2 40.8683 3.79086 42.6592 6 42.6592ZM7.4375 37.7741V37.0342C7.4375 36.2748 6.82189 35.6592 6.0625 35.6592C5.30311 35.6592 4.6875 36.2748 4.6875 37.0342V37.7741C4.31677 37.8884 4 38.1845 4 38.6154V40.2654C4 40.8266 4.53725 41.1592 5.03125 41.1592H7.09375C7.58775 41.1592 8.125 40.8266 8.125 40.2654V38.6154C8.125 38.1845 7.80823 37.8884 7.4375 37.7741Z" fill="black"/>
<path fill-rule="evenodd" clip-rule="evenodd" d="M58 42.6592C60.2091 42.6592 62 40.8683 62 38.6592C62 36.45 60.2091 34.6592 58 34.6592C55.7909 34.6592 54 36.45 54 38.6592C54 40.8683 55.7909 42.6592 58 42.6592ZM58.0354 37.8369L57.2219 36.1826H55.8513L57.2424 38.6504L55.8137 41.1592H57.1979L58.0354 39.4741L58.8728 41.1592H60.2536L58.8283 38.6504L60.216 36.1826H58.8488L58.0354 37.8369Z" fill="black"/>
<path d="M57.5868 26.7314C57.626 26.8117 57.6796 26.8778 57.7475 26.9295C57.8432 27.0024 57.973 27.0389 58.1371 27.0389C58.2465 27.0389 58.3376 27.0138 58.4105 26.9637C58.4835 26.9113 58.5416 26.8395 58.5849 26.7483C58.6282 26.6549 58.6589 26.5478 58.6771 26.427C58.6954 26.3063 58.7045 26.1764 58.7045 26.0374V25.9656C58.7045 25.8221 58.6942 25.691 58.6737 25.5726C58.6532 25.4518 58.6202 25.347 58.5746 25.2581C58.5313 25.1692 58.4732 25.1009 58.4003 25.053C58.3274 25.0052 58.2374 24.9812 58.1303 24.9812C58.0072 24.9812 57.9035 25.0006 57.8192 25.0394C57.7372 25.0758 57.6711 25.1328 57.621 25.2103C57.6087 25.2296 57.5973 25.2502 57.5868 25.2721V26.7314Z" fill="black"/>
<path fill-rule="evenodd" clip-rule="evenodd" d="M58 30.6592C60.2091 30.6592 62 28.8683 62 26.6592C62 24.45 60.2091 22.6592 58 22.6592C55.7909 22.6592 54 24.45 54 26.6592C54 28.8683 55.7909 30.6592 58 30.6592ZM57.5868 27.5587V29.2811H56.435V24.1609H57.5082L57.5459 24.5014C57.6331 24.3935 57.7333 24.3051 57.8466 24.2361C58.0061 24.1404 58.1964 24.0926 58.4174 24.0926C58.6521 24.0926 58.8583 24.137 59.036 24.2259C59.216 24.3147 59.3664 24.4423 59.4872 24.6087C59.6103 24.7728 59.7025 24.9699 59.7641 25.2C59.8256 25.4301 59.8563 25.6853 59.8563 25.9656V26.0374C59.8563 26.3063 59.8256 26.5558 59.7641 26.7859C59.7025 27.0161 59.6114 27.2166 59.4906 27.3875C59.3699 27.5584 59.2195 27.6917 59.0395 27.7874C58.8617 27.8808 58.6555 27.9275 58.4208 27.9275C58.1998 27.9275 58.0095 27.8785 57.85 27.7806C57.7525 27.7207 57.6647 27.6467 57.5868 27.5587Z" fill="black"/>
<path d="M57.3234 14.6889V14.6068C57.3234 14.4532 57.3352 14.3087 57.3586 14.1732C57.382 14.0352 57.4211 13.9141 57.4758 13.81C57.5305 13.7032 57.6034 13.6199 57.6945 13.56C57.7883 13.5001 57.9042 13.4701 58.0422 13.4701C58.1828 13.4701 58.3 13.5001 58.3937 13.56C58.4875 13.6199 58.5617 13.7032 58.6164 13.81C58.6711 13.9141 58.7102 14.0352 58.7336 14.1732C58.757 14.3087 58.7687 14.4532 58.7687 14.6068V14.6889C58.7687 14.8477 58.757 14.9962 58.7336 15.1342C58.7102 15.2722 58.6711 15.3933 58.6164 15.4975C58.5617 15.599 58.4875 15.6785 58.3937 15.7357C58.3026 15.793 58.188 15.8217 58.05 15.8217C57.9094 15.8217 57.7922 15.793 57.6984 15.7357C57.6047 15.6785 57.5305 15.599 57.4758 15.4975C57.4211 15.3933 57.382 15.2722 57.3586 15.1342C57.3352 14.9962 57.3234 14.8477 57.3234 14.6889Z" fill="black"/>
<path fill-rule="evenodd" clip-rule="evenodd" d="M58 18.6592C60.2091 18.6592 62 16.8683 62 14.6592C62 12.45 60.2091 10.6592 58 10.6592C55.7909 10.6592 54 12.45 54 14.6592C54 16.8683 55.7909 18.6592 58 18.6592ZM56.007 14.6068V14.6889C56.007 14.9962 56.0513 15.2813 56.1398 15.5443C56.2284 15.8047 56.3586 16.0326 56.5305 16.2279C56.7023 16.4206 56.9159 16.5704 57.1711 16.6771C57.4263 16.7839 57.7193 16.8373 58.05 16.8373C58.3807 16.8373 58.6724 16.7839 58.925 16.6771C59.1776 16.5704 59.3898 16.4206 59.5617 16.2279C59.7336 16.0326 59.8638 15.8047 59.9523 15.5443C60.0409 15.2813 60.0852 14.9962 60.0852 14.6889V14.6068C60.0852 14.2969 60.0409 14.0118 59.9523 13.7514C59.8638 13.4883 59.7336 13.2605 59.5617 13.0678C59.3898 12.8751 59.1763 12.7253 58.9211 12.6186C58.6685 12.5092 58.3755 12.4545 58.0422 12.4545C57.7115 12.4545 57.4198 12.5092 57.1672 12.6186C56.9146 12.7253 56.7023 12.8751 56.5305 13.0678C56.3586 13.2605 56.2284 13.4883 56.1398 13.7514C56.0513 14.0118 56.007 14.2969 56.007 14.6068Z" fill="black"/>
<path fill-rule="evenodd" clip-rule="evenodd" d="M58 6.53901C58 2.63558 51.2869 -0.787551 47.5 0.159169L5.72991 6.54498C2.54155 6.68623 0 9.31581 0 12.539V48.539C0 50.8028 1.25366 52.7737 3.10457 53.7954C3.10154 53.7504 3.1 53.705 3.1 53.6592V47.6592C3.1 46.961 3.45778 46.3463 4 45.9886V43.2431C2.2341 42.4716 1 40.7095 1 38.6592C1 36.6088 2.2341 34.8468 4 34.0752V31.2431C2.2341 30.4716 1 28.7095 1 26.6592C1 24.6088 2.2341 22.8468 4 22.0752V19.2431C2.2341 18.4716 1 16.7095 1 14.6592C1 11.8977 3.23858 9.65915 6 9.65915C7.05203 9.65915 8.02817 9.98406 8.83355 10.539H55.1664C55.9718 9.98406 56.948 9.65915 58 9.65915C60.7614 9.65915 63 11.8977 63 14.6592C63 16.7095 61.7659 18.4716 60 19.2431V22.0752C61.7659 22.8468 63 24.6088 63 26.6592C63 28.7095 61.7659 30.4716 60 31.2431V34.0752C61.7659 34.8468 63 36.6088 63 38.6592C63 40.7095 61.7659 42.4716 60 43.2431V45.9886C60.5422 46.3463 60.9 46.961 60.9 47.6592V53.6592C60.9 53.705 60.8985 53.7504 60.8954 53.7954C62.7463 52.7737 64 50.8028 64 48.539V12.539C64 9.2253 61.3137 6.53901 58 6.53901ZM52 6.53901H22.2462L45.5 5.15916C46.7623 4.84359 52 4.35802 52 5.65916V6.53901Z" fill="black"/>
<path d="M28.6492 45.1166C29.2193 45.2308 29.5888 45.7855 29.4745 46.3555L26.9929 58.7409C26.8787 59.3109 26.324 59.6804 25.754 59.5662L19.5613 58.3254C18.9913 58.2112 18.6218 57.6565 18.736 57.0865L21.2176 44.7011C21.3318 44.1311 21.8865 43.7616 22.4565 43.8758L28.6492 45.1166ZM22.6633 42.8437C21.5233 42.6152 20.4139 43.3542 20.1855 44.4943L17.7039 56.8797C17.4755 58.0197 18.2145 59.1291 19.3545 59.3575L25.5472 60.5983C26.6873 60.8268 27.7966 60.0878 28.0251 58.9477L30.5067 46.5623C30.7351 45.4223 29.9961 44.3129 28.856 44.0845L22.6633 42.8437Z" fill="black"/>
<path d="M22.8645 57.9137C23.4345 58.0279 23.9892 57.6584 24.1034 57.0884C24.2176 56.5184 23.8481 55.9637 23.2781 55.8495C22.708 55.7353 22.1534 56.1048 22.0391 56.6748C21.9249 57.2448 22.2944 57.7995 22.8645 57.9137Z" fill="black"/>
<path d="M32.5446 47.2259C32.7402 46.7318 33.3119 46.4949 33.8215 46.6966L44.8954 51.0803C45.4051 51.2821 45.6597 51.8461 45.4641 52.3402L42.6311 59.4969C42.4355 59.9909 41.8638 60.2279 41.3542 60.0262L30.2803 55.6425C29.7706 55.4407 29.516 54.8766 29.7116 54.3826L32.5446 47.2259ZM28.7887 54.0173C28.3976 55.0054 28.9068 56.1335 29.9261 56.5371L41 60.9207C42.0194 61.3242 43.1628 60.8503 43.5539 59.8622L46.387 52.7055C46.7781 51.7174 46.2689 50.5892 45.2496 50.1857L34.1757 45.802C33.1563 45.3985 32.0129 45.8724 31.6218 46.8606L28.7887 54.0173Z" fill="black"/>
<path d="M43.1248 55.5532C43.3204 55.0592 43.0658 54.4951 42.5561 54.2933C42.0464 54.0916 41.4747 54.3286 41.2791 54.8226C41.0836 55.3167 41.3382 55.8808 41.8478 56.0825C42.3575 56.2843 42.9292 56.0473 43.1248 55.5532Z" fill="black"/>
<path fill-rule="evenodd" clip-rule="evenodd" d="M4.125 47.6592C2 47.6592 2 49.8258 2 49.8258V56.3258C2 58.4925 4.125 58.4925 4.125 58.4925H8.375C8.375 59.2147 8.28646 59.7564 8.10938 60.1175H7.3125C7.0191 60.1175 6.78125 60.36 6.78125 60.6592H14.2188C14.2188 60.36 13.9809 60.1175 13.6875 60.1175H12.8906C12.7135 59.7564 12.625 59.2147 12.625 58.4925H16.875C19 58.4925 19 56.3258 19 56.3258V49.8258C19 47.6592 16.875 47.6592 16.875 47.6592H4.125ZM3.48585 48.8991C3.59131 48.8274 3.77967 48.7425 4.125 48.7425H16.8654C16.8696 48.7427 16.8782 48.7431 16.8906 48.744C16.9205 48.7462 16.9701 48.751 17.0324 48.7616C17.162 48.7837 17.3186 48.8257 17.4623 48.899C17.6019 48.9701 17.7092 49.0599 17.7839 49.1742C17.8542 49.2817 17.9375 49.4737 17.9375 49.8258V56.3161C17.9373 56.3204 17.9369 56.3291 17.9361 56.3418C17.9339 56.3722 17.9291 56.4228 17.9188 56.4863C17.8971 56.6185 17.8559 56.7781 17.784 56.9247C17.7143 57.067 17.6263 57.1764 17.5141 57.2526C17.4087 57.3243 17.2203 57.4092 16.875 57.4092H4.13459C4.13036 57.409 4.12178 57.4086 4.10939 57.4077C4.07953 57.4055 4.02994 57.4007 3.96764 57.3901C3.83801 57.368 3.68141 57.326 3.53766 57.2527C3.39808 57.1816 3.29082 57.0918 3.21608 56.9775C3.14578 56.87 3.0625 56.6779 3.0625 56.3258V49.8356C3.06267 49.8313 3.06307 49.8226 3.06395 49.8099C3.06608 49.7795 3.07086 49.7289 3.08125 49.6654C3.10285 49.5332 3.14408 49.3736 3.21595 49.227C3.28574 49.0847 3.37374 48.9753 3.48585 48.8991Z" fill="black"/>
<path d="M59.3438 48.7425C59.6371 48.7425 59.875 48.985 59.875 49.2842V57.4092H47.125V49.2842C47.125 48.985 47.3629 48.7425 47.6562 48.7425H59.3438ZM47.6562 47.6592C46.776 47.6592 46.0625 48.3867 46.0625 49.2842V58.4925H60.9375V49.2842C60.9375 48.3867 60.224 47.6592 59.3438 47.6592H47.6562Z" fill="black"/>
<path d="M45 59.0342H62C62 59.9316 61.2865 60.6592 60.4062 60.6592H46.5938C45.7135 60.6592 45 59.9316 45 59.0342Z" fill="black"/>
<path d="M5.35228 14.7285C5.3819 14.6841 5.38002 14.6257 5.34761 14.5833C5.3152 14.5409 5.2594 14.5237 5.20874 14.5406L4.45874 14.7906L4.5378 15.0278L4.94218 14.893L4.64427 15.3398C4.61464 15.3843 4.61652 15.4426 4.64893 15.4851C4.68135 15.5275 4.73714 15.5447 4.7878 15.5278L5.19218 15.393L4.89427 15.8398C4.86464 15.8843 4.86652 15.9426 4.89893 15.9851C4.93135 16.0275 4.98714 16.0447 5.0378 16.0278L5.7878 15.7778L5.70874 15.5406L5.30436 15.6754L5.60228 15.2285C5.6319 15.1841 5.63002 15.1257 5.59761 15.0833C5.5652 15.0409 5.5094 15.0237 5.45874 15.0406L5.05436 15.1754L5.35228 14.7285Z" fill="black"/>
<path d="M6 18.6592C8.20914 18.6592 10 16.8683 10 14.6592C10 12.45 8.20914 10.6592 6 10.6592C3.79086 10.6592 2 12.45 2 14.6592C2 16.8683 3.79086 18.6592 6 18.6592ZM2.89899 16.2836L3.89312 15.4551C3.7995 15.2077 3.74827 14.9394 3.74827 14.6592C3.74827 13.4165 4.75563 12.4092 5.99827 12.4092C6.65723 12.4092 7.25003 12.6925 7.66153 13.1439L5.74827 13.9092L6.24827 15.1592L6.91489 16.7146C6.63492 16.8397 6.32471 16.9092 5.99827 16.9092C5.71803 16.9092 5.44976 16.8579 5.20231 16.7643L4.37339 17.759C3.74482 17.4285 3.22907 16.9124 2.89899 16.2836ZM8.24827 14.6592C8.24827 15.3734 7.91553 16.0098 7.39662 16.422L6.74827 14.9092L8.2278 14.3544C8.2413 14.454 8.24827 14.5558 8.24827 14.6592Z" fill="black"/>
<path fill-rule="evenodd" clip-rule="evenodd" d="M5.86014 30.6102C8.11948 30.6102 9.95104 28.7786 9.95104 26.5193C9.95104 24.2599 8.11948 22.4283 5.86014 22.4283C3.60079 22.4283 1.76923 24.2599 1.76923 26.5193C1.76923 28.7786 3.60079 30.6102 5.86014 30.6102ZM6.95829 23.7347C6.99428 23.6191 6.92864 23.4964 6.81167 23.4608C6.6947 23.4252 6.5707 23.4902 6.53471 23.6058L4.76198 29.3038C4.72599 29.4195 4.79164 29.5421 4.90861 29.5777C5.02558 29.6133 5.14957 29.5484 5.18556 29.4327L6.95829 23.7347ZM4.46568 24.8302C4.55222 24.9158 4.55222 25.0546 4.46568 25.1402L3.07124 26.5193L4.46568 27.8984C4.55222 27.9839 4.55222 28.1227 4.46568 28.2083C4.37915 28.2939 4.23884 28.2939 4.15231 28.2083L2.60117 26.6742C2.51463 26.5886 2.51463 26.4499 2.60117 26.3643L4.15231 24.8302C4.23884 24.7446 4.37915 24.7446 4.46568 24.8302ZM7.25458 25.1402C7.16804 25.0546 7.16804 24.9158 7.25458 24.8302C7.34112 24.7446 7.48142 24.7446 7.56796 24.8302L9.11909 26.3643C9.20563 26.4499 9.20563 26.5886 9.11909 26.6742L7.56796 28.2083C7.48142 28.2939 7.34112 28.2939 7.25458 28.2083C7.16804 28.1227 7.16804 27.9839 7.25458 27.8984L8.64903 26.5193L7.25458 25.1402Z" fill="black"/>
<path d="M5.375 37.0342C5.375 36.6545 5.6828 36.3467 6.0625 36.3467C6.4422 36.3467 6.75 36.6545 6.75 37.0342V37.7217H5.375V37.0342Z" fill="black"/>
<path fill-rule="evenodd" clip-rule="evenodd" d="M6 42.6592C8.20914 42.6592 10 40.8683 10 38.6592C10 36.45 8.20914 34.6592 6 34.6592C3.79086 34.6592 2 36.45 2 38.6592C2 40.8683 3.79086 42.6592 6 42.6592ZM7.4375 37.7741V37.0342C7.4375 36.2748 6.82189 35.6592 6.0625 35.6592C5.30311 35.6592 4.6875 36.2748 4.6875 37.0342V37.7741C4.31677 37.8884 4 38.1845 4 38.6154V40.2654C4 40.8266 4.53725 41.1592 5.03125 41.1592H7.09375C7.58775 41.1592 8.125 40.8266 8.125 40.2654V38.6154C8.125 38.1845 7.80823 37.8884 7.4375 37.7741Z" fill="black"/>
<path fill-rule="evenodd" clip-rule="evenodd" d="M58 42.6592C60.2091 42.6592 62 40.8683 62 38.6592C62 36.45 60.2091 34.6592 58 34.6592C55.7909 34.6592 54 36.45 54 38.6592C54 40.8683 55.7909 42.6592 58 42.6592ZM58.0354 37.8369L57.2219 36.1826H55.8513L57.2424 38.6504L55.8137 41.1592H57.1979L58.0354 39.4741L58.8728 41.1592H60.2536L58.8283 38.6504L60.216 36.1826H58.8488L58.0354 37.8369Z" fill="black"/>
<path d="M57.5868 26.7314C57.626 26.8117 57.6796 26.8778 57.7475 26.9295C57.8432 27.0024 57.973 27.0389 58.1371 27.0389C58.2465 27.0389 58.3376 27.0138 58.4105 26.9637C58.4835 26.9113 58.5416 26.8395 58.5849 26.7483C58.6282 26.6549 58.6589 26.5478 58.6771 26.427C58.6954 26.3063 58.7045 26.1764 58.7045 26.0374V25.9656C58.7045 25.8221 58.6942 25.691 58.6737 25.5726C58.6532 25.4518 58.6202 25.347 58.5746 25.2581C58.5313 25.1692 58.4732 25.1009 58.4003 25.053C58.3274 25.0052 58.2374 24.9812 58.1303 24.9812C58.0072 24.9812 57.9035 25.0006 57.8192 25.0394C57.7372 25.0758 57.6711 25.1328 57.621 25.2103C57.6087 25.2296 57.5973 25.2502 57.5868 25.2721V26.7314Z" fill="black"/>
<path fill-rule="evenodd" clip-rule="evenodd" d="M58 30.6592C60.2091 30.6592 62 28.8683 62 26.6592C62 24.45 60.2091 22.6592 58 22.6592C55.7909 22.6592 54 24.45 54 26.6592C54 28.8683 55.7909 30.6592 58 30.6592ZM57.5868 27.5587V29.2811H56.435V24.1609H57.5082L57.5459 24.5014C57.6331 24.3935 57.7333 24.3051 57.8466 24.2361C58.0061 24.1404 58.1964 24.0926 58.4174 24.0926C58.6521 24.0926 58.8583 24.137 59.036 24.2259C59.216 24.3147 59.3664 24.4423 59.4872 24.6087C59.6103 24.7728 59.7025 24.9699 59.7641 25.2C59.8256 25.4301 59.8563 25.6853 59.8563 25.9656V26.0374C59.8563 26.3063 59.8256 26.5558 59.7641 26.7859C59.7025 27.0161 59.6114 27.2166 59.4906 27.3875C59.3699 27.5584 59.2195 27.6917 59.0395 27.7874C58.8617 27.8808 58.6555 27.9275 58.4208 27.9275C58.1998 27.9275 58.0095 27.8785 57.85 27.7806C57.7525 27.7207 57.6647 27.6467 57.5868 27.5587Z" fill="black"/>
<path d="M57.3234 14.6889V14.6068C57.3234 14.4532 57.3352 14.3087 57.3586 14.1732C57.382 14.0352 57.4211 13.9141 57.4758 13.81C57.5305 13.7032 57.6034 13.6199 57.6945 13.56C57.7883 13.5001 57.9042 13.4701 58.0422 13.4701C58.1828 13.4701 58.3 13.5001 58.3937 13.56C58.4875 13.6199 58.5617 13.7032 58.6164 13.81C58.6711 13.9141 58.7102 14.0352 58.7336 14.1732C58.757 14.3087 58.7687 14.4532 58.7687 14.6068V14.6889C58.7687 14.8477 58.757 14.9962 58.7336 15.1342C58.7102 15.2722 58.6711 15.3933 58.6164 15.4975C58.5617 15.599 58.4875 15.6785 58.3937 15.7357C58.3026 15.793 58.188 15.8217 58.05 15.8217C57.9094 15.8217 57.7922 15.793 57.6984 15.7357C57.6047 15.6785 57.5305 15.599 57.4758 15.4975C57.4211 15.3933 57.382 15.2722 57.3586 15.1342C57.3352 14.9962 57.3234 14.8477 57.3234 14.6889Z" fill="black"/>
<path fill-rule="evenodd" clip-rule="evenodd" d="M58 18.6592C60.2091 18.6592 62 16.8683 62 14.6592C62 12.45 60.2091 10.6592 58 10.6592C55.7909 10.6592 54 12.45 54 14.6592C54 16.8683 55.7909 18.6592 58 18.6592ZM56.007 14.6068V14.6889C56.007 14.9962 56.0513 15.2813 56.1398 15.5443C56.2284 15.8047 56.3586 16.0326 56.5305 16.2279C56.7023 16.4206 56.9159 16.5704 57.1711 16.6771C57.4263 16.7839 57.7193 16.8373 58.05 16.8373C58.3807 16.8373 58.6724 16.7839 58.925 16.6771C59.1776 16.5704 59.3898 16.4206 59.5617 16.2279C59.7336 16.0326 59.8638 15.8047 59.9523 15.5443C60.0409 15.2813 60.0852 14.9962 60.0852 14.6889V14.6068C60.0852 14.2969 60.0409 14.0118 59.9523 13.7514C59.8638 13.4883 59.7336 13.2605 59.5617 13.0678C59.3898 12.8751 59.1763 12.7253 58.9211 12.6186C58.6685 12.5092 58.3755 12.4545 58.0422 12.4545C57.7115 12.4545 57.4198 12.5092 57.1672 12.6186C56.9146 12.7253 56.7023 12.8751 56.5305 13.0678C56.3586 13.2605 56.2284 13.4883 56.1398 13.7514C56.0513 14.0118 56.007 14.2969 56.007 14.6068Z" fill="black"/>
<path fill-rule="evenodd" clip-rule="evenodd" d="M58 6.53901C58 2.63558 51.2869 -0.787551 47.5 0.159169L5.72991 6.54498C2.54155 6.68623 0 9.31581 0 12.539V48.539C0 50.8028 1.25366 52.7737 3.10457 53.7954C3.10154 53.7504 3.1 53.705 3.1 53.6592V47.6592C3.1 46.961 3.45778 46.3463 4 45.9886V43.2431C2.2341 42.4716 1 40.7095 1 38.6592C1 36.6088 2.2341 34.8468 4 34.0752V31.2431C2.2341 30.4716 1 28.7095 1 26.6592C1 24.6088 2.2341 22.8468 4 22.0752V19.2431C2.2341 18.4716 1 16.7095 1 14.6592C1 11.8977 3.23858 9.65915 6 9.65915C7.05203 9.65915 8.02817 9.98406 8.83355 10.539H55.1664C55.9718 9.98406 56.948 9.65915 58 9.65915C60.7614 9.65915 63 11.8977 63 14.6592C63 16.7095 61.7659 18.4716 60 19.2431V22.0752C61.7659 22.8468 63 24.6088 63 26.6592C63 28.7095 61.7659 30.4716 60 31.2431V34.0752C61.7659 34.8468 63 36.6088 63 38.6592C63 40.7095 61.7659 42.4716 60 43.2431V45.9886C60.5422 46.3463 60.9 46.961 60.9 47.6592V53.6592C60.9 53.705 60.8985 53.7504 60.8954 53.7954C62.7463 52.7737 64 50.8028 64 48.539V12.539C64 9.2253 61.3137 6.53901 58 6.53901ZM52 6.53901H22.2462L45.5 5.15916C46.7623 4.84359 52 4.35802 52 5.65916V6.53901Z" fill="black"/>
</g>
</svg>
