<svg width="16" height="16" viewBox="0 0 16 16" fill="none" xmlns="http://www.w3.org/2000/svg">
<path d="M1.11628 3.59512C1.11628 2.93164 1.695 2.3631 2.49117 2.24442L11.4214 0.913165C12.4492 0.759945 13.3953 1.40734 13.3953 2.26387V2.69423C14.0627 3.01074 14.5116 3.60232 14.5116 4.27985V13.1271H13.3953V4.27985C13.3953 3.77438 12.8956 3.36462 12.2791 3.36462H3.34884C2.73233 3.36462 2.23256 3.77438 2.23256 4.27985V13.1271H1.11628V3.59512Z" fill="white"/>
<path d="M10.7907 14.3474V15.2627H9.58055L9.73733 14.3474H10.7907Z" fill="white"/>
<path d="M6.68306 14.3474H5.5814V15.2627H6.52628L6.68306 14.3474Z" fill="white"/>
<path d="M0 13.4322C0 13.4322 0 12.822 0.744186 12.822H5.2093C5.2093 12.822 5.95349 12.822 5.95349 13.4322V15.2627C5.95349 15.2627 5.95349 15.8728 5.2093 15.8728H3.72093C3.72093 16.0762 3.75194 16.2288 3.81395 16.3304H4.09302C4.19577 16.3304 4.27907 16.3987 4.27907 16.483C4.27907 16.5672 4.19577 16.6355 4.09302 16.6355H1.86047C1.75771 16.6355 1.67442 16.5672 1.67442 16.483C1.67442 16.3987 1.75771 16.3304 1.86047 16.3304H2.13953C2.20155 16.2288 2.23256 16.0762 2.23256 15.8728H0.744186C0.744186 15.8728 0 15.8728 0 15.2627V13.4322ZM0.520354 13.1712C0.481092 13.1927 0.450274 13.2235 0.425833 13.2636C0.400664 13.3048 0.386225 13.3498 0.378658 13.387C0.375022 13.4049 0.373348 13.4191 0.372601 13.4277C0.372291 13.4313 0.372093 13.435 0.372093 13.435V15.2627C0.372093 15.3618 0.401258 15.4159 0.425879 15.4462C0.452053 15.4784 0.489616 15.5036 0.538498 15.5237C0.588837 15.5443 0.64368 15.5562 0.689079 15.5624C0.710896 15.5653 0.728263 15.5667 0.73872 15.5673C0.743057 15.5676 0.747544 15.5677 0.747544 15.5677H5.2093C5.33024 15.5677 5.3962 15.5438 5.43314 15.5237C5.4724 15.5022 5.50321 15.4714 5.52766 15.4313C5.55282 15.39 5.56726 15.3451 5.57483 15.3079C5.57847 15.29 5.58014 15.2757 5.58089 15.2672C5.5812 15.2636 5.5814 15.2599 5.5814 15.2599V13.4322C5.5814 13.333 5.55223 13.279 5.52761 13.2487C5.50144 13.2165 5.46387 13.1912 5.41499 13.1712C5.36465 13.1505 5.30981 13.1387 5.26441 13.1325C5.24259 13.1295 5.22522 13.1282 5.21477 13.1275C5.21043 13.1273 5.20595 13.1271 5.20595 13.1271H0.744186C0.62325 13.1271 0.557286 13.151 0.520354 13.1712Z" fill="white"/>
<path d="M9.62799 12.3473C9.83178 12.369 9.97557 12.522 9.94915 12.6891L9.37498 16.3196C9.34855 16.4867 9.16192 16.6046 8.95813 16.5829L6.7441 16.3476C6.54031 16.3259 6.39652 16.1729 6.42295 16.0058L6.99712 12.3752C7.02354 12.2082 7.21017 12.0903 7.41397 12.1119L9.62799 12.3473ZM7.46181 11.8094C7.05422 11.7661 6.68096 12.0018 6.62811 12.336L6.05394 15.9666C6.00109 16.3007 6.28867 16.6068 6.69626 16.6501L8.91028 16.8855C9.31787 16.9288 9.69113 16.693 9.74398 16.3589L10.3181 12.7283C10.371 12.3941 10.0834 12.0881 9.67584 12.0448L7.46181 11.8094Z" fill="white"/>
<path d="M7.89896 16.1627C8.10276 16.1844 8.28939 16.0665 8.31581 15.8994C8.34224 15.7323 8.19845 15.5793 7.99466 15.5576C7.79086 15.536 7.60423 15.6538 7.57781 15.8209C7.55138 15.988 7.69517 16.141 7.89896 16.1627Z" fill="white"/>
<path d="M15.0698 13.1271C15.1725 13.1271 15.2558 13.1954 15.2558 13.2797V15.5677H10.7907V13.2797C10.7907 13.1954 10.874 13.1271 10.9767 13.1271H15.0698ZM10.9767 12.822C10.6685 12.822 10.4186 13.0269 10.4186 13.2797V15.8728H15.6279V13.2797C15.6279 13.0269 15.378 12.822 15.0698 12.822H10.9767Z" fill="white"/>
<path d="M10.0465 16.0254H16C16 16.2781 15.7501 16.483 15.4419 16.483H10.6047C10.2964 16.483 10.0465 16.2781 10.0465 16.0254Z" fill="white"/>
<path d="M3.85994 10.3966V10.2718L4.58298 9.9979V10.1517L4.06924 10.3325L4.07505 10.3242V10.3442L4.06924 10.3359L4.58298 10.5166V10.6705L3.85994 10.3966Z" fill="white"/>
<path d="M5.38967 9.57712H5.6328V10.3572C5.63236 10.4287 5.61386 10.4902 5.5773 10.5419C5.54074 10.5931 5.48965 10.6327 5.42402 10.6605C5.35884 10.6879 5.28286 10.7017 5.19609 10.7017C5.11681 10.7017 5.04545 10.6901 4.98203 10.667C4.91905 10.6435 4.86905 10.6089 4.83206 10.563C4.79506 10.5171 4.77656 10.4601 4.77656 10.3918H5.02035C5.02079 10.4218 5.02872 10.4476 5.04413 10.4693C5.05999 10.4909 5.08179 10.5076 5.10954 10.5191C5.13729 10.5307 5.16922 10.5365 5.20534 10.5365C5.24454 10.5365 5.27779 10.5298 5.3051 10.5164C5.33241 10.5027 5.35311 10.4825 5.3672 10.4557C5.38174 10.429 5.38923 10.3962 5.38967 10.3572V9.57712Z" fill="white"/>
<path d="M6.63405 9.88209C6.62788 9.83478 6.6019 9.79795 6.55609 9.77159C6.51072 9.74523 6.4517 9.73204 6.37903 9.73204C6.32794 9.73204 6.28411 9.73836 6.24756 9.751C6.211 9.76364 6.18303 9.7808 6.16365 9.80246C6.14427 9.82413 6.13436 9.84887 6.13392 9.87667C6.13392 9.89979 6.14031 9.91983 6.15308 9.9368C6.16629 9.95378 6.18413 9.96822 6.20659 9.98014C6.22906 9.99169 6.25394 10.0014 6.28125 10.0094C6.30856 10.0173 6.33609 10.024 6.36383 10.0294L6.49068 10.0554C6.54178 10.0652 6.59089 10.0784 6.63802 10.095C6.68558 10.1116 6.72809 10.1325 6.76553 10.1578C6.8034 10.1831 6.83336 10.2136 6.85538 10.2494C6.8774 10.2851 6.88841 10.327 6.88841 10.375C6.88841 10.44 6.86815 10.4973 6.82763 10.5467C6.78711 10.5959 6.72853 10.6343 6.65189 10.6621C6.57569 10.6896 6.48342 10.7033 6.37507 10.7033C6.2698 10.7033 6.1784 10.6899 6.10089 10.6632C6.02381 10.6365 5.96346 10.5975 5.91986 10.5462C5.8767 10.4949 5.85335 10.4324 5.84983 10.3588H6.09097C6.0945 10.3974 6.10903 10.4296 6.13458 10.4552C6.16013 10.4808 6.19338 10.5 6.23434 10.5126C6.27574 10.5253 6.32199 10.5316 6.37308 10.5316C6.42638 10.5316 6.47307 10.5251 6.51315 10.5121C6.55367 10.4987 6.58538 10.4803 6.60828 10.4568C6.63119 10.433 6.64286 10.4052 6.6433 10.3734C6.64286 10.3445 6.63251 10.3207 6.61225 10.3019C6.59199 10.2828 6.56358 10.2669 6.52702 10.2542C6.4909 10.2412 6.44862 10.2297 6.40017 10.2196L6.24623 10.1871C6.1348 10.1636 6.04671 10.128 5.98196 10.0803C5.91766 10.0323 5.8855 9.96858 5.8855 9.88913C5.8855 9.82377 5.90709 9.76653 5.95025 9.71742C5.99386 9.66831 6.0531 9.63021 6.12797 9.60312C6.20285 9.57568 6.28764 9.56195 6.38233 9.56195C6.47835 9.56195 6.56248 9.57568 6.63471 9.60312C6.70739 9.63021 6.76442 9.66794 6.80583 9.71634C6.84723 9.76436 6.86859 9.81962 6.86991 9.88209H6.63405Z" fill="white"/>
<path d="M7.53901 10.7027C7.43991 10.7027 7.35402 10.6849 7.28135 10.6491C7.20867 10.6134 7.1523 10.5634 7.11222 10.4991C7.07258 10.4348 7.05275 10.3597 7.05275 10.2737C7.05275 10.1878 7.07258 10.1125 7.11222 10.0478C7.1523 9.98321 7.20867 9.93301 7.28135 9.89726C7.35402 9.86151 7.43991 9.84363 7.53901 9.84363C7.63811 9.84363 7.724 9.86151 7.79668 9.89726C7.86935 9.93301 7.92551 9.98321 7.96515 10.0478C8.00523 10.1125 8.02527 10.1878 8.02527 10.2737C8.02527 10.3597 8.00523 10.4348 7.96515 10.4991C7.92551 10.5634 7.86935 10.6134 7.79668 10.6491C7.724 10.6849 7.63811 10.7027 7.53901 10.7027ZM7.54033 10.5457C7.59407 10.5457 7.63899 10.5336 7.67511 10.5094C7.71123 10.4848 7.7381 10.4519 7.75571 10.4108C7.77377 10.3696 7.7828 10.3237 7.7828 10.2732C7.7828 10.2223 7.77377 10.1762 7.75571 10.1351C7.7381 10.0935 7.71123 10.0605 7.67511 10.0359C7.63899 10.0114 7.59407 9.9991 7.54033 9.9991C7.48528 9.9991 7.43947 10.0114 7.40291 10.0359C7.3668 10.0605 7.33971 10.0935 7.32165 10.1351C7.30403 10.1762 7.29522 10.2223 7.29522 10.2732C7.29522 10.3237 7.30403 10.3696 7.32165 10.4108C7.33971 10.4519 7.3668 10.4848 7.40291 10.5094C7.43947 10.5336 7.48528 10.5457 7.54033 10.5457Z" fill="white"/>
<path d="M8.22826 10.9985V9.85447H8.46346V9.99205H8.47734C8.48967 9.97183 8.50707 9.95034 8.52953 9.92759C8.552 9.90448 8.58239 9.8848 8.62071 9.86855C8.65902 9.85194 8.70792 9.84363 8.76738 9.84363C8.84578 9.84363 8.91647 9.86006 8.97945 9.89293C9.04288 9.92543 9.09309 9.97364 9.13009 10.0376C9.16753 10.1011 9.18624 10.1791 9.18624 10.2716C9.18624 10.3629 9.16797 10.4406 9.13141 10.5045C9.09485 10.5684 9.04508 10.6172 8.9821 10.6507C8.91911 10.6843 8.84776 10.7011 8.76804 10.7011C8.7099 10.7011 8.66167 10.6932 8.62335 10.6773C8.58503 10.6614 8.5542 10.6423 8.53085 10.6199C8.50795 10.5971 8.49011 10.5756 8.47734 10.5554H8.46743V10.9985H8.22826ZM8.4628 10.2705C8.4628 10.3243 8.47205 10.3714 8.49055 10.4119C8.50949 10.4523 8.53658 10.4839 8.57182 10.5067C8.60749 10.529 8.65066 10.5402 8.70131 10.5402C8.75416 10.5402 8.79843 10.5287 8.8341 10.5056C8.86978 10.4821 8.89665 10.4501 8.91471 10.4097C8.93321 10.3689 8.94246 10.3225 8.94246 10.2705C8.94246 10.2188 8.93343 10.173 8.91537 10.1329C8.89731 10.0928 8.87044 10.0614 8.83477 10.0386C8.79909 10.0159 8.7546 10.0045 8.70131 10.0045C8.65022 10.0045 8.60683 10.0155 8.57115 10.0376C8.53548 10.0596 8.50839 10.0905 8.48989 10.1302C8.47183 10.1699 8.4628 10.2167 8.4628 10.2705Z" fill="white"/>
<path d="M9.55375 9.57712L9.85171 9.98339H9.86228L10.1616 9.57712H10.441L10.0241 10.1318L10.4476 10.6865H10.1636L9.86228 10.2829H9.85171L9.55044 10.6865H9.26767L9.69513 10.1318L9.27296 9.57712H9.55375Z" fill="white"/>
<path d="M11.0402 9.7574L10.6913 10.82H10.5238L10.8726 9.7574H11.0402Z" fill="white"/>
<path d="M11.926 10.3966L11.203 10.6705V10.5166L11.7167 10.3359L11.7109 10.3442V10.3242L11.7167 10.3325L11.203 10.1517V9.9979L11.926 10.2718V10.3966Z" fill="white"/>
<path d="M7.33193 6.45771C7.35397 6.4306 7.35258 6.395 7.32845 6.36911C7.30433 6.34321 7.26281 6.33274 7.22511 6.34305L6.66697 6.49558L6.7258 6.6403L7.02674 6.55805L6.80503 6.83071C6.78299 6.85782 6.78439 6.89342 6.80851 6.91931C6.83263 6.94521 6.87415 6.95568 6.91185 6.94537L7.21278 6.86313L6.99108 7.13579C6.96904 7.1629 6.97043 7.1985 6.99455 7.22439C7.01868 7.25029 7.0602 7.26076 7.0979 7.25045L7.65604 7.09791L7.5972 6.9532L7.29627 7.03545L7.51797 6.76279C7.54002 6.73568 7.53862 6.70008 7.5145 6.67418C7.49038 6.64829 7.44886 6.63782 7.41116 6.64812L7.11022 6.73037L7.33193 6.45771Z" fill="white"/>
<path d="M7.81395 8.85603C9.45796 8.85603 10.7907 7.76332 10.7907 6.4154C10.7907 5.06748 9.45796 3.97478 7.81395 3.97478C6.16994 3.97478 4.83721 5.06748 4.83721 6.4154C4.83721 7.76332 6.16994 8.85603 7.81395 8.85603ZM5.50622 7.40654L6.24604 6.90106C6.17638 6.75008 6.13825 6.58639 6.13825 6.4154C6.13825 5.6572 6.88791 5.04255 7.81267 5.04255C8.30306 5.04255 8.74421 5.21539 9.05044 5.49083L7.62662 5.95778L7.99871 6.72048L8.4948 7.66954C8.28645 7.74584 8.0556 7.78825 7.81267 7.78825C7.60412 7.78825 7.40447 7.75699 7.22032 7.69988L6.60345 8.3068C6.13568 8.10513 5.75186 7.79023 5.50622 7.40654ZM9.48709 6.4154C9.48709 6.85116 9.23947 7.2395 8.8533 7.49099L8.37081 6.56794L9.47185 6.22941C9.4819 6.29023 9.48709 6.35232 9.48709 6.4154Z" fill="white"/>
</svg>
