<svg width="260" height="260" viewBox="0 0 260 260" fill="none" xmlns="http://www.w3.org/2000/svg">
<g id="Vector">
<path d="M0 20.3125C0 9.09422 9.09422 0 20.3125 0H239.688C250.906 0 260 9.09422 260 20.3125V239.688C260 250.906 250.906 260 239.688 260H20.3125C9.09422 260 0 250.906 0 239.688V20.3125Z" fill="#0D6EFD"/>
<path d="M56.875 59.9445C56.875 51.1094 63.1934 43.5385 71.886 41.9581L169.386 24.2308C180.608 22.1905 190.938 30.8114 190.938 42.2172V47.9479C198.223 52.1626 203.125 60.0403 203.125 69.0625V186.875H190.938V69.0625C190.938 62.3315 185.481 56.875 178.75 56.875H81.25C74.519 56.875 69.0625 62.3315 69.0625 69.0625V186.875H56.875V59.9445Z" fill="#E5E5E5"/>
<path d="M162.5 203.125V215.312H149.288L150.999 203.125H162.5Z" fill="#E5E5E5"/>
<path d="M117.653 203.125H105.625V215.312H115.941L117.653 203.125Z" fill="#E5E5E5"/>
<path d="M44.6875 190.938C44.6875 190.938 44.6875 182.812 52.8125 182.812H101.562C101.562 182.812 109.688 182.812 109.688 190.938V215.312C109.688 215.312 109.688 223.438 101.562 223.438H85.3125C85.3125 226.146 85.651 228.177 86.3281 229.531H89.375C90.4968 229.531 91.4062 230.441 91.4062 231.562C91.4062 232.684 90.4968 233.594 89.375 233.594H65C63.8782 233.594 62.9688 232.684 62.9688 231.562C62.9688 230.441 63.8782 229.531 65 229.531H68.0469C68.724 228.177 69.0625 226.146 69.0625 223.438H52.8125C52.8125 223.438 44.6875 223.438 44.6875 215.312V190.938ZM50.3687 187.462C49.94 187.748 49.6036 188.158 49.3367 188.692C49.0619 189.241 48.9043 189.84 48.8217 190.336C48.782 190.574 48.7637 190.764 48.7555 190.878C48.7522 190.925 48.7506 190.958 48.75 190.974V215.312C48.75 216.633 49.0684 217.353 49.3372 217.756C49.623 218.185 50.0331 218.521 50.5668 218.788C51.1164 219.063 51.7152 219.221 52.2108 219.303C52.449 219.343 52.6387 219.361 52.7528 219.369C52.8002 219.373 52.833 219.374 52.8492 219.375H101.562C102.883 219.375 103.603 219.057 104.006 218.788C104.435 218.502 104.771 218.092 105.038 217.558C105.313 217.009 105.471 216.41 105.553 215.914C105.593 215.676 105.611 215.486 105.619 215.372C105.623 215.325 105.624 215.292 105.625 215.276V190.938C105.625 189.617 105.307 188.897 105.038 188.494C104.752 188.065 104.342 187.729 103.808 187.462C103.259 187.187 102.66 187.029 102.164 186.947C101.926 186.907 101.736 186.889 101.622 186.881C101.575 186.877 101.542 186.876 101.526 186.875H52.8125C51.4921 186.875 50.7719 187.193 50.3687 187.462Z" fill="#E4ECF2"/>
<path d="M149.806 176.491C152.031 176.779 153.6 178.817 153.312 181.042L147.043 229.387C146.755 231.612 144.717 233.182 142.492 232.894L118.319 229.759C116.094 229.471 114.525 227.433 114.813 225.208L121.082 176.863C121.37 174.638 123.408 173.068 125.633 173.356L149.806 176.491ZM126.155 169.328C121.705 168.751 117.63 171.89 117.053 176.34L110.784 224.686C110.207 229.136 113.347 233.211 117.797 233.788L141.97 236.922C146.42 237.499 150.495 234.36 151.072 229.91L157.341 181.564C157.918 177.114 154.778 173.039 150.328 172.462L126.155 169.328Z" fill="#E4ECF2"/>
<path d="M130.928 227.298C133.153 227.586 135.191 226.016 135.479 223.791C135.768 221.566 134.198 219.529 131.973 219.24C129.748 218.952 127.71 220.521 127.422 222.746C127.133 224.972 128.703 227.009 130.928 227.298Z" fill="#E4ECF2"/>
<path d="M209.219 186.875C210.341 186.875 211.25 187.784 211.25 188.906V219.375H162.5V188.906C162.5 187.784 163.409 186.875 164.531 186.875H209.219ZM164.531 182.812C161.166 182.812 158.438 185.541 158.438 188.906V223.438H215.312V188.906C215.312 185.541 212.584 182.812 209.219 182.812H164.531Z" fill="#E5E5E5"/>
<path d="M154.375 225.469H219.375C219.375 228.834 216.647 231.562 213.281 231.562H160.469C157.103 231.562 154.375 228.834 154.375 225.469Z" fill="#E5E5E5"/>
<path d="M86.8302 150.514V148.853L94.7243 145.206V147.254L89.1153 149.66L89.1788 149.551V149.816L89.1153 149.707L94.7243 152.113V154.161L86.8302 150.514Z" fill="#E5E5E5"/>
<path d="M103.532 139.602H106.186V149.989C106.181 150.942 105.979 151.761 105.58 152.449C105.181 153.132 104.623 153.658 103.907 154.029C103.195 154.394 102.366 154.577 101.418 154.577C100.553 154.577 99.7736 154.423 99.0811 154.115C98.3935 153.803 97.8477 153.341 97.4437 152.73C97.0398 152.12 96.8378 151.36 96.8378 150.451H99.4995C99.5043 150.85 99.5909 151.194 99.7592 151.482C99.9323 151.771 100.17 151.992 100.473 152.146C100.776 152.3 101.125 152.377 101.519 152.377C101.947 152.377 102.31 152.288 102.608 152.11C102.907 151.927 103.133 151.658 103.286 151.302C103.445 150.946 103.527 150.509 103.532 149.989V139.602Z" fill="#E5E5E5"/>
<path d="M117.118 143.663C117.051 143.033 116.767 142.543 116.267 142.192C115.771 141.841 115.127 141.665 114.334 141.665C113.776 141.665 113.297 141.749 112.898 141.918C112.499 142.086 112.194 142.314 111.982 142.603C111.77 142.892 111.662 143.221 111.657 143.591C111.657 143.899 111.727 144.166 111.867 144.392C112.011 144.618 112.206 144.81 112.451 144.969C112.696 145.123 112.968 145.253 113.266 145.358C113.564 145.464 113.865 145.553 114.168 145.625L115.553 145.972C116.11 146.101 116.647 146.277 117.161 146.498C117.68 146.719 118.145 146.998 118.553 147.335C118.967 147.671 119.294 148.078 119.534 148.554C119.775 149.03 119.895 149.588 119.895 150.227C119.895 151.093 119.674 151.855 119.231 152.514C118.789 153.168 118.149 153.68 117.313 154.05C116.481 154.416 115.473 154.599 114.29 154.599C113.141 154.599 112.143 154.421 111.297 154.065C110.455 153.709 109.796 153.19 109.32 152.507C108.849 151.824 108.594 150.992 108.556 150.011H111.189C111.227 150.526 111.386 150.954 111.665 151.295C111.944 151.636 112.307 151.891 112.754 152.06C113.206 152.228 113.711 152.312 114.269 152.312C114.85 152.312 115.36 152.225 115.798 152.052C116.24 151.874 116.586 151.629 116.837 151.317C117.087 150.999 117.214 150.629 117.219 150.206C117.214 149.821 117.101 149.504 116.88 149.254C116.659 148.999 116.348 148.787 115.949 148.619C115.555 148.446 115.093 148.292 114.564 148.157L112.884 147.724C111.667 147.412 110.705 146.938 109.998 146.303C109.296 145.664 108.945 144.815 108.945 143.757C108.945 142.887 109.181 142.125 109.652 141.471C110.128 140.817 110.775 140.309 111.593 139.949C112.41 139.583 113.336 139.4 114.37 139.4C115.418 139.4 116.336 139.583 117.125 139.949C117.919 140.309 118.541 140.812 118.993 141.456C119.445 142.096 119.679 142.831 119.693 143.663H117.118Z" fill="#E5E5E5"/>
<path d="M126.998 154.591C125.916 154.591 124.979 154.353 124.185 153.877C123.392 153.401 122.776 152.735 122.338 151.879C121.906 151.023 121.689 150.023 121.689 148.879C121.689 147.734 121.906 146.731 122.338 145.871C122.776 145.01 123.392 144.341 124.185 143.865C124.979 143.389 125.916 143.151 126.998 143.151C128.08 143.151 129.018 143.389 129.811 143.865C130.605 144.341 131.218 145.01 131.651 145.871C132.088 146.731 132.307 147.734 132.307 148.879C132.307 150.023 132.088 151.023 131.651 151.879C131.218 152.735 130.605 153.401 129.811 153.877C129.018 154.353 128.08 154.591 126.998 154.591ZM127.013 152.5C127.599 152.5 128.09 152.338 128.484 152.016C128.878 151.689 129.172 151.252 129.364 150.703C129.561 150.155 129.66 149.545 129.66 148.871C129.66 148.193 129.561 147.58 129.364 147.032C129.172 146.479 128.878 146.039 128.484 145.712C128.09 145.385 127.599 145.221 127.013 145.221C126.412 145.221 125.911 145.385 125.512 145.712C125.118 146.039 124.822 146.479 124.625 147.032C124.433 147.58 124.337 148.193 124.337 148.871C124.337 149.545 124.433 150.155 124.625 150.703C124.822 151.252 125.118 151.689 125.512 152.016C125.911 152.338 126.412 152.5 127.013 152.5Z" fill="#E5E5E5"/>
<path d="M134.523 158.53V143.295H137.091V145.128H137.243C137.377 144.858 137.567 144.572 137.813 144.269C138.058 143.961 138.39 143.699 138.808 143.483C139.226 143.262 139.76 143.151 140.409 143.151C141.265 143.151 142.037 143.37 142.725 143.808C143.417 144.24 143.966 144.882 144.37 145.734C144.778 146.58 144.983 147.619 144.983 148.85C144.983 150.066 144.783 151.1 144.384 151.951C143.985 152.803 143.441 153.452 142.754 153.899C142.066 154.346 141.287 154.57 140.417 154.57C139.782 154.57 139.255 154.464 138.837 154.252C138.419 154.041 138.082 153.786 137.827 153.488C137.577 153.185 137.382 152.899 137.243 152.629H137.135V158.53H134.523ZM137.084 148.835C137.084 149.552 137.185 150.179 137.387 150.718C137.594 151.256 137.89 151.677 138.274 151.98C138.664 152.278 139.135 152.427 139.688 152.427C140.265 152.427 140.748 152.274 141.138 151.966C141.527 151.653 141.821 151.228 142.018 150.689C142.22 150.146 142.321 149.528 142.321 148.835C142.321 148.148 142.222 147.537 142.025 147.003C141.828 146.469 141.535 146.051 141.145 145.748C140.756 145.445 140.27 145.294 139.688 145.294C139.13 145.294 138.657 145.44 138.267 145.734C137.878 146.027 137.582 146.438 137.38 146.967C137.183 147.496 137.084 148.119 137.084 148.835Z" fill="#E5E5E5"/>
<path d="M148.995 139.602L152.248 145.012H152.364L155.631 139.602H158.682L154.131 146.989L158.755 154.375H155.653L152.364 149.001H152.248L148.959 154.375H145.872L150.539 146.989L145.929 139.602H148.995Z" fill="#E5E5E5"/>
<path d="M165.224 142.003L161.415 156.152H159.586L163.394 142.003H165.224Z" fill="#E5E5E5"/>
<path d="M174.895 150.514L167.001 154.161V152.113L172.61 149.707L172.547 149.816V149.551L172.61 149.66L167.001 147.254V145.206L174.895 148.853V150.514Z" fill="#E5E5E5"/>
<path d="M124.737 98.0634C124.978 97.7024 124.963 97.2283 124.699 96.8835C124.436 96.5387 123.983 96.3993 123.571 96.5365L117.477 98.5677L118.12 100.495L121.405 99.3996L118.985 103.03C118.744 103.391 118.759 103.865 119.023 104.21C119.286 104.555 119.739 104.694 120.151 104.557L123.436 103.462L121.016 107.093C120.775 107.454 120.79 107.928 121.054 108.273C121.317 108.618 121.771 108.757 122.182 108.62L128.276 106.589L127.634 104.661L124.348 105.757L126.769 102.126C127.009 101.765 126.994 101.291 126.731 100.946C126.467 100.601 126.014 100.462 125.602 100.599L122.317 101.694L124.737 98.0634Z" fill="#E5E5E5"/>
<path d="M130 130C147.949 130 162.5 115.449 162.5 97.5C162.5 79.5507 147.949 65 130 65C112.051 65 97.5 79.5507 97.5 97.5C97.5 115.449 112.051 130 130 130ZM104.804 110.698L112.882 103.967C112.121 101.957 111.705 99.7769 111.705 97.5C111.705 87.4035 119.89 79.2188 129.986 79.2188C135.34 79.2188 140.156 81.5204 143.5 85.1882L127.955 91.4062L132.017 101.562L137.433 114.2C135.159 115.216 132.638 115.781 129.986 115.781C127.709 115.781 125.529 115.365 123.519 114.604L116.784 122.686C111.677 120.001 107.486 115.808 104.804 110.698ZM148.267 97.5C148.267 103.303 145.564 108.474 141.348 111.823L136.08 99.5312L148.101 95.0233C148.211 95.8332 148.267 96.66 148.267 97.5Z" fill="#E5E5E5"/>
</g>
</svg>
